<svg
      xmlns="http://www.w3.org/2000/svg"
      width="958.277"
      height="1024"
      overflow="visible"
      version="1.1"
      viewBox="0 0 958.277 1024"
      xmlSpace="preserve"
    >
      <path d="M675.912 106.596c-3.925 1.079.051 5.626 1.135 7.938 2.336 4.98 4.581 8.985 9.071 12.474 1.014.787.869 1.624 2.269 2.268 1.018.47 2.259-.271 2.268 1.135-.024 2.671 1.954 3.339 1.136 6.804.63.654.618 1.46 1.134 2.268.341.535.961.842 1.134 1.135.572.967 2.183 2.908 2.269 4.535.019.349.869 1.871 1.134 2.269.464.693 1.902 1.627 2.269 2.268 1.287 2.258 2.159 4.332 3.402 6.805.681 1.354.417 2.249 1.134 3.401.44.71 1.908 1.626 2.268 2.269.233.416-.349 1.981 0 2.268 1.541 1.261 1.897 2.045 3.402 4.536 3.271 5.414 7.646 10.699 12.474 15.876-.556 5.093.575 8.497 1.135 12.474 4.021 6.564 12.288 8.88 18.145 13.608 1.354 5.828 3.228 11.136 6.804 14.742 1.064 1.785.467 4.408 1.135 6.804.579 2.081 1.938 3.608 2.269 5.67 1.021 6.356-1.108 13.242 2.268 18.145.202 1.377 1.39 1.548 2.27 2.268.71.581 1.567 1.772 2.268 2.268 1.081.767 2.488.283 3.402 1.135.508.473.61 1.858 1.134 2.268.885.693 2.406.387 3.402 1.134.616.463.565 1.791 1.134 2.269 2.212 1.862 3.603 1.937 4.536 5.67.289 1.158.862.55 1.134 1.134.93 2.006 1.313 6.299 4.536 7.938-.642 2.919.41 5.598 1.134 7.938.052.165.94.363 1.134 1.134.924 3.692 1.498 8.361 5.67 10.206-.232 3.313 1.623 5.236 3.402 6.804 1.016.896 2.019.442 3.401 1.135 1.799.898 2.916 2.363 5.671 3.401.399.151 2.018-.306 2.268 0 .11.134-.143 1.065 0 1.134 1.675.805 3.832 1.453 5.67 2.269.416.184.158.89 1.135 1.134 5.733 1.434 8.355 6.061 12.475 10.206 1.369 1.379 3.16 2.027 4.535 3.402 2.868 2.868 4.43 6.832 10.206 7.938 1.075 2.326 1.406 5.397 4.536 5.67 1.771 1.631 3.946 2.857 4.535 5.67.906 6.954-7.199 4.896-7.938 10.206 1.748 2.41 7.835.481 9.071 3.402 6.313 2.002 8.23 8.4 13.607 11.34 9.955 1.261 15.837-1.552 20.412-5.67h13.607c4.408-.883 6.371-4.212 10.205-5.67 6.232.945 11.554-1.153 17.011-2.269 2.869-.586 6.144-.479 9.071-1.134 2.806-.625 5.611-3.507 9.072-2.268 2.327.034 1.92-3.265 4.536-3.402.302-.016.855.111 1.134 0 .709-.284.904-1.049 1.135-1.134 2.89-1.063 5.733-1.509 10.205-1.134 1.845 3.716-.256 4.335 0 9.071.703 3.078-1.438 9 1.136 10.206-1.111 4.183-4.968 5.618-6.806 9.072-.184 3.501 2.681 6.41 0 9.072.491 4.271-2.396 5.165-4.535 6.804 1.101 5.224-1.855 7.114-3.401 10.206-.672 1.342-.327 2.316-1.135 3.402-1.213 1.631-4.307 2.287-4.535 4.536v6.804c.5 3.517-3.169 2.685-3.402 6.804-.037.662.208 1.645 0 2.269-.859 2.575-3.21 5.511-2.268 9.071-.549.839-1.661 1.525-2.27 2.269-.562.687-1.873 1.668-2.268 2.268-1.2 1.824-1.101 4.121-2.27 5.67-1.136 1.506-3.353 1.997-4.535 3.402-1.209 1.436-.334 4.14-3.401 4.536 1.04 3.395-1.692 3.368-2.269 5.67-.523 2.094-.842 2.385-2.269 4.536-.419.632-1.063-.181-1.134 1.134-.084 1.598-5.865 7.015-7.938 9.072-2.409 2.391-5.53 4.813-7.938 6.804-1.361 6.577-7.233 8.643-10.206 13.608-5.926.878-7.383 6.226-13.608 6.804-1.894 2.894-4.377 5.541-6.804 7.938-6.82 6.737-14.896 14.265-22.68 21.546-1.479 7.973-8.59 10.312-11.34 17.011-3.016-.976-2.021 2.136-4.536 2.269-1.911.102-2.298 3.284-4.536 3.401-.979.052-3.319 1.825-3.402 3.401-.113 2.157-7.775 5.989-7.938 9.072-.08 1.506-2.184 1.773-2.27 3.401-.086 1.635-2.158 2.452-2.268 4.536-.027.521-.848 1.652-1.134 2.269-.192.411.328 1.998 0 2.268-.134.108-1.067-.142-1.136 0-.193.412.331 1.997 0 2.27-.935.765-1.996.811-2.268 2.268-.533 2.857-1.572 2.259-3.402 4.536-.315.396.381 1.957 0 2.269-1.811 1.48-4.661 4.569-6.804 6.805-.354 1.796.467 3.903 0 5.67-.396 1.493-1.867 1.813-2.269 3.401-.951 3.775-2.669 11.029 0 14.741 1.809 2.517 7.179 4.113 7.938 9.072-2.747.654-2.521 4.282-3.401 6.805.572 5.209-.777 9.934 0 14.741.26 1.603 1.269 2.228 2.269 4.536 1.406 3.246.576 5.323 2.268 7.938.407.629 1.065-.177 1.136 1.134.104 1.979 1.567 7.171 3.4 9.072 1.799 1.864 3.451 3.247 5.67 5.67.741.81 1.902 1.093 2.27 2.269 1.04 3.396-1.692 3.367-2.27 5.67-.163.653.281 1.662 0 2.269-.351.756-1.925 1.632-2.268 2.269-2.262 4.198-.504 15.179-1.134 24.947-.513 7.932-3.225 14.523 2.268 19.278-1.641 1.761-1.513 5.292-3.402 6.804-1.562 1.462-1.122 4.926-1.134 7.938-2.576 2.277-5.618 4.289-7.938 6.805-1.118 1.212-2.548 2.21-3.402 3.401-1.005 1.401-.848 3.433-2.268 4.535-4.204 1.845-8.079 4.019-10.206 7.938h-7.938c-4.933 4.193-11.67 5.364-17.01 9.071-4.698 3.263-7.973 7.74-11.34 12.475-1.45 1.574-5.354.693-6.805 2.268-2.739 2.026-5.974 5.335-10.205 9.072-3.732 3.296-8.35 4.929-9.072 9.072-.476 2.715.063 5.197 1.134 6.804.239.358 1.088 1.042 1.134 1.134.529 1.063 1.861 1.512 2.27 2.27.648 1.207-.761 3.52 1.134 3.4v10.206c.583 3.776 3.131 5.284 3.401 9.072.368 5.146-3.641 10.296-4.535 14.742-.872 4.272 1.383 5.421 1.134 9.071-2.582 3.007-4.395 5.684-7.938 7.938-1.131.72-2.341.544-3.401 1.134-.599.333.149 1.066-1.135 1.135-.428.022-3.165-.289-3.401 0-.867 1.061-.82 1.718-2.269 2.269-2.016.768-4.632.396-6.805 1.134-.868.295-.865 1.938-2.268 2.27-.946.222-2.537-.422-3.402 0-2.265 1.102-2.784 1.659-4.536 3.4-1.012 1.007-2.269 1.837-3.401 3.402.417 4.714 1.341 8.794 0 13.606-.096.346-1.134.021-1.134 1.136 0 .662 1.065 1.463 1.134 1.134-.797 3.841-1.224 4.892-2.269 9.071-.25 1-.77 1.944-1.134 3.401-.271 1.081-.938.639-1.134 1.134-.937 2.355-1.313 5.395-2.27 6.806-1.115 1.646-3.976 3.021-5.67 4.536-.88.785-1.331 2.746-2.268 3.4-1.096.766-2.465.299-3.402 1.134-.881.786-1.331 2.748-2.268 3.402-1.088.761-2.499.268-3.402 1.134-.743.714-.399 2.668-1.134 3.402-.8.8-2.561.35-3.402 1.134-3.46 3.22-6.789 7.065-10.206 10.206-3.391 3.117-7.011 6.167-10.205 9.072-3.672 3.339-6.774 7.03-10.206 10.206-3.228 2.984-6.834 5.893-10.206 9.07-.896.845-1.317 2.662-2.269 3.402-.803.625-2.553.418-3.401 1.134-1.563 1.319-2.908 3.126-4.535 4.536-1.709 1.479-2.762 4.288-4.536 5.67-.936.728-2.466.552-3.402 1.134-.229.145-.684.834-1.134 1.135-.571.382-1.371-.01-1.134 1.135h-9.072c-2.128-.033-3.276 1.836-5.67 2.268-10.6 1.915-26.776-1.431-38.556 0-4.067-.286-4.155 3.405-7.938 3.402h-12.474c-4.609-.451-3.489 4.826-6.805 5.67-5.521.605-5.307-4.521-9.071-5.67-8.388-3.71-11.479-12.714-15.876-20.412-.614-4.017 4.016-2.788 3.401-6.805-.369-4.406.892-10.786-1.134-14.741-.357-.697-1.982-1.675-2.268-2.269-.979-2.034-1.195-4.671-2.269-6.805-.375-.744-1.925-1.631-2.268-2.268-1.172-2.178-.728-3.941-2.269-6.805-.379-.704-1.962-1.66-2.268-2.269-.984-1.958-1.17-4.584-2.269-6.805-.37-.747-1.925-1.631-2.268-2.269-1.188-2.205-1.049-3.721-2.269-6.804-.133-.336-.906-.226-1.134-1.134-.54-2.161-.957-2.272-2.268-4.536-.494-.854-.477-2.407-1.134-3.402-.723-1.092-1.43-.294-2.269-1.134-.354-.354.383-1.954 0-2.269-.213-.175-.94.193-1.134 0-2.664-2.664-6.22-7.757-10.206-10.206-.624-2.647.822-3.854 0-6.804-.414-1.485-1.988-1.787-2.268-3.401-.966-5.572.814-11.49-3.402-14.742v-10.206c1.193-4.974-3.835-3.726-3.402-7.938-1.862-5.708 2.531-13.935 0-19.277-.17-.358-2.203-.895-2.268-1.135-1.072-3.93.646-6.275-1.134-9.071-.287-.45-1.037-.949-1.135-1.135-.539-1.021-.344-3.242-1.134-4.535-.273-.449-2.094-.748-2.268-1.135-.708-1.571-.487-3.771-3.402-4.536.087-3.023-.809-4.515-2.268-6.804-.82-1.287-1.272-2.362-2.269-3.401-.776-.813-1.069-3.426-2.268-5.67-.313-.588-1.067.141-1.134-1.135-.042-.79-1.198-3.42-2.269-4.536-1.341-1.399-2.448-5.188-4.536-7.938-2.065-.711-1.668-3.859-3.401-5.67-.507-.529-2.147-2.905-3.402-4.535-.488-.634-1.921-1.655-2.268-2.269-.697-1.229-.558-2.277-1.134-3.402-.113-.22-.857-4.31-1.135-4.535-.133-.108-1.066.142-1.134 0-.195-.412.331-1.998 0-2.269-2.81-2.299-1.672-18.673 0-23.813.125-.387 1.075-.021 1.134-1.135.139-2.618.219-3.379 1.135-5.67.45-1.127.736-1.815 1.134-3.401.216-.863 1.076-.903 1.134-1.134.566-2.238-.377-4.742 0-6.805.326-1.784 1.465-2.417 2.268-4.536.446-1.178.093-7.086 1.135-7.938.133-.107 1.066.143 1.134 0 .195-.411-.331-1.996 0-2.269 1.006-.822.988-3.437 2.268-5.67.27-.468 2.089-.737 2.269-1.134.233-.52-.358-1.846 0-2.269 1.826-2.155 3.8-3.73 5.67-5.67.347-.358 1.956.382 2.268 0 .187-.228-.183-.903 0-1.135.782-.983 1.704-3.093 3.402-4.535.282-3.163-.407-5.342 0-7.938.405-2.587 1.85-3.363 2.268-5.67.523-2.886.187-8.966-1.134-11.341-.333-.598-1.066.15-1.134-1.134-.076-1.455-1.648-1.441-2.269-2.269-.302-.402.376-1.96 0-2.269-.85-.694-1.39-2.995-2.268-5.67-.128-.392-1.075-.017-1.134-1.134-.084-1.601.326-3.219-1.135-3.402.729-.968.235-3.801 1.135-4.535.106-.088 1.096.111 1.134 0 .553-1.642-.894-4.442 1.134-4.536-3.072-4.335-1.894-9.201-3.402-13.607-.993-2.903-2.686-6.169-4.535-9.072-.341-.534-.961-.842-1.135-1.134-.952-1.607-1.292-3.229-2.268-5.67-.366-.914-.891-.657-1.134-1.135-1.29-2.535-1.722-7.294-4.536-10.206v-7.938c1.167-4.164-6.592-5.037-6.804-9.071-.094-1.77-3.001-2.521-4.536-4.536-.705-.927-.613-2.464-1.134-3.401-.332-.599-1.066.149-1.135-1.134-.079-1.497-6.99-8.125-9.071-10.206-5.339-5.34-10.497-9.302-15.876-15.876-1.783-2.179-2.717-4.642-4.536-9.072-2.019-4.912-4.365-10.07 2.268-13.607-1.654-4.087 2.68-6.099 3.402-9.071.589-2.425-1.428-5.548 1.134-7.938-.512-4.024-3.827-5.244-4.536-9.072 1.731-2.049 4.087-3.473 3.402-7.938a15.969 15.969 0 005.67-5.67c-.646-5.143.884-10.663 0-14.742-.521-2.397-3.788-3.229-2.269-5.67-.654-2.747-4.281-2.521-6.804-3.401-3.462-3.72-5.993-8.372-11.34-10.206-5.566-1.031-4.319 4.752-9.072 4.536-3.433-.348-4.052-3.509-9.071-2.269-6.197.607-8.685 4.924-17.011 3.402-.164-2.191-3.249-.496-3.401-3.402-.051-.968-1.721-2.511-2.269-3.401-1.706-2.772-3.036-8.857-5.67-12.475-2.789-3.828-6.581-5.853-10.206-9.071-9.583 1.45-18.207-1.959-27.216 0-1.097.237-3.263 2.065-6.804 1.134-.288-.076-.099-1.08-1.134-1.134-.354-.02-.782-.044-1.135 0-3.118.386-5.735 3.82-9.071 2.268-2.989.791-2.397 5.163-5.67 5.67h-7.938c-3.042 2.593-7.311 1.762-10.206 4.536-1.158 1.109-5.526 1.865-7.938 3.402-1.24.791-2.129 1.456-3.402 2.268-.446.285-.955 1.04-1.134 1.134-2.496 1.31-5.768 1.24-7.938 3.402-1.876-1.364-4.481-1.278-6.804-2.269-.685-.292-1.714-2.03-2.269-2.268-.627-.269-1.601.167-2.268 0-1.257-.314-2.269-.685-5.67-1.134-5.844-.772-16.111-1.926-23.814 0-.864.216-.901 1.075-1.134 1.134-2.422.615-5.63.461-7.938 1.134-.335.098-.062 1.077-1.135 1.134-.301.017-.855-.11-1.134 0-1.127.451-1.815.737-3.401 1.135-1.024.256-.706.98-1.135 1.134-1.332.474-3.224-.52-4.535 0-.938.371-.796 1.934-2.269 2.268-2.157.49-4.62-.369-6.804 0-2.253.016-1.442 3.095-4.536 2.269-6.795-2.48-12.768-3.405-18.145-6.805-1.104-.697-2.326-2.548-3.401-3.401-1.092-.867-2.326-1.357-3.402-2.269-1.904-1.611-3.707-4.082-5.67-5.67-1.38-1.117-3.079-1.019-4.536-2.268-.95-.814-1.311-2.629-2.268-3.402-.395-.317-1.957.38-2.269 0-4.02-4.914-11.808-10.303-17.01-15.876-6.38.71-6.994-4.346-12.474-4.536-.844-2.869-3.715-4.26-5.67-6.804-.478-.621-4.447-3.973-4.536-5.67-.081-1.532-2.297-2.901-3.402-4.536.012-3.012-.428-6.476 1.134-7.938-4.099-6.863-7.225-14.699-14.741-18.145.186-3.588-3.015-3.791-2.269-7.938-4.475-.817-7.43-3.154-10.206-5.671-.173-3.605-2.57-4.988-2.268-9.071.19-2.459-4.022-.515-5.67-1.134-.495-1.396-1.451-2.329-3.402-2.269-2.476-3.573-5.972-6.124-7.938-10.206.251-1.058-.314-2.363 0-3.402.311-1.028.916-.637 1.134-1.134.465-1.059.607-1.979 1.134-3.401.974-2.631.593-5.782 3.402-6.805-2.539-6.154-5.472-11.917-9.072-17.01-.33-2.268 1.212-2.503 2.268-3.402 1.627-1.386 2.709-2.303 4.536-4.535.471-.576 1.967-1.702 2.269-2.269.221-.415-.345-1.987 0-2.268.726-.595 3.31-3.745 2.268-7.938.404-.79 2.621-2.123 3.402-3.401.253-.415-.358-1.976 0-2.269.133-.107 1.066.142 1.134 0 .195-.412-.331-1.998 0-2.268.832-.68 1.13-2.666 2.268-5.67.173-.457 1.072.036 1.135-1.134.097-1.839.886-1.926 1.134-3.402.784-4.672.089-10.549 0-15.876-.079-4.763.874-9.553-1.134-13.608 1.313-4.624 5.517-7.158 4.535-14.742-.549-4.245-3.681-7.193-6.804-10.205-.972-.938-2.175-1.591-3.402-2.269 2.148-10.325 7.443-17.504 14.742-22.68-.876-1.968.83-2.742 1.135-3.402.188-.411-.328-2 0-2.268.147-.122 1.046.156 1.134 0 1.446-2.601 2.732-4.086 4.536-6.805.419-.632 1.064.181 1.134-1.134.136-2.579 5.885-5.419 7.938-7.938 1.056-1.293 1.195-3.26 2.269-4.536 1.05-1.249 4.407-2.085 4.536-4.536.054-1.033 1.339-2.01 2.268-2.268-1.134-3.022 1.719-5.744 2.268-7.938 1.189-4.758 3.552-7.296 7.938-10.206.632-.419-.18-1.065 1.134-1.134 2.01-.106 7.406-4.934 9.072-6.804 3.051-3.429 3.98-7.14 6.804-11.341 10.592-1.126 21.316-2.121 26.082-9.071 2.798 1.613 3.177-1.579 4.536-2.269 1.486-.753 3.095-.242 4.536-1.134 1.281-.792 4.063-2.959 5.67-4.536 1.636-1.604 3.722-3.438 4.536-4.536.95-1.279.257-3.154 1.134-4.536.656-1.032 1.819-.729 2.269-2.268 1.216-4.166-.491-8.235 0-11.34.986-6.251 6.316-12.932 10.205-18.145.479-.641 1.064.188 1.135-1.134.079-1.506 2.182-1.772 2.268-3.401.227-4.301 9.208-10.098 13.608-12.475.957-.517 2.215-.492 3.401-1.134.485-.262.729-2.085 1.135-2.269 1.795-.809 3.21-.035 5.67-1.134.525-.234-.092-1.069 1.134-1.134 1.588-.083 7.445-2.654 9.072-4.536.601-.694.61-1.448 1.134-2.268.791-1.241 1.456-2.128 2.268-3.402.82-1.287 1.272-2.363 2.269-3.402.471-.491 4.415-4.668 4.536-6.804.182-3.214 3.057-4.348 5.67-6.804 7.104-.301 6.21 7.397 11.34 9.072 3.544.017 6.661-.022 10.206 0-.297-.001.561 1.851 1.134 1.134 2.436-3.044 12.185-.51 14.742 2.268h12.474c4.782-.889 4.949-6.391 9.072-7.938 3.934-.91 4.358 1.688 7.938 1.134 4.681-1.368 6.302-5.795 10.206-7.938 3.996 1.7 7.495-1.896 10.206-2.268 9.659-1.319 21.281 2.154 27.216-3.402 10.778-.939 25.648 2.212 32.887-2.268 2.741-.566 4.514 1.889 6.804 2.268 3.886.644 9.634-.9 14.742 0 1.876.331 4.292 1.545 7.938 0 2.112-.896 1.35-1.471 4.536-2.268.295-.074 3.116-3.4 3.402-3.402 1.818-.011 2.304 3.285 4.536 3.402 1.305.069 2.027.048 2.268 1.134 2.079 1.323 3.84 2.964 5.67 4.536 2.371-.653 3.237-2.811 6.804-2.268.503 6.928-7.175 5.677-7.938 11.34.595 3.265 3.177 4.041 4.536 5.67 1.429 1.713 3.32 2.902 3.401 5.67.09 3.019-1.436 4.522-3.401 6.804-1.421 1.648-2.855 3.009-4.536 4.536-.813.737-2.56.49-3.402 1.134-.626.479-1.641 1.665-2.268 2.269-1.768 1.697-3.433 2.468-3.402 5.67 2.072 4.965 7.387 2.754 11.34 1.134 1.008 2.017 3.166 2.882 2.269 6.804 2.7.495 2.539 3.271 4.536 4.536.724.459 3.978.437 5.67 1.134 1.377.568 1.849 1.979 3.401 2.269 8.356 1.558 19.482-2.712 23.813 3.401h11.34c1.536 2.623 4.559 3.758 3.402 9.072 1.885 1.985 3.244 4.908 5.67 6.804 1.953 1.527 6.258 1.101 6.804 4.536 2.601.295 5.352-.394 7.938 0 1.642.25 4.037 1.989 5.671 2.269 2.771.474 4.724-.563 6.804 0 .299.081.089 1.079 1.134 1.134 1.622.085 4.08 4.014 9.072 2.268 1.702 4.336 6.957 6.782 12.474 5.67 3.714-.748 4.299-3.364 6.804-4.535-.291-3.368.389-6.85 0-10.206-.406-3.526-1.146-5.401-2.268-7.938 1.395-.495 2.329-1.451 2.268-3.401-.796-4.198 4.849-1.956 5.67-4.536 2.321-.76 2.901-3.355 5.67-4.536 1.977-.843 6.548 1.445 6.805-2.269 3.52-.117 3.236 3.568 7.938 2.269 4.205-.805 4.866 1.937 9.071 1.134 2.627 1.91 2.782 6.291 5.671 7.938 5.777.168 10.74-.721 14.741 1.134.446.207.133.883 1.135 1.134.625.156 1.705-.297 2.269 0 2.027 1.069 2.665 2.713 4.535 3.402 2.693 1.632 11.779-2.234 13.607 0 .109.133-.141 1.066 0 1.134.412.195 1.998-.331 2.27 0 1.563 1.91 7.52 1.104 11.34 2.268.354.108.045 1.077 1.134 1.134.302.017.855-.11 1.134 0 1.465.586 4.119.301 7.938 1.135 5.503 1.201 9.771 3.962 14.741 3.401.337-.038 2.079.23 2.269 0 .107-.133-.143-1.066 0-1.134.412-.195 1.997.331 2.269 0 .91-1.112.996-1.458 2.269-2.268.384-.245 3.096-.761 3.401-1.135 1.404-1.717 2.086-1.84 4.535-3.401 2.108-1.344 4.544-.002 9.072-1.134 1.208-.303 3.133-.827 6.805-1.135 1.59-.133 3.227.364 3.401-1.134 3.477 1.438 5.967 3.861 9.072 5.67 3.68-.23 6.244.313 9.071 0 4.731-.524 7.683-3.328 12.475-3.401.042 1.677.6 2.154 1.134 3.401.369.862.555 2.305 1.134 3.402.417.789 1.844 1.585 2.27 2.268.758 1.22 1.796 2.649 2.268 4.536.167.668-.27 1.642 0 2.269.279.65 2.064 1.749 2.269 2.268.928 2.362.313 2.389 1.135 5.67.575 2.304.469 2.379 0 6.804-.498 4.693 1.229 10.823-1.135 15.876-3.311 2.978-6.533-1.008-11.341 0-.271-1.044.339-2.38 0-3.401-1.594-4.817-3.669-7.483-5.67-11.34-3.095-2.578-2.874-8.47-9.074-7.94z"></path>
      <path d="M921.99 713.284c1.832-.318 1.952 1.071 3.402 1.134.863 1.135 1.385 2.255 2.268 3.402.389.504 2.074 1.807 2.27 2.269.669 1.591-.444 3.989 0 5.67.394 1.488 2.013 1.781 2.268 3.401.813 5.161-.329 11.173 0 17.01.399 7.072 1.375 14.084 3.402 19.278-3.188 2.627-6.521-1.468-10.206 1.134-.497 3.898.448 6.355 1.134 9.072.729 2.313-1.741 2.443-2.268 3.401-.825 1.502-.288 2.997-1.136 4.536-.264.479-2.086.729-2.268 1.134-.957 2.124.115 2.855-1.134 5.67-.233.526-2.077.71-2.27 1.135-.765 1.696-.221 4.211-1.134 6.804-.149.424-1.073-.01-1.134 1.135-.049.934.321 2.532 0 3.401-.206.558-2.159 1.875-2.27 2.269-.968 3.485-.356 7.342-2.268 10.206-.73 1.097-.73 1.786-1.134 3.401-.299 1.194-.822.509-1.134 1.134-.936 1.867-1.267 3.519-2.27 5.671-.871 1.868-1.31 3.772-2.268 5.67-.613 1.213-1.639 1.364-2.27 2.268-.283.409.371 1.965 0 2.269-.927.76-.783.865-1.134 2.269-.273 1.098-1.385 2.591-2.268 4.536-.901 1.982-1.464 3.994-2.27 5.67-.366.763-1.907 1.621-2.268 2.269-.231.415.349 1.982 0 2.269-.927.759-.783.866-1.134 2.269-.344 1.369-1.659 2.045-2.27 3.401-.921 2.052-1.365 4.619-2.268 6.804-.151.367-.9.2-1.134 1.135-.419 1.673-.388 2.935-1.136 4.536-.356.767-1.908 1.621-2.268 2.269-.23.415.349 1.981 0 2.268-.736.604-2.287 3.388-3.402 5.67-.915 1.874-1.301 3.758-2.268 5.671-.613 1.212-1.639 1.365-2.27 2.269-.283.408.371 1.965 0 2.268-1.027.843-1.757 2.048-2.268 3.402-.151.399.306 2.018 0 2.268-.822.673-3.689 2.063-4.536 4.536H858.47c-4.771.144-5.436 4.394-10.206 4.536-2.186.171-3.246-.367-4.536-1.134-.458-.272-.742-2.092-1.134-2.269-.567-.257-1.766.353-2.268 0-.968-.679-1.326-2.744-2.27-3.401-1.052-.735-2.606-.214-3.4-1.134-.992-1.149-.293-3.213-1.136-4.536-.655-1.033-1.852-.709-2.268-2.27-1.548-5.802 1.109-13.212 0-21.546.051-3.452-2.395-4.409-3.402-6.804 1.242-1.977-1.701-8.813 0-10.206.134-.108 1.067.142 1.136 0 .193-.412-.331-1.997 0-2.269.893-.729 1.155-3.911 2.268-5.67 1.366-2.162 5.86-4.088 7.938-6.805 1.191-1.56 1.715-3.608 3.4-5.67.563-.687 1.813-1.589 2.27-2.269 1.359-2.024 1.252-4.006 3.4-5.67v-29.483c.287-4.066-3.404-4.154-3.4-7.938 2.576-6.873 8.149-10.749 10.205-18.145 6.464-1.475 14.496-1.379 18.145-5.67 4.523-1.121 3.415 3.39 7.938 2.269 1.445-.257 1.486-3.385 0-3.401.401-1.489 1.998-1.784 2.27-3.402 2.395-2.499 3.352 1.455 6.804 1.135 2.063-1.342.893-5.913 2.27-7.938 1.648-2.131 7.422-.139 9.07-2.269 2.474-2.371-.565-3.236 0-6.805 3.575-.205 3.831-3.729 3.402-7.938 7.119-.44 10.263-4.856 13.608-9.071-.739-6.05.892-9.711 3.416-12.48z"></path>
    </svg>