<svg
      xmlns="http://www.w3.org/2000/svg"
      width="1210.135"
      height="986.828"
      overflow="visible"
      viewBox="0 0 1210.135 986.828"
    >
      <g>
        <path d="M49.813 155.111c.254-1.083 1.341-1.333 1.337-2.674-2.797 2.92-4.077-1.591-4.011-5.35 1.227-.85 1.146 1.31 1.337 1.337 1.851.271 3.38-3.865 4.012-4.011 3.876-.891 6.097-.191 9.36 1.337-2.067 1.944-1.177 6.847-1.337 10.697-1.581 1.54-4.727 1.514-8.023 1.337 2.475-4.501-.345-.156-2.675-2.673zM-1 165.809c3.417-.149 2.653-4.479 2.674-8.023.516-.696 6.495-1.979 2.674-2.674-.225-2.9 4.743-.606 6.687-1.337v5.349c-1.958 3.104-4.238-2.611-4.013 2.674-.815-.075-1.583-.199-1.337-1.337-1.351.06-.312 13.4-6.686 8.023l.001-2.675zM111.322 363.71c3.128 2.783-2.854 7.767-4.011 10.696-7.008-1.271-6.077-3.104-6.686-9.359 2.273.49 2.522-1.043 2.674-2.676h6.686c-.377 2.39 1.264 2.745 1.337 1.339zM345.326 403.824c.159-1.847 4.877-.866 4.012 0-.06.06-1.254.047-1.337 0-.065-.037.563 2.306 1.337 1.337 1.902-2.378 3.194 3.424 4.011 8.023-1.533-1.605-3.389-.521-1.337 0-2.024 4.044-5.869-1.108-9.36 0-.163-3.402-1.945-5.187-5.349-5.349-.246-1.138.521-1.262 1.337-1.338.033-1.884-1.7-.284-1.337 0-4.652-3.645-3.086-8.906-4.011-17.383h5.349c-.172 2.543.396 3.872 1.337 5.35.289.452.896 3.649 1.337 4.011.146.119 2.228.448 1.337 1.337-.04.04-1.313.035-1.337 0 1.028 1.499 7.341.17 4.011 4.012zM171.494 402.487c2.122-1.58 3.019 3.667 4.012 2.674 1.839-1.839.573-.096 4.011 1.337-.452 4.729-.077 6.89-1.337 8.022-2.389.377-2.744-1.264-1.337-1.337-.163-2.298-3.679-.471-5.349-1.337.097.05-1.285-4.693-4.012-4.012 1.334-1.784 3.615-2.624 4.012-5.347zM520.494 770.208c-1.359.868-1.383 3.074-4.012 2.675.548-4.61-.662-.755-4.011-1.337-.21-.036.202-2.48 0-2.676-.11-.104-3.35 1.816-4.012 0-.1-5.694-2.237-9.352-1.338-16.046-.218-1.555.295-2.379 1.338-2.674-2.975-2.455-4.403-5.498-2.675-9.36h8.023c-.464 1.413 2.554 2.103 2.674 2.676.165.781-1.051 1.857-1.337 1.337.814 1.48 1.622.285 2.674 1.337-.347-.348 1.531 3.683 1.337 2.675.242 1.255-1.251 2.931-1.337 2.674.451 1.352 3.949 1.948 1.337 2.675.98 1.248 2.433 2.025 4.013 2.675-1.494 1.646-1.165 2.745 1.337 2.675v10.697c-4.346-4.207.042 4.494-4.011-.003z"></path>
        <path
          fill="#FFF"
          d="M1209.135 611.085c-4.194 4.825-.461-6.054-4.013-2.675-2.285-.427 1.232-4.139-2.674-5.349v-5.349c-.399-1.982-5.625-5.757-6.687-2.676-1.031-.95-1.455-1.849-2.674-2.675.011.008-1.919-1.453-1.337-1.337-1.751-.35-3.396 3.014-1.338-1.337-2.159.377-2.303-1.264-4.013-1.337.526-4.784-.705-10.985 0-14.709.033-.174 1.28-.244 1.338-1.337.034-.654 1-1.901 1.337-2.675-.262.601-1.905-.769-1.337-1.337.445-.446 2.124.342 2.675 0v-8.023c6.507 1.986 1.295-3.218 4.012-2.674.243.049.05 1.852 1.337 1.337.922-.368.923-3.021 2.675-2.674 2.141-3.874-3.077-2.424-4.012-4.013-.34-.576 1.599-1.681 1.337-2.675.101.381-1.229-1.13-1.337-1.337-.721-1.396-1.61-.456-1.337 0 .032.056-2.309-.562-1.337-1.337 1.474-1.18.224-.725 0-2.675-.256-1.518-1.343-.742-1.338 0-2.301-.412 1.736-4.644-4.013-4.012 1.798-1.727.854-4.208 1.338-6.687.566-2.896 1.847-6.28 1.337-12.034-.248-2.808-.819-5.435-1.337-10.696-.71-7.232-5.685-13.146 0-18.722-2.581-2.761-1.618-9.608-2.675-13.372-.341-1.215-1.394-1.105-2.674-1.337.618-1.066 1.511-2.182 1.337-4.012-.237-2.494-4.731 1.081-1.337-1.337-.373-2.747-3.572-2.669-5.349-4.012.592-1.944 1.174.136 2.674 0-6.304-4.249-2.606-14.574-4.013-21.396-.368-1.797-2.03-.25-2.674-1.337-.782-1.327 1.279-1.047 1.338-1.337.267-1.331-2.219-2.948-2.675-5.349-.373-2.747-3.571-2.669-5.349-4.013 1.539-1.58 1.514-4.727 1.337-8.022-2.63-2.273-5.704-4.103-6.686-8.023-3.986 1.187-8.144-4.167-9.36-1.337-2.096-.473 1.17-2.354-1.338-2.675-1.71-.603.166-1.685 0-4.011-.134-1.884-2.548-3.944-1.337-6.687-.373-2.747-3.571-2.668-5.35-4.011.594-1.944 1.176.136 2.676 0-.974-2.292-2.843-3.75-5.35-5.349-.649-.415-.971-1.115-1.338-1.337-1.72-1.041-3.502-.393-5.348-1.338-.548-.279-4.173-4.953-5.351-1.337-1.588.522-.678-2.334-1.337-2.674-.69-.355-3.468 2.564-2.674-1.337h-10.697c-.255-1.518-1.342-.743-1.338 0-1.588.521-.678-2.335-1.337-2.674-1.266-.652-3.729 3.223-1.337-1.337-5.823-.863-6.418-6.954-12.034-8.023.592-1.943 1.174.136 2.674 0-.373-2.747-3.57-2.668-5.349-4.011 1.549-.516 1.549-6.495 0-2.675-2.183-.518.446-1.273 0-2.674-.494-1.551-2.177-.372-2.675-1.337-.438-.854 1.001-1.75 1.338-1.338-1.043-1.276-2.953-1.492-4.012-2.674-1.396-1.556-1.657-4.886-4.013-6.686-.708-.542-3.379-.659-4.012-1.337-.357-.385 1.711-1.838 1.338-2.675-.638-1.426-2.995-.344-4.012-1.337-.422-.413.451-2.306 0-2.674-.515-.421-5.644-3.194-6.687-2.674-1.249.98-2.025 2.431-2.675 4.011-1.942-.592.136-1.174 0-2.674-3.458 4.565-14.002 2.044-21.395 2.674-2.687-2.727.591-2.622 1.337-5.349-1.85-10.317 6.558-10.379 8.022-17.383 1.756-1.605 2.104-.521 4.013 0-.06-2.287.992-3.464 2.674-4.013-.254-1.518-1.342-.742-1.338 0-3.686-1.342 2.593-2.937 4.013-4.012 2.234-1.692 3.157-5.616 5.349-2.674-.593 1.944-1.175-.136-2.675 0 .291.188 3.16 5.331 4.012 5.349 3.082.066 1.21-2.643 4.012-4.012 1.533-.472 3.39-2.354 1.337-2.674.332-1.452 2.659-.907 2.675-2.674 4.127 2.559 2.684-2.373 4.012 4.011 12.692 1.549 18.063-4.223 30.755-2.674 2.714-3.081 5.311-6.279 8.023-9.36a27.152 27.152 0 00-8.023-8.023c-1.457-4.226-.879-9.458-2.674-16.046-.098-.357-1.272-.1-1.338-1.337-.02-.354.131-1.01 0-1.337-.531-1.329-.869-2.141-1.337-4.011-.262-1.042-2.349-6.723-2.675-9.36-.326-2.645.707-5.697 0-8.022-.089-.292-.952-3.572-1.338-4.012-.587-.671-3.621-.73-4.012-1.337.619.963 1.078-8.432-1.337-4.011-1.609-.137.753-10.466-5.349-10.698 1.592-.194 1.78-6.521-1.338-6.686-2.127-.112.014-1.402 0-1.337.268-1.332-2.218-2.949-2.675-5.35-.254-1.518-1.341-.741-1.337 0-1.518-.254-.742-1.341 0-1.337-.036-1.3-1.637-1.038-2.674-1.337 2.645-3.414-.42-6.799 0-10.697.515-4.786 4.245-9.639 1.337-16.046-1.313-1.807-3.567-2.672-5.349-4.012.473-1.873 2.354-.115 2.675 1.337 4.57.128-3.957-4.323-2.675-5.349 1.05-.839 1.117-.873 0-1.337.979-1.248 2.432-2.025 4.012-2.675 2.965-.735 1.903 2.554 4.011 2.675 2.302-.413-1.735-4.645 4.013-4.012-.684-1.1.892-4.457 0-5.349-1.478-1.477.951-1.463-1.338-4.012.018-2.47 1.927.82 2.676 0 1.15-1.264-1.342-2.631-1.338-2.674.096-1.468 2.839-.896 2.675-2.675 1.071-4.638-1.992-5.14-1.337-9.359-3.459-4.09-8.399-6.794-12.035-10.697-.995-1.069-.397-2.759-1.337-4.012-1.167-1.557-5.56-3.314-6.687-6.687-3.181.395 1.486 3.618 2.674 4.013 1.083 3.219-6.441-3.161-6.686-4.013-.163-.57 1.955-1.999 1.337-2.674-.913-.998-1.383 1.347-1.337 1.337-1.142.229-2.045-3.411-2.676-4.012-1.229-1.173-3.429-2.673-5.349-4.011 4.966 7.775-1.132-.07-4.011-2.675h-5.35c.377 2.39-1.264 2.744-1.338 1.338-4.54 1.254-4.093 7.495-6.686 10.696-3.048 1.836-5.026-3.446-5.35 0-4.064-3.958-2.402-13.643-6.686-17.383-1.076.708-2.171 1.396-4.012 1.337-2.621 1.836-.723 8.193-2.676 10.697-3.552-.014-7.637.505-9.358-1.337-.717-5.97 2.44-15.813-4.013-16.046.594-1.944 1.175.136 2.675 0-.052-3.859-7.558-3.161-4.011-6.687-2.748.373-2.67 3.572-4.013 5.35-1.944-.594.136-1.175 0-2.675-.812 2.31-6.343-.103-6.686 2.675-3.521-1.384-4.504-5.303-8.023-6.687-5.158 1.503-11.742-2.4-13.372 0-1.595.258-.668-2.006-1.337-2.674-.419-.419-2.305.451-2.674 0-.845-1.032-2.266-1.229-2.675-2.674-1.434-1.067-2.531 1.356-2.674 1.337-1.383-.197-.775-2.569-1.338-2.674-2.599-.485-6.359.273-9.36 0-7.301-.667-14.313-3.113-20.058-4.012-4.683-.226-4.209 4.704-6.687 6.687-1.493 2.162-9.34 4.803-6.687 6.686-.148 2.563-4.478-1.57-8.021 0-.556-1.419-7.332-3.104-6.688-1.337-1.942-.593.137-1.174 0-2.674-.706-1.075-1.395-2.171-1.336-4.011-1.721-2.292-2.766-5.258-6.687-5.35 3.51-3.903-1.188-7.703 0-13.371-.971-.979-1.824-1.524-2.675-2.675.39.527 1.364-2.34-1.337-1.337.927-1.079 2.081-3.663 0-4.012 3.389-2.406 4.028-7.559 5.349-12.034-.695-1.979-1.979-3.37-2.675-5.349-6.444.241-11.839 1.532-13.371 6.686-1.942-.592.136-1.174 0-2.674-2.747.373-2.669 3.572-4.012 5.349-1.943-.593.136-1.174 0-2.674-2.347-.839-1.82 3.591-2.674 4.013-1.421.698-.968-1.264-1.339-1.338-1.447-.29-1.006 1.33-1.336 1.338-1.858.041-5.197-.366-8.022 0-2.229.288-2.976 1.564-5.351 1.337-4.597-.442-7.972-5.412-10.696-2.675-1.943-.593.136-1.174 0-2.674-5.708-1.36-11.679-2.904-20.058-4.011-3.77-.498-15.995-1.422-20.058-4.012-1.188-.757-3.581-2.209-4.012 0-1.588.521-.679-2.335-1.337-2.674-.692-.356-3.469 2.563-2.676-1.338-4.088-1.281-7.55 1.444-10.696 1.338-.859-.029-4.875-.759-5.35-1.338-.079-.097.092-1.319 0-1.337-1.207-.219-2.981 1.229-2.674 1.337-1.481-.517-.407-2.194-1.338-2.674-.93-.479-1.684 1.119-1.337 1.337-1.236-.775-2.035-3.702-2.674-1.337-1.589.521-.68-2.335-1.338-2.675-1.267-.652-3.73 3.223-1.337-1.337-4.63.984-6.809-5.008-9.36-6.686-1.468-.966-4.083-1.338-4.011 0-1.249-.98-2.026-2.432-2.675-4.012-1.519.254-.742 1.341 0 1.337-.594 1.944-1.176-.136-2.676 0a27.13 27.13 0 00-8.021-8.022c.473-1.873 2.354-.115 2.674 1.337 3.272-1.66-4.007-3.889-4.011-6.687-3.896.328-8.697-.437-12.035 0-4.004.524-6.283 2.345-9.359 2.675-2.263.242-3.758-2.611-5.35 0-2.096-.473 1.171-2.354-1.337-2.675-1.523.366-1.956-2.425-2.674-2.674-3.425-1.19 1.814 5.078-1.337 1.337-1.302-.037-1.038-1.637-1.338-2.674-1.729 1.311-15.904.646-12.034 2.674-.501 1.633-7.109-.503-6.687 5.35-3.498-2.497-5.021.896-10.696 0 .251.04-.618-2.237-1.339-1.337-3.062 3.826 2.542-4.673-4.011-2.675 2.639-5.038-2.242-12.465-6.687-14.708-2.89.338-6.146 7.083-4.013 8.023.287.434-3.355 1.025-2.674 1.337-.161-.074-3.345-4.845-4.012-4.011-2.63 3.288.063-2.445-4.012-2.675-6.284 3.12-12.407 2.474-17.384 4.012-1.738.538-.229 1.851-1.337 2.674-.434.323-2.11-2.017-2.675-1.337-.258.312.33 2.533 0 2.674.344-.147-7.213-3.033-6.686 2.674-3.903-3.511-7.704 1.188-13.372 0-1.986 1.579-5.975 1.157-5.35 5.35-.193-1.592-6.521-1.781-6.686 1.337-.071 1.364-2.67.164-5.349 1.337-4.003 1.753-4.855 5.696-9.36 8.022 1.245 2.666 6.32-4.52 8.023-6.686 2.384 1.591-5.483 7.292-8.023 9.36-.472-1.534-2.354-3.39-2.674-1.337-3.752-.018 3.184-3.648-2.675-2.675 1.604-1.756.521-2.103 0-4.011-2.773-.313-4.422 4.006-2.675 2.674.013-.01-.558 2.313-1.337 1.337-1.179-1.474-.725-.224-2.674 0-2.117.111-5.1-.643-5.349 1.337-1.787-1.333-2.626-3.613-5.35-4.012-9.347-.878-11.393 5.545-21.395 4.012-1.032-5.839 3.612-10.428 0-14.709-2.028.05-.105 1.599 0 1.338-1.358 3.378-2.25.256-2.675-2.675-2.287-.28-3.463 2.28-4.012 0-8.376 4.104-10.36 14.601-9.359 28.081-2.117.111-5.101-.644-5.35 1.337-1.813-.414-1.108-3.348-1.337-5.349-1.596-3.307-4.578-5.228-8.022-6.686-.272-.448 1.999-2.126 1.337-2.675-.299-.248-2.548.314-2.674 0-.176-.438 1.948-2.167 1.337-2.674-2.362-1.957-2.688 1.123-1.337-4.011h-5.35c-3.387.683-1.892 5.779-2.674 9.36-.053.242-1.277.189-1.337 1.337-.121 2.3-1.378 6.352 0 6.686.246 1.138-.521 1.262-1.337 1.337-1.075.708-2.171 1.396-4.011 1.337-.254-1.518-1.343-.743-1.337 0-1.261-1.134-.886-3.293-1.337-8.022-4.003.01-5.62 2.403-6.687 5.349.658 3.66 5.053 5.056 8.023 8.023.184 2.489.88 4.469 2.674 5.349-1.913 2.167-1.098 4.918-1.337 6.687.036-.266-2.23.622-1.337 1.337 3.342 2.673-9.141 6.014-9.36 12.033-4.296-.822-1.832 4.813-5.349 1.338-.427 3.101.215 5.134 1.337 6.686 2.186.121 5.815-2.227 2.674 0-.217 1.555.295 2.379 1.337 2.674-1.189 2.195-.878-.285-4.011 1.337-1.807.936.589 3.554-2.674 1.337-.696 1.979-1.979 3.37-2.675 5.35-1.943-.592.137-1.174 0-2.674-4.078 1.716-3.578 8.011-9.359 8.022 2.651.914-.834 7.966 4.012 6.687-3.583 3.437 3.583 1.911 0 5.349 2.965-.736 1.904 2.553 4.011 2.674 3.048.787 2.357-5.069 1.337-1.337-.159.586-1.47-.675-1.337-1.337.159-.792 3.313-2.112 4.013-2.674 2.546-2.505 3.358-.146 6.686 0-.826 1.218 1.092 5.792 0 6.686-.077.063-1.334-.058-1.337 0-.034.699 1.921 3.462 0 4.011-.87.249-1.577-1.889-2.674-1.337-.67.337.147 1.26-1.337 1.337-1.865.099-.307 2.048-1.337 2.675-.448.272-2.126-1.999-2.675-1.337-.269.323.344 2.518 0 2.674-.845.387-2.793-2.028-4.012 0-1.756.472-2.103 2.354-4.011 2.674 2.137 11.333-7.947 15.104-4.012 24.069-1.646.584-2.746 1.711-2.675 4.012-1.194-1.155-3.836-1.983-4.011 1.337-.108 2.074-1.56-.293-2.674 0-.203.053-3.485 3.368-5.349 4.012-1.062 1.361 1.349 2.621 1.337 2.674-.415 1.81-1.896.234-2.675 1.338-.896 1.266-.94 4.798-2.674 6.686-1.107 2.547-2.959-.724-4.012 0 .247-.169 2.108 4.119-1.337 2.674-1.402 1.646.022 3.442-1.337 5.35-.552.774-3.374 2.009-5.35 4.011-1.682 1.706-3.062 4.688-4.011 5.349-1.227.854-6.803.251-5.349 2.675.117.194 1.698 1.895 0 1.337-.115-.037-.246-2.104-1.337-1.337-.208 3.773 3.78 3.352 5.349 5.35.037 1.895-2.674 2.936-2.674 5.349 0 .619 1.126 1.938 1.337 1.337-.519 1.474-2.198.412-2.674 1.337-.356.692 2.563 3.468-1.337 2.674.218 1.556-.295 2.38-1.337 2.675-.219 1.555.295 2.379 1.337 2.674-.757 1.249-3.717 2.024-1.337 2.674-.98 1.249-2.433 2.026-4.013 2.674-.443 7.178-.315 13.573-1.337 20.059-1.541 9.784-6.803 18.721-2.674 28.079.98 1.249 2.431 2.026 4.011 2.675-.592 1.943-1.174-.137-2.674 0 .042 3.387 3.423 1.917 5.35 2.674.558.22-.059 1.264 1.337 1.337.354.019 1.01-.131 1.337 0 2.52 1.008 12.986 5.146 17.383 1.337.796-.69 1.257.182 1.337-1.337.109-2.074 1.56.293 2.675 0-.406.107 1.162-1.244 1.337-1.337.672-.358 2.134-2.481 2.675-2.674 3.009-1.073 6.777-1.11 9.359-1.337 3.882 2.362-4.646 6.635 0 9.359.822-1.942 1.616.136 0 0 .367 1.214 4.981 4.491 5.35 1.337 2.01.291-.183 2.448 0 6.687.152 3.552 2.547 7.224 1.337 10.696-5.001.587.989 5.904-4.012 2.675.731 1.942-1.563 6.911 1.337 6.686-.321 3.447-2.301-1.836-5.349 0-1.756.474-2.103 2.354-4.011 2.675-1.067 1.434 1.356 2.53 1.337 2.674-.224 1.559-2.462.563-2.674 1.337-.729 2.655-1.497 6.846 0 8.022-2.128 1.098-5.248 7.982-2.675 9.36.486 1.599-2.289.664-2.674 1.337-.772 1.354 1.279 2.796 1.337 2.674-.686 1.446-3.212 1.317-2.674 4.013-1.438 2.756 2.276 1.894 2.674 2.674.244.478-1.389 1.796-1.337 2.674-.01-.169 1.293.507 1.337 1.337.125 2.363.88 2.764 1.337 1.337 2.808-1.166-1.938 6.804 1.338 2.674 3.752.018-3.185 3.648 2.674 2.674-1.494 1.646-1.165 2.746 1.337 2.675-2.271.962.023 3.36 0 5.349-.041 3.436-2.371 7.593 0 9.36-.583 1.983-1.711-.528-4.011 0-6.324.975-8.791-1.907-12.035-4.013-2.993-.801-1.308 3.869-4.012 4.013-4.752.25 3.548 2.294-2.675 2.674 2.679 10.311.6 18.727 2.675 26.744.432 1.669 2.147.315 2.674 1.337.417.811-2.559 2.54 0 2.674 1.941.103.208 1.611 0 1.337 3.208 4.23 4.854 4.544 8.022 6.687-.593 1.942-1.174-.137-2.675 0 1.72 2.292 2.765 5.258 6.686 5.349-1.247 2.741 1.255 10.24-2.674 13.372-1.607.438-.652-2.232-1.337-2.674-.919-.596-3.134.646-4.012 0-2.974-2.188-3.803-6.335-8.023-6.687-3.053 1.83-10.249.586-10.696 5.35-1.255.835-1.107-1.291-1.337-1.337.29.058-6.426 3.289-8.023 1.337-.092-.112.113-1.308 0-1.337-1.311-.35-4.972-.63-4.011 0-1.488-.976-1.514-2.737-2.674-4.013-.659-.723-.499 3.724-1.337 2.674-.413-.516-.846-3.646-1.337-4.012-.226-.166-4.381 1.861-1.337 0-.148-4.736-4.422 2.841-4.012-1.337-2.518.454-9.746-3.096-6.686 0-.57 2.61-3.821-2.187-2.674 4.012-1.083-.254-1.333-1.342-2.675-1.337-2.858 4.718-5.75 9.404-9.359 13.372.749 1.926 2.086 3.263 4.012 4.012.148 1.063 4.42 4.054 4.011 1.338 1.833 1.604 2.657 3.37 4.013 5.349.74 1.083 4.364 2.031 2.674 5.349-3.106 2.041-7.203-.898-10.697-1.337-9.298-1.164-19.865-1.34-30.755-1.337-3.438.674-1.616 5.437-2.674 8.023-1.147 2.806-1.897 3.796-4.013 5.349-1.829.557-.934-11.436-1.337-14.708-.188-1.526-1.395-.736-1.337 0-3.021-.749 1.622-2.086-1.337-4.012-3.419.059-1.631-.994-1.337-2.674-2.794.565-3.541-.917-5.349-1.338-4.296-.823-1.833 4.813-5.35 1.338-2.096.473 1.171 2.354-1.337 2.674-.593 1.943-1.174-.137-2.674 0 1.997 3.119-.451 5.761 1.337 6.686a122.34 122.34 0 01-4.011 4.011c-.532 1.585 2.347.684 2.674 1.338.362.724-1.975 1.714-1.337 2.674.755 1.137 2.86 1.851 4.012 2.674-.136 3.43-4.982 2.149-6.686 4.012-1.519.254-.742 1.341 0 1.337-.472 2.097-2.354-1.17-2.674 1.337-2.16-.376-2.303 1.265-4.012 1.337-1.518.255-.742 1.342 0 1.338 1.165 2.807-6.804-1.938-2.674 1.337-.593 1.943-1.174-.137-2.675 0-3.237 1.666-6.496 3.311-10.697 4.012-1.277-2.491 4.005-4.469 0-5.349.256-2.417 1.613.753 2.675 0 .589-.419-.351-3.288 1.337-2.676.695-1.979 1.979-3.369 2.674-5.349 1.943.593-.136 1.174 0 2.675 1.444 1.572 3.322-4.873 4.011-4.012 2.8 3.5 1.257-4.892 5.349-1.337-.414-4.871.213-8.702 1.338-12.035-3.403-6.476-11.871-5.153-14.71-1.337-1.016 1.367-.025 4.273-1.337 4.012.282.058-.68-2.268-1.337-1.337-2.396 3.392 1.281 6.373-2.674 4.012.281 2.287-2.28 3.464 0 4.012-.854 1.293-6.412 1.344-12.034 1.337.021-4.882 3.802-6.005 5.35-9.36-1.19.593-2.393 1.174-2.675 2.674-1.943-.592.137-1.174 0-2.674.201-1.415 3.313-.472 4.012-1.337 2.12-2.62-1.62-7.051 2.674-4.012-.281-2.287 2.28-3.463 0-4.012 2.691-2.835 7.571-5.738 9.36-8.022.688-.878-3.247-4 1.337-1.337.218-1.555-.295-2.379-1.337-2.674 1.51-1.61 3.815-2.424 2.674-6.687-.426-.695-4.14-2.073-5.35 0-2.104-.33 1.181-2.542-1.337-2.674-3.321-.175 1.224-1.524-1.337-4.012-2.16.377-2.302-1.265-4.012-1.337-5.036-.579-6.089 2.824-8.023 5.349 1.927-.749 3.264-2.086 4.013-4.012 3.153 1.959-5.267 3.543-2.675 9.359-.516.695-6.494 1.979-2.674 2.675-.018 3.751-3.647-3.185-2.674 2.674-.964-.665-6.326-.811-9.36 0-2.457.654-6.213 1.104-5.349 4.011-2.767-1.522-6.656-.273-10.697 0 .146-.01-.488 1.292-1.337 1.337-3.685.194-4.753-.993-9.359-1.337 2.915-2.796-.668-3.816 0-8.023 2.06-.013 9.189.554 9.359-2.674.052-.979 2.804-.648 5.35-1.337 1.371-.37 2.883-1.943 5.349-1.337-1.605-1.534-.521-3.389 0-1.337 2.184.603 2.184-7.289 0-6.687-.522-1.588 2.334-.678 2.674-1.337.446-.864-1.023-1.74-1.337-1.337.852-1.097 3.375-1.626 4.012-2.674.347-.57-1.998-3.001 0-4.012 2.01-2.002 5.63-2.393 6.687-5.35 2.135-5.826-4.646-4.837-1.337-8.022-2.118.111-5.102-.644-5.35 1.337-1.943-.593.137-1.174 0-2.674-1.566-.216-1.128-2.438-1.337-4.013-.876-3.58-3.83-5.084-5.349-8.022.267-4.211-.356-10.391 0-13.372.051-.429 1.916-1.202 0-1.337.331-1.452 2.659-.907 2.674-2.674-1.21-6.813-3.103-12.943-5.349-18.721-4.116-.936-2.57-.936-6.687 0 1.827-5.838-5.178-2.845-4.011-8.022-3.222-.547-2.907 2.441-6.686 1.337-1.471-6.898 7.966-1.937 8.022-4.012.413-2.301 4.645 1.736 4.012-4.012-1.3.037-1.038 1.637-1.337 2.675-1.566-.217-1.127-2.438-1.337-4.012-2.491 1.279-4.469-4.005-5.349 0-1.625-.592.053-1.699 0-4.012.004.187-1.337-.475-1.337-1.337 0-1.137.333-1.261 1.337-1.337-.757-1.248-3.718-2.025-1.337-2.674-.711-3.746-6.442-2.473-9.36-4.012 2.487-4.694-1.016-4.397-2.674-8.022-1.219.827-5.792-1.093-6.687 0-.066.082.067 1.332 0 1.337-2.458.211-4.672-1.839-5.349 0-2.1-.171-.016-1.445 0-1.337-.083-.585-1.792-1.922-1.337-2.675.809-1.337 4.535-1.72 5.349-2.674.185-.216-2.434-3.828 1.337-2.674-.821-1.189-1.615-2.392 0-2.674-2.524-2.378-5.398-4.407-10.696-4.012-1.519.254-.743 1.341 0 1.337-.32 2.074-4.973-.794-6.687 2.674-.996 1.252-2.649-5.713-4.011-4.012-.721.9-3.586 1.633-1.337-2.675-1.555.218-2.379-.295-2.674-1.337-7.647-1.854-8.523 3.065-13.372 4.012v-5.35c-.473-1.756-2.354-2.103-2.674-4.011-3.049 1.836-5.026-3.447-5.35 0-1.249-.98-2.025-2.432-2.674-4.012-3.491 1.107-7.336-4.044-9.36 0-1.786-1.333-2.625-3.614-5.349-4.013-2.758-1.434-1.892 2.273-2.674 2.675-.738.379-2.874-2.022-4.011 0-6.633-.155-11.236-5.551-18.721-6.687-8.111-1.23-17.202 1.735-25.405 0-.019-2.657-3.648-1.701-2.675-5.349-1.757 1.362-4.929 1.311-6.686 2.674-.97 4.09 2.307 3.933 1.337 8.023-3.417.595-6.148 1.875-8.023 4.011-2.014-2.443-4.818-4.097-9.359-4.011-1.943-2.068-5.216-2.808-9.36-2.675.492-2.273-1.042-2.522-2.674-2.674-.271-.448 1.999-2.126 1.337-2.674-.222-.184-2.632.209-2.674 0-.195-.954 1.492-1.411 1.337-2.674-.2-1.631-3.082-8.774-2.674-13.372-3.419.059-1.63-.994-1.337-2.674-4.501 1.061-6.68 4.805-9.36 2.674-.583-.464 2.076-.998 2.674 0-.745-3.267-5.174-2.85-4.011-8.023 5.477-1.379 10.513 4.557 10.697-2.674.714-3.021-5.211 1.621-1.337-1.337-1.133-1.987-4.306-1.935-6.687-2.674-.995-1.677 1.267-2.227 1.337-2.674.224-1.412-1.327-2.72-1.337-2.674.428-1.946 4.854-1.949 1.337-5.35-1.518.254-.742 1.341 0 1.337-.592 1.944-1.174-.136-2.674 0 .377-2.16-1.264-2.302-1.337-4.011-3.321 1.739-5.549-3.923-6.686 0-1.944-.593.136-1.174 0-2.674-4.191 3.068-3.771-2.443-5.35 0-3.586-1.764-2.221-8.478-4.011-12.035-.254-1.083-1.342-1.333-1.337-2.674-.067-2.044-1.576-.085-1.337 0-3.183-1.134 1.522-1.069-1.337-4.011-.781-8.484 2.811-17.636 2.674-22.732-.041-1.523-1.512-.738-1.337 0-2.3-.413 1.736-4.644-4.013-4.012 1.494-1.646 1.164-2.746-1.337-2.674.707-1.075 1.396-2.171 1.337-4.012-.97-.979-1.823-1.523-2.674-2.674.527.713 1.763-.913 1.337-1.337-.253-.252-2.58.293-2.675 0-.389-1.206 2.246-3.811 0-6.686 1.519-.255.743-1.343 0-1.338a126.447 126.447 0 014.012-4.011c-.056-4.4-2.257-6.657-1.337-12.035-1.189 1.039-3.02 1.438-5.349 1.337-.592 1.19-1.174 2.393-2.674 2.675.254 1.518 1.342.742 1.337 0 2.654 1.883-5.192 4.523-6.687 6.686v10.697c1.078.941 1.556 3.179 2.675 4.012 1.366 1.017 4.273.026 4.012 1.337-.064.322-1.518.01-1.337 1.337-.039-.292 1.202.797 1.337 1.337.458 1.831-.994 2.638-1.337 4.013-.593 2.374-.894 2.955-2.674 5.349.11 2.117-.644 5.1 1.337 5.349-1.202 1.512-3.229-.32-4.013 4.013-.277 2.688 2.708 4.678 4.013 6.686 1.067 1.646.831 5.208 4.011 5.349-.592 1.944-1.174-.136-2.674 0 4.218 2.914 2.263 12 2.674 18.721-.646 4.212 4.104 3.027 2.674 8.022-1.518.254-.742 1.343 0 1.337-1.509 1.61-3.815 2.424-2.674 6.687-.627 3.01 7.256 4.124 8.023 1.337 1.942.593-.137 1.174 0 2.674 2.473-1.261.819 7.653 2.674 2.674 1.419-.653.153 7.381 2.674 4.013 3.751.017-3.185 3.647 2.674 2.674-.822 1.189-1.616 2.392 0 2.674-.331 1.452-2.659.907-2.674 2.674-.064 4.262 1.843 6.573 2.674 8.023.825 1.438 1.563.305 1.337 0 .427.578 1.634-.146 1.337 1.337-.042.211-1.903.083-1.337 1.337.701 1.552 4.389 2.563 6.687 4.011-2.707 2.747.544 2.669 2.674 4.012-.593 1.944-1.174-.136-2.674 0 1.56 2.452 3.494 4.527 5.349 6.687-.331 1.452-2.659.907-2.674 2.675 3.065 4.065 6.503 7.76 9.359 12.034 1.447-.407.914-2.561 2.675-2.674.114-.007 1.469 1.599 2.674 1.337-.058.012.623-1.159 1.337-1.337 2.019-.505 5.175.94 5.349-1.337.979.971 1.524 1.823 2.674 2.675-.525-.39 2.341-1.364 1.338 1.337h8.022c.021 4.882 3.801 6.005 5.349 9.359 3.181-.394-1.485-3.617-2.674-4.012.832-2.443 5.586 2.311 5.35 5.35 3.296-.177 6.441-.202 8.022 1.337 1.061 1.477-2.155 3.192-1.337 4.011 1.596 1.596-.271.455 0 2.674.248 2.014 2.599 3.213-1.337 1.337-1.853 5.765 6.827 3.892 2.674 8.023 3.968-.033 10.53 2.156 14.708 1.337 2.099-.411 2.659-.351 2.674-2.674 1.716.668 7.996 3.385 8.023 1.337 1.588-.522.678 2.335 1.337 2.674 1.266.652 3.731-3.223 1.337 1.337 1.554-.217 2.379.295 2.674 1.337 7.068 1.153 14.158.798 21.396 2.675.331.086.121 1.272 1.337 1.337.504.026 3.731-.342 4.012 0 .09.109-.11 1.309 0 1.337 2.407.619 4.741.886 6.687 1.337.437.101 2.419-.313 2.674 0 .076.093-.084 1.324 0 1.337 1.398.221 2.735-1.323 2.675-1.337 2.72.615 4.447 5.706 6.686 1.337 2.019 1.163-.367 2.002 1.338 5.349.254 1.519 1.341.743 1.337 0 2.096.474-1.17 2.354 1.337 2.674.159 4.488 3.331 7.322 4.011 12.035 1.372 9.499-2.949 18.984-2.674 29.417.087 3.31 2.103 6.211 2.674 9.36 1.192 6.57.77 12.946 1.337 20.057-7.979-2.185-7.833 3.756-9.36 8.023-1.606.457-3.795-.597-5.349 0-1.969.756-1.972 2.729-4.012 4.011.726-.456-.944-1.828-1.337-1.337-.813 1.015-1.006 2.526-2.674 2.675.354 3.611-.492 5.599 0 8.023.508 2.501 4.166.546 1.337 4.011 2.274-.492 2.522 1.043 2.674 2.674h10.698c.769 2.352-1.616 7.856 1.337 8.023-.373 2.747-3.571 2.669-5.35 4.012.254 1.519 1.341.742 1.337 0 1.519.254.742 1.341 0 1.337-.037 1.301-1.637 1.038-2.674 1.337-1.563 3.037.707 4-4.012 5.35-.217 1.555.295 2.379 1.337 2.674.352.769-3.55 1.798-2.675 2.674.044.043 1.296.043 1.337 0-.037.039-.562 2.308-1.337 1.337-1.11-1.388-.529-.7-1.337 0-2.244 1.941-3.716 5.884-8.023 8.023-.576 4.326 1.759 11.564-2.674 12.033.254 1.519 1.341.743 1.337 0 1.519.255.743 1.343 0 1.338-.254 1.083-1.341 1.333-1.337 2.674-1.19.592-2.392 1.174-2.674 2.674-1.874-.473-.116-2.354 1.337-2.674-1.596-2.792-4.578 4.23-8.023 4.011v12.034c3.491-.521 7.336-.688 9.36-2.674 1.221.913 1.282 5.322 1.337 10.696.56 2.185.674 3.104 1.337 5.35 1.149 3.892.658 4.379 0 9.359-.79 5.978.05 11.732 1.337 16.046.624 2.092 1.168-.061 1.337 0 2.02.721.042 1.153 1.337 4.013.614 1.354 1.055.873 1.338 0 3.752.017-3.185 3.647 2.674 2.674-.998 1.804-2.975 9.336-1.337 9.36-.583 1.646-1.711 2.746-4.012 2.675 1.494 1.645 1.164 2.745-1.337 2.674-.519 6.742.7 12.525 0 18.721-.812 7.192-4.419 12.742-4.011 17.384.226 2.57 4.36.497 1.337 4.012 1.646-1.494 2.746-1.164 2.674 1.337 1.77-.195 2.813-.518 4.013-1.337 1.827-1.251-.221-.937 0-1.337 1.021-1.867 2.936.965 4.011-4.013 1.943.593-.136 1.175 0 2.675 3.858-.053 3.162-7.558 6.686-4.013-.821-1.188-1.615-2.391 0-2.674.243-2.917-1.094-4.254-4.011-4.012.822-1.19 1.616-2.393 0-2.674 1.01-4.121-1.912-12.025 1.337-14.709.817-.676 2.969.419 2.674-1.337 3.752.017-3.184 3.646 2.674 2.674-.217 1.555.296 2.379 1.338 2.675.614 6.517-1.4 15.662 1.337 20.057 1.189-.82 2.392-1.614 2.674 0 3.647.976 2.691-2.655 5.349-2.674-1.628-4.854 2.674-10.556 0-12.034.758-1.249 3.718-2.025 1.337-2.675.975-1.1 4.023-1.615 6.687 0 2.776-.343.366-5.875 2.674-6.686 2.118-.111 5.101.643 5.349-1.337 4.18-.409-3.397 3.861 1.337 4.011.17 2.397-1.637 2.82-1.337 5.349 2.168 2.735 9.867-.061 12.035 2.675-.691 8.271.313 14.843 6.687 16.047-.594 1.942-1.175-.137-2.675 0 .373 2.746 3.571 2.669 5.35 4.012-.051 1.042-1.596 1.384-1.337 2.674.303 1.514 2.421.548 2.674 1.338.29.903-1.691 1.451-1.337 2.674.461 1.593 2.186.36 2.674 1.337.332.664-3.027 3.854 0 4.013 2.022.105-.225 1.553 0 2.675.309 1.547 2.394.509 2.674 1.337-.412-1.216-2.172 7.838 1.337 8.021 4.484.236-3.979 3.485 2.674 4.013-1.345 5.315-8.059 1.283-12.033 1.337-2.747.373-2.669 3.572-4.013 5.349-1.943-.592.137-1.174 0-2.674-1.756.473-2.103 2.354-4.011 2.674 1.493 1.646 1.164 2.746-1.337 2.675.014 3.553-.505 7.638 1.337 9.36 3.842.276 6.792-.339 8.023-2.675 3.9-.335 4.612 2.519 6.686 4.012-2.466 3.328-6.872 4.717-8.022 9.36-2.627-2.468-6.684 1.174-8.023 4.012-1.059 4.624 1.486 5.646 2.674 8.022 1.692-3.211 10.543.737 12.035-2.675 2.009.03.128 1.62 0 1.337.734 1.616 1.6.264 2.674 1.338 1.081 1.08 2.643 2.675 4.011 4.012.971 4.09-2.307 3.933-1.337 8.021.758 1.249 3.718 2.026 1.337 2.676-1.945 1.838 6.501 4.661 4.013 2.674 1.077.859 3.036 2.923 4.011 4.012 3.096 3.456 5.88 6.521 9.36 10.697.053.063.564 2.303 1.337 1.338.048-.061.05-1.287 0-1.338.026.026 2.31.56 1.337 1.338-1.601 1.28-.437.956 1.337 1.337-2.483.772.581 7.209 1.337 4.012 1.518.254.743 1.341 0 1.337.905 4.277 4.443 2.522 5.349 4.013.254 1.518 1.342.741 1.337 0 1.512 1.2-.32 3.228 4.012 4.011-.775 4.342.911 6.222 1.337 9.36.426 3.14 4.138 2.992 5.349 5.349 4.191-3.069 3.771 2.443 5.35 0 2.354 1.21 2.209 4.923 5.349 5.349-.176 3.297-.203 6.443 1.337 8.023 3.292 3.395 6.909 6.463 9.36 10.697 1.979.694 3.37 1.979 5.349 2.674-.593 1.943-1.174-.136-2.674 0 1.202.772 3.228 7.21 4.011 4.012 3.752.019-3.184 3.648 2.675 2.675-1.465 1.387-1.061 4.256 0 6.687.549 1.258 2.263.538 2.674 1.337.463.897-1.076 1.714-1.337 1.337 1.464 2.117 1.158-1.137 2.675 0 .806.604.412 3.41 1.337 4.012 1.277.832 2.786.709 4.011 1.338 2.215 1.138 5.768 2.145 10.697 0 .147-4.735 4.421 2.841 4.012-1.338 1.944.593-.136 1.175 0 2.675 2.49.185 4.469.881 5.349 2.675 6.694-.899 10.351 1.238 16.046 1.338-.538 2.459 1.104 2.28 2.675 2.674 2.894.724 12.74 3.003 17.383 4.012 1.252.272 2.785-.362 4.011 0 .403.119.065 1.271 1.337 1.337 2.347.124 4.777 3.142 9.36 2.675 3.596.922 2.584-2.765 4.012-4.012 1.19.822 2.392 1.616 2.674 0 2.917-.243 4.254 1.095 4.011 4.012 2.552-2.51 2.42.794 6.687 0 2.525-1.002.928-3.99 4.012-1.338 2.888-5.673-7.658-8.767-4.012-6.686-1.574 4.679-2.604-3.771-4.011-4.012.469.081-4.344 1.335-2.676 0 1.051-.84 1.117-.873 0-1.337-.932-2.522 4.817-6.783 1.338-4.013-1.519-.254-.743-1.341 0-1.337.036-1.301 1.637-1.037 2.674-1.337 1.907-.661.198-3.083 0-2.675 1.364-2.798 3.202-.386 4.012-4.012 1.897.114 3.787.222 4.011-1.338 2.526.148.928 4.422 4.012 4.013 5.958-1.044 12.764-4.234 18.721-1.337-4.203 3.759 3.469 3.66 0 6.686 1.74 3.671 4.565 4.685 6.686 6.687 1.034.977 1.563 3.186 2.675 4.012.794.591 3.572 1.026 2.674 0 .01.01 2.313.558 1.337 1.337-1.136.909-.705 1.027 0 2.675.198.461 2.585 1.021 2.675 1.337-.087-.304-1.715 4.098 0 2.675 1.431-1.187.841-.754 1.337 1.337 5.57-.222 11.16-.463 13.372 2.675 4.071-.83 2.612-7.192 6.686-8.022-.254-1.518-1.341-.742-1.337 0-3.143-.018.489-3.647 2.674-2.675v-5.349c.226-4.684-4.705-4.21-6.686-6.687.473-1.873 2.354-.115 2.674 1.337 4.043-2.714-8.273-4.798-4.011-8.021-1.255-.836-1.107 1.291-1.337 1.337-.572.114-2.089-3.406-2.674-2.675-1.632 2.039-.316.032 0-1.337-.104.445-2.027-.647-1.338-1.337.446-.445 2.124.342 2.675 0-.208-3.773 3.779-3.353 5.349-5.35-.254-1.518-1.342-.742-1.337 0-3.142-.018.489-3.647 2.674-2.675-1.16-.89-.781-3.911-2.674-4.011-4.752-.25 3.548-2.295-2.674-2.676 2.315-3.291-.638-10.25-5.35-10.696 1.963-3.271-.558-11.302-1.337-16.046 1.709-1.856 6.313-.818 8.023-2.676.835-1.255-1.292-1.106-1.337-1.337-.211-1.055 4.45-2.172 1.337-2.674 1.875-3.308 4.605-2.359 8.022-1.338 1.452-.33.907-2.658 2.675-2.674.592 1.942 1.174-.136 2.674 0v-12.034c4.063-.839 11.518 1.712 13.372-1.338 1.829 2.348 6.485 5.391 9.359 2.675 2.384-3.596-5.89-2.585-1.337-4.012-.583-1.646-1.711-2.746-4.011-2.674 2.596-2.576-1.406-5.382-1.337-9.36 1.814-.414 1.109-3.349 1.337-5.349 2.344 2.529 4.646-2.334 4.011 4.011 3.017-.995.523-7.5 1.337-10.697 1.3-.036 1.038-1.636 1.337-2.674 3.581-.877 5.084-3.83 8.023-5.349-1.145-3.119 4.676-5.762 1.337-6.687.749-3.874 2.085 2.051 4.011 1.337v8.022c.696 1.979 1.979 3.37 2.674 5.349 1.519-.254.743-1.341 0-1.337 1.859-3.054 4.626 4.184 6.687 5.349 3.595 2.385 2.584-5.889 4.011-1.337 3.752-.018-3.184-3.647 2.675-2.675-.461-4.352.608-8.302 0-13.371-.088-.729-1.231-3.254-1.337-2.675.201-1.11 5.939-3.908 2.674-5.349.107-3.041 4.55 1.6 6.687 1.338 1.279-.157 3.219-1.712 5.349 1.337.902 1.291.359 2.9 1.337 4.012 5.024 5.7 13.16 11.816 18.721 17.383a108.867 108.867 0 00-16.047-16.046c.255-1.518 1.343-.742 1.337 0 6.317 5.717 13.225 10.845 17.384 18.72 3.886-.023 3.162-7.557 1.337-9.358-3.625-.832-3.328-5.587-8.023-5.349-2.823-5.2-6.036-10.012-12.035-12.035 2.372-1.318-1.154-4.814-1.337-8.022-.149-2.648.185-4.21-2.674-4.012 1.54-1.58 1.513-4.728 1.337-8.023-.398-2.077-2.896-2.791-4.011-4.011-2.615-2.863-6.188-6.778-9.36-10.697-3.18.395 1.486 3.617 2.674 4.012-.831 2.443-5.586-2.311-5.349-5.35-.683-2.463-3.521.613-4.012 0-.196-.244.227-1.128 0-1.337-.827-.762-2.563-2.52-2.674-5.349 5.687-.57 11.153-2.242 17.383 0 .743.268 3.432 4.23 4.012 1.337 1.808-.227 2.672 6.801 4.011 2.675 1.944.593-.136 1.174 0 2.674 1.556.218 2.379-.295 2.675-1.337 1.349 1.034 4.97 6.41 6.686 2.675 2.899 2.004 3.115 6.69 8.023 6.687-2.483.772.581 7.209 1.337 4.012 1.518.254.742 1.341 0 1.337 1.252 1.663 2.195 3.868 4.012 5.35 2.765 2.253 6.5 3.118 9.36 6.686.72.898 2.609 6.75 4.012 5.349 1.739-1.738.419-.217 0 1.338 2.287-.28 3.463 2.279 4.012 0 1.786 1.199 1.452 1.856 4.011 4.012-.742-.626 1.015-1.741 1.338-1.337.288.36 1.247 5.438 2.674 4.012.059-.058-.035-1.34 0-1.337 1.859.14.291 2.135 1.338 2.674 1.361.702 3.667-3.266 1.337 1.337 3.602 1.985 6.427-1.512 4.012 2.675 1.478-1.06 3.193 2.155 4.011 1.337 1.239-1.238 1.029.063 2.676 1.337-.011-.007.558 2.313 1.337 1.339 2.432-3.04.299 1.302 2.675 2.674 1.499.866 4.689.441 4.011 0 2.181 1.419-1.145 1.172 0 2.675 2.156 2.827 7.167-2.19 4.012 2.674 2.287-.281 3.465 2.28 4.013 0 2.302.478 3.775 7.8 8.022 8.023 2.578.136 1.983 3.271 1.337 2.674 1.554 1.438 2.396.188 4.013 1.337 1.097.78 3.444 3.446 5.349 5.35l10.697 10.697c2.148 2.149 5.075 4.875 5.349 5.349.232.404-1.386 1.855-1.338 2.675-.01-.169 1.294.507 1.338 1.337.093 1.773.57 2.81 1.337 4.012.835 1.31.859 2.102 1.337 4.012.239.957 1.295 1.146 1.337 1.337.702 3.159-1.38 9.314 4.013 9.36-2.32 5.904 3.813 13.677 4.012 21.396 1.427 1.246.416 4.933 4.012 4.012-1.485 3.452.019 5.589-1.337 10.697-.23.869-1.316 1.233-1.338 1.337-.153.768 1.041 1.872 1.338 1.337-1.924 3.469-4.159 3.146-6.687 5.349.049 2.028 1.598.105 1.337 0 3.379 1.358.257 2.25-2.674 2.675.974 3.648-2.657 2.691-2.676 5.35-1.942-.594.138-1.175 0-2.675-2.153 2.747-6.703 3.102-12.033 2.675-.635 4.199 1.668 5.464 4.012 6.686-.593-1.189-1.174-2.392-2.675-2.674-1.04-3.466 5.764 2.437 5.349 4.012.022-.083-2.21.455-1.337 1.337.372.375 2.11-2.018 2.675-1.337.588.71.439 3.832 1.337 4.011.695.141 1.937-.87 1.337-1.337 1.812 1.409-.055.453 0 1.337-.019-.306 5.491 5.772 6.687 6.688.671.512 3.433.69 4.012 1.337.342.381-1.668 1.835-1.337 2.674.419 1.064 6.063 4.817 8.023 6.688-.594-1.19-1.176-2.393-2.676-2.676 1.498-2.725 2.909 1.41 4.013 2.676 1.063 1.219 3.662 3.357 4.012 4.011.447.837.465 9.244 2.674 9.36 1.679.089-.106 2.074 0 4.012.054.945 1.089 1.533 1.337 2.675.278 1.276-.28 2.736 0 4.011.057.248 1.277.188 1.338 1.338.133 2.521-.403 9.112 4.012 9.359-1.801.356-1.862 7.854 1.338 8.023 2.127.111-.014 1.4 0 1.337-.269 1.335 2.342 3.259 2.674 4.012.626 1.42.186 4.698 2.675 5.349-.584 1.23-1.187 2.341-2.675 2.676.517-.116-.755-2.065-1.337-1.339-.562.701-3.829 3.455-5.349 5.35-.908 1.132 1.312 1.21 1.337 1.338.113.571-3.406 2.089-2.675 2.674 2.504 2.003-.858.158-1.338 1.337-.8 1.975-.947 3.881-1.337 5.35-.61 2.313-1.06 3.729-1.337 5.349-.457 2.666 1.453 6.832-1.337 9.36.746 2.786 4.022-1.984 1.337 2.675-3.921.98-5.75 4.056-8.022 6.686-3.949 1.163 3.103 2.002 1.338 5.35-2.811 2.538-6.853 3.847-10.698 5.349-1.786 1.333-2.625 3.614-5.349 4.012.059 2.287-.993 3.463-2.675 4.013.255 1.518 1.343.741 1.338 0 3.615 1.2-2.82 3.228-4.013 4.011 1.752 5.381 3.483 10.78 2.675 18.721.733.791.742 1.697 1.337 2.674.438.722 2.01 3.711 2.676 4.013.68.308 2.781-2.481 2.674 0 .746 2.786 4.022-1.984 1.337 2.675 1.555.217 2.38-.295 2.675-1.338 1.943.593-.136 1.175 0 2.675 1.466 1.065 2.491-1.356 2.675-1.337 1.859.195.271 2.064 1.337 2.674 1.355.774 2.794-1.28 2.675-1.337.177.083 2.622 1.224 2.675 1.337.233.52-.4 2.313 0 2.675 1.01.916 3.08.372 4.012 1.337.688.712 2.134 1.969 2.674 2.675.625.817.574 3.218 1.337 4.012.596.619 4.197-3.199 1.338 1.338 1.555-.218 2.379.295 2.675 1.337 8.13-.786 14.609 1.073 21.395 0 2.85-.451 6.882-1.318 9.36-2.675.699-.384-.11-1.145 1.337-1.337 2.011-.27 4.669-.222 6.687 0 .038.004.303 1.337 1.337 1.337 1.139 0 1.262-.333 1.337-1.337 1.943.593-.136 1.175 0 2.675 4.293-1.112 2.772-1.14 5.35 1.337 2.219 1.084 4.188-.968 6.686-1.337 2.514-.372 6.502 1.429 8.023-1.338 1.807-.227 2.673 6.801 4.012 2.675 1.248.758 2.025 3.718 2.674 1.337 1.944.593-.136 1.175 0 2.675 2.287-.281 3.464 2.279 4.013 0 1.588-.521.678 2.334 1.337 2.674 1.266.652 3.73-3.223 1.338 1.337 1.554-.217 2.379.295 2.674 1.339 5.574-.646 12.938.861 18.721 0 2.795-.418 8.367-.485 8.022-4.013 4.926 3.345 14.482-3.552 18.721 1.337 1.152 1.329 2.748 5.456 6.687 5.35v1.337H-1.009V168.512c6.375 5.377 5.335-7.964 6.687-8.022-.246 1.137.521 1.261 1.337 1.337-.228-5.286 2.054.428 4.012-2.674v-5.35c-1.943.731-6.911-1.563-6.686 1.337 3.82.696-2.158 1.979-2.675 2.674-.021 3.546.742 7.874-2.674 8.023C-1 110.539-1 55.27-1 0h1210.135v611.085zM696.999 966.771c1.5.282 2.082 1.483 2.676 2.674 3.622-1.208-3.059-2.991-2.676-5.349-1.614.284-.821 1.484 0 2.675zM48.475 127.031c2.265-.566-.067-1.286 0-2.674-.043.889 1.339-2.677 1.337-2.674 1.314-2.336 5.892-2.27 4.011-6.687-4.521-.494-1.377 3.972-4.011 1.337-.673-.673-2.649 2.22-2.674 2.674-.191 3.631-4.492 3.548-4.012 6.687.138.899 2.462 5.908 5.349 2.674-2.451-.41-3.074-.569 0-1.337zm-44.126-1.338c-.948 2.488 1.62 5.188 1.337 6.686-.09.479-3.396-.105-2.674 1.337 2.756.364.319 5.922 4.011 5.35 1.727-1.222-.189-5.735 1.337-8.023.171-.256 2.613.263 2.675 0 .449-1.93-1.308-2.856-1.338-4.011.041 1.521 3.546-6.684 0-5.349.975 2.186-2.656 5.815-2.674 2.674.743.004 1.519-1.083 0-1.337.362 1.745-2.326 1.76-2.674 2.673zm48.138 32.093c3.297.176 6.442.202 8.023-1.337.16-3.852-.73-8.753 1.337-10.697-3.264-1.528-5.483-2.228-9.36-1.337-.632.146-2.161 4.283-4.012 4.011-.19-.027-.111-2.187-1.337-1.337-.065 3.758 1.214 8.27 4.011 5.35.004 1.341-1.083 1.591-1.337 2.674 2.331 2.515 5.151-1.83 2.675 2.673zm12.034 131.042c-.642-.417-1.348-1.742 0 0 .141 1.675 1.671 1.854 2.674 2.674.452.37-.416 2.25 0 2.675 1.091 1.112 4.345.133 4.013 2.674-3.949 3.103 3.103-2.612 1.337 2.674h5.349c1.363-1.757 1.312-4.929 2.674-6.687-2.3.072-3.428-1.028-4.011-2.674 1.616.137.822-1.943 0 0-1.754.266-.665-1.82-1.337-2.674-.827-1.051-3.012-.431-4.011-1.337-.4-.363.233-2.155 0-2.674-.039-.086-2.529-1.281-2.674-1.337.015.006.041 1.286 0 1.337-.777.971-1.387-1.367-1.338-1.337.472.292 2.038-.688 1.338-1.337-.438-.406-2.305.452-2.675 0-.114-.142.149-1.277 0-1.337-1.171-.472-7.193-2.304-8.022 0 1.616.282.822 1.483 0 2.675 5.071 2.672 12.239 10.289 6.683 6.685zm307.548-4.012c-1.671 6.247-1.546 15.033 2.675 18.72-.371-.323 1.375-1.853 1.337 0-3.186 2.796 3.568-.181 0 2.675-.947.758 1.389 1.475 1.337 1.337.601 1.604-.072 3.099 1.337 1.337 1.329-1.661.34 3.335 0 2.674.539 1.047 2.535-.523 2.674 1.337.001.015-2.208.247-1.337 1.337 1.191.784 7.627 2.811 4.011 4.012.004-.742-1.083-1.518-1.337 0 3.578.705 4.322 6.728 6.687 4.012-.322.37-1.854-1.375 0-1.337 1.792 2.654 4.102 6.399 5.349 8.022.677.88 2.334 1.724 2.674 2.674-.023-.068-2.368 1.411-1.337 2.675 1.522 1.957 3.156 2.581 4.011 4.011-.174-.291-2.014.435-1.337 1.337.56.746 2.979-.328 2.674 1.337-.04.218-2.178.091-1.337 1.337 1.58.648 3.032 1.426 4.013 2.674-3.16.373 1.532 3.571 1.337 5.35-1.122 1.552-1.765 3.585-1.337 6.686 1.631.152 3.166.4 2.674 2.675 5.919-.542 11.896 1.305 12.035-1.337.15-2.871 2.833 1.56 4.011-1.337v-14.708c6.07-5.298 4.171-20.303 5.349-26.744-2.971-.693-8.354-4.343-9.359-8.022.049.179 2.205-.43 1.337-1.337-1.145-1.196-2.965-1.316-4.012-2.675-.743-.965-1.126-2.593-2.674-2.674-2.477-.13-4.252-3.802-6.686-1.337.237-6.794-4.518-.293-5.35-5.349 2.381-.648-.58-1.427-1.337-2.675 3.923-1.136-1.738-3.364 0-6.686-3.944-5.415-14.845-3.875-24.068-4.012-1.43 1.247-.418 4.932-4.014 4.011zm52.15 25.406c-4.475-2.478-1.168.344 0 2.674 4.474 2.477 1.167-.344 0-2.674zm-268.771 69.534c2.294.009 5.494-2.546 6.687-4.012 1.562-1.921 3.468-3.97 2.674-8.022-3.048-1.836-5.027 3.447-5.349 0 2.725-1.875-1.314-4.606 1.337-8.022.176-3.297.203-6.442-1.337-8.022 3.244-.786 5.71-1 12.034-1.337-1.531 4.206 2.1 3.249 2.674 5.349-2.899-.226-.605 4.743-1.337 6.686 2.501-.07 2.831 1.03 1.337 2.676 1.397 2.015 2.929-.37 4.012 0 .679.23.025 2.288 1.337 2.674.874.257 2.77-.482 2.674-1.337-2.052-.521-.195-1.605 1.337 0 .527-1.859-1.983-4.013 0-4.013 3.019 0 .545-6.587 1.337-10.696 4.556-1.455-.771-7.384 4.012-4.011-.057-1.335.069-2.679 0-4.013-.069-1.313-1.189-.881-1.337-1.337-.612-1.88-.276-3.815-1.337-5.349-1.557-2.247-7.741-1.913-6.687-6.687-3.552.015-7.637-.505-9.36 1.337-.15-1.632-.399-3.166-2.674-2.674-.319-1.453-2.202-3.21-2.674-1.337.742-.004 1.519 1.083 0 1.337-1.785-2.5-.858-4.491-2.674-2.674-1.444 1.444-.528-3.22 0-2.674-.113-.117-4.215-1.349-4.012-1.337-1.33-.07-.861-1.178-1.337-1.337-1.336-.45-4.219.789-5.35 0-.108-.076.111-1.317 0-1.337-2.16-.393-4.518.346-6.686 0-1.724-.275-1.889-1.116-4.012-1.338-5.011-.521-6.443-1.051-9.359-1.337-6.248-.613-9.069 1.396-12.035 1.337-6.881-.133-13.005-2.486-18.72-1.337.227 5.287-2.055-.428-4.012 2.675-.308 4.241-1.691 6.471-1.337 9.359-.016-.128 2.459.754 2.674 1.337-.155-.424-2.596 2.681 0 2.674.521-2.052 1.605-.195 0 1.338 4.899-.989 7.431 3.288 10.697 0 .3 1.037.037 2.637 1.337 2.674.521-2.053 1.604-.197 0 1.337 2.917.852 4.254-3.79 4.012 1.337 4.22.654 4.722-2.41 9.359-1.337 3.759-2.797-.216-5.025 4.011-6.687.017 1.768 2.345 1.223 2.675 2.675v6.686c5.04 1.028 6.392-1.631 10.697-1.337-3.241 5.037 1.11 9.354-1.337 14.708 3.844-.277 6.792.339 8.023 2.674-2.31 7.602-3.938 9.359-4.011 17.383 1.702 1.863 6.55.582 6.686 4.013-3.516-3.477-1.052 2.16-5.349 1.337.043 4.859 3.932 5.875 9.359 5.349.75-2.729 4.027-2.626 1.341-5.351zm-45.463-17.384h-6.686c-.151 1.633-.4 3.166-2.674 2.676.608 6.256-.322 8.089 6.686 9.359 1.158-2.93 7.14-7.913 4.011-10.696-.073 1.405-1.714 1.05-1.337-1.339zm287.49 9.36h-9.36c-.917 2.995-4.019 6.7-1.337 9.36-2.55-2.511-2.419.793-6.686 0 .97 4.09-2.307 3.933-1.337 8.022 2.738 3.058 6.868 4.722 8.022 9.36 5.099-2.889 2.726 2.688 9.36 1.337.381-1.773.057-2.938 1.337-1.337 1.137 1.422-1.221-5.036 2.674-2.674 1.016-3.574-1.021-7.288-1.337-10.697-.411-4.447 1.461-9.047-1.337-12.034.004.742-1.083 1.519-1.337 0 .817-.076 1.584-.2 1.338-1.337zm-201.912 14.709c-1.732-.462-3.019.939-4.012 1.337.354-5.536-5.188-1.777-5.349-4.011.815-.076 1.583-.2 1.337-1.337-7.41-.722-12.944 6.05-9.36 12.035 3.222.547 2.906-2.442 6.687-1.337-.996 6.056 3.67-2.044 2.674 4.012 5.043.007 12.516-7.573 9.359-9.36-.547 3.186-1.092-1.274-1.336-1.339zm145.751 13.372c.024.035 1.297.04 1.337 0 .891-.89-1.19-1.218-1.337-1.337-.44-.361-1.049-3.56-1.337-4.011-.94-1.478-1.509-2.806-1.337-5.35h-5.349c.925 8.477-.642 13.739 4.011 17.383-.363-.284 1.37-1.884 1.337 0-.816.076-1.583.2-1.337 1.338 3.403.162 5.186 1.945 5.349 5.349 3.491-1.108 7.336 4.044 9.36 0-2.052-.521-.196-1.605 1.337 0-.816-4.6-2.108-10.401-4.011-8.023-.774.969-1.403-1.374-1.337-1.337.083.047 1.277.06 1.337 0 .866-.865-3.853-1.847-4.013 0 3.332-3.843-2.981-2.514-4.01-4.012zm-173.831 8.023c2.727-.683 4.108 4.062 4.012 4.012 1.669.866 5.186-.961 5.349 1.337-1.406.073-1.052 1.714 1.337 1.337 1.26-1.134.885-3.293 1.337-8.022-3.438-1.434-2.172-3.177-4.011-1.337-.993.993-1.89-4.254-4.012-2.674-.398 2.721-2.679 3.561-4.012 5.347zM61.847 504.112c1.808.42 2.554 1.903 5.349 1.337.374-3.048-.321-5.025-2.674-5.349-.321 1.909-2.203 2.255-2.675 4.012zm94.939 37.44c-1.472 1.47-1.776-6.813-5.35-1.338 1.187.294 1.383 1.384 0 0-1.85-1.851-1.509 7.713-2.674 6.687-1.911-2.219-4.293-.252-6.686 2.674 1.615.283.821 1.484 0 2.676 2.489.184 4.469.88 5.349 2.674-3.326.201-.391 4.527 0 5.349-.821-.391-5.147-3.326-5.349 0 2.052.521.195 1.605-1.338 0 .733 5.334.733 4.027 0 9.36 3.153 1.963 2.488 2.821 6.687 1.337-.004 1.342 1.083 1.592 1.337 2.675 1.481 5.174-4.727 4.757-1.337 8.021-1.038.301-2.638.037-2.674 1.339 1.58.647 3.031 1.426 4.012 2.674-2.38.647.58 1.426 1.337 2.675-2.135.939 1.123 7.686 4.012 8.021 1.55-1.979 1.55-3.369 0-5.349 1.038-.299 2.638-.036 2.675-1.337-2.35-.628.539-1.453 1.337-2.675-.388.593-1.833-2.225 1.337-1.337-1.654-4.583-1.776-14.141-1.337-18.721.091-.951 1.739.056 0-1.338-.975-.778 1.35-1.354 1.337-1.337-.048.064-.051 1.286 0 1.337.876.876 1.905-3.025 2.674-2.674 1.011-8.036-7.262-13.741-1.337-18.721-4.062-.51-1.427-5.257-4.012-2.672zm100.287 156.449c-3.653-4.922-10.995-3.404-17.383-2.676.553 3.811-1.521 4.13-1.337 6.688.014.182.913 4.812 1.337 5.349.876 1.106 2.125-.407 2.674 1.337.004.01-1.87 1.164-1.337 2.674.323.914 2.435-.344 2.675 1.339.035.251-2.313 1.09-1.338 2.674.418.681 3.133-.269 2.675 1.337-3.769 2.996 1.477 8.24 6.686 6.687.648-1.58 1.426-3.03 2.674-4.012.528-2.301-1.983-3.428 0-4.012.518 3.103 1.601-1.533 2.674-1.337.198.035.115 2.191 1.338 1.337.354-.248 1.25-6.886 2.674-2.675-.743-.005-1.519 1.084 0 1.338 1.54-1.58 1.514-4.728 1.337-8.023-5.127.243-.485-1.094-1.337-4.011-1.924-.877-8.479-3.83-5.35-5.35-.714 2.777 5.212 2.832 1.338 1.336zm5.348 28.08c-1.341.005-1.591-1.083-2.674-1.337.265 3.73-3.774 4.491 0 6.687-.326-.189 1.34-1.96 1.337 0-4.549 4.728-.888 2.38 0 4.012-2.637 2.019-4.591 2.256-6.687 5.35.238-.353 2.086.588 1.337 1.337-.231.231-2.604-.263-2.674 0-.69 2.566.482 5.967 0 10.696h8.023c-.072-2.501 1.028-2.83 2.674-1.337-.072-2.301 1.029-3.428 2.674-4.012v-22.731c-2.491 1.278-4.469-4.005-5.349 0 .818.074 1.585.197 1.339 1.335zm262.085 44.127v-10.696c-2.501.07-2.831-1.029-1.337-2.675-1.58-.648-3.031-1.427-4.013-2.675 2.612-.727-.886-1.323-1.337-2.675.086.257 1.579-1.419 1.337-2.674.194 1.008-1.684-3.021-1.337-2.675-1.052-1.052-1.859.145-2.674-1.337.286.521 1.501-.556 1.337-1.337-.121-.573-3.139-1.263-2.674-2.675h-8.023c-1.729 3.861-.299 6.904 2.675 9.359-1.043.295-1.556 1.119-1.338 2.674-.899 6.694 1.238 10.352 1.338 16.046.662 1.816 3.9-.104 4.012 0 .202.194-.21 2.64 0 2.676 3.349.582 4.56-3.273 4.011 1.337 2.629.399 2.652-1.807 4.012-2.674 4.052 4.498-.336-4.203 4.011.001zm149.763 40.114c-1.125-3.647-.471-9.918-4.012-9.358-2.091 1.604-1.353 4.259-2.675 5.349.431-.354-1.589-1.884-2.675-1.338-.917.462-1.25 4.154-2.674 4.012-.156-.016-.139-2.196-1.338-1.337-.573 2.546-2.88 3.359-2.674 6.687 1.037.3 2.638.036 2.674 1.337 4.086.967 4.873-1.366 8.023-1.337 3.152.413 2.486 4.644 6.686 4.012-.136-1.5 1.944-2.082 0-2.675.136-1.5-1.943-2.081 0-2.674 2.866 2.994-1.054-1.765-1.335-2.678z"
        ></path>
        <path d="M836.065 986.828v-1.337c-3.938.107-5.533-4.02-6.686-5.349-4.237-4.889-13.795 2.008-18.722-1.337.346 3.525-5.228 3.595-8.021 4.012-5.783.862-13.146-.646-18.721 0-.296-1.043-1.12-1.555-2.675-1.338 2.395-4.56-.071-.685-1.338-1.337-.659-.34.251-3.195-1.337-2.674-.548 2.278-1.725-.281-4.012 0-.136-1.5 1.943-2.082 0-2.675-.648 2.381-1.426-.579-2.674-1.337-1.34 4.126-2.205-2.9-4.013-2.676-1.521 2.768-5.51.967-8.022 1.339-2.497.368-4.467 2.421-6.687 1.337-2.575-2.477-1.056-2.449-5.349-1.337-.136-1.5 1.943-2.082 0-2.676-.076 1.004-.199 1.337-1.337 1.337-1.034 0-1.299-1.333-1.337-1.337-2.019-.221-4.676-.269-6.688 0-1.446.193-.637.954-1.337 1.337-2.479 1.356-6.511 2.225-9.359 2.676-6.784 1.072-13.266-.786-21.396 0-.295-1.042-1.12-1.556-2.674-1.337 2.859-4.537-.743-.72-1.338-1.339-.764-.794-.712-3.192-1.337-4.011-.54-.707-1.986-1.963-2.674-2.675-.933-.965-3.003-.421-4.013-1.337-.399-.363.234-2.155 0-2.675-.052-.113-2.498-1.254-2.675-1.337.12.057-1.318 2.11-2.674 1.337-1.065-.608.521-2.479-1.337-2.675-.185-.02-1.209 2.403-2.675 1.338-.137-1.5 1.942-2.082 0-2.676-.295 1.043-1.12 1.556-2.676 1.338 2.688-4.658-.591.112-1.337-2.675.108-2.48-1.994.309-2.674 0-.666-.301-2.236-3.291-2.675-4.012-.595-.977-.604-1.883-1.337-2.674.809-7.94-.923-13.34-2.675-18.722 1.19-.782 7.628-2.81 4.012-4.011.005.742-1.083 1.519-1.337 0 1.681-.549 2.732-1.725 2.674-4.012 2.725-.397 3.563-2.679 5.35-4.012 3.847-1.502 7.889-2.811 10.697-5.35 1.766-3.347-5.287-4.186-1.338-5.349 2.273-2.63 4.104-5.704 8.023-6.687 2.686-4.658-.591.112-1.337-2.675 2.79-2.527.88-6.693 1.337-9.359.276-1.62.726-3.035 1.337-5.35.389-1.468.537-3.375 1.337-5.349.479-1.179 3.841.666 1.338-1.337-.732-.585 2.788-2.104 2.674-2.674-.024-.128-2.245-.206-1.337-1.338 1.521-1.895 4.788-4.647 5.349-5.35.582-.728 1.854 1.222 1.338 1.338 1.487-.335 2.091-1.443 2.675-2.675-2.489-.65-2.049-3.929-2.675-5.349-.332-.753-2.941-2.678-2.675-4.013-.014.064 2.127-1.225 0-1.337-3.199-.169-3.138-7.667-1.338-8.022-4.415-.247-3.879-6.838-4.011-9.359-.061-1.151-1.282-1.09-1.338-1.338-.281-1.274.278-2.734 0-4.011-.248-1.143-1.284-1.729-1.337-2.675-.107-1.938 1.678-3.924 0-4.013-2.209-.116-2.228-8.522-2.674-9.359-.351-.652-2.948-2.792-4.013-4.012-1.103-1.265-2.514-5.398-4.012-2.675 1.5.283 2.082 1.484 2.675 2.675-1.961-1.869-7.604-5.622-8.022-6.687-.331-.839 1.679-2.293 1.337-2.674-.579-.646-3.341-.825-4.013-1.337-1.193-.914-6.703-6.992-6.686-6.688-.055-.884 1.811.072 0-1.337.599.466-.643 1.478-1.337 1.337-.897-.179-.749-3.301-1.337-4.011-.564-.681-2.303 1.712-2.675 1.337-.873-.882 1.358-1.42 1.337-1.337.415-1.575-6.39-7.479-5.35-4.012 1.501.281 2.082 1.482 2.676 2.674-2.345-1.223-4.646-2.485-4.013-6.687 5.33.428 9.88.073 12.034-2.674.137 1.5-1.943 2.081 0 2.674.018-2.656 3.648-1.699 2.675-5.349 2.932-.425 6.053-1.316 2.674-2.675.262.104-1.288 2.027-1.337 0 2.527-2.202 4.764-1.88 6.688-5.35-.297.535-1.491-.568-1.338-1.337.021-.103 1.105-.467 1.338-1.337 1.354-5.107-.149-7.245 1.337-10.697-3.596.922-2.585-2.765-4.012-4.012-.197-7.718-6.332-15.49-4.013-21.395-5.392-.046-3.31-6.201-4.012-9.36-.042-.192-1.098-.38-1.337-1.337-.479-1.91-.502-2.702-1.337-4.012-.768-1.202-1.244-2.237-1.337-4.013-.044-.83-1.349-1.506-1.338-1.337-.048-.817 1.569-2.27 1.338-2.674-.273-.474-3.199-3.199-5.35-5.349l-10.696-10.697c-1.903-1.903-4.252-4.569-5.35-5.35-1.617-1.148-2.459.102-4.012-1.337.646.599 1.241-2.538-1.337-2.675-4.247-.224-5.722-7.547-8.023-8.022-.548 2.28-1.725-.281-4.012 0 3.155-4.864-1.854.152-4.012-2.674-1.146-1.503 2.181-1.256 0-2.676.68.442-2.513.866-4.012 0-2.376-1.371-.242-5.714-2.675-2.674-.778.976-1.347-1.345-1.337-1.338-1.646-1.273-1.436-2.576-2.675-1.337-.817.818-2.534-2.396-4.011-1.337 2.415-4.188-.41-.689-4.013-2.675 2.33-4.604.024-.635-1.337-1.337-1.047-.539.522-2.534-1.338-2.674-.035-.004.06 1.278 0 1.337-1.426 1.427-2.385-3.65-2.674-4.013-.324-.403-2.081.711-1.337 1.337-2.559-2.153-2.225-2.812-4.011-4.011-.548 2.279-1.726-.281-4.013 0 .42-1.555 1.739-3.077 0-1.338-1.4 1.401-3.292-4.45-4.012-5.349-2.859-3.566-6.595-4.434-9.359-6.687-1.816-1.479-2.761-3.686-4.013-5.349.743.004 1.519-1.083 0-1.337-.756 3.197-3.819-3.238-1.337-4.013-4.908.006-5.124-4.682-8.022-6.686-1.717 3.735-5.337-1.641-6.687-2.675-.295 1.042-1.12 1.555-2.674 1.337-.136-1.5 1.944-2.081 0-2.674-1.339 4.126-2.204-2.9-4.011-2.675-.58 2.895-3.27-1.069-4.013-1.338-6.229-2.241-11.696-.569-17.383 0 .111 2.829 1.849 4.588 2.674 5.35.228.209-.195 1.093 0 1.337.491.613 3.329-2.463 4.013 0-.238 3.039 4.517 7.793 5.349 5.349-1.188-.394-5.854-3.617-2.674-4.011 3.173 3.919 6.746 7.834 9.359 10.697 1.114 1.22 3.612 1.934 4.012 4.011.176 3.297.203 6.443-1.337 8.023 2.857-.198 2.523 1.361 2.674 4.012.182 3.208 3.709 6.704 1.337 8.021 5.999 2.024 9.211 6.835 12.035 12.035 4.694-.238 4.397 4.518 8.022 5.35 1.824 1.803 2.55 9.335-1.337 9.358-4.159-7.875-11.065-13.003-17.383-18.72.004-.742-1.083-1.518-1.337 0a108.812 108.812 0 0116.046 16.046c-5.561-5.565-13.696-11.683-18.72-17.383-.979-1.11-.436-2.721-1.337-4.012-2.13-3.05-4.07-1.494-5.35-1.337-2.136.262-6.578-4.38-6.686-1.339 3.265 1.44-2.473 4.238-2.674 5.35.104-.579 1.25 1.945 1.337 2.675.607 5.069-.461 9.02 0 13.371-5.858-.975 1.077 2.657-2.675 2.675-1.428-4.552-.416 3.721-4.012 1.337-2.06-1.165-4.826-8.402-6.686-5.349.743-.004 1.518 1.083 0 1.337-.696-1.979-1.979-3.369-2.674-5.35v-8.021c-1.926.714-3.264-5.211-4.011-1.337 3.338.925-2.481 3.565-1.337 6.686-2.938 1.52-4.442 4.473-8.023 5.35-.299 1.038-.037 2.638-1.337 2.674-.814 3.197 1.678 9.702-1.337 10.697.634-6.346-1.667-1.48-4.011-4.012-.229 2 .478 4.936-1.337 5.35-.069 3.979 3.934 6.784 1.337 9.359 2.3-.071 3.428 1.029 4.011 2.675-4.552 1.427 3.721.416 1.337 4.012-2.875 2.716-7.531-.327-9.36-2.675-1.854 3.05-9.308.499-13.372 1.338v12.034c-1.5-.137-2.082 1.942-2.674 0-1.768.016-1.222 2.344-2.674 2.674-3.417-1.022-6.148-1.971-8.023 1.338 3.113.502-1.548 1.619-1.337 2.674.046.229 2.173.082 1.337 1.337-1.71 1.856-6.313.818-8.022 2.675.779 4.744 3.3 12.775 1.337 16.046 4.711.446 7.665 7.405 5.349 10.697 6.223.38-2.078 2.425 2.674 2.675 1.894.101 1.516 3.121 2.675 4.012-2.187-.975-5.816 2.656-2.675 2.675-.004-.742 1.084-1.519 1.338 0-1.569 1.997-5.558 1.575-5.35 5.349-.55.342-2.229-.445-2.674 0-.69.689 1.234 1.783 1.337 1.337-.315 1.37-1.631 3.376 0 1.337.585-.73 2.104 2.789 2.674 2.676.23-.047.082-2.174 1.337-1.338-4.263 3.226 8.056 5.31 4.012 8.022-.32-1.452-2.202-3.21-2.675-1.337 1.981 2.476 6.911 2.003 6.687 6.686v5.35c-2.187-.975-5.817 2.656-2.674 2.675-.004-.742 1.083-1.519 1.337 0-4.072.83-2.613 7.192-6.687 8.021-2.212-3.137-7.802-2.896-13.372-2.674-.497-2.091.095-2.522-1.337-1.337-1.715 1.422-.087-2.979 0-2.675-.09-.316-2.477-.876-2.674-1.337-.706-1.647-1.136-1.766 0-2.675.975-.779-1.329-1.327-1.337-1.337.898 1.025-1.88.591-2.674 0-1.111-.826-1.642-3.035-2.675-4.013-2.119-2.002-4.944-3.015-6.687-6.686 3.469-3.025-4.203-2.927 0-6.687-5.958-2.896-12.763.293-18.72 1.338-3.083.408-1.486-3.863-4.012-4.013-.226 1.56-2.114 1.452-4.011 1.337-.811 3.626-2.646 1.214-4.013 4.013.199-.408 1.908 2.014 0 2.675-1.038.3-2.638.036-2.674 1.337-.743-.004-1.518 1.083 0 1.337 3.479-2.771-2.269 1.489-1.337 4.012 1.117.464 1.05.498 0 1.337-1.668 1.335 3.144.081 2.675 0 1.407.242 2.438 8.69 4.011 4.013-3.646-2.081 6.899 1.013 4.013 6.686-3.084-2.653-1.486.336-4.013 1.338-4.266.793-4.135-2.51-6.686 0 .243-2.917-1.094-4.255-4.011-4.012-.283 1.616-1.484.822-2.674 0-1.428 1.247-.416 4.933-4.013 4.012-4.583.466-7.013-2.551-9.359-2.675-1.272-.067-.935-1.218-1.337-1.337-1.228-.363-2.76.271-4.012 0-4.642-1.009-14.489-3.288-17.383-4.012-1.571-.394-3.212-.216-2.674-2.675-5.696-.099-9.353-2.236-16.046-1.338-.88-1.794-2.858-2.489-5.35-2.674-.136-1.5 1.944-2.082 0-2.675.409 4.179-3.862-3.398-4.012 1.338-4.929 2.144-8.481 1.137-10.697 0-1.225-.629-2.732-.506-4.011-1.338-.924-.603-.532-3.407-1.337-4.012-1.516-1.138-1.21 2.116-2.674 0 .261.377 1.8-.438 1.337-1.338-.412-.799-2.125-.078-2.674-1.337-1.062-2.43-1.465-5.3 0-6.686-5.858.974 1.077-2.657-2.675-2.675-.783 3.198-2.811-3.238-4.012-4.012 1.5-.137 2.082 1.943 2.675 0-1.979-.695-3.37-1.979-5.35-2.675-2.451-4.233-6.068-7.303-9.359-10.696-1.54-1.58-1.514-4.728-1.337-8.023-3.141-.426-2.993-4.139-5.35-5.349-1.579 2.442-1.157-3.069-5.349 0-1.21-2.355-4.922-2.209-5.35-5.35-.427-3.139-2.112-5.019-1.337-9.359-4.333-.783-2.5-2.811-4.011-4.012.004.742-1.083 1.519-1.337 0-.905-1.488-4.443.267-5.349-4.012.742.004 1.518-1.083 0-1.337-.757 3.197-3.82-3.239-1.338-4.012-1.772-.381-2.937-.058-1.337-1.337.974-.778-1.311-1.312-1.337-1.339.05.052.048 1.277 0 1.339-.771.965-1.284-1.274-1.337-1.339-3.479-4.176-6.264-7.24-9.359-10.696-.977-1.089-2.936-3.151-4.012-4.013 2.489 1.988-5.958-.836-4.012-2.674 2.38-.647-.58-1.426-1.337-2.675-.97-4.09 2.307-3.933 1.337-8.021-1.369-1.337-2.93-2.932-4.011-4.013-1.074-1.074-1.94.279-2.674-1.337.128.283 2.009-1.307 0-1.337-1.491 3.412-10.344-.537-12.035 2.674-1.188-2.378-3.733-3.397-2.674-8.021 1.34-2.838 5.396-6.479 8.022-4.012 1.151-4.645 5.557-6.032 8.023-9.36-2.072-1.493-2.785-4.347-6.687-4.012-1.229 2.336-4.181 2.95-8.022 2.675-1.844-1.725-1.324-5.81-1.337-9.36 2.501.071 2.83-1.029 1.337-2.675 1.907-.319 2.255-2.201 4.011-2.674.136 1.5-1.944 2.082 0 2.674 1.343-1.776 1.265-4.977 4.012-5.349 3.977-.055 10.689 3.979 12.034-1.337-6.654-.526 1.81-3.775-2.674-4.013-3.509-.185-1.749-9.237-1.337-8.021-.281-.828-2.365.21-2.674-1.337-.226-1.122 2.021-2.568 0-2.676-3.027-.158.332-3.348 0-4.012-.489-.977-2.214.255-2.675-1.337-.354-1.223 1.626-1.771 1.337-2.674-.253-.79-2.371.176-2.674-1.338-.258-1.29 1.286-1.632 1.337-2.674-1.776-1.344-4.976-1.266-5.349-4.013 1.5-.136 2.082 1.943 2.674 0-6.374-1.204-7.378-7.775-6.686-16.046-2.167-2.735-9.867.062-12.035-2.675-.299-2.528 1.507-2.95 1.337-5.349-4.736-.148 2.841-4.421-1.337-4.012-.248 1.979-3.231 1.227-5.349 1.337-2.31.812.103 6.344-2.675 6.687-2.662-1.615-5.711-1.101-6.686 0 2.38.647-.58 1.426-1.337 2.675 2.674 1.479-1.628 7.18 0 12.034-2.657.018-1.7 3.647-5.35 2.674-.282-1.615-1.483-.821-2.674 0-2.736-4.396-.722-13.54-1.337-20.057-1.042-.296-1.555-1.12-1.337-2.676-5.858.975 1.078-2.656-2.674-2.674.295 1.756-1.857.662-2.674 1.337-3.249 2.685-.327 10.588-1.337 14.709 1.615.282.821 1.483 0 2.674 2.917-.241 4.254 1.096 4.011 4.013-1.616.283-.822 1.483 0 2.674-3.524-3.545-2.827 3.96-6.687 4.012-.136-1.5 1.944-2.082 0-2.674-1.075 4.978-2.988 2.146-4.011 4.012-.22.401 1.828.087 0 1.337-1.199.82-2.243 1.143-4.012 1.338.072-2.501-1.029-2.831-2.674-1.338 3.022-3.514-1.111-1.439-1.337-4.012-.408-4.641 3.199-10.189 4.011-17.383.7-6.195-.52-11.979 0-18.721 2.501.07 2.831-1.029 1.337-2.674 2.3.07 3.428-1.029 4.011-2.676-1.637-.023.34-7.557 1.337-9.359-5.857.975 1.078-2.657-2.674-2.674-.284.872-.723 1.354-1.337 0-1.295-2.858.682-3.293-1.337-4.013-.169-.061-.713 2.091-1.337 0-1.287-4.313-2.126-10.069-1.337-16.046.658-4.98 1.148-5.469 0-9.36-.663-2.243-.779-3.165-1.337-5.349-.056-5.374-.116-9.784-1.337-10.697-2.024 1.987-5.869 2.154-9.36 2.675V486.69c3.445.22 6.427-6.804 8.022-4.012-1.452.32-3.21 2.202-1.337 2.675.283-1.5 1.484-2.082 2.675-2.675-.005-1.342 1.083-1.591 1.337-2.674.742.004 1.518-1.083 0-1.337.004.743-1.083 1.519-1.337 0 4.434-.469 2.099-7.707 2.674-12.034 4.307-2.139 5.778-6.082 8.022-8.022.809-.7.228-1.388 1.337 0 .777.97 1.301-1.298 1.337-1.337-.042.043-1.293.043-1.337 0-.875-.876 3.027-1.905 2.676-2.674-1.042-.296-1.556-1.12-1.338-2.675 4.719-1.349 2.449-2.312 4.013-5.349 1.038-.299 2.637-.037 2.674-1.337.742.004 1.518-1.083 0-1.337.004.742-1.083 1.518-1.337 0 1.776-1.343 4.976-1.266 5.349-4.012-2.953-.168-.567-5.673-1.337-8.023h-10.698c-.15-1.631-.398-3.166-2.674-2.674 2.829-3.465-.829-1.51-1.337-4.012-.492-2.425.354-4.411 0-8.022 1.668-.148 1.862-1.66 2.674-2.675.394-.491 2.063.882 1.337 1.337 2.04-1.281 2.042-3.255 4.013-4.011 1.554-.598 3.741.457 5.349 0 1.527-4.268 1.381-10.208 9.36-8.023-.567-7.111-.146-13.487-1.337-20.057-.571-3.149-2.588-6.052-2.675-9.36-.274-10.434 4.047-19.919 2.675-29.417-.681-4.712-3.854-7.547-4.012-12.035-2.508-.32.76-2.202-1.337-2.674.004.743-1.083 1.518-1.337 0-1.706-3.347.68-4.186-1.337-5.349-2.238 4.368-3.966-.723-6.686-1.337.062.014-1.276 1.558-2.676 1.337-.084-.014.076-1.244 0-1.337-.255-.313-2.237.101-2.674 0-1.943-.451-4.277-.72-6.686-1.338-.11-.027.09-1.227 0-1.337-.279-.341-3.508.027-4.013 0-1.216-.063-1.006-1.251-1.337-1.337-7.235-1.876-14.325-1.521-21.395-2.674-.295-1.042-1.12-1.555-2.674-1.337 2.394-4.56-.071-.685-1.337-1.337-.659-.339.251-3.196-1.337-2.674-.027 2.047-6.309-.669-8.023-1.337-.016 2.322-.577 2.264-2.674 2.674-4.178.818-10.74-1.37-14.708-1.337 4.152-4.132-4.527-2.26-2.674-8.023 3.936 1.876 1.584.676 1.337-1.337-.272-2.22 1.596-1.078 0-2.674-.818-.818 2.396-2.535 1.337-4.012-1.581-1.54-4.728-1.514-8.023-1.337.238-3.039-4.517-7.793-5.349-5.349 1.188.394 5.854 3.618 2.674 4.012-1.548-3.354-5.328-4.478-5.349-9.359h-8.023c1.003-2.701-1.864-1.727-1.337-1.338-1.15-.851-1.695-1.703-2.674-2.675-.174 2.278-3.33.833-5.35 1.337-.715.18-1.394 1.351-1.337 1.337-1.206.262-2.559-1.345-2.674-1.337-1.761.115-1.227 2.269-2.674 2.675-2.857-4.274-6.294-7.97-9.36-12.034.017-1.769 2.344-1.224 2.675-2.675-1.854-2.158-3.789-4.234-5.35-6.687 1.5-.136 2.082 1.944 2.674 0-2.13-1.343-5.381-1.265-2.674-4.012-2.297-1.448-5.984-2.459-6.686-4.011-.566-1.256 1.295-1.126 1.337-1.338.296-1.48-.911-.759-1.337-1.337.226.306-.513 1.439-1.337 0-.831-1.449-2.739-3.761-2.675-8.022.016-1.769 2.344-1.223 2.675-2.674-1.616-.283-.822-1.484 0-2.675-5.858.975 1.076-2.656-2.675-2.674-2.52 3.369-1.255-4.666-2.674-4.012-1.854 4.979-.201-3.936-2.674-2.674-.136-1.5 1.943-2.082 0-2.674-.767 2.787-8.651 1.673-8.022-1.337-1.143-4.264 1.165-5.076 2.674-6.687-.742.004-1.519-1.083 0-1.337 1.43-4.995-3.32-3.811-2.674-8.023-.411-6.72 1.543-15.806-2.675-18.72 1.5-.136 2.082 1.944 2.675 0-3.182-.141-2.943-3.703-4.012-5.349-1.303-2.007-4.29-3.998-4.012-6.687.784-4.333 2.81-2.5 4.012-4.012-1.979-.249-1.226-3.23-1.337-5.349 1.782-2.395 2.081-2.976 2.674-5.35.345-1.375 1.795-2.181 1.337-4.012-.135-.54-1.376-1.629-1.337-1.337-.179-1.327 1.273-1.016 1.337-1.337.263-1.312-2.645-.32-4.012-1.337-1.12-.833-1.597-3.069-2.674-4.013v-10.696c1.494-2.162 9.34-4.804 6.686-6.687.005.743-1.083 1.519-1.337 0 1.5-.283 2.082-1.483 2.675-2.674 2.328.102 4.158-.298 5.349-1.337-.92 5.377 1.281 7.633 1.337 12.035a123.364 123.364 0 00-4.012 4.011c.743-.004 1.518 1.083 0 1.337 2.246 2.875-.39 5.48 0 6.687.095.293 2.422-.252 2.675 0 .425.425-.812 2.05-1.337 1.337.85 1.149 1.704 1.694 2.674 2.674.058 1.841-.63 2.936-1.337 4.011 2.501-.072 2.831 1.03 1.337 2.674 5.749-.632 1.711 3.6 4.012 4.013-.175-.738 1.296-1.523 1.337 0 .138 5.097-3.455 14.248-2.674 22.731 2.86 2.942-1.844 2.877 1.337 4.011-.238-.085 1.271-2.044 1.337 0-.004 1.343 1.083 1.592 1.337 2.675 1.791 3.558.426 10.271 4.012 12.035 1.579-2.443 1.157 3.068 5.349 0 .136 1.5-1.944 2.081 0 2.674 1.137-3.923 3.365 1.738 6.687 0 .072 1.709 1.714 1.852 1.337 4.011 1.5-.136 2.082 1.944 2.674 0-.742.004-1.519-1.083 0-1.337 3.516 3.398-.909 3.401-1.337 5.349.01-.045 1.56 1.263 1.337 2.674-.071.449-2.332.997-1.337 2.675 2.381.738 5.553.687 6.686 2.674-3.874 2.958 2.051-1.685 1.337 1.337-.184 7.229-5.22 1.295-10.696 2.674-1.163 5.174 3.266 4.757 4.011 8.023-.6-.998-3.258-.465-2.674 0 2.681 2.131 4.858-1.614 9.359-2.675-.293 1.681-2.083 2.733 1.337 2.675-.406 4.597 2.475 11.739 2.675 13.371.154 1.265-1.532 1.722-1.338 2.675.043.209 2.453-.185 2.675 0 .662.548-1.609 2.226-1.337 2.674 1.632.15 3.166.399 2.674 2.674 4.145-.133 7.417.606 9.359 2.674 4.542-.084 7.347 1.568 9.36 4.011 1.875-2.136 4.606-3.415 8.023-4.011.97-4.09-2.308-3.933-1.337-8.022 1.757-1.363 4.929-1.312 6.686-2.675-.974 3.648 2.657 2.691 2.674 5.35 8.205 1.735 17.294-1.231 25.406 0 7.484 1.136 12.088 6.53 18.72 6.686 1.138-2.021 3.273.379 4.011 0 .783-.4-.083-4.107 2.675-2.674 2.723.397 3.562 2.678 5.349 4.012 2.024-4.044 5.869 1.108 9.36 0 .647 1.58 1.426 3.031 2.674 4.013.322-3.447 2.301 1.836 5.349 0 .32 1.908 2.202 2.255 2.674 4.011v5.349c4.849-.945 5.725-5.864 13.372-4.011.295 1.042 1.12 1.554 2.674 1.337-2.249 4.309.616 3.576 1.338 2.674 1.36-1.7 3.016 5.265 4.011 4.013 1.714-3.469 6.366-.602 6.686-2.675-.743.005-1.518-1.083 0-1.337 5.298-.395 8.172 1.635 10.697 4.013-1.616.282-.822 1.483 0 2.674-3.771-1.153-1.153 2.458-1.337 2.674-.813.954-4.54 1.337-5.349 2.674-.456.752 1.253 2.089 1.337 2.674-.017-.107-2.101 1.166 0 1.337.677-1.839 2.891.212 5.349 0 .067-.005-.067-1.255 0-1.337.894-1.092 5.467.827 6.686 0 1.658 3.626 5.161 3.329 2.675 8.023 2.917 1.54 8.648.266 9.359 4.011-2.38.649.58 1.427 1.337 2.675-1.004.075-1.337.199-1.337 1.337 0 .861 1.343 1.522 1.337 1.337.054 2.312-1.625 3.42 0 4.012.879-4.005 2.858 1.279 5.35 0 .209 1.574-.23 3.795 1.337 4.011.3-1.038.037-2.637 1.337-2.674.632 5.748-3.599 1.711-4.012 4.011-.058 2.076-9.493-2.887-8.023 4.013 3.779 1.104 3.464-1.886 6.687-1.337-1.167 5.178 5.838 2.185 4.011 8.022 4.116-.936 2.57-.936 6.686 0 2.246 5.777 4.14 11.907 5.35 18.72-.017 1.769-2.345 1.224-2.675 2.675 1.916.136.052.907 0 1.337-.355 2.979.268 9.16 0 13.372 1.52 2.938 4.473 4.441 5.35 8.022.209 1.574-.23 3.796 1.337 4.013.136 1.5-1.944 2.081 0 2.674.248-1.98 3.23-1.227 5.349-1.337-3.309 3.186 3.473 2.195 1.337 8.022-1.055 2.957-4.677 3.346-6.686 5.35-1.998 1.011.346 3.44 0 4.012-.637 1.048-3.161 1.577-4.012 2.674.313-.404 1.782.472 1.337 1.337-.34.659-3.196-.25-2.674 1.337 2.184-.603 2.184 7.289 0 6.687-.521-2.053-1.605-.197 0 1.337-2.467-.606-3.979.967-5.35 1.337-2.545.688-5.297.357-5.349 1.337-.17 3.228-7.3 2.662-9.36 2.674-.668 4.207 2.915 5.228 0 8.023 4.606.345 5.675 1.53 9.36 1.337.849-.045 1.481-1.348 1.337-1.337 4.042-.273 7.931-1.522 10.697 0-.865-2.906 2.892-3.356 5.349-4.012 3.035-.81 8.396-.665 9.36 0-.975-5.857 2.656 1.077 2.674-2.674-3.821-.695 2.158-1.979 2.674-2.674-2.592-5.817 5.829-7.401 2.674-9.36-.749 1.927-2.086 3.264-4.012 4.013 1.934-2.524 2.987-5.929 8.022-5.35 1.71.073 1.853 1.714 4.013 1.337 2.56 2.487-1.985 3.838 1.337 4.013 2.518.132-.767 2.344 1.337 2.674 1.21-2.073 4.922-.695 5.349 0 1.143 4.263-1.165 5.076-2.674 6.686 1.042.295 1.555 1.12 1.337 2.675-4.584-2.663-.648.459-1.337 1.337-1.79 2.283-6.669 5.188-9.359 8.022 2.279.548-.281 1.726 0 4.011-4.295-3.039-.556 1.393-2.675 4.013-.699.864-3.81-.078-4.011 1.337.136 1.5-1.944 2.082 0 2.674.283-1.5 1.484-2.082 2.674-2.674-1.548 3.354-5.328 4.478-5.349 9.359 5.622.008 11.179-.044 12.034-1.337-2.28-.548.28-1.724 0-4.011 3.956 2.361.277-.62 2.674-4.012.658-.932 1.62 1.394 1.337 1.337 1.311.262.321-2.646 1.337-4.012 2.838-3.815 11.306-5.139 14.709 1.337-1.125 3.333-1.75 7.164-1.337 12.035-4.092-3.556-2.549 4.836-5.349 1.337-.689-.861-2.566 5.583-4.012 4.012-.136-1.5 1.944-2.082 0-2.675-.695 1.979-1.979 3.37-2.674 5.349-1.688-.613-.748 2.256-1.337 2.675-1.061.753-2.418-2.417-2.674 0 4.005.879-1.278 2.858 0 5.35 4.202-.701 7.46-2.347 10.697-4.013 1.5-.136 2.082 1.944 2.675 0-4.13-3.274 3.839 1.471 2.674-1.337-.743.004-1.518-1.083 0-1.337 1.709-.073 1.852-1.714 4.011-1.337.32-2.507 2.202.759 2.674-1.337-.741.004-1.518-1.083 0-1.337 1.703-1.863 6.551-.582 6.687-4.012-1.151-.823-3.256-1.537-4.012-2.674-.639-.961 1.698-1.951 1.337-2.675-.328-.654-3.206.247-2.674-1.337a124.344 124.344 0 004.011-4.011c-1.788-.925.66-3.567-1.337-6.687 1.5-.136 2.082 1.944 2.674 0 2.508-.319-.759-2.201 1.337-2.674 3.516 3.477 1.053-2.161 5.349-1.337 1.809.42 2.555 1.903 5.35 1.337-.293 1.682-2.082 2.733 1.337 2.674 2.958 1.927-1.685 3.264 1.337 4.013-.057-.736 1.148-1.526 1.337 0 .403 3.272-.493 15.265 1.337 14.708 2.114-1.553 2.864-2.543 4.012-5.35 1.059-2.587-.764-7.349 2.675-8.022 10.89-.002 21.457.173 30.755 1.337 3.495.438 7.591 3.378 10.696 1.337 1.69-3.318-1.933-4.266-2.674-5.349-1.354-1.979-2.179-3.744-4.012-5.35.409 2.716-3.863-.272-4.011-1.337-1.927-.749-3.264-2.086-4.013-4.012 3.61-3.967 6.501-8.653 9.36-13.372 1.341-.004 1.591 1.083 2.674 1.337-1.146-6.198 2.104-1.401 2.674-4.012-3.06-3.097 4.168.454 6.687 0-.41 4.178 3.863-3.399 4.011 1.337-3.043 1.861 1.113-.166 1.337 0 .492.364.924 3.496 1.337 4.012.839 1.049.68-3.396 1.337-2.674 1.161 1.275 1.187 3.037 2.675 4.012-.96-.629 2.7-.349 4.011 0 .112.03-.093 1.226 0 1.337 1.598 1.953 8.313-1.278 8.022-1.337.23.046.082 2.172 1.337 1.337.449-4.762 7.646-3.519 10.697-5.349 4.22.351 5.049 4.5 8.023 6.686.878.646 3.092-.595 4.012 0 .684.442-.271 3.113 1.337 2.675 3.928-3.132 1.426-10.632 2.674-13.372-3.921-.092-4.966-3.058-6.686-5.35 1.5-.136 2.082 1.943 2.675 0-3.168-2.142-4.815-2.456-8.023-6.686.208.273 1.942-1.235 0-1.337-2.558-.136.417-1.864 0-2.674-.525-1.021-2.241.333-2.674-1.338-2.075-8.017.003-16.433-2.674-26.743 6.222-.381-2.077-2.425 2.674-2.675 2.705-.143 1.02-4.813 4.012-4.012 3.244 2.104 5.71 4.987 12.035 4.012 2.3-.527 3.429 1.984 4.011 0-2.37-1.767-.041-5.925 0-9.359.024-1.988-2.271-4.387 0-5.35-2.501.072-2.83-1.028-1.337-2.674-5.857.975 1.078-2.657-2.674-2.674-3.274 4.129 1.47-3.84-1.337-2.674-.458 1.427-1.213 1.024-1.337-1.337-.043-.83-1.347-1.506-1.337-1.337-.052-.878 1.581-2.196 1.337-2.675-.397-.779-4.111.082-2.674-2.674-.539-2.693 1.987-2.564 2.674-4.012-.058.122-2.11-1.321-1.337-2.674.384-.673 3.16.262 2.674-1.337-2.574-1.378.546-8.264 2.674-9.36-1.497-1.177-.729-5.368 0-8.022.212-.773 2.452.221 2.674-1.338.021-.143-2.403-1.24-1.337-2.674 1.908-.319 2.255-2.202 4.012-2.674 3.048-1.836 5.026 3.447 5.349 0-2.899.227-.605-4.743-1.337-6.687 5.001 3.23-.99-2.088 4.011-2.674 1.21-3.473-1.184-7.146-1.337-10.696-.182-4.238 2.01-6.396 0-6.687-.368 3.154-4.981-.123-5.349-1.337 1.615.136.821-1.943 0 0-4.646-2.725 3.882-6.997 0-9.36-2.582.228-6.353.265-9.36 1.337-.54.193-2.002 2.316-2.674 2.675-.175.094-1.743 1.443-1.337 1.337-1.115.293-2.565-2.074-2.675 0-.08 1.519-.541.646-1.337 1.337-4.396 3.81-14.863-.33-17.384-1.337-.327-.131-.981.019-1.337 0-1.395-.073-.779-1.118-1.337-1.337-1.925-.758-5.306.713-5.349-2.675 1.5-.136 2.082 1.944 2.674 0-1.58-.647-3.031-1.426-4.011-2.674-4.128-9.358 1.134-18.295 2.674-28.08 1.021-6.483.893-12.879 1.337-20.058 1.58-.648 3.032-1.426 4.012-2.674-2.38-.649.58-1.426 1.337-2.674-1.042-.296-1.555-1.12-1.337-2.675 1.042-.295 1.556-1.119 1.337-2.674 3.901.793.981-1.981 1.337-2.674.478-.925 2.155.136 2.675-1.337-.211.601-1.337-.718-1.337-1.337 0-2.413 2.711-3.454 2.674-5.35-1.568-1.997-5.557-1.574-5.35-5.349 1.093-.767 1.224 1.299 1.337 1.337 1.698.558.117-1.143 0-1.337-1.454-2.424 4.122-1.822 5.35-2.675.95-.66 2.33-3.644 4.011-5.349 1.975-2.003 4.796-3.236 5.349-4.012 1.36-1.905-.063-3.702 1.337-5.349 3.445 1.445 1.584-2.844 1.338-2.674 1.053-.725 2.902 2.547 4.012 0 1.732-1.889 1.779-5.42 2.674-6.687.78-1.103 2.259.473 2.674-1.337.013-.054-2.397-1.313-1.337-2.674 1.864-.644 5.146-3.958 5.35-4.012 1.113-.293 2.564 2.073 2.674 0 .175-3.32 2.815-2.492 4.011-1.337-.072-2.302 1.029-3.429 2.674-4.013-3.935-8.964 6.149-12.735 4.012-24.068 1.908-.32 2.256-2.202 4.012-2.675 1.219-2.027 3.167.388 4.012 0 .343-.156-.27-2.351 0-2.674.548-.662 2.226 1.61 2.674 1.337 1.031-.627-.527-2.575 1.337-2.674 1.485-.078.667-1 1.337-1.337 1.099-.552 1.806 1.585 2.675 1.337 1.921-.549-.034-3.313 0-4.011.003-.058 1.26.063 1.337 0 1.092-.894-.826-5.468 0-6.687-3.326-.146-4.14-2.505-6.687 0-.699.563-3.853 1.883-4.012 2.675-.132.663 1.177 1.924 1.337 1.337 1.02-3.732 1.71 2.124-1.337 1.337-2.107-.121-1.046-3.41-4.011-2.674 3.583-3.438-3.583-1.912 0-5.35-4.847 1.28-1.36-5.771-4.013-6.686 5.783-.012 5.282-6.308 9.36-8.023.136 1.5-1.944 2.082 0 2.674.696-1.979 1.979-3.369 2.674-5.349 3.264 2.216.869-.402 2.674-1.337 3.134-1.622 2.821.858 4.012-1.337-1.042-.295-1.555-1.12-1.338-2.674 3.143-2.228-.488.121-2.674 0-1.123-1.553-1.764-3.585-1.337-6.687 3.518 3.477 1.054-2.161 5.35-1.337.22-6.02 12.702-9.36 9.359-12.034-.893-.714 1.373-1.603 1.337-1.337.24-1.767-.576-4.519 1.337-6.686-1.794-.88-2.489-2.858-2.674-5.35-2.97-2.968-7.364-4.362-8.022-8.022 1.065-2.945 2.684-5.338 6.686-5.349.452 4.729.077 6.889 1.337 8.022-.004-.743 1.083-1.518 1.337 0 1.84.058 2.937-.63 4.012-1.337.815-.076 1.583-.2 1.337-1.337-1.378-.334-.121-4.386 0-6.687.06-1.146 1.284-1.095 1.337-1.337.783-3.581-.712-8.677 2.674-9.359h5.349c-1.35 5.134-1.024 2.054 1.337 4.011.611.507-1.512 2.237-1.337 2.674.126.314 2.375-.248 2.675 0 .661.548-1.609 2.227-1.338 2.674 3.445 1.458 6.428 3.379 8.023 6.687.229 2-.479 4.935 1.337 5.349.249-1.979 3.231-1.226 5.349-1.337-1-13.48.984-23.977 9.36-28.081.548 2.28 1.725-.281 4.011 0 .426 2.931 1.316 6.052 2.676 2.674-.105.262-2.028-1.288 0-1.337 3.611 4.281-1.032 8.87 0 14.709 10.002 1.533 12.047-4.89 21.395-4.012 2.723.396 3.563 2.678 5.349 4.012.249-1.979 3.231-1.226 5.35-1.337 1.95-.224 1.495-1.474 2.674 0 .78.976 1.35-1.347 1.337-1.337-1.747 1.332-.1-2.987 2.674-2.674.521 1.908 1.605 2.255 0 4.011 5.858-.974-1.077 2.657 2.675 2.674.32-2.052 2.202-.195 2.675 1.337 2.541-2.067 10.406-7.77 8.022-9.359-1.703 2.167-6.778 9.352-8.022 6.686 4.505-2.327 5.357-6.27 9.359-8.022 2.68-1.175 5.277.026 5.35-1.337.164-3.118 6.49-2.93 6.686-1.338-.625-4.191 3.362-3.77 5.349-5.349 5.668 1.188 9.47-3.511 13.372 0-.526-5.707 7.029-2.822 6.687-2.674.33-.142-.258-2.362 0-2.674.563-.681 2.241 1.66 2.675 1.337 1.107-.824-.402-2.137 1.337-2.674 4.976-1.538 11.099-.893 17.383-4.013 4.075.229 1.382 5.962 4.013 2.676.666-.834 3.851 3.938 4.012 4.011-.684-.313 2.961-.903 2.674-1.337-2.135-.94 1.123-7.687 4.012-8.023 4.444 2.244 9.324 9.67 6.688 14.708 6.553-1.998.949 6.501 4.011 2.674.72-.898 1.589 1.377 1.338 1.337 5.675.896 7.199-2.496 10.697 0-.424-5.852 6.185-3.717 6.686-5.349-3.87-2.029 10.307-1.365 12.034-2.674.3 1.038.037 2.637 1.338 2.674 3.152 3.741-2.088-2.528 1.337-1.337.719.25 1.15 3.04 2.675 2.674 2.508.32-.76 2.202 1.337 2.674 1.592-2.61 3.087.243 5.35 0 3.076-.33 5.354-2.149 9.359-2.674 3.338-.437 8.14.328 12.034 0 .005 2.797 7.283 5.026 4.012 6.687-.32-1.453-2.201-3.21-2.674-1.337a27.142 27.142 0 018.021 8.022c1.5-.136 2.082 1.944 2.675 0-.742.004-1.518-1.083 0-1.337.648 1.58 1.426 3.031 2.675 4.011-.071-1.337 2.543-.965 4.012 0 2.553 1.679 4.73 7.67 9.359 6.687-2.394 4.56.071.685 1.337 1.337.659.34-.251 3.196 1.338 2.675.64-2.366 1.438.562 2.675 1.337-.348-.218.406-1.815 1.337-1.337.931.479-.146 2.157 1.338 2.674-.31-.106 1.467-1.556 2.674-1.337.091.018-.079 1.24 0 1.337.474.579 4.489 1.309 5.349 1.337 3.147.107 6.609-2.619 10.697-1.337-.793 3.901 1.982.981 2.675 1.337.659.339-.251 3.196 1.337 2.674.432-2.209 2.824-.757 4.013 0 4.062 2.59 16.288 3.515 20.058 4.013 8.379 1.105 14.35 2.649 20.057 4.011.137 1.5-1.942 2.082 0 2.674 2.727-2.736 6.102 2.232 10.697 2.674 2.374.229 3.12-1.048 5.35-1.337 2.825-.365 6.164.041 8.022 0 .331-.007-.111-1.627 1.337-1.337.371.074-.083 2.037 1.338 1.337.854-.42.328-4.851 2.674-4.012.137 1.5-1.942 2.082 0 2.674 1.344-1.776 1.266-4.976 4.013-5.349.136 1.5-1.943 2.082 0 2.674 1.532-5.154 6.927-6.445 13.371-6.686.695 1.979 1.979 3.369 2.675 5.349-1.319 4.475-1.96 9.628-5.35 12.034 2.081.349.928 2.933 0 4.012 2.701-1.003 1.728 1.864 1.338 1.337.851 1.15 1.703 1.695 2.675 2.674-1.189 5.668 3.51 9.469 0 13.372 3.921.09 4.966 3.057 6.686 5.35-.058 1.84.63 2.936 1.337 4.011.137 1.5-1.943 2.082 0 2.674-.646-1.768 6.131-.082 6.688 1.337 3.545-1.571 7.873 2.563 8.021 0-2.654-1.883 5.192-4.523 6.687-6.686 2.477-1.981 2.004-6.911 6.687-6.687 5.745.898 12.756 3.344 20.057 4.011 3.002.274 6.764-.484 9.36 0 .563.105-.044 2.478 1.338 2.675.144.021 1.241-2.404 2.675-1.337.408 1.444 1.829 1.642 2.675 2.674.368.451 2.255-.419 2.674 0 .669.668-.258 2.933 1.337 2.674 1.63-2.401 8.214 1.503 13.372 0 3.52 1.383 4.504 5.302 8.022 6.686.344-2.776 5.874-.364 6.687-2.674.136 1.5-1.944 2.082 0 2.674 1.343-1.776 1.265-4.976 4.012-5.349-3.546 3.525 3.959 2.827 4.011 6.686-1.5.137-2.08-1.943-2.674 0 6.453.232 3.295 10.076 4.012 16.047 1.724 1.842 5.809 1.322 9.359 1.337 1.953-2.504.054-8.861 2.675-10.697 1.841.058 2.937-.629 4.013-1.337 4.281 3.74 2.619 13.425 6.686 17.383.322-3.447 2.301 1.836 5.35 0 2.593-3.201 2.146-9.443 6.686-10.697.074 1.407 1.714 1.053 1.337-1.337h5.351c2.879 2.604 8.977 10.45 4.011 2.674 1.92 1.338 4.119 2.838 5.349 4.012.63.601 1.534 4.239 2.675 4.012-.046.009.425-2.335 1.337-1.337.618.676-1.5 2.103-1.337 2.674.243.851 7.77 7.23 6.687 4.012-1.188-.394-5.854-3.618-2.674-4.012 1.127 3.372 5.519 5.13 6.686 6.686.939 1.254.342 2.943 1.337 4.013 3.637 3.902 8.576 6.606 12.035 10.697-.655 4.22 2.409 4.722 1.337 9.359.164 1.779-2.578 1.207-2.675 2.674-.003.043 2.489 1.412 1.338 2.674-.749.821-2.657-2.469-2.675 0 2.289 2.55-.14 2.535 1.337 4.013.892.892-.683 4.249 0 5.349-5.748-.632-1.711 3.6-4.012 4.011-2.107-.12-1.046-3.409-4.011-2.674-1.58.648-3.031 1.426-4.013 2.674 1.117.465 1.051.498 0 1.338-1.281 1.024 7.245 5.477 2.676 5.349-.321-1.453-2.202-3.21-2.676-1.337 1.781 1.339 4.036 2.205 5.35 4.012 2.907 6.407-.822 11.259-1.337 16.046-.42 3.898 2.644 7.283 0 10.697 1.037.3 2.638.037 2.674 1.337-.742-.004-1.519 1.083 0 1.337-.004-.742 1.083-1.518 1.337 0 .457 2.4 2.94 4.019 2.675 5.349.013-.064-2.127 1.226 0 1.338 3.118.164 2.929 6.49 1.337 6.686 6.103.232 3.739 10.562 5.35 10.698 2.415-4.42 1.956 4.974 1.337 4.011.391.606 3.425.667 4.012 1.337.385.439 1.249 3.719 1.338 4.011.706 2.326-.327 5.378 0 8.023.326 2.639 2.413 8.318 2.674 9.36.469 1.869.807 2.682 1.337 4.011.132.327-.019.981 0 1.337.065 1.237 1.24.979 1.339 1.337 1.795 6.588 1.217 11.82 2.674 16.046a27.149 27.149 0 018.022 8.023c-2.714 3.081-5.31 6.279-8.022 9.36-12.691-1.55-18.063 4.223-30.756 2.674-1.327-6.384.115-1.453-4.012-4.012-.015 1.768-2.343 1.223-2.674 2.675 2.052.319.196 2.201-1.337 2.674-2.802 1.369-.93 4.078-4.012 4.012-.853-.019-3.722-5.161-4.013-5.349 1.5-.136 2.082 1.943 2.676 0-2.19-2.941-3.113.98-5.35 2.674-1.42 1.075-7.696 2.67-4.012 4.012-.004-.743 1.083-1.518 1.337 0-1.681.548-2.731 1.726-2.674 4.013-1.908-.521-2.256-1.605-4.012 0-1.466 7.003-9.872 7.064-8.023 17.383-.745 2.727-4.021 2.622-1.337 5.349 7.394-.63 17.938 1.891 21.396-2.674.136 1.5-1.943 2.082 0 2.674.647-1.58 1.426-3.031 2.675-4.011 1.043-.521 6.171 2.253 6.686 2.674.451.369-.422 2.262 0 2.674 1.018.993 3.375-.089 4.013 1.337.373.836-1.695 2.291-1.338 2.674.633.68 3.304.797 4.012 1.338 2.354 1.8 2.617 5.13 4.012 6.686 1.06 1.181 2.969 1.396 4.012 2.674-.337-.412-1.775.485-1.338 1.337.498.967 2.182-.213 2.675 1.337.446 1.401-2.182 2.157 0 2.675 1.55-3.82 1.55 2.158 0 2.675 1.777 1.343 4.977 1.264 5.35 4.011-1.5.136-2.082-1.944-2.674 0 5.615 1.069 6.211 7.16 12.034 8.023-2.395 4.56.07.685 1.337 1.337.659.339-.251 3.195 1.337 2.674-.004-.743 1.083-1.519 1.338 0h10.697c-.794 3.901 1.981.979 2.674 1.337.659.34-.251 3.196 1.337 2.674 1.177-3.616 4.802 1.058 5.35 1.337 1.847.945 3.629.296 5.349 1.337.366.223.688.924 1.338 1.337 2.507 1.599 4.376 3.058 5.349 5.35-1.5.136-2.082-1.944-2.675 0 1.777 1.343 4.976 1.265 5.349 4.011-1.211 2.742 1.203 4.802 1.338 6.687.166 2.325-1.711 3.407 0 4.011 2.508.319-.759 2.202 1.338 2.675 1.218-2.831 5.374 2.522 9.359 1.337.981 3.921 4.057 5.75 6.687 8.023.177 3.296.202 6.442-1.337 8.022 1.775 1.343 4.976 1.266 5.349 4.012.456 2.4 2.94 4.019 2.674 5.35-.058.29-2.12.01-1.337 1.337.643 1.088 2.305-.46 2.674 1.337 1.405 6.821-2.292 17.146 4.012 21.396-1.5.136-2.082-1.944-2.674 0 1.776 1.343 4.977 1.265 5.35 4.012-3.396 2.417 1.1-1.157 1.337 1.337.174 1.83-.72 2.945-1.337 4.012 1.279.231 2.333.122 2.674 1.337 1.056 3.764.094 10.611 2.675 13.372-5.685 5.574-.71 11.488 0 18.722.517 5.263 1.089 7.89 1.337 10.696.509 5.754-.771 9.138-1.337 12.034-.485 2.479.46 4.96-1.338 6.686 5.749-.632 1.712 3.601 4.012 4.013-.004-.742 1.083-1.519 1.338 0 .225 1.95 1.475 1.495 0 2.675-.971.775 1.37 1.392 1.337 1.337-.272-.456.616-1.396 1.338 0 .106.207 1.438 1.718 1.337 1.337.262.994-1.678 2.098-1.337 2.675.935 1.588 6.151.139 4.012 4.013-1.752-.349-1.753 2.306-2.676 2.674-1.286.515-1.094-1.288-1.337-1.337-2.717-.544 2.495 4.66-4.012 2.674v8.022c-.55.343-2.229-.445-2.674 0-.569.569 1.075 1.938 1.337 1.338-.337.772-1.303 2.021-1.337 2.675-.058 1.093-1.305 1.163-1.338 1.337-.705 3.724.526 9.925 0 14.709 1.71.073 1.853 1.714 4.012 1.337-2.058 4.351-.413.987 1.338 1.337-.582-.116 1.349 1.345 1.337 1.337 1.22.826 1.644 1.724 2.674 2.675 1.063-3.081 6.286.692 6.688 2.675v5.35c3.906 1.21.388 4.922 2.674 5.349 3.551-3.379-.183 7.5 4.012 2.674v4.013c-2.39-.377-2.744 1.264-1.337 1.337-.663 2.59-2.227.164-2.675 0-3.729-1.36-.901 0-1.337-2.674-.068-.422-2.081.653-1.337 1.337-.137-.551-2.625-2.373-2.676-2.676-.211-1.266 1.27-2.901 1.338-2.674-.405-1.354-3.983-1.946-1.338-2.675.957-3.631-6.306.957-5.349-2.674-2.524 1.001-.928 3.991-4.012 1.337 3.103 1.957-2.611 4.238 2.675 4.012-.932 6.727 2.27 9.319 1.337 16.046-3.145.421-.793 6.338-5.349 5.35 2.269 5.056-2.682 12.959-8.022 14.709.255 1.518 1.341.742 1.337 0 3.132 1.519-3.425 4.472-5.349 5.349.254 1.519 1.341.742 1.337 0 2.589.889-.83 1.804-1.337 2.674-.156.27-.3 3.712-1.338 2.675-.05-.051-.047-1.274 0-1.337.01-.012-2.312.558-1.337 1.337.052.041 1.332.015 1.337 0-.052.142-1.254 2.638-1.337 2.675-.454.205-2.398-.367-2.674 0-.614.817 1.029 1.697 1.337 1.338-2.277 2.671-2.368 2.911-5.349 4.011.254 1.519 1.341.743 1.337 0 2.827.413-1.404 4.645-4.013 4.012 3.161 3.037-1.668 4-4.011 5.35.254 1.518 1.341.742 1.337 0 1.873.473.115 2.354-1.337 2.675.206 1.787-2.101 7.371-2.675 4.011-1.518.255-.742 1.342 0 1.338-.254 1.083-1.341 1.333-1.337 2.674-3.102-.427-5.134.216-6.688 1.338 2.087 4.784-1.68 8.495 5.351 9.359-2.311.813.103 6.343-2.676 6.688.586 3.105 5.904 3.578 2.676 6.686 1.957-1.917 4.237-1.025 4.011 2.674 3.105-3.229 3.58 2.089 6.687 2.675-.821 1.19-1.615 2.393 0 2.675-2.551 5.919-3.166 13.771-2.675 22.731-3.063 1.461-11.065 4.892-14.709 1.337-1.588-.521-.678 2.335-1.337 2.675-.811.417-2.54-2.559-2.674 0-.112 2.126-1.406-.013-1.338 0-.713-.131-1.904 3.443-2.674 2.675-1.84-1.84-.573-.098-4.013 1.337 2.361 2.237-1.188 4.479 0 9.359-1.189.594-2.392 1.175-2.674 2.675h-8.022c-1.19.821-2.393 1.615-2.676 0-2.021.043-.111 1.605 0 1.338-1.113 2.65-3.493.629-4.011 4.012-1.943-.593.136-1.175 0-2.675-3.475.808-2.273 3.958-4.012 5.349-1.112.891-1.272-1.336-1.337-1.337-2.975-.07-2.785 4.294-5.35 4.012.473 1.873 2.354.115 2.675-1.338 3.382.659-5.146 6.615-6.687 8.023-3.082 2.817-6.654 5.989-9.359 8.022.748 3.873 2.086-2.052 4.012-1.338 1.604-1.873.521-.115 0 1.338-1.757.473-2.104 2.354-4.012 2.674-1.408 1.39 1.854 7.845 0 9.36-1.691 1.384-.563 2.293-1.338 6.687-.02.108-1.263-.107-1.338 0-.781 1.12.431 4.019 0 5.349-.12.375-1.172.169-1.337 1.337-.354 2.506.58 6.001 0 8.023-.06.207-2.632-.203-2.674 0-.184.883 1.687 2.24 1.337 4.012.171-.866-1.772 2.981-1.337 2.674-.219.154-3.731.28-2.675 1.338 1.8 1.799-1.518 1.557-4.012 4.011.473 1.874 2.354.115 2.675-1.337 3.18.395-1.486 3.618-2.675 4.013 2.812 3.257-2.117 6.878 2.675 6.686.441 4.899-1.485 7.43-2.675 10.697-10.312 1.967-22.695.121-29.418 5.349-2.481 1.932-3.159 4.219-5.349 6.687 1.539 2.918.265 8.648 4.012 9.359-.593 1.944-1.175-.136-2.675 0 .659 3.798 6.989 1.925 5.35 8.023-1.139.246-1.263-.521-1.338-1.337-2.046.067-.083 1.572 0 1.337-1.318 3.754-4.172 1.549-5.349 5.349 3.68-3.271 2.82 1.997-1.338 1.337 1.494 1.646 1.165 2.746-1.337 2.675 2.956 1.444-1.181 3.702-1.337 6.687-.039.743-3.421.592-2.675 1.337 1.916 1.916-.121.782-2.675 2.675.254 1.519 1.341.742 1.337 0 3.51.695-1.217 1.729-1.337 4.011-.102 1.929-2.545 2.893-2.675 5.35-.132 2.517-1.874-.887-2.674 0-.668.742.987 1.702 1.337 1.338-5.222 5.439-11.503 6.198-14.709 14.709-6.506 1.517-15.392.653-17.383 6.686-3.874-.749 2.051-2.086 1.337-4.012-4.425 2.261-6.171 7.2-9.36 10.697-3.873-.748 2.052-2.086 1.338-4.012-3.036.975-4 4.023-5.349 6.687-5.493-1.405-8.757 6.295-12.035 2.674-2.021.043-.111 1.606 0 1.337-1.113 2.652-3.494.629-4.011 4.013-1.944-.593.136-1.175 0-2.675-1.646.583-2.747 1.711-2.675 4.012-15.676-.521-24.36 5.948-30.755 14.709-4.598-.585-7.494.527-10.697 1.338 1.493 1.645 1.164 2.746-1.337 2.674 1.549 1.979 1.549 3.37 0 5.349-3.31.17-2.273-1.637 0-1.337-3.339-3.348-9.962-3.41-8.023-12.034-8.074 3.123-16.945 2.921-29.417 4.012-.246-1.138.521-1.262 1.337-1.337.262-1.597-2.009-.668-2.675-1.337-1.114-1.121-.104-4.347-2.674-4.013-10.302.396-11.882 9.515-18.721 13.372-.712-.572-5.05-.657-5.35-1.338.22.499 1.545-4.219 0-2.674-1.383 1.383-.877.603-1.337-1.337-1.256-.836-1.106 1.291-1.337 1.337-1.467.293-.979-1.323-1.338-1.337-2.235-.086-7.043 1.214-8.022-1.338-.434.771-3.851 1.961-4.012 2.675-.17.755.988 1.887 1.337 1.337-1.45 2.284-3.388 2.229-4.011 5.349-1.091.872-1.323-1.338-1.338-1.337-1.298.099-1.988 4.217-2.674 1.337-1.388.123.139 4.713 0 9.36-.001.029-1.565.196-1.337 1.337-.005-.018 2.136.347 1.337 1.337-1.332.012-2.67.012-4.007.012zm217.958-659.223c-6.043 6.043 2.453-.865 2.674-2.674-1.728.054-1.782 1.784-2.674 2.674zM872.169 966.771c-6.043 6.043 2.453-.865 2.675-2.675-1.73.054-1.783 1.784-2.675 2.675zM258.41 688.64c-5.522-2.817.507 1.761 1.337 4.012 5.522 2.817-.506-1.761-1.337-4.012zm774.219-343.651c2.629 1.744 14.44.396 12.034-2.674h-12.034c.004-.743-1.083-1.518-1.337 0 1.668-.649.771 2.299 1.337 2.674z"></path>
        <path d="M696.999 964.096c-.383 2.356 6.298 4.141 2.676 5.349-.594-1.189-1.176-2.392-2.676-2.674-.821-1.191-1.614-2.391 0-2.675z"></path>
        <path
          fill="#FFF"
          d="M1056.697 324.931c-.221 1.809-8.717 8.717-2.674 2.674.892-.89.946-2.62 2.674-2.674zM840.076 986.828c.8-.989-1.341-1.354-1.337-1.337-.229-1.141 1.336-1.308 1.337-1.337.14-4.646-1.387-9.236 0-9.359.687 2.88 1.376-1.239 2.675-1.337.015-.001.246 2.209 1.338 1.337.623-3.119 2.561-3.064 4.011-5.35-.349.55-1.507-.582-1.337-1.337.161-.714 3.578-1.904 4.012-2.675.979 2.552 5.787 1.252 8.022 1.338.356.014-.13 1.63 1.338 1.337.229-.046.081-2.173 1.337-1.337.46 1.939-.046 2.72 1.337 1.337 1.545-1.545.22 3.173 0 2.674.299.682 4.638.767 5.349 1.338 6.84-3.857 8.419-12.977 18.722-13.371 2.567-.334 1.56 2.891 2.674 4.012.666.669 2.936-.259 2.675 1.337-.814.076-1.583.2-1.337 1.337 12.472-1.091 21.342-.888 29.417-4.011-1.938 8.624 4.685 8.687 8.023 12.034-2.273-.301-3.31 1.507 0 1.337 1.549-1.979 1.549-3.37 0-5.35 2.5.072 2.83-1.028 1.336-2.674 3.203-.81 6.102-1.923 10.697-1.338 6.396-8.76 15.08-15.229 30.756-14.709-.072-2.3 1.028-3.428 2.675-4.011.136 1.5-1.944 2.082 0 2.674.517-3.383 2.896-1.359 4.011-4.012-.112.27-2.021-1.295 0-1.338 3.277 3.621 6.542-4.078 12.035-2.674 1.349-2.662 2.312-5.712 5.349-6.687.714 1.926-5.211 3.264-1.338 4.012 3.188-3.497 4.936-8.437 9.36-10.697.714 1.927-5.211 3.264-1.338 4.013 1.991-6.032 10.877-5.169 17.384-6.687 3.206-8.511 9.486-9.27 14.709-14.709-.351.364-2.005-.596-1.337-1.338.8-.887 2.542 2.518 2.674 0 .13-2.457 2.572-3.421 2.675-5.349.12-2.281 4.846-3.315 1.337-4.012.004.742-1.083 1.519-1.337 0 2.553-1.893 4.59-.759 2.675-2.675-.746-.745 2.635-.594 2.674-1.337.157-2.982 4.293-5.241 1.338-6.686 2.502.07 2.83-1.029 1.337-2.675 4.157.659 5.018-4.609 1.338-1.337 1.177-3.801 4.028-1.596 5.349-5.35-.083.235-2.046-1.269 0-1.337.075.815.199 1.583 1.337 1.337 1.642-6.099-4.688-4.226-5.349-8.022 1.5-.137 2.082 1.943 2.675 0-3.747-.711-2.473-6.442-4.012-9.36 2.188-2.467 2.866-4.755 5.349-6.686 6.723-5.229 19.106-3.383 29.417-5.35 1.189-3.268 3.117-5.798 2.675-10.697-4.791.192.138-3.429-2.675-6.686 1.188-.394 5.854-3.618 2.675-4.012-.319 1.452-2.201 3.211-2.675 1.337 2.495-2.455 5.813-2.212 4.013-4.011-1.058-1.059 2.455-1.185 2.675-1.339-.438.31 1.508-3.54 1.337-2.674.349-1.771-1.521-3.129-1.337-4.012.042-.203 2.614.207 2.674 0 .58-2.022-.354-5.519 0-8.023.165-1.168 1.217-.962 1.337-1.337.43-1.33-.781-4.228 0-5.349.075-.107 1.318.108 1.338 0 .774-4.394-.354-5.302 1.337-6.687 1.854-1.517-1.407-7.972 0-9.359 1.908-.32 2.255-2.202 4.013-2.674.521-1.453 1.604-3.211 0-1.338-1.927-.715-3.264 5.211-4.013 1.338 2.706-2.034 6.278-5.205 9.36-8.023 1.54-1.408 10.066-7.364 6.686-8.023-.319 1.453-2.201 3.212-2.674 1.339 2.563.281 2.374-4.082 5.35-4.013.063.001.225 2.229 1.337 1.337 1.737-1.391.537-4.541 4.012-5.349.136 1.5-1.944 2.082 0 2.675.517-3.383 2.896-1.359 4.011-4.012-.111.269-2.021-1.295 0-1.337.283 1.615 1.484.82 2.676 0h8.022c.282-1.5 1.483-2.082 2.674-2.675-1.188-4.88 2.361-7.122 0-9.36 3.438-1.434 2.172-3.176 4.012-1.337.771.77 1.962-2.805 2.675-2.674-.068-.014 1.226 2.126 1.338 0 .134-2.56 1.862.417 2.674 0 .659-.34-.251-3.196 1.337-2.675 3.643 3.554 11.646.124 14.709-1.338-.491-8.96.124-16.813 2.675-22.731-1.616-.282-.822-1.483 0-2.674-3.105-.586-3.58-5.904-6.687-2.675.228-3.699-2.055-4.592-4.012-2.675 3.229-3.105-2.089-3.579-2.675-6.686 2.777-.344.365-5.875 2.675-6.688-7.028-.863-3.263-4.574-5.35-9.359 1.553-1.122 3.586-1.765 6.687-1.337-.004-1.341 1.084-1.591 1.338-2.674-.742.004-1.519-1.083 0-1.339.573 3.36 2.881-2.224 2.675-4.011 1.452-.32 3.21-2.202 1.337-2.675.004.743-1.083 1.518-1.337 0 2.343-1.349 7.172-2.312 4.011-5.349 2.607.633 6.839-3.6 4.012-4.013.004.743-1.083 1.52-1.337 0 2.98-1.1 3.071-1.34 5.35-4.011-.309.36-1.951-.52-1.337-1.338.274-.367 2.22.205 2.674 0 .083-.037 1.285-2.533 1.337-2.674-.005.014-1.285.041-1.337 0-.976-.78 1.347-1.35 1.337-1.337-.047.062-.05 1.286 0 1.337 1.038 1.037 1.182-2.406 1.338-2.675.507-.87 3.926-1.785 1.337-2.675.004.742-1.083 1.519-1.337 0 1.924-.877 8.479-3.83 5.349-5.349.004.742-1.083 1.518-1.337 0 5.342-1.75 10.291-9.653 8.022-14.709 4.556.989 2.203-4.928 5.349-5.349.932-6.728-2.269-9.32-1.337-16.047-5.286.228.428-2.055-2.675-4.012 3.084 2.654 1.485-.336 4.012-1.337-.957 3.631 6.306-.957 5.349 2.674-2.646.729.933 1.32 1.337 2.675-.067-.229-1.548 1.408-1.337 2.675.051.302 2.538 2.125 2.676 2.675-.744-.684 1.269-1.758 1.337-1.337.436 2.674-2.392 1.313 1.337 2.674.447.164 2.012 2.59 2.675 0-1.407-.073-1.053-1.714 1.337-1.337v371.73c-123.034.018-246.053.018-369.073.018z"
        ></path>
        <path
          fill="#FFF"
          d="M874.844 964.096c-.222 1.81-8.718 8.718-2.675 2.675.892-.891.945-2.621 2.675-2.675zM259.747 692.652c-.83-2.251-6.859-6.829-1.337-4.012.831 2.251 6.859 6.829 1.337 4.012z"
        ></path>
        <path d="M48.475 128.368c-2.887 3.233-5.211-1.774-5.349-2.674-.48-3.138 3.819-3.055 4.012-6.687.024-.454 2.001-3.347 2.674-2.674 2.634 2.635-.51-1.831 4.011-1.337 1.88 4.417-2.696 4.351-4.011 6.687.001-.003-1.381 3.563-1.337 2.674-.067 1.388 2.265 2.107 0 2.674-3.074.768-2.451.927 0 1.337zM7.023 123.019c1.519.254.743 1.342 0 1.337.019 3.142 3.648-.489 2.674-2.674 3.546-1.335.041 6.869 0 5.349.031 1.154 1.788 2.081 1.338 4.011-.062.263-2.504-.256-2.675 0-1.527 2.288.389 6.802-1.337 8.023-3.691.573-1.255-4.985-4.011-5.35-.721-1.442 2.584-.857 2.674-1.337.282-1.497-2.286-4.197-1.337-6.686.348-.912 3.036-.927 2.674-2.673zM57.835 282.142c.822-1.19 1.616-2.393 0-2.675.829-2.304 6.852-.472 8.022 0 .149.061-.114 1.196 0 1.337.37.452 2.236-.406 2.675 0 .7.648-.867 1.629-1.338 1.337-.048-.03.562 2.308 1.338 1.337.04-.051.015-1.331 0-1.337.145.056 2.635 1.251 2.674 1.337.233.52-.4 2.312 0 2.674.999.907 3.184.287 4.011 1.337.672.854-.417 2.939 1.337 2.674.822-1.943 1.616.137 0 0 .583 1.646 1.711 2.746 4.011 2.674-1.362 1.758-1.311 4.93-2.674 6.687h-5.349c1.766-5.286-5.286.428-1.337-2.674.332-2.542-2.921-1.562-4.013-2.674-.416-.425.452-2.305 0-2.675-1.003-.82-2.534-.999-2.674-2.674-1.348-1.741-.642-.417 0 0 5.559 3.605-1.609-4.012-6.683-6.685zM376.081 280.805c9.224.136 20.124-1.403 24.068 4.012-1.738 3.32 3.923 5.549 0 6.686.758 1.249 3.719 2.026 1.337 2.675.832 5.056 5.586-1.445 5.35 5.349 2.434-2.464 4.209 1.207 6.686 1.337 1.548.082 1.932 1.709 2.674 2.674 1.047 1.358 2.867 1.479 4.012 2.675.868.907-1.288 1.516-1.337 1.337 1.006 3.68 6.389 7.329 9.359 8.022-1.177 6.44.722 21.446-5.349 26.744v14.708c-1.178 2.896-3.86-1.533-4.011 1.337-.14 2.643-6.115.795-12.035 1.337.492-2.274-1.043-2.522-2.674-2.675-.428-3.101.215-5.134 1.337-6.686.195-1.777-4.497-4.977-1.337-5.35-.98-1.249-2.433-2.025-4.013-2.674-.84-1.246 1.298-1.12 1.337-1.337.305-1.665-2.114-.591-2.674-1.337-.677-.902 1.163-1.628 1.337-1.337-.854-1.431-2.488-2.054-4.011-4.011-1.031-1.265 1.313-2.743 1.337-2.675-.34-.95-1.998-1.794-2.674-2.674-1.247-1.623-3.557-5.368-5.349-8.022-1.854-.038-.322 1.708 0 1.337-2.363 2.716-3.108-3.307-6.687-4.012.254-1.518 1.341-.742 1.337 0 3.616-1.201-2.82-3.228-4.011-4.012-.872-1.09 1.338-1.323 1.337-1.337-.14-1.86-2.135-.29-2.674-1.337.34.661 1.329-4.335 0-2.674-1.409 1.762-.736.267-1.337-1.337.052.138-2.285-.579-1.337-1.337 3.568-2.855-3.186.122 0-2.675.039-1.853-1.708-.323-1.337 0-4.221-3.688-4.346-12.474-2.675-18.72 3.598.921 2.586-2.764 4.014-4.011z"></path>
        <path d="M424.219 312.896c-1.168-2.33-4.475-5.151 0-2.674 1.167 2.33 4.474 5.151 0 2.674zM154.111 385.104c-5.429.526-9.316-.489-9.359-5.349 4.296.823 1.833-4.813 5.349-1.337-.136-3.431-4.981-2.149-6.686-4.013.072-8.023 1.703-9.783 4.011-17.383-1.23-2.335-4.18-2.951-8.023-2.674 2.447-5.354-1.903-9.671 1.337-14.708-4.306-.294-5.657 2.365-10.697 1.337v-6.687c-.331-1.451-2.659-.906-2.674-2.674-4.229 1.66-.253 3.89-4.012 6.687-4.638-1.072-5.14 1.992-9.359 1.337.242-5.127-1.095-.485-4.012-1.337 1.604-1.534.521-3.39 0-1.337-1.3-.037-1.038-1.638-1.337-2.674-3.268 3.288-5.798-.989-10.696 0 1.604-1.534.521-3.391 0-1.338-2.597.007-.156-3.098 0-2.674-.216-.583-2.69-1.465-2.675-1.337-.354-2.889 1.03-5.118 1.337-9.36 1.957-3.103 4.238 2.612 4.012-2.674 5.715-1.148 11.839 1.204 18.72 1.337 2.966.058 5.787-1.951 12.035-1.337 2.917.287 4.35.815 9.359 1.337 2.124.222 2.289 1.063 4.012 1.337 2.168.347 4.525-.392 6.686 0 .111.021-.108 1.262 0 1.338 1.131.789 4.014-.45 5.35 0 .476.16.007 1.268 1.337 1.337-.204-.012 3.898 1.221 4.012 1.337-.528-.545-1.444 4.118 0 2.674 1.816-1.816.89.174 2.674 2.674 1.519-.254.742-1.342 0-1.337.472-1.873 2.354-.115 2.674 1.337 2.274-.492 2.523 1.042 2.674 2.674 1.724-1.842 5.809-1.323 9.36-1.337-1.055 4.773 5.13 4.439 6.687 6.687 1.062 1.533.726 3.468 1.337 5.349.147.456 1.268.023 1.337 1.337.069 1.333-.057 2.677 0 4.012-4.782-3.372.543 2.558-4.011 4.012-.792 4.109 1.68 10.696-1.338 10.696-1.983 0 .527 2.153 0 4.013-1.533-1.605-3.389-.521-1.337 0 .095.854-1.8 1.594-2.674 1.337-1.312-.386-.658-2.442-1.337-2.674-1.083-.37-2.613 2.015-4.012 0 1.494-1.646 1.165-2.746-1.337-2.676.73-1.942-1.563-6.91 1.337-6.686-.575-2.1-4.206-1.143-2.674-5.349-6.324.337-8.79.551-12.034 1.337 1.54 1.581 1.513 4.727 1.337 8.022-2.651 3.416 1.388 6.147-1.337 8.022.322 3.446 2.3-1.836 5.349 0 .793 4.054-1.112 6.103-2.674 8.022-1.192 1.465-4.393 4.021-6.686 4.012 2.681 2.728-.596 2.625-1.342 5.351z"></path>
        <path
          fill="#FFF"
          d="M1031.292 342.314c.254-1.518 1.341-.743 1.337 0h12.034c2.406 3.07-9.405 4.418-12.034 2.674-.566-.374.331-3.322-1.337-2.674z"
        ></path>
        <path d="M396.138 373.069c.254 1.519 1.341.742 1.337 0 2.799 2.987.926 7.587 1.337 12.034.315 3.41 2.353 7.124 1.337 10.697-3.896-2.362-1.537 4.096-2.674 2.674-1.28-1.601-.956-.437-1.337 1.337-6.635 1.352-4.263-4.227-9.36-1.337-1.154-4.639-5.284-6.303-8.022-9.36-.97-4.09 2.307-3.933 1.337-8.022 4.266.793 4.135-2.511 6.686 0-2.681-2.66.421-6.366 1.337-9.36h9.36c.245 1.137-.522 1.261-1.338 1.337zM196.9 387.778c3.156 1.788-4.315 9.368-9.359 9.36.996-6.057-3.67 2.044-2.674-4.012-3.78-1.105-3.465 1.885-6.687 1.337-3.584-5.984 1.95-12.758 9.36-12.035.246 1.137-.521 1.261-1.337 1.337.159 2.232 5.701-1.524 5.349 4.011.993-.396 2.279-1.799 4.012-1.337.243.067.788 4.527 1.336 1.339zM64.521 500.1c2.354.322 3.048 2.301 2.674 5.349-2.795.566-3.541-.917-5.349-1.337.473-1.757 2.355-2.103 2.675-4.012zM160.797 544.226c-5.924 4.979 2.349 10.685 1.337 18.721-.77-.353-1.798 3.55-2.674 2.674-.051-.051-.048-1.271 0-1.337.013-.018-2.313.559-1.337 1.337 1.739 1.394.091.387 0 1.339-.439 4.58-.317 14.137 1.337 18.72-3.17-.888-1.726 1.93-1.337 1.337-.798 1.222-3.687 2.047-1.337 2.675-.037 1.301-1.638 1.038-2.675 1.337 1.55 1.979 1.55 3.37 0 5.35-2.889-.338-6.146-7.084-4.012-8.022-.757-1.249-3.717-2.026-1.337-2.675-.979-1.248-2.432-2.025-4.012-2.674.037-1.302 1.637-1.038 2.674-1.338-3.39-3.267 2.819-2.85 1.337-8.022-.254-1.083-1.342-1.333-1.337-2.675-4.198 1.484-3.533.626-6.687-1.337.733-5.333.733-4.026 0-9.36 1.533 1.605 3.39.521 1.338 0 .2-3.326 4.527-.391 5.349 0-.391-.82-3.326-5.146 0-5.349-.879-1.794-2.858-2.49-5.349-2.674.821-1.19 1.615-2.393 0-2.676 2.393-2.926 4.774-4.893 6.686-2.674 1.165 1.026.824-8.536 2.674-6.687 1.383 1.384 1.187.294 0 0 3.573-5.475 3.878 2.808 5.35 1.338 2.586-2.587-.049 2.16 4.012 2.672zM255.736 696.664c-3.131 1.52 3.425 4.473 5.35 5.35.852 2.917-3.79 4.254 1.337 4.011.177 3.297.203 6.443-1.337 8.023-1.519-.254-.743-1.343 0-1.337-1.424-4.212-2.32 2.426-2.674 2.674-1.224.854-1.14-1.302-1.338-1.337-1.073-.196-2.156 4.438-2.674 1.337-1.983.584.528 1.711 0 4.012-1.249.98-2.025 2.432-2.674 4.012-5.209 1.555-10.453-3.689-6.686-6.687.458-1.604-2.256-.656-2.675-1.337-.975-1.584 1.373-2.423 1.338-2.674-.24-1.683-2.353-.425-2.675-1.339-.532-1.51 1.341-2.663 1.338-2.674-.55-1.744-1.799-.229-2.675-1.337-.425-.537-1.323-5.167-1.337-5.349-.185-2.557 1.891-2.877 1.337-6.688 6.388-.729 13.729-2.246 17.384 2.676 3.872 1.497-2.054 1.442-1.339-1.336zM261.084 724.744c.879-4.005 2.857 1.278 5.349 0v22.731c-1.645.584-2.746 1.711-2.674 4.012-1.646-1.493-2.746-1.164-2.674 1.337h-8.023c.482-4.729-.69-8.13 0-10.696.07-.263 2.442.231 2.674 0 .749-.749-1.099-1.688-1.337-1.338 2.096-3.093 4.05-3.33 6.687-5.349-.888-1.632-4.549.716 0-4.012.003-1.96-1.663-.189-1.337 0-3.774-2.194.265-2.955 0-6.687 1.083.254 1.333 1.342 2.674 1.337.244-1.136-.523-1.259-1.339-1.335zM675.605 812.997c-1.943.594.136 1.175 0 2.675 1.944.593-.136 1.175 0 2.675-4.198.632-3.532-3.6-6.686-4.012-3.15-.029-3.938 2.304-8.023 1.337-.036-1.301-1.637-1.037-2.674-1.337-.206-3.326 2.101-4.141 2.674-6.687 1.199-.859 1.182 1.321 1.338 1.337 1.424.144 1.757-3.55 2.674-4.012 1.086-.546 3.104.982 2.676 1.338 1.321-1.09.584-3.745 2.674-5.349 3.541-.56 2.887 5.711 4.012 9.358.28.915 4.2 5.674 1.335 2.677z"></path>
      </g>
    </svg>