<svg
      xmlns="http://www.w3.org/2000/svg"
      data-name="Capa 1"
      viewBox="0 0 1210.15 985.53"
    >
      <g data-name="Layer 2">
        <path
          d="M49.81 155.11c.26-1.08 1.34-1.33 1.34-2.67-2.8 2.92-4.08-1.59-4-5.35 1.23-.85 1.14 1.31 1.34 1.33 1.85.27 3.38-3.86 4-4 3.87-.89 6.1-.19 9.36 1.34-2.07 1.94-1.18 6.85-1.34 10.7-1.58 1.54-4.73 1.51-8 1.33 2.49-4.51-.37-.16-2.7-2.68zM-1 165.81c3.42-.15 2.65-4.48 2.67-8 .52-.7 6.5-2 2.68-2.68-.23-2.9 4.74-.6 6.68-1.33v5.34c-1.95 3.11-4.23-2.61-4 2.68-.81-.08-1.58-.2-1.34-1.34-1.35.06-.31 13.4-6.68 8zM111.32 363.71c3.13 2.78-2.85 7.77-4 10.7-7-1.27-6.08-3.11-6.69-9.36 2.28.49 2.53-1.05 2.68-2.68H110c-.39 2.39 1.25 2.75 1.32 1.34zM345.33 403.82c.15-1.84 4.87-.86 4 0a5.46 5.46 0 01-1.34 0c-.06 0 .56 2.31 1.34 1.34 1.9-2.38 3.19 3.43 4 8-1.53-1.6-3.39-.52-1.34 0-2 4.05-5.87-1.1-9.36 0q-.24-5.1-5.35-5.34c-.24-1.14.52-1.27 1.34-1.34 0-1.89-1.7-.29-1.34 0-4.65-3.65-3.08-8.91-4-17.39h5.35a7.74 7.74 0 001.34 5.35c.29.46.89 3.65 1.34 4 .14.11 2.22.44 1.33 1.33a7.38 7.38 0 01-1.33 0c1.03 1.54 7.35.23 4.02 4.05zM171.49 402.49c2.13-1.58 3 3.66 4 2.67 1.84-1.84.57-.09 4 1.34-.45 4.73-.08 6.89-1.34 8-2.39.38-2.74-1.26-1.34-1.34-.16-2.29-3.68-.47-5.35-1.33.1 0-1.28-4.7-4-4 1.36-1.78 3.64-2.62 4.03-5.34zM520.49 770.21c-1.35.87-1.38 3.07-4 2.67.55-4.61-.66-.75-4-1.33-.21 0 .2-2.48 0-2.68s-3.35 1.82-4 0c-.1-5.69-2.24-9.35-1.34-16-.22-1.55.3-2.38 1.34-2.67-3-2.46-4.4-5.5-2.68-9.36h8c-.47 1.41 2.55 2.1 2.67 2.68.17.78-1.05 1.85-1.34 1.33.82 1.48 1.63.29 2.68 1.34-.35-.35 1.53 3.68 1.34 2.67.24 1.26-1.26 2.94-1.34 2.68.45 1.35 3.95 2 1.34 2.67a9.47 9.47 0 004 2.68c-1.5 1.64-1.17 2.74 1.34 2.67v10.7c-4.34-4.26.05 4.45-4.01-.05z"
          transform="translate(1 -1.29)"
        ></path>
        <path
          d="M836.07 986.83v-1.34c-3.94.11-5.54-4-6.69-5.35-4.24-4.89-13.8 2-18.72-1.33.34 3.52-5.23 3.59-8 4-5.79.86-13.15-.65-18.72 0-.3-1.05-1.12-1.56-2.68-1.34 2.4-4.56-.07-.69-1.34-1.34-.66-.34.25-3.19-1.33-2.67-.55 2.28-1.73-.28-4 0-.13-1.5 2-2.08 0-2.68-.64 2.38-1.42-.58-2.67-1.33-1.34 4.12-2.21-2.9-4-2.68-1.52 2.77-5.51 1-8 1.34s-4.46 2.42-6.68 1.34c-2.58-2.48-1.06-2.45-5.35-1.34-.14-1.5 1.94-2.08 0-2.68-.08 1-.2 1.34-1.34 1.34s-1.3-1.33-1.34-1.34a30.45 30.45 0 00-6.68 0c-1.45.2-.64 1-1.34 1.34-2.48 1.36-6.51 2.23-9.36 2.68-6.78 1.07-13.27-.79-21.4 0-.29-1.05-1.12-1.56-2.67-1.34 2.86-4.54-.74-.72-1.34-1.34-.76-.79-.71-3.19-1.33-4s-2-2-2.68-2.68c-.93-1-3-.42-4-1.33-.4-.37.23-2.16 0-2.68-.05-.11-2.5-1.25-2.68-1.33.12 0-1.31 2.11-2.67 1.33-1.07-.61.52-2.48-1.34-2.67-.18 0-1.21 2.4-2.67 1.34-.14-1.5 1.94-2.09 0-2.68-.3 1-1.12 1.56-2.68 1.34 2.69-4.66-.59.11-1.34-2.68.11-2.48-2 .31-2.67 0s-2.24-3.29-2.67-4c-.6-1-.61-1.88-1.34-2.67.81-7.94-.92-13.34-2.68-18.73 1.19-.78 7.63-2.81 4-4 0 .75-1.09 1.52-1.34 0a3.65 3.65 0 002.67-4c2.73-.4 3.57-2.68 5.35-4 3.85-1.5 7.89-2.81 10.7-5.35 1.77-3.35-5.29-4.19-1.34-5.35 2.27-2.63 4.11-5.7 8-6.69 2.69-4.65-.59.12-1.33-2.67 2.79-2.53.88-6.69 1.33-9.36.28-1.62.73-3 1.34-5.35a36.53 36.53 0 011.34-5.35c.48-1.18 3.84.67 1.34-1.34-.74-.58 2.78-2.1 2.67-2.67 0-.13-2.24-.21-1.34-1.34 1.52-1.89 4.79-4.65 5.35-5.35s1.86 1.22 1.34 1.34c1.49-.34 2.09-1.44 2.68-2.68-2.49-.65-2-3.92-2.68-5.34-.33-.76-2.94-2.68-2.67-4 0 .07 2.12-1.22 0-1.33-3.2-.17-3.14-7.67-1.34-8-4.42-.24-3.88-6.83-4-9.36-.06-1.15-1.29-1.09-1.34-1.33-.28-1.28.28-2.74 0-4S701.05 830 701 829c-.11-1.94 1.68-3.92 0-4-2.21-.12-2.23-8.52-2.67-9.36-.35-.65-3-2.79-4-4s-2.51-5.4-4-2.68c1.5.28 2.08 1.49 2.68 2.68-2-1.87-7.61-5.63-8-6.69-.34-.84 1.67-2.29 1.33-2.67-.58-.65-3.34-.83-4-1.34-1.19-.92-6.7-7-6.69-6.69-.05-.88 1.81.07 0-1.34.6.47-.64 1.48-1.33 1.34-.9-.18-.75-3.3-1.34-4s-2.3 1.71-2.68 1.34c-.87-.89 1.36-1.42 1.34-1.34.42-1.58-6.39-7.48-5.35-4 1.5.28 2.08 1.48 2.68 2.67-2.35-1.22-4.65-2.48-4-6.69 5.33.43 9.88.08 12-2.67.14 1.5-1.94 2.08 0 2.67 0-2.65 3.65-1.69 2.67-5.34 2.94-.43 6.06-1.32 2.68-2.68.26.1-1.29 2-1.34 0 2.53-2.2 4.76-1.88 6.69-5.35-.3.54-1.49-.57-1.34-1.34 0-.1 1.11-.46 1.34-1.33 1.35-5.11-.15-7.25 1.34-10.7-3.6.92-2.59-2.77-4-4-.19-7.72-6.33-15.49-4-21.4-5.39 0-3.31-6.2-4-9.36 0-.19-1.1-.38-1.34-1.33-.48-1.91-.5-2.71-1.34-4a7.4 7.4 0 01-1.33-4c0-.83-1.35-1.51-1.34-1.34-.05-.81 1.57-2.27 1.34-2.67s-3.2-3.2-5.35-5.35l-10.7-10.7c-1.9-1.9-4.25-4.57-5.35-5.35-1.62-1.14-2.46.11-4-1.33.65.6 1.24-2.54-1.34-2.68-4.24-.22-5.72-7.55-8-8-.55 2.28-1.73-.28-4 0 3.15-4.86-1.86.15-4-2.67-1.15-1.51 2.18-1.26 0-2.68.68.44-2.52.87-4 0-2.37-1.37-.24-5.71-2.67-2.67-.78 1-1.35-1.35-1.34-1.34-1.64-1.28-1.43-2.58-2.67-1.34-.82.82-2.54-2.4-4-1.34 2.41-4.18-.41-.69-4-2.67 2.33-4.61 0-.64-1.33-1.34-1.05-.54.52-2.53-1.34-2.67 0 0 .06 1.28 0 1.33-1.43 1.43-2.39-3.65-2.68-4s-2.08.71-1.33 1.34c-2.56-2.15-2.23-2.81-4-4-.55 2.28-1.73-.28-4 0 .42-1.56 1.74-3.08 0-1.34-1.4 1.4-3.29-4.45-4-5.35-2.86-3.57-6.59-4.43-9.36-6.69-1.81-1.48-2.76-3.68-4-5.35.74 0 1.52-1.08 0-1.33-.76 3.19-3.82-3.24-1.34-4-4.91 0-5.12-4.68-8-6.68-1.72 3.73-5.34-1.64-6.69-2.68-.29 1.05-1.12 1.56-2.67 1.34-.14-1.5 1.94-2.08 0-2.67-1.34 4.12-2.21-2.9-4-2.68-.58 2.9-3.27-1.07-4-1.34-6.22-2.24-11.69-.57-17.38 0a7.64 7.64 0 002.68 5.35c.22.21-.2 1.1 0 1.34.49.61 3.32-2.46 4 0-.24 3 4.52 7.79 5.35 5.35-1.19-.39-5.86-3.62-2.68-4 3.18 3.92 6.75 7.83 9.36 10.7 1.12 1.22 3.61 1.93 4 4 .18 3.29.21 6.44-1.33 8 2.85-.2 2.52 1.36 2.67 4 .18 3.21 3.71 6.71 1.34 8 6 2 9.21 6.84 12 12 4.7-.24 4.4 4.52 8 5.35 1.82 1.8 2.55 9.33-1.34 9.36-4.16-7.88-11.07-13-17.38-18.72 0-.75-1.09-1.52-1.34 0a108.11 108.11 0 0116 16c-5.56-5.56-13.69-11.68-18.72-17.38-1-1.11-.43-2.72-1.33-4-2.13-3-4.07-1.5-5.35-1.34-2.14.26-6.58-4.38-6.69-1.34 3.27 1.44-2.47 4.24-2.67 5.35.1-.58 1.25 1.95 1.33 2.68.61 5.06-.46 9 0 13.37-5.85-1 1.08 2.65-2.67 2.67-1.43-4.55-.42 3.72-4 1.34-2.06-1.17-4.83-8.4-6.69-5.35.74 0 1.52 1.08 0 1.34-.69-2-2-3.37-2.67-5.35v-8c-1.93.71-3.27-5.22-4-1.34 3.33.92-2.48 3.56-1.34 6.68-2.94 1.52-4.44 4.48-8 5.35-.3 1 0 2.64-1.34 2.68-.81 3.2 1.68 9.7-1.34 10.7.64-6.35-1.66-1.48-4-4-.23 2 .48 4.94-1.34 5.35-.06 4 3.94 6.79 1.34 9.36a3.68 3.68 0 014 2.68c-4.55 1.42 3.72.41 1.34 4-2.88 2.72-7.53-.33-9.36-2.68-1.85 3.05-9.31.5-13.37 1.34v12c-1.5-.14-2.08 1.94-2.68 0-1.76 0-1.22 2.34-2.67 2.67-3.42-1-6.15-2-8 1.34 3.11.5-1.55 1.62-1.34 2.67.05.23 2.17.08 1.34 1.34-1.71 1.86-6.32.82-8 2.67.78 4.75 3.3 12.78 1.34 16 4.71.45 7.67 7.41 5.35 10.7 6.22.38-2.08 2.42 2.67 2.67 1.9.1 1.52 3.12 2.68 4-2.19-1-5.82 2.66-2.68 2.68 0-.74 1.09-1.52 1.34 0-1.57 2-5.56 1.57-5.35 5.35-.55.34-2.23-.45-2.67 0-.69.69 1.23 1.78 1.34 1.34-.32 1.37-1.64 3.37 0 1.33.58-.73 2.1 2.79 2.67 2.68.23 0 .08-2.18 1.34-1.34-4.27 3.23 8 5.31 4 8-.32-1.45-2.2-3.21-2.68-1.33 2 2.47 6.91 2 6.69 6.68v5.35c-2.19-1-5.82 2.66-2.67 2.68 0-.75 1.08-1.52 1.33 0-4.07.83-2.61 7.19-6.68 8-2.22-3.14-7.81-2.9-13.38-2.68-.49-2.09.1-2.52-1.33-1.33-1.72 1.42-.09-3 0-2.68-.09-.31-2.48-.87-2.68-1.34-.7-1.64-1.13-1.76 0-2.67s-1.33-1.33-1.33-1.34c.89 1-1.88.59-2.68 0-1.11-.82-1.64-3-2.67-4-2.12-2-4.95-3-6.69-6.69 3.47-3-4.2-2.92 0-6.68-6-2.9-12.76.29-18.72 1.33-3.08.41-1.49-3.86-4-4-.23 1.56-2.12 1.45-4 1.34-.81 3.62-2.65 1.21-4 4 .2-.41 1.91 2 0 2.68-1 .3-2.63 0-2.67 1.33-.74 0-1.52 1.09 0 1.34 3.48-2.77-2.27 1.49-1.34 4 1.12.47 1.05.5 0 1.34-1.66 1.33 3.15.08 2.68 0 1.41.24 2.44 8.69 4 4-3.65-2.08 6.9 1 4 6.69-3.08-2.65-1.48.33-4 1.34-4.27.79-4.14-2.51-6.69 0q.38-4.38-4-4c-.28 1.62-1.48.83-2.67 0-1.43 1.25-.42 4.94-4 4-4.59.46-7-2.55-9.36-2.68-1.28-.07-.94-1.22-1.34-1.34-1.23-.36-2.76.28-4 0-4.64-1-14.49-3.28-17.39-4-1.57-.39-3.21-.21-2.67-2.67-5.7-.1-9.35-2.24-16.05-1.34-.88-1.79-2.85-2.49-5.35-2.67-.13-1.5 2-2.09 0-2.68.41 4.18-3.86-3.4-4 1.34-4.93 2.14-8.48 1.14-10.69 0-1.23-.63-2.74-.51-4-1.34-.92-.6-.53-3.41-1.33-4-1.52-1.14-1.21 2.11-2.68 0 .26.38 1.8-.44 1.34-1.34s-2.12-.08-2.67-1.34c-1.07-2.43-1.47-5.3 0-6.68-5.86 1 1.07-2.66-2.68-2.68-.78 3.2-2.81-3.24-4-4 1.5-.14 2.08 1.94 2.67 0-2-.69-3.37-2-5.35-2.67-2.45-4.24-6.06-7.31-9.35-10.7-1.54-1.58-1.52-4.73-1.34-8-3.14-.43-3-4.14-5.35-5.35-1.58 2.44-1.16-3.07-5.35 0-1.21-2.36-4.92-2.21-5.35-5.35s-2.11-5-1.34-9.36c-4.33-.78-2.5-2.81-4-4 0 .74-1.08 1.52-1.34 0-.9-1.49-4.44.26-5.34-4 .74 0 1.51-1.08 0-1.33-.76 3.19-3.82-3.24-1.34-4-1.77-.39-2.94-.06-1.34-1.34 1-.78-1.31-1.31-1.34-1.34a6 6 0 010 1.34c-.77 1-1.28-1.28-1.33-1.34-3.48-4.18-6.27-7.24-9.36-10.7a47.41 47.41 0 00-4-4c2.48 2-6-.84-4-2.67 2.38-.65-.58-1.43-1.33-2.68-1-4.09 2.3-3.93 1.33-8-1.37-1.34-2.93-2.93-4-4s-1.94.28-2.67-1.34c.13.28 2-1.31 0-1.34-1.49 3.42-10.35-.53-12 2.68-1.18-2.38-3.73-3.4-2.67-8 1.34-2.84 5.4-6.48 8-4 1.15-4.64 5.56-6 8-9.36-2.07-1.49-2.78-4.34-6.68-4-1.23 2.34-4.18 3-8 2.68-1.85-1.73-1.33-5.81-1.34-9.36 2.5.07 2.83-1 1.34-2.68 1.9-.32 2.25-2.2 4-2.67.13 1.5-1.95 2.08 0 2.67 1.34-1.77 1.26-5 4-5.35 4 0 10.69 4 12-1.33-6.65-.53 1.81-3.78-2.67-4-3.51-.18-1.75-9.23-1.34-8-.28-.83-2.36.21-2.67-1.33-.23-1.13 2-2.57 0-2.68-3-.16.33-3.35 0-4-.49-1-2.22.25-2.68-1.34-.35-1.22 1.63-1.77 1.34-2.67s-2.37.17-2.67-1.34c-.26-1.29 1.28-1.63 1.33-2.68-1.77-1.34-5-1.26-5.35-4 1.5-.13 2.09 1.94 2.68 0-6.38-1.2-7.38-7.77-6.69-16-2.17-2.74-9.87.06-12-2.68-.3-2.53 1.5-2.95 1.33-5.35-4.73-.15 2.84-4.42-1.33-4-.25 2-3.23 1.23-5.35 1.34-2.31.81.1 6.34-2.68 6.68-2.66-1.61-5.71-1.1-6.68 0 2.38.65-.58 1.43-1.34 2.68 2.67 1.48-1.63 7.18 0 12-2.66 0-1.7 3.65-5.35 2.68-.28-1.62-1.48-.82-2.67 0-2.74-4.4-.73-13.54-1.34-20.06-1-.3-1.56-1.12-1.34-2.68-5.86 1 1.08-2.65-2.67-2.67.29 1.76-1.86.66-2.68 1.34-3.25 2.68-.32 10.58-1.33 14.71 1.61.28.82 1.48 0 2.67q4.36-.36 4 4c-1.62.29-.82 1.49 0 2.68-3.53-3.55-2.83 4-6.69 4-.14-1.5 1.94-2.08 0-2.68-1.07 5-3 2.15-4 4-.22.4 1.83.08 0 1.33a7.78 7.78 0 01-4 1.34c.07-2.5-1-2.83-2.68-1.34 3-3.51-1.11-1.44-1.33-4-.41-4.64 3.2-10.19 4-17.38.7-6.2-.52-12 0-18.72 2.5.07 2.83-1 1.33-2.68a3.71 3.71 0 004-2.67c-1.64 0 .34-7.56 1.33-9.36-5.85 1 1.08-2.66-2.67-2.68-.29.88-.72 1.36-1.34 0-1.29-2.85.68-3.29-1.34-4-.16-.06-.71 2.09-1.33 0a39.29 39.29 0 01-1.34-16c.66-5 1.15-5.47 0-9.36-.66-2.25-.78-3.17-1.34-5.35-.05-5.38-.11-9.79-1.33-10.7-2 2-5.87 2.15-9.36 2.67v-12c3.44.22 6.42-6.8 8-4-1.45.32-3.21 2.2-1.34 2.67.28-1.5 1.49-2.08 2.68-2.67 0-1.34 1.08-1.59 1.33-2.68.75 0 1.52-1.08 0-1.33 0 .74-1.08 1.52-1.33 0 4.43-.47 2.1-7.71 2.67-12 4.31-2.14 5.78-6.08 8-8 .81-.7.23-1.39 1.34 0 .78 1 1.3-1.3 1.34-1.34a6 6 0 01-1.34 0c-.88-.87 3-1.9 2.68-2.67-1.05-.3-1.56-1.12-1.34-2.67 4.72-1.35 2.45-2.32 4-5.35 1-.3 2.64 0 2.67-1.34.75 0 1.52-1.08 0-1.34 0 .74-1.08 1.52-1.33 0 1.77-1.34 5-1.26 5.35-4-3-.17-.57-5.67-1.34-8h-10.7c-.15-1.63-.4-3.17-2.67-2.68 2.83-3.46-.83-1.51-1.34-4s.35-4.41 0-8c1.67-.15 1.86-1.66 2.67-2.68.4-.49 2.07.89 1.34 1.34 2-1.28 2-3.25 4-4 1.56-.6 3.75.46 5.35 0 1.53-4.27 1.38-10.21 9.36-8-.56-7.11-.14-13.49-1.33-20.06-.57-3.15-2.59-6.05-2.68-9.36-.27-10.43 4-19.92 2.68-29.42-.68-4.71-3.86-7.54-4-12-2.5-.32.76-2.2-1.33-2.68 0 .75-1.09 1.52-1.34 0-1.71-3.34.68-4.18-1.34-5.34-2.23 4.36-4-.73-6.68-1.34a3.36 3.36 0 01-2.68 1.34c-.08 0 .08-1.25 0-1.34-.25-.31-2.24.1-2.67 0-2-.45-4.28-.72-6.69-1.34-.11 0 .09-1.23 0-1.34-.28-.34-3.51 0-4 0-1.22-.06-1-1.25-1.34-1.33-7.23-1.88-14.32-1.52-21.39-2.68-.3-1-1.12-1.55-2.68-1.33 2.4-4.56-.07-.69-1.33-1.34-.66-.34.25-3.2-1.34-2.68 0 2.05-6.31-.66-8-1.33 0 2.32-.58 2.26-2.68 2.67-4.18.82-10.74-1.37-14.71-1.34 4.16-4.13-4.52-2.26-2.67-8 3.94 1.88 1.58.68 1.34-1.34-.28-2.22 1.59-1.07 0-2.67-.82-.82 2.39-2.54 1.33-4-1.58-1.54-4.72-1.52-8-1.34.24-3-4.52-7.79-5.35-5.35 1.19.4 5.86 3.62 2.68 4-1.55-3.35-5.33-4.47-5.35-9.36h-8c1-2.7-1.86-1.72-1.33-1.33a23.39 23.39 0 01-2.68-2.68c-.17 2.28-3.33.83-5.35 1.34-.71.18-1.39 1.35-1.33 1.34-1.21.26-2.56-1.35-2.68-1.34-1.76.11-1.23 2.27-2.67 2.67-2.86-4.27-6.3-8-9.36-12 0-1.77 2.34-1.22 2.67-2.68a59.07 59.07 0 01-5.35-6.68c1.5-.14 2.08 1.94 2.68 0-2.13-1.35-5.38-1.27-2.68-4-2.29-1.45-6-2.46-6.68-4-.57-1.25 1.29-1.12 1.33-1.33.3-1.48-.91-.76-1.33-1.34.22.31-.52 1.44-1.34 0s-2.74-3.76-2.68-8c0-1.77 2.35-1.23 2.68-2.68-1.62-.28-.82-1.48 0-2.67-5.86 1 1.08-2.66-2.68-2.68-2.52 3.37-1.25-4.66-2.67-4-1.85 5-.2-3.93-2.67-2.67-.14-1.5 1.94-2.08 0-2.68-.77 2.79-8.65 1.68-8-1.33-1.14-4.27 1.17-5.08 2.68-6.69-.74 0-1.52-1.08 0-1.34 1.43-5-3.32-3.81-2.68-8-.41-6.72 1.55-15.81-2.67-18.72 1.5-.14 2.08 1.94 2.67 0-3.18-.14-2.94-3.7-4-5.35-1.3-2-4.29-4-4-6.69.78-4.33 2.81-2.5 4-4-2-.25-1.22-3.23-1.33-5.35 1.78-2.39 2.08-3 2.67-5.35.34-1.37 1.79-2.18 1.34-4-.14-.54-1.38-1.63-1.34-1.34-.18-1.32 1.27-1 1.34-1.33.26-1.31-2.65-.32-4-1.34-1.12-.83-1.59-3.07-2.67-4v-10.7c1.49-2.16 9.34-4.8 6.69-6.69 0 .75-1.09 1.52-1.34 0 1.5-.28 2.08-1.48 2.67-2.67 2.33.1 4.16-.3 5.35-1.34-.92 5.38 1.28 7.64 1.34 12-1.37 1.3-2.7 2.64-4 4 .74 0 1.52 1.08 0 1.34 2.24 2.87-.39 5.48 0 6.68.09.3 2.42-.25 2.67 0 .43.43-.81 2.05-1.33 1.34a23.21 23.21 0 002.67 2.67 6.28 6.28 0 01-1.34 4c2.5-.08 2.83 1 1.34 2.67 5.75-.63 1.71 3.6 4 4-.17-.74 1.3-1.52 1.34 0 .14 5.1-3.46 14.25-2.67 22.73 2.86 3-1.85 2.88 1.33 4-.24-.08 1.27-2 1.34 0 0 1.35 1.08 1.6 1.34 2.68 1.79 3.56.42 10.27 4 12 1.58-2.45 1.16 3.06 5.35 0 .13 1.5-2 2.08 0 2.67 1.13-3.92 3.36 1.74 6.68 0 .08 1.71 1.72 1.85 1.34 4 1.5-.14 2.08 1.94 2.68 0-.75 0-1.52-1.08 0-1.34 3.51 3.4-.91 3.4-1.34 5.35a3.36 3.36 0 011.34 2.68c-.08.44-2.34 1-1.34 2.67 2.38.74 5.55.69 6.68 2.67-3.87 3 2.06-1.68 1.34 1.34-.18 7.23-5.22 1.3-10.69 2.68-1.17 5.17 3.26 4.75 4 8-.6-1-3.26-.47-2.68 0 2.68 2.13 4.86-1.62 9.36-2.68-.29 1.68-2.08 2.74 1.34 2.68-.41 4.6 2.47 11.74 2.67 13.37.16 1.26-1.53 1.72-1.33 2.67 0 .21 2.45-.18 2.67 0 .66.55-1.61 2.23-1.34 2.68 1.64.15 3.17.4 2.68 2.67 4.14-.13 7.41.61 9.36 2.68 4.54-.09 7.34 1.57 9.36 4a13.24 13.24 0 018-4c1-4.09-2.31-3.94-1.34-8 1.76-1.37 4.93-1.32 6.69-2.68-1 3.65 2.66 2.69 2.67 5.35 8.21 1.73 17.3-1.23 25.41 0 7.48 1.14 12.09 6.53 18.72 6.69 1.14-2 3.27.37 4 0s-.08-4.11 2.67-2.68c2.73.4 3.57 2.68 5.35 4 2-4 5.87 1.11 9.36 0a9.56 9.56 0 002.68 4c.32-3.45 2.3 1.83 5.35 0 .32 1.9 2.2 2.25 2.67 4v5.35c4.85-.95 5.73-5.87 13.37-4 .3 1 1.12 1.55 2.68 1.33-2.25 4.31.61 3.58 1.33 2.68 1.36-1.7 3 5.26 4 4 1.71-3.47 6.36-.6 6.68-2.67-.74 0-1.52-1.09 0-1.34 5.3-.4 8.17 1.63 10.7 4-1.62.28-.82 1.48 0 2.68-3.77-1.16-1.15 2.45-1.34 2.67-.81.95-4.54 1.34-5.35 2.67-.45.76 1.26 2.09 1.34 2.68 0-.11-2.1 1.16 0 1.33.68-1.83 2.89.22 5.35 0 .07 0-.07-1.25 0-1.33.89-1.09 5.47.82 6.68 0 1.66 3.62 5.17 3.33 2.68 8 2.92 1.54 8.65.27 9.36 4-2.38.65.58 1.43 1.34 2.68-1 .07-1.34.2-1.34 1.33 0 .86 1.34 1.53 1.34 1.34 0 2.31-1.63 3.42 0 4 .87-4 2.85 1.28 5.35 0 .2 1.58-.23 3.8 1.33 4 .3-1 0-2.63 1.34-2.67.63 5.75-3.6 1.71-4 4-.06 2.08-9.5-2.89-8 4 3.78 1.11 3.47-1.88 6.69-1.33-1.17 5.17 5.84 2.18 4 8 4.12-.94 2.57-.94 6.69 0a99.39 99.39 0 015.35 18.72c0 1.77-2.35 1.22-2.68 2.67 1.92.14.06.91 0 1.34-.35 3 .27 9.16 0 13.37 1.52 2.94 4.48 4.44 5.35 8 .21 1.58-.23 3.8 1.34 4 .14 1.5-1.94 2.08 0 2.67.25-2 3.23-1.23 5.35-1.34-3.31 3.19 3.47 2.2 1.34 8-1.06 2.95-4.68 3.34-6.69 5.35-2 1 .35 3.44 0 4-.64 1.05-3.16 1.58-4 2.67.31-.4 1.78.47 1.34 1.34-.34.66-3.2-.25-2.68 1.34 2.19-.61 2.19 7.29 0 6.68-.52-2.05-1.6-.19 0 1.34-2.47-.61-4 1-5.35 1.34-2.54.69-5.3.35-5.35 1.33-.17 3.23-7.3 2.67-9.36 2.68-.67 4.21 2.92 5.23 0 8 4.61.35 5.68 1.53 9.36 1.34.85-.05 1.48-1.35 1.34-1.34 4-.27 7.93-1.52 10.7 0-.87-2.9 2.89-3.35 5.35-4 3-.81 8.39-.67 9.36 0-1-5.86 2.65 1.08 2.67-2.67-3.82-.7 2.16-2 2.67-2.68-2.59-5.82 5.83-7.4 2.68-9.36a6.74 6.74 0 01-4 4c1.93-2.52 3-5.92 8-5.35 1.71.08 1.85 1.72 4 1.34 2.56 2.49-2 3.84 1.34 4 2.52.14-.77 2.35 1.33 2.68 1.21-2.07 4.93-.7 5.35 0 1.15 4.26-1.16 5.07-2.67 6.68 1 .3 1.55 1.12 1.34 2.68-4.59-2.66-.65.46-1.34 1.34-1.79 2.28-6.67 5.18-9.36 8 2.28.55-.28 1.72 0 4-4.29-3-.56 1.39-2.67 4-.7.87-3.81-.08-4 1.34.14 1.5-1.94 2.08 0 2.67.29-1.5 1.49-2.08 2.68-2.67-1.55 3.35-5.33 4.48-5.35 9.36 5.62 0 11.18-.05 12-1.34-2.28-.55.28-1.72 0-4 4 2.36.28-.62 2.68-4 .66-.93 1.62 1.39 1.33 1.34 1.32.26.33-2.65 1.34-4 2.84-3.81 11.31-5.14 14.71 1.34a29 29 0 00-1.34 12c-4.09-3.56-2.55 4.83-5.35 1.33-.68-.86-2.56 5.59-4 4-.13-1.5 1.95-2.08 0-2.67-.69 2-2 3.37-2.67 5.35-1.69-.61-.75 2.25-1.34 2.67-1.06.76-2.42-2.41-2.67 0 4 .88-1.28 2.86 0 5.35a35 35 0 0010.69-4c1.5-.14 2.09 1.94 2.68 0-4.13-3.27 3.84 1.47 2.67-1.34-.74 0-1.51-1.08 0-1.33 1.71-.08 1.86-1.72 4-1.34.32-2.51 2.21.76 2.68-1.34-.74 0-1.52-1.08 0-1.33 1.7-1.87 6.55-.59 6.69-4-1.16-.82-3.26-1.53-4-2.67-.64-1 1.7-1.95 1.34-2.68s-3.21.25-2.67-1.33l4-4c-1.79-.93.66-3.57-1.34-6.69 1.5-.14 2.08 1.94 2.67 0 2.51-.32-.75-2.2 1.34-2.67 3.52 3.47 1.05-2.17 5.35-1.34 1.81.42 2.56 1.9 5.35 1.34-.29 1.68-2.08 2.73 1.34 2.67 3 1.93-1.69 3.26 1.33 4-.05-.73 1.15-1.52 1.34 0 .4 3.27-.49 15.27 1.34 14.71a10 10 0 004-5.35c1.06-2.59-.76-7.35 2.68-8 10.89 0 21.45.17 30.75 1.34 3.5.43 7.59 3.37 10.7 1.33 1.69-3.32-1.94-4.26-2.68-5.35-1.35-2-2.18-3.74-4-5.35.41 2.72-3.86-.27-4-1.33a6.75 6.75 0 01-4-4 84.73 84.73 0 009.36-13.37c1.34 0 1.59 1.09 2.67 1.34-1.15-6.2 2.1-1.4 2.67-4-3.06-3.1 4.17.45 6.69 0-.41 4.18 3.86-3.4 4 1.33-3 1.87 1.12-.16 1.34 0 .49.37.92 3.5 1.34 4 .84 1.05.68-3.4 1.33-2.68 1.16 1.28 1.19 3 2.68 4-1-.62 2.7-.34 4 0 .11 0-.09 1.23 0 1.34 1.6 1.95 8.31-1.28 8-1.34.23.05.08 2.18 1.34 1.34.45-4.76 7.64-3.52 10.7-5.35 4.22.35 5 4.5 8 6.69.88.64 3.09-.6 4 0 .68.44-.27 3.11 1.34 2.67 3.93-3.13 1.42-10.63 2.67-13.37-3.92-.09-5-3.06-6.68-5.35 1.5-.13 2.08 1.94 2.67 0-3.17-2.14-4.81-2.45-8-6.68.21.27 1.94-1.24 0-1.34-2.56-.14.41-1.87 0-2.68-.53-1-2.24.34-2.68-1.33-2.07-8 0-16.44-2.67-26.75 6.22-.38-2.08-2.42 2.67-2.67 2.71-.14 1-4.81 4-4 3.24 2.1 5.71 5 12 4 2.3-.53 3.43 2 4 0-2.37-1.77 0-5.93 0-9.36 0-2-2.27-4.39 0-5.35-2.5.07-2.83-1-1.34-2.67-5.85 1 1.08-2.66-2.67-2.68-3.27 4.13 1.47-3.84-1.34-2.67-.45 1.42-1.21 1-1.33-1.34-.05-.83-1.35-1.51-1.34-1.34 0-.87 1.58-2.19 1.34-2.67-.4-.78-4.11.08-2.68-2.68-.54-2.69 2-2.56 2.68-4-.06.12-2.11-1.32-1.34-2.67.38-.68 3.16.26 2.67-1.34-2.57-1.38.55-8.26 2.68-9.36-1.5-1.18-.73-5.37 0-8 .21-.77 2.45.22 2.67-1.34 0-.14-2.4-1.24-1.34-2.67 1.91-.32 2.26-2.21 4-2.68 3-1.83 5 3.45 5.35 0-2.9.23-.61-4.74-1.34-6.68 5 3.23-1-2.09 4-2.68 1.21-3.47-1.18-7.14-1.34-10.69-.18-4.24 2-6.4 0-6.69-.37 3.15-5-.12-5.35-1.34 1.62.14.82-1.94 0 0-4.64-2.72 3.89-7 0-9.36-2.58.23-6.35.27-9.36 1.34-.54.19-2 2.31-2.67 2.67-.18.1-1.74 1.45-1.34 1.34-1.11.29-2.56-2.07-2.67 0-.08 1.52-.54.65-1.34 1.34-4.4 3.81-14.86-.33-17.38-1.34a5.46 5.46 0 00-1.34 0c-1.4-.07-.78-1.12-1.34-1.34-1.92-.75-5.3.72-5.35-2.67 1.5-.14 2.09 1.94 2.68 0a9.47 9.47 0 01-4-2.68c-4.13-9.35 1.13-18.29 2.67-28.08 1-6.48.89-12.87 1.34-20.05a9.47 9.47 0 004-2.68c-2.38-.65.58-1.42 1.34-2.67-1.05-.3-1.56-1.12-1.34-2.68 1-.29 1.56-1.12 1.34-2.67 3.9.79 1-2 1.33-2.67.48-.93 2.16.13 2.68-1.34-.21.6-1.34-.72-1.34-1.34 0-2.41 2.71-3.45 2.68-5.35-1.57-2-5.56-1.57-5.35-5.35 1.09-.76 1.22 1.3 1.33 1.34 1.7.56.12-1.14 0-1.34-1.45-2.42 4.12-1.82 5.35-2.67.95-.66 2.33-3.65 4-5.35 2-2 4.8-3.24 5.35-4 1.36-1.91-.06-3.71 1.34-5.35 3.44 1.44 1.58-2.85 1.34-2.68 1.05-.72 2.9 2.55 4 0 1.73-1.89 1.78-5.42 2.67-6.68.78-1.11 2.26.47 2.68-1.34 0 0-2.4-1.31-1.34-2.67 1.86-.65 5.15-4 5.35-4 1.11-.29 2.56 2.08 2.67 0 .18-3.32 2.82-2.49 4-1.33a3.68 3.68 0 012.67-4c-3.94-9 6.15-12.73 4-24.06 1.91-.32 2.26-2.21 4-2.68 1.22-2 3.17.39 4 0 .34-.16-.27-2.35 0-2.67.54-.67 2.22 1.61 2.67 1.33 1-.62-.53-2.57 1.34-2.67 1.48-.08.66-1 1.33-1.34 1.1-.55 1.81 1.59 2.68 1.34 1.92-.55 0-3.31 0-4 0-.06 1.26.06 1.34 0 1.09-.9-.83-5.47 0-6.69-3.33-.14-4.14-2.5-6.69 0-.7.56-3.85 1.88-4 2.68s1.17 1.92 1.33 1.33c1-3.73 1.71 2.13-1.33 1.34-2.11-.12-1.05-3.41-4-2.67 3.58-3.44-3.59-1.92 0-5.35-4.85 1.28-1.36-5.77-4-6.69 5.79 0 5.28-6.31 9.36-8 .14 1.5-1.94 2.08 0 2.67.7-2 2-3.37 2.68-5.35 3.26 2.22.87-.4 2.67-1.33 3.13-1.63 2.82.85 4-1.34-1-.3-1.55-1.12-1.34-2.68 3.15-2.22-.48.13-2.67 0a8.73 8.73 0 01-1.63-6.93c3.52 3.47 1.06-2.16 5.35-1.34.22-6 12.71-9.36 9.36-12-.89-.72 1.38-1.61 1.34-1.34.24-1.77-.58-4.52 1.34-6.69-1.8-.88-2.49-2.85-2.68-5.35-3-3-7.36-4.36-8-8 1.07-2.94 2.68-5.34 6.69-5.35.45 4.73.07 6.89 1.33 8 0-.74 1.09-1.51 1.34 0a6.31 6.31 0 004-1.33c.82-.08 1.59-.2 1.34-1.34-1.38-.33-.12-4.39 0-6.69.06-1.14 1.28-1.09 1.34-1.33.78-3.58-.72-8.68 2.67-9.36h5.35c-1.35 5.13-1 2 1.34 4 .61.51-1.52 2.24-1.34 2.67s2.37-.25 2.67 0c.67.55-1.6 2.23-1.33 2.68 3.44 1.45 6.42 3.38 8 6.68.23 2-.48 4.94 1.34 5.35.25-2 3.23-1.22 5.35-1.33-1-13.48 1-24 9.36-28.09.54 2.28 1.72-.28 4 0 .42 2.94 1.31 6.06 2.67 2.68-.1.26-2-1.29 0-1.34 3.61 4.28-1 8.87 0 14.71 10 1.53 12.05-4.89 21.4-4 2.72.39 3.56 2.68 5.35 4 .25-2 3.23-1.23 5.35-1.34 2-.22 1.49-1.47 2.67 0 .78 1 1.35-1.34 1.34-1.33-1.75 1.33-.1-3 2.67-2.68.52 1.91 1.61 2.26 0 4 5.86-1-1.08 2.66 2.68 2.68.32-2 2.2-.2 2.67 1.33 2.54-2.06 10.41-7.77 8-9.35-1.7 2.16-6.77 9.35-8 6.68 4.51-2.33 5.36-6.27 9.36-8 2.68-1.18 5.28 0 5.35-1.34.16-3.12 6.49-2.93 6.69-1.34-.63-4.19 3.36-3.77 5.35-5.34 5.66 1.18 9.47-3.52 13.37 0-.53-5.71 7-2.83 6.68-2.68.33-.14-.25-2.36 0-2.67.57-.68 2.25 1.66 2.68 1.33 1.11-.82-.4-2.13 1.34-2.67 5-1.54 11.1-.89 17.38-4 4.07.23 1.38 6 4 2.67.67-.83 3.85 3.94 4 4-.68-.31 3-.9 2.68-1.33-2.14-.94 1.12-7.69 4-8 4.44 2.25 9.32 9.67 6.69 14.71 6.55-2 1 6.5 4 2.68.72-.9 1.59 1.37 1.34 1.33 5.67.9 7.2-2.49 10.69 0-.42-5.85 6.19-3.71 6.69-5.35-3.87-2 10.31-1.36 12-2.67.3 1 0 2.64 1.34 2.67 3.15 3.75-2.09-2.52 1.34-1.33.72.25 1.15 3 2.67 2.67 2.51.32-.76 2.2 1.34 2.68 1.59-2.61 3.09.24 5.35 0 3.08-.33 5.36-2.15 9.36-2.68 3.34-.44 8.14.33 12 0 0 2.8 7.29 5 4 6.69-.32-1.45-2.2-3.21-2.68-1.34a27.13 27.13 0 018 8c1.5-.13 2.09 1.95 2.68 0-.74 0-1.52-1.08 0-1.33a9.45 9.45 0 002.67 4c-.07-1.34 2.55-1 4 0 2.55 1.68 4.73 7.67 9.35 6.68-2.39 4.56.08.69 1.34 1.34.66.34-.25 3.2 1.34 2.68.64-2.37 1.44.56 2.67 1.33-.34-.21.41-1.81 1.34-1.33s-.14 2.15 1.34 2.67c-.31-.11 1.47-1.56 2.67-1.34.09 0-.08 1.24 0 1.34.48.58 4.49 1.31 5.35 1.34 3.15.1 6.61-2.62 10.7-1.34-.79 3.9 2 1 2.67 1.34s-.25 3.19 1.34 2.67c.43-2.21 2.83-.76 4 0 4.07 2.59 16.29 3.52 20.06 4a177.54 177.54 0 0120.06 4c.14 1.5-1.94 2.08 0 2.67 2.73-2.74 6.1 2.23 10.7 2.67 2.37.23 3.12-1 5.35-1.33 2.82-.37 6.16 0 8 0 .33 0-.11-1.63 1.34-1.34.37.07-.09 2 1.33 1.34.86-.42.33-4.85 2.68-4 .13 1.5-1.94 2.09 0 2.68 1.34-1.78 1.26-5 4-5.35.14 1.5-1.94 2.08 0 2.67 1.53-5.15 6.93-6.44 13.37-6.68.7 2 2 3.37 2.68 5.35-1.32 4.47-2 9.62-5.35 12 2.08.35.92 2.93 0 4 2.7-1 1.72 1.87 1.33 1.34a24.12 24.12 0 002.68 2.67c-1.19 5.67 3.51 9.47 0 13.38 3.92.09 5 3 6.69 5.35a6.33 6.33 0 001.33 4c.14 1.5-1.94 2.08 0 2.67-.64-1.77 6.13-.08 6.69 1.34 3.55-1.57 7.87 2.56 8 0-2.65-1.89 5.19-4.53 6.69-6.69 2.48-2 2-6.91 6.69-6.69 5.74.9 12.75 3.35 20.05 4 3 .27 6.77-.49 9.36 0 .57.1 0 2.47 1.34 2.67.14 0 1.24-2.4 2.68-1.34.4 1.45 1.82 1.65 2.67 2.68.37.45 2.26-.42 2.67 0 .67.67-.25 2.93 1.34 2.67 1.63-2.4 8.22 1.5 13.37 0 3.52 1.38 4.51 5.3 8 6.69.34-2.78 5.87-.37 6.68-2.68.14 1.5-1.94 2.09 0 2.68 1.35-1.78 1.27-5 4-5.35-3.54 3.52 4 2.83 4 6.68-1.5.14-2.08-1.94-2.68 0 6.45.24 3.3 10.08 4 16 1.73 1.84 5.81 1.32 9.36 1.34 2-2.51.06-8.86 2.68-10.7a6.28 6.28 0 004-1.34c4.28 3.74 2.62 13.43 6.69 17.39.32-3.45 2.3 1.83 5.35 0 2.59-3.2 2.14-9.45 6.68-10.7.08 1.41 1.72 1 1.34-1.34h5.67c2.88 2.61 9 10.45 4 2.68a53.4 53.4 0 015.35 4c.63.6 1.53 4.24 2.68 4 0 0 .42-2.33 1.33-1.34.62.68-1.5 2.11-1.33 2.68.24.85 7.77 7.23 6.68 4-1.19-.39-5.85-3.62-2.67-4 1.13 3.37 5.52 5.13 6.68 6.68.94 1.26.35 2.95 1.34 4 3.64 3.9 8.58 6.6 12 10.69-.66 4.22 2.41 4.73 1.33 9.36.17 1.78-2.57 1.21-2.67 2.68 0 0 2.49 1.41 1.34 2.67-.75.82-2.66-2.47-2.68 0 2.29 2.55-.14 2.54 1.34 4 .89.9-.68 4.25 0 5.35-5.75-.63-1.71 3.6-4 4-2.11-.12-1-3.4-4-2.67a9.58 9.58 0 00-4 2.67c1.12.47 1 .5 0 1.34-1.28 1 7.25 5.48 2.68 5.35-.32-1.45-2.2-3.21-2.68-1.34 1.78 1.34 4 2.21 5.35 4 2.91 6.4-.82 11.26-1.33 16-.42 3.9 2.64 7.29 0 10.7 1 .3 2.63 0 2.67 1.34-.74 0-1.52 1.08 0 1.33 0-.74 1.08-1.51 1.34 0 .45 2.4 2.94 4 2.67 5.35 0-.06-2.13 1.23 0 1.34 3.12.16 2.93 6.49 1.34 6.69 6.1.23 3.74 10.56 5.35 10.69 2.41-4.42 1.95 5 1.34 4 .39.6 3.42.66 4 1.33a26.19 26.19 0 011.34 4c.7 2.33-.33 5.38 0 8s2.41 8.31 2.67 9.36a26 26 0 001.34 4 5.38 5.38 0 010 1.33c.06 1.24 1.24 1 1.34 1.34 1.79 6.59 1.21 11.82 2.67 16.05a27.13 27.13 0 018 8c-2.71 3.08-5.31 6.28-8 9.36-12.69-1.55-18.06 4.22-30.76 2.67-1.32-6.38.12-1.45-4-4 0 1.77-2.34 1.23-2.67 2.68 2 .32.19 2.2-1.34 2.67-2.8 1.37-.93 4.08-4 4-.85 0-3.72-5.16-4-5.35 1.5-.13 2.08 1.95 2.67 0-2.19-2.94-3.11 1-5.35 2.68-1.42 1.07-7.69 2.67-4 4 0-.74 1.08-1.52 1.34 0a3.67 3.67 0 00-2.68 4c-1.91-.52-2.25-1.6-4 0-1.47 7-9.87 7.07-8 17.39-.75 2.72-4 2.62-1.34 5.35 7.39-.63 17.94 1.89 21.4-2.68.13 1.5-2 2.08 0 2.68a9.39 9.39 0 012.67-4c1-.52 6.17 2.26 6.69 2.68s-.42 2.26 0 2.67c1 1 3.37-.09 4 1.34.37.84-1.69 2.29-1.34 2.67.64.68 3.31.8 4 1.34 2.36 1.8 2.62 5.13 4 6.69 1.06 1.18 3 1.39 4 2.67-.34-.41-1.78.49-1.34 1.34s2.18-.21 2.68 1.34-2.19 2.15 0 2.67c1.55-3.82 1.55 2.16 0 2.68 1.77 1.34 5 1.26 5.35 4-1.5.13-2.09-1.95-2.68 0 5.62 1.07 6.21 7.16 12 8-2.4 4.56.07.69 1.33 1.34.66.34-.25 3.19 1.34 2.67 0-.74 1.08-1.52 1.34 0h10.7c-.8 3.9 2 1 2.67 1.34s-.25 3.19 1.34 2.67c1.17-3.61 4.8 1.06 5.35 1.34 1.84.94 3.63.3 5.34 1.34.37.22.69.92 1.34 1.33 2.51 1.6 4.38 3.06 5.35 5.35-1.5.14-2.08-1.94-2.67 0 1.77 1.35 5 1.27 5.35 4-1.22 2.75 1.2 4.81 1.33 6.69.17 2.33-1.71 3.41 0 4 2.51.32-.76 2.2 1.34 2.68 1.22-2.83 5.38 2.52 9.36 1.33 1 3.93 4.06 5.75 6.69 8 .17 3.29.2 6.44-1.34 8 1.78 1.34 5 1.27 5.35 4 .46 2.4 2.94 4 2.67 5.35 0 .29-2.12 0-1.33 1.34.64 1.09 2.3-.46 2.67 1.34 1.41 6.82-2.29 17.14 4 21.39-1.5.14-2.08-1.94-2.67 0 1.77 1.34 5 1.27 5.35 4-3.4 2.42 1.1-1.15 1.34 1.34.17 1.83-.72 2.95-1.34 4 1.28.23 2.33.12 2.67 1.34 1.06 3.76.1 10.61 2.68 13.37-5.69 5.58-.71 11.49 0 18.72.51 5.27 1.09 7.89 1.33 10.7.51 5.75-.77 9.14-1.33 12-.49 2.48.46 5-1.34 6.69 5.75-.63 1.71 3.6 4 4 0-.74 1.08-1.52 1.34 0 .22 1.95 1.47 1.5 0 2.68-1 .77 1.37 1.39 1.34 1.33-.28-.45.61-1.39 1.33 0 .11.21 1.44 1.72 1.34 1.34.26 1-1.68 2.1-1.34 2.68.94 1.58 6.16.13 4 4-1.76-.35-1.76 2.3-2.68 2.67-1.29.52-1.09-1.29-1.34-1.33-2.71-.55 2.5 4.66-4 2.67v8c-.55.34-2.23-.44-2.67 0s1.07 1.94 1.33 1.34c-.33.77-1.3 2-1.33 2.67-.06 1.1-1.31 1.17-1.34 1.34-.71 3.73.53 9.93 0 14.71 1.71.07 1.85 1.71 4 1.34-2.06 4.35-.41 1 1.34 1.33-.58-.11 1.35 1.35 1.34 1.34 1.22.83 1.64 1.73 2.67 2.68 1.06-3.08 6.29.69 6.69 2.67V603c3.9 1.21.39 4.92 2.67 5.35 3.55-3.38-.18 7.5 4 2.67v4c-2.39-.38-2.74 1.26-1.33 1.33-.67 2.59-2.23.17-2.68 0-3.73-1.36-.9 0-1.33-2.67-.07-.42-2.09.65-1.34 1.34-.14-.55-2.63-2.38-2.68-2.68-.21-1.26 1.27-2.9 1.34-2.67-.4-1.36-4-2-1.34-2.68 1-3.63-6.3 1-5.35-2.67-2.52 1-.92 4-4 1.34 3.1 1.95-2.61 4.23 2.68 4-.94 6.72 2.27 9.32 1.33 16-3.14.42-.79 6.34-5.35 5.35 2.27 5.06-2.68 13-8 14.71.26 1.52 1.34.74 1.34 0 3.13 1.52-3.43 4.47-5.35 5.35.25 1.52 1.34.74 1.34 0 2.59.89-.83 1.81-1.34 2.68-.16.27-.3 3.71-1.34 2.67a6.67 6.67 0 010-1.34s-2.31.56-1.33 1.34a9.83 9.83 0 001.33 0c0 .14-1.25 2.64-1.33 2.68-.46.2-2.4-.37-2.68 0-.61.81 1 1.69 1.34 1.33-2.28 2.67-2.37 2.91-5.35 4 .25 1.52 1.34.75 1.34 0 2.82.42-1.41 4.65-4 4 3.16 3-1.66 4-4 5.35.26 1.51 1.34.74 1.34 0 1.87.47.11 2.35-1.34 2.67.21 1.79-2.1 7.37-2.67 4-1.52.26-.74 1.34 0 1.34-.26 1.08-1.34 1.33-1.34 2.67a8.76 8.76 0 00-6.69 1.34c2.09 4.79-1.68 8.5 5.35 9.36-2.31.81.11 6.34-2.67 6.69.58 3.1 5.9 3.58 2.67 6.69 2-1.92 4.24-1 4 2.67 3.11-3.23 3.58 2.09 6.69 2.67-.82 1.19-1.61 2.4 0 2.68-2.55 5.92-3.16 13.77-2.67 22.73-3.07 1.46-11.07 4.89-14.71 1.34-1.59-.52-.68 2.33-1.34 2.67-.81.42-2.54-2.56-2.67 0-.12 2.13-1.41 0-1.34 0-.71-.13-1.91 3.45-2.68 2.68-1.84-1.84-.57-.1-4 1.33 2.36 2.24-1.19 4.48 0 9.36-1.19.6-2.39 1.18-2.67 2.68h-8c-1.19.82-2.4 1.61-2.68 0-2 0-.11 1.6 0 1.34-1.11 2.65-3.49.63-4 4-1.94-.59.13-1.18 0-2.68-3.48.81-2.27 4-4 5.35-1.12.89-1.28-1.33-1.34-1.33-3-.07-2.79 4.29-5.35 4 .47 1.87 2.35.11 2.67-1.34 3.39.66-5.14 6.61-6.68 8-3.08 2.82-6.66 6-9.36 8 .75 3.88 2.08-2 4-1.33 1.6-1.88.52-.12 0 1.33-1.76.48-2.1 2.36-4 2.68-1.41 1.39 1.85 7.84 0 9.36-1.69 1.38-.56 2.29-1.34 6.69 0 .1-1.26-.11-1.34 0-.78 1.12.43 4 0 5.34-.12.38-1.17.17-1.33 1.34-.36 2.51.58 6 0 8-.06.21-2.64-.2-2.68 0-.18.89 1.69 2.24 1.34 4 .17-.87-1.77 3-1.34 2.67-.22.15-3.73.28-2.67 1.34 1.8 1.8-1.52 1.56-4 4 .48 1.87 2.36.11 2.68-1.34 3.18.4-1.49 3.62-2.68 4 2.82 3.25-2.11 6.87 2.68 6.68.44 4.9-1.49 7.43-2.68 10.7-10.31 2-22.69.12-29.41 5.35-2.48 1.93-3.16 4.22-5.35 6.68 1.54 2.92.26 8.65 4 9.36-.59 2-1.18-.13-2.68 0 .66 3.8 7 1.93 5.35 8-1.13.24-1.26-.52-1.33-1.34-2 .07-.09 1.57 0 1.34-1.32 3.75-4.18 1.55-5.35 5.35 3.68-3.28 2.82 2-1.34 1.33 1.49 1.65 1.16 2.75-1.34 2.68 3 1.44-1.18 3.7-1.33 6.68 0 .75-3.43.6-2.68 1.34 1.92 1.92-.12.78-2.67 2.68.25 1.52 1.34.74 1.33 0 3.51.69-1.21 1.73-1.33 4-.11 1.93-2.55 2.89-2.68 5.35s-1.87-.89-2.67 0 1 1.7 1.33 1.34c-5.22 5.43-11.5 6.19-14.71 14.7-6.5 1.52-15.39.66-17.38 6.69-3.87-.75 2-2.09 1.34-4-4.43 2.26-6.17 7.2-9.36 10.7-3.87-.75 2-2.09 1.34-4-3 1-4 4-5.35 6.69-5.5-1.4-8.76 6.3-12 2.67-2 .05-.11 1.61 0 1.34-1.11 2.65-3.49.63-4 4-1.94-.59.14-1.17 0-2.67a3.68 3.68 0 00-2.67 4c-15.68-.52-24.36 5.95-30.76 14.71-4.6-.58-7.49.53-10.7 1.34 1.5 1.64 1.17 2.74-1.33 2.67 1.55 2 1.55 3.37 0 5.35-3.31.17-2.28-1.64 0-1.34-3.34-3.34-10-3.41-8-12-8.07 3.12-16.94 2.92-29.41 4-.25-1.14.52-1.26 1.33-1.33.27-1.6-2-.67-2.67-1.34-1.11-1.12-.1-4.35-2.67-4-10.31.39-11.89 9.51-18.73 13.37-.71-.57-5-.66-5.35-1.34.22.5 1.55-4.22 0-2.67-1.38 1.38-.87.6-1.33-1.34-1.26-.84-1.11 1.29-1.34 1.34-1.47.29-1-1.33-1.34-1.34-2.23-.09-7 1.21-8-1.34-.43.77-3.85 2-4 2.68s1 1.88 1.34 1.33c-1.45 2.29-3.39 2.23-4 5.35-1.09.87-1.32-1.34-1.33-1.34-1.3.1-2 4.22-2.68 1.34-1.39.12.14 4.71 0 9.36 0 0-1.56.2-1.33 1.34 0 0 2.13.35 1.33 1.34zM1054 327.61c-6 6 2.46-.87 2.68-2.68-1.68.07-1.76 1.78-2.68 2.68zM872.17 966.77c-6 6 2.45-.86 2.67-2.67-1.73.05-1.78 1.78-2.67 2.67zM258.41 688.64c-5.52-2.82.51 1.76 1.34 4 5.52 2.83-.51-1.75-1.34-4zM1032.63 345c2.63 1.74 14.44.4 12-2.67h-12c0-.75-1.08-1.52-1.34 0 1.71-.66.77 2.28 1.34 2.67z"
          transform="translate(1 -1.29)"
        ></path>
        <path
          d="M697 964.1c-.38 2.35 6.3 4.14 2.68 5.35-.6-1.19-1.18-2.4-2.68-2.68-.82-1.19-1.61-2.39 0-2.67zM48.47 128.37c-2.88 3.23-5.21-1.78-5.34-2.68-.48-3.13 3.81-3 4-6.68 0-.46 2-3.35 2.67-2.68 2.64 2.64-.51-1.83 4-1.33 1.88 4.41-2.69 4.35-4 6.68 0 0-1.38 3.57-1.34 2.68-.06 1.38 2.27 2.1 0 2.67-3.06.77-2.46.97.01 1.34zM7 123c1.52.25.75 1.34 0 1.34 0 3.14 3.65-.49 2.68-2.68 3.54-1.33 0 6.87 0 5.35 0 1.15 1.78 2.08 1.33 4-.06.26-2.5-.25-2.67 0-1.53 2.29.39 6.8-1.34 8-3.69.58-1.25-5-4-5.35-.72-1.44 2.59-.85 2.68-1.33.28-1.5-2.29-4.2-1.34-6.69.36-.86 3.05-.88 2.66-2.64zM57.83 282.14c.83-1.19 1.62-2.39 0-2.67.83-2.31 6.86-.47 8 0 .15.06-.12 1.19 0 1.33.37.46 2.23-.4 2.67 0 .7.65-.86 1.63-1.34 1.34 0 0 .57 2.31 1.34 1.34a10 10 0 000-1.34c.15.06 2.64 1.25 2.68 1.34.23.52-.4 2.31 0 2.67 1 .91 3.18.29 4 1.34.67.85-.42 2.94 1.33 2.67.83-1.94 1.62.14 0 0a3.7 3.7 0 004 2.68c-1.37 1.76-1.32 4.93-2.68 6.68h-5.29c1.77-5.28-5.28.43-1.33-2.67.33-2.54-2.93-1.56-4-2.67-.41-.43.45-2.31 0-2.68-1-.82-2.53-1-2.67-2.67-1.35-1.74-.64-.42 0 0 5.54 3.6-1.63-4.01-6.71-6.69zM376.08 280.8c9.22.14 20.12-1.4 24.07 4-1.74 3.32 3.92 5.55 0 6.68.76 1.25 3.72 2 1.34 2.68.83 5.05 5.58-1.45 5.35 5.35 2.43-2.47 4.21 1.2 6.68 1.33 1.55.09 1.93 1.71 2.68 2.68 1 1.36 2.86 1.48 4 2.67.87.91-1.29 1.52-1.34 1.34 1 3.68 6.39 7.33 9.36 8-1.18 6.44.72 21.45-5.35 26.75V357c-1.18 2.9-3.86-1.53-4 1.34-.14 2.64-6.11.8-12 1.34.49-2.28-1-2.52-2.68-2.68a8.68 8.68 0 011.34-6.68c.19-1.78-4.5-5-1.34-5.35a9.47 9.47 0 00-4-2.68c-.84-1.24 1.3-1.12 1.34-1.33.3-1.67-2.12-.6-2.68-1.34-.68-.9 1.16-1.63 1.34-1.34-.86-1.43-2.49-2.05-4-4-1-1.26 1.31-2.74 1.33-2.67-.34-.95-2-1.8-2.67-2.68-1.25-1.62-3.56-5.37-5.35-8-1.85 0-.32 1.71 0 1.34-2.36 2.71-3.11-3.31-6.69-4 .26-1.51 1.35-.74 1.34 0 3.62-1.2-2.82-3.22-4-4-.87-1.09 1.34-1.32 1.34-1.33-.14-1.86-2.14-.29-2.68-1.34.34.66 1.33-4.34 0-2.68s-.73.27-1.33-1.33c.05.14-2.29-.58-1.34-1.34 3.57-2.85-3.19.12 0-2.67 0-1.86-1.71-.33-1.34 0-4.22-3.69-4.34-12.48-2.67-18.72 3.54.88 2.52-2.81 3.95-4.06z"
          transform="translate(1 -1.29)"
        ></path>
        <path
          d="M424.22 312.9c-1.17-2.33-4.48-5.16 0-2.68 1.17 2.33 4.47 5.15 0 2.68zM154.11 385.1c-5.43.53-9.32-.49-9.36-5.34 4.3.82 1.83-4.82 5.35-1.34-.14-3.43-5-2.15-6.69-4 .08-8 1.71-9.78 4-17.38-1.23-2.33-4.18-2.95-8-2.67 2.45-5.36-1.9-9.67 1.34-14.71-4.31-.29-5.66 2.36-10.7 1.34v-6.69c-.33-1.45-2.66-.91-2.67-2.67-4.23 1.66-.25 3.89-4 6.68-4.64-1.07-5.14 2-9.36 1.34.24-5.13-1.1-.49-4-1.34 1.6-1.53.52-3.39 0-1.33-1.3 0-1-1.64-1.34-2.68-3.27 3.29-5.8-1-10.7 0 1.61-1.53.52-3.39 0-1.34-2.59 0-.15-3.09 0-2.67-.21-.58-2.69-1.47-2.67-1.34-.36-2.89 1-5.12 1.33-9.36 2-3.1 4.24 2.61 4-2.67 5.71-1.15 11.84 1.2 18.72 1.34 3 .05 5.78-2 12-1.34 2.92.29 4.35.81 9.36 1.34 2.12.22 2.29 1.06 4 1.33 2.17.35 4.53-.39 6.69 0 .11 0-.11 1.26 0 1.34 1.13.79 4-.45 5.35 0 .47.16 0 1.27 1.34 1.34-.21 0 3.89 1.22 4 1.33-.53-.54-1.45 4.12 0 2.68 1.81-1.82.89.17 2.67 2.67 1.52-.25.74-1.34 0-1.33.47-1.88 2.36-.12 2.68 1.33 2.27-.49 2.52 1 2.67 2.68 1.72-1.85 5.81-1.33 9.36-1.34-1.06 4.77 5.13 4.44 6.69 6.69 1.06 1.53.72 3.46 1.33 5.35.15.45 1.27 0 1.34 1.33s-.06 2.68 0 4c-4.78-3.38.54 2.55-4 4-.79 4.11 1.68 10.69-1.34 10.69-2 0 .53 2.16 0 4-1.53-1.61-3.39-.52-1.34 0 .1.85-1.8 1.59-2.67 1.33-1.31-.38-.66-2.44-1.34-2.67-1.08-.37-2.61 2-4 0 1.5-1.65 1.17-2.75-1.34-2.68.73-1.94-1.56-6.91 1.34-6.68-.57-2.1-4.2-1.15-2.67-5.35-6.33.34-8.79.55-12 1.34 1.54 1.58 1.52 4.72 1.34 8-2.65 3.41 1.39 6.14-1.34 8 .33 3.45 2.3-1.84 5.35 0 .8 4-1.11 6.1-2.67 8-1.19 1.47-4.39 4-6.69 4 2.66 2.83-.61 2.73-1.36 5.45zM396.14 373.07c.25 1.52 1.34.74 1.34 0 2.79 3 .92 7.59 1.33 12 .32 3.41 2.36 7.13 1.34 10.7-3.9-2.36-1.54 4.1-2.67 2.67-1.28-1.6-1-.43-1.34 1.34-6.64 1.35-4.26-4.23-9.36-1.34-1.16-4.64-5.29-6.3-8-9.36-1-4.09 2.3-3.93 1.33-8 4.27.8 4.14-2.51 6.69 0-2.68-2.66.42-6.36 1.34-9.36h9.36c.22 1.15-.5 1.28-1.36 1.35zM196.9 387.78c3.16 1.79-4.32 9.37-9.36 9.36 1-6.06-3.67 2-2.67-4-3.78-1.11-3.47 1.88-6.69 1.33-3.58-6 1.95-12.75 9.36-12 .25 1.14-.52 1.26-1.34 1.34.16 2.23 5.7-1.53 5.35 4 1-.4 2.28-1.8 4-1.34.26.04.8 4.53 1.35 1.31zM64.52 500.1c2.36.32 3 2.3 2.68 5.35-2.8.57-3.55-.92-5.35-1.34.47-1.75 2.35-2.11 2.67-4.01zM160.8 544.23c-5.93 5 2.35 10.68 1.33 18.72-.77-.36-1.79 3.55-2.67 2.67a6 6 0 010-1.34s-2.31.56-1.34 1.34c1.74 1.4.09.39 0 1.34-.44 4.58-.31 14.14 1.34 18.72-3.17-.89-1.73 1.93-1.34 1.34-.8 1.22-3.68 2-1.33 2.67 0 1.3-1.64 1-2.68 1.34 1.55 2 1.55 3.37 0 5.35-2.89-.34-6.15-7.09-4-8-.76-1.25-3.72-2-1.34-2.68a9.45 9.45 0 00-4-2.67c0-1.3 1.64-1 2.67-1.34-3.39-3.27 2.82-2.85 1.34-8-.25-1.09-1.34-1.34-1.34-2.68-4.19 1.49-3.53.63-6.68-1.33.73-5.34.73-4 0-9.36 1.53 1.6 3.39.52 1.33 0 .2-3.33 4.53-.39 5.35 0-.39-.82-3.32-5.15 0-5.35-.88-1.8-2.85-2.49-5.35-2.68.83-1.19 1.62-2.39 0-2.67 2.4-2.93 4.78-4.9 6.69-2.68 1.17 1 .83-8.53 2.67-6.68 1.39 1.38 1.19.29 0 0 3.58-5.48 3.88 2.8 5.36 1.33 2.56-2.59-.07 2.12 3.99 2.64zM255.74 696.66c-3.14 1.52 3.42 4.48 5.35 5.35.85 2.92-3.79 4.26 1.33 4 .18 3.3.21 6.45-1.33 8-1.52-.26-.75-1.35 0-1.34-1.43-4.21-2.32 2.43-2.68 2.68-1.22.85-1.14-1.31-1.34-1.34-1.07-.2-2.15 4.44-2.67 1.34-2 .58.53 1.71 0 4a9.36 9.36 0 00-2.67 4c-5.21 1.55-10.46-3.69-6.69-6.69.46-1.6-2.26-.65-2.68-1.33-1-1.59 1.38-2.43 1.34-2.68-.24-1.68-2.35-.42-2.67-1.34-.53-1.51 1.34-2.66 1.34-2.67-.55-1.75-1.8-.23-2.68-1.34-.42-.54-1.32-5.17-1.34-5.35-.18-2.55 1.89-2.87 1.34-6.69 6.39-.72 13.73-2.24 17.38 2.68 3.93 1.56-2.07 1.5-1.33-1.28zM261.08 724.74c.88-4 2.86 1.28 5.35 0v22.74a3.69 3.69 0 00-2.67 4c-1.65-1.5-2.75-1.17-2.68 1.33h-8c.48-4.72-.69-8.13 0-10.69.07-.26 2.44.23 2.68 0 .74-.75-1.1-1.69-1.34-1.34 2.09-3.09 4-3.33 6.69-5.35-.89-1.63-4.55.72 0-4 0-2-1.67-.19-1.34 0-3.78-2.19.26-3 0-6.69 1.08.26 1.33 1.34 2.67 1.34.23-1.14-.54-1.26-1.36-1.34zM675.6 813c-1.94.59.14 1.17 0 2.67 1.95.6-.13 1.18 0 2.68-4.19.63-3.53-3.6-6.68-4-3.15 0-3.94 2.31-8 1.34 0-1.3-1.64-1-2.68-1.34-.2-3.32 2.1-4.14 2.68-6.68 1.19-.86 1.18 1.32 1.33 1.33 1.43.15 1.76-3.55 2.68-4 1.08-.54 3.1 1 2.67 1.34 1.33-1.09.59-3.74 2.68-5.35 3.54-.56 2.89 5.71 4 9.36.27.88 4.19 5.65 1.32 2.65z"
          transform="translate(1 -1.29)"
        ></path>
      </g>
    </svg>