<svg
      xmlns="http://www.w3.org/2000/svg"
      data-name="Capa 1"
      viewBox="0 0 1209.22 945.82"
    >
      <g data-name="Layer 2">
        <g data-name="Layer 2">
          <path
            d="M977 253.75h8.14c0 2.19 1.58 3 2.71 4.07.75.7-.22 1.27 1.36 1.36 2.09.11 2.23 2.16 2.71 4.07.35 1.38 1 .66 1.36 1.35 1.15 2.48 2.47 7.16 5.43 9.5 1.5 1.19 3.52.23 5.43 1.36 1.17.7 1.61 3.33 2.71 4.07 2.39 1.62 7.31.63 6.78 5.43h5.43c-1.24 2.87 2 1.81 2.72 2.71.93 1.22.35 3 1.35 4.07 1.57 1.67 5.8 2.09 5.43 5.43.75 2.78-2.59 3.24-2.71 1.36-2.84-.58-3.6.93-5.43 1.35-.14 6.77 5 8.66 8.14 12.22 1.35 1.51 2.52 3.87 4.07 5.43 2.51 2.5 4.32 2.37 5.43 6.78.51 2 2.74 1.49 2.71 5.43-2.17-.38-4.64.5-6.78 0-3-.71-2.37-1.31-5.43-4.07-1.48-1.34-4.52-2.76-5.43-4.07-.63-.91.48-3.06 0-4.07-.28-.59-2.51-.89-2.71-1.36-.68-1.61-.49-5-1.36-6.78-.65-1.38-2.1-.41-2.71-1.36-1.15-1.77 1.43-5.28-1.36-5.43-2-.11-.55-2.7-1.35-4.07-.33-.55-2.51-.89-2.72-1.35-.32-.71.41-2.07 0-2.72-1.06-1.69-2.54-3.37-4.07-5.43-.35-.48-2.51-.92-2.71-1.35-.45-.95.64-3.26 0-4.07-1.3-1.66-3.87-3.87-5.43-5.43-3.3-3.3-6.85-6.95-10.86-10.86-1.77-1.73-4.23-2.45-5.42-4.07-.65-.87.5-3.09 0-4.07-.28-.54-4.12-.26-2.72-2.71-2.29.53-2.54-1.06-2.71-2.72zM1038.08 339.24c4.25-.72 3.23 3.41 6.78 4.07 3 .56 6.41 3.43 8.15 6.79 3.09-.38 5.1.32 5.42 2.71 2.86.51 5.2-.68 8.15 0 .68.16.84 2.45 1.35 2.71 1.82.92 4.91-.8 6.79 0 .72.32-.16 2.32 1.35 2.72 2.39.63 4.13.31 5.43 2.71-.06 4.92-7.2 2.75-9.5 5.43v6.78c-3.14 1.68-4.17-2.14-6.78-2.71-2.13-.46-4.71.62-6.79 0-.94-.28-2-4.65-6.78-2.71-1.48.33-.92 2.69-2.71 2.71-2.67 1 3.68 4.33 1.35 9.5-3 .75-1.93-2.6-4.07-2.71-1.87-.1-2.7-4.85-4.07-6.79-1.49-2.11-5.32-2.21-4.07-5.43 3.65 1.56 1.59-3.15 2.71-4.07.29-.23 3.88-1.85 4.08-4.07a8 8 0 00-1.36-5.43 58.39 58.39 0 01-4.07-8.14c-.18-.44-1.08-.24-1.36-1.36-.22-.85.16-1.84 0-2.71zM1080.14 407.09c.15 4.21-4.27 3.87-2.71 9.5-2.3 3.07 2.35 4.13 2.71 5.43 1 3.64-2.28 1.89 0 5.42.49.76 1.28-.21 1.36 1.36.11 2.18 2.82 3.87 2.72 6.79-.17 4.37-1.91 3.56-2.72 6.78-.52 2.07-.74 3.45-2.71 5.43-2.44 2.43-3 1.28-8.15 2.71-.93.26-2.49 2.69-2.71 2.72-.66.07-3.58-1.19-5.43-1.36-2.24-.2-4.53.15-6.78 0-3.14.25-1.84 1.91-2.72 5.43-.37 1.48-4.38 4.43-2.71 9.5-5.21 1.32-4.13-5.06-5.43-6.79-2-2.66-5-2.48-5.43-5.43-5.53.78-11.77-1.67-14.93 1.36-1.8 1.73-2.73 0-6.78 1.36-3.42 1.1-5.23 2.92-8.14 2.71s-4-4.31-8.15-2.71c-1-3.53 2.44-1.75 4.07-2.72 1.17-.69 1.3-3.52 4.07-2.71 4.45-2.34 6.41-7.16 10.86-9.5 5.62-1.56 5.28 2.85 9.5 2.71 3.6 1.17 2.41-2.55 5.42-2.71 2.43-.13 3-2.23 5.43-4.07 3-2.29 9.09-4.11 10.86-9.5 1.78-1.38 5-1.33 6.78-2.71 1.84-.3.08-5.29 2.72-5.43 3.76-.2-1.81-5.23 4.07-5.43 1.16-3.61-2.56-2.42-2.72-5.43-.19-3.54-2.56-2.42-2.71-5.43-.07-1.39-.06-2.64-1.36-2.71-1.6-.09-.69-1.71-1.36-2.72-1.71-2.59-7.18-10.56-1.35-14.92h4.07c-1.17 3.6 2.64 1.64 4.07 2.71 2.05 1.54 3.36 6.86 8.14 5.43-1.75 5.37 4.47 2.77 2.72 8.14-.41 1.64 2.22.66 2.71 1.36.8 1.11-.94 5.62 2.72 5.43zM81.42 442.37c.65 4.27-4.17 3.07-2.72 8.14-5.65-.23-6.69 4.16-12.21 4.07-.58-2.59-3.87-2.45-2.71-6.78 1.75-1.87 5.89-1.35 9.5-1.36 3.31-.76 2.89-5.25 8.14-4.07z"
            transform="translate(-1.21 .02)"
          ></path>
          <path
            d="M1034 462.73c.81 4.11-1.13 6.19-2.72 8.14-1.21 1.48-4.45 4.08-6.78 4.07-.79-3.74-3.38-5.67-4.07-9.5 4.47-.77 8.64-6.66 13.57-2.71zM1000.08 464.08h4.07c1.48 3.95 5.54 5.31 9.5 6.78-1.95 4.58 2.73 7.57 2.72 10.86a10.18 10.18 0 01-1.36 5.43c-.28.63-1.28-.11-1.36 1.36s0 2.42-1.35 2.71c-4.21 1.57-2.16-4-2.72-5.43-1-2.53-3.63-3.14-2.71-5.43a58 58 0 00-9.5-8.14 30.78 30.78 0 012.71-8.14zM245.61 544.14h2.72v5.43h-2.72zM944.45 590.28c-3.54.73-2.5-2-5.43-2.71-3.63-.91-1.31-1.12-2.71-4.08-.28-.58-2.52-.88-2.72-1.35a17.73 17.73 0 010-13.57c.28-.65 2.46-.83 2.72-1.35.46-1-.64-3.22 0-4.07.33-.46 2.3.4 2.71 0s-.46-2.35 0-2.72c1.38-1.11 4.23-.12 4.07-2.71 2.19-.38 2.34 1.28 4.07 1.35 1.33 1.88-1.36 3.91-1.36 4.07.13 3.05 2.67 2.57 2.72 5.43s-1 3.4-1.36 5.43c-.26 1.75.38 3.7 0 5.43-.81 3.65-4.16 6.57-2.71 10.85zM848.1 617.42c.45 1.63-2.26.66-2.71 1.35-.62 1 .58 3.08 0 4.07-.32.56-2.5.89-2.72 1.36-.31.69.42 2.09 0 2.71-1.69 2.53-4 5.4-6.78 6.79-7.35-1.86-12-10.09-5.43-14.93.87-.64 3.09.47 4.07 0 .4-.19 1.11-2.65 1.36-2.71a20.73 20.73 0 0112.21 1.36zM951.23 631H954c4.18-1 1.65 4.68 6.78 2.71-1.75 5.37 4.47 2.77 2.71 8.15 2.76 1.76 3.25 5.8 5.43 8.14 1.5 2.77-2.36 2-2.71 2.71-.84 1.81 1.83 6.75-2.72 5.43.89 5-.91 7.23-2.71 9.5a77.12 77.12 0 0013.52 13.56c4.18 1 2.61-3.73 6.78-2.71 4.42 1.71 9.87 4.55 9.5 12.21-2 1.52-3.31 1.46-4.07-1.36-4.27 1.56-3.29-2.13-5.43-2.71-5-.88-7.22.91-9.5 2.71-3.83-.69-5.76-3.28-9.49-4.07a19 19 0 00-13.57-13.57c1.75-5.37-4.47-2.77-2.72-8.14-.88-1.38-3.12-1.4-2.71-4.07.54-.74-.68-3.48 0-4.07.3-.26 2.59.32 2.71 0 .74-1.87-1.75-6.7 2.72-5.43.42-6.82-1.52-15.99 2.71-18.99zM955.3 689.34h4.07c.93 3.15 3.47 4.68 5.43 6.78 1.84.42 1.13 3.4 1.36 5.43-4.27.66-3.07-4.16-8.15-2.71 1.35-5.42-4.01-4.09-2.71-9.5zM982.44 698.84h5.43v2.71h-5.43zM994.66 698.84c3.75-.51 6.56.81 9.49 2.71.76.48-.21 1.27 1.36 1.36 1.83.09.83 2.61 1.36 4.07.7 1.95 3.5 2.2 5.43 4.07-.16 3.46-4.55 2.69-8.15 2.71 1.22-2.88-2-1.81-2.71-2.71-.94-1.18-.38-3-1.36-4.07-.5-.54-2.32-.8-2.71-1.36s.27-2 0-2.71c-.58-1.5-3.37-1.32-2.71-4.07zM970.23 705.62c3.91.16 8.88-.74 10.86 1.36 0 1.32-1.67 1-2.72 1.35 1.34 5.41-4.06 4.09-2.71 9.5-1.64.51-4.17-1.56-5.43-2.72 0 0-2.79-3.2-2.72-2.71-.33-2.2 4.88-3.4 2.72-6.78zM947.16 712.41c5.45 1.43-.18 5.51 1.36 10.85-3.16.92-3.64 4.51-6.79 5.43 1.11 3.82-1.42 3.69-2.71 5.43a20.79 20.79 0 00-2.72 4.07c-4.28-.67-4.79 2.44-9.5 1.35-1.72-4.91 4.69-6.49 6.79-9.49.62-.9-.67-3.23 0-4.07 2.93-3.75 10.49-7.89 13.57-13.57zM991.94 712.41H996c2.06 1.22.52 5 1.36 6.78.62 1.34 2.47 1 2.71 2.71.38 2.2-1.28 2.34-1.35 4.08-4.5-.31-2.84-5-4.08-8.15-.77-2.01-3.47-3.11-2.7-5.42zM979.73 720.55c4.81-.73 3.34 4.8 8.14 4.07 1.17 3.6-2.55 2.41-2.71 5.43-.08 1.51-1.36 5.93-5.43 5.42 1.16-4.32-1.18-5.15-2.71-6.78-.66-4.28 4.16-3.08 2.71-8.14zM1009.58 724.62c5.39 1.81 1.1 6.89 4.07 10.85.42.56 2.42.83 2.72 1.36.58 1-.52 3 0 4.07.23.49 2.59 1 2.71 1.35.88 2.65-.65 5.19 0 8.15.8 1.28 2.09 1.16 2.71 2.71.74 1.84-.55 5.69 0 8.15-4.8.73-3.33-4.81-8.14-4.08a6.89 6.89 0 00-4.07 4.08c-.52 4.59 6 2.13 4.07 8.14-6-1.49-6.75 2.3-10.85 2.71 0-2.78-3.91-2.3-4.07-5.43a5.54 5.54 0 000-1.35 4 4 0 00-1.36-1.36c-.35-1.54.67-4 0-5.43s-2.09-.4-2.71-1.35c-1.32-2 .33-6.28-4.07-6.79-5.43-.45-7.53 2.42-13.57 1.36-.76-3 2.6-1.93 2.71-4.07s1.33-3.28 2.72-5.43c5.45-.94 7.74 1.3 12.21 1.36 2.78.82 2.91-2 4.07-2.72s3.92-.36 5.43-1.35c.71-.47.13-4 2.71-2.72.74-4.22 1.13-8.83 2.71-12.21zM555 730.05c2.19-.39 2.34 1.28 4.07 1.35 1.45 4.88 4 8.68 8.14 10.86-1 5.53 4.38 4.67 2.72 10.85.33 1.48 2.69.92 2.71 2.71.66 4.28-4.16 3.08-2.71 8.15-6.73-1.75-6.67 3.28-12.22 2.71-.61-1.74-2.21-2.18-2.71-4.07-.33-1.26 1.35-8.39 0-9.5-1.08-.88-2.45-1-2.72-2.71a37.91 37.91 0 010-10.85c.46-2.21.4-1.44 1.36-2.72.58-.77 1.27.23 1.36-1.36.09-1.8-.07-3.62 0-5.42zM483.08 770.76v5.42c-5.23 1.07-5.23-6.49 0-5.42zM709.69 773.47h2.72c3.14-1.46 4.19 1.91 6.78 2.71 3.3 1 7 .12 9.5 1.36.89.45-.31 2.27 1.36 2.71 4.88 1.31 6.64 5.29 12.21 8.15 2.16 1.1 3.76 3.76 6.78 5.42-1.12 3.84 1.91 3.52 1.36 6.79 2.1 1.61 3.3 4 5.43 5.43.89.61 2 1.89 4.07 1.35 2.77 6.73 12.15 6.85 14.92 13.57 5.42-1.34 4.09 4.06 9.5 2.72-2.08 3 1.94 3.85 2.72 5.43.54 1.09-.52 3 0 4.07a20 20 0 002.71 1.35c.12 1.74-2.85 2.17-2.71 4.07 2 3.42 5.24 5.61 9.49 6.79-.49 2.3 1.07 2.56 2.72 2.71 1.94 8.92 6.34 15.37 14.93 17.64.27 2.22-.35 4.58 0 6.79.52 3.25 2.81 4.12 2.71 6.78-.17 4.37-1.91 3.57-2.71 6.78a11 11 0 01-8.15 8.15c-2 .51-1.48 2.73-5.42 2.71 1.55-3.64-3.16-1.59-4.08-2.71s-3.09-.85-5.42-2.72c.09.08-2.81-3.21-2.72-2.71-.14-.77 1.94-1.78 1.36-2.72-1.32-2.1-6.76-5.42-9.5-8.14l-4.07-4.07c-1.46-1.46-3.78-3.64-4.07-4.07-.63-.92.48-3.06 0-4.07-.34-.71-2.38-.76-2.71-1.35-1.06-1.86.87-4.91-2.72-4.07-.65-4.29 2.1-3.55 0-6.79-.48-.75-1.27.21-1.35-1.35-.19-3.54-2.56-2.42-2.72-5.43-.11-2.09-1.54-3.15-2.71-4.07-.67-.53-1.16-1.69-2.72-1.36.58-2.83-.93-3.59-1.35-5.43-1.35-1.36-2.65-2.77-4.07-4.07-1.19-1.09-1.55-3-4.07-2.71a7.92 7.92 0 00-1.36-5.43c-.32-.55-2.5-.89-2.71-1.36-.33-.72.39-2 0-2.71-.85-1.5-1.73-2.6-2.72-4.07-.37-.55.46-2.26 0-2.71s-2.53.38-2.71 0c-.49-1 .63-3.15 0-4.07a21.1 21.1 0 00-2.71-2.72c-5.42-5.13-9.92-10.54-16.29-16.28-.85-.77-1.85-2-2.71-2.72-.67-.52-1.16-1.68-2.72-1.35 2.15-3.76-3.18-4.42-2.71-6.79 0-.22 1.91-.07 1.36-1.35-.48-1.12-3.69-1.36-2.72-4.08zM473.58 777.54c1.1.26 1.35 1.36 2.72 1.36-.26 1.1-1.37 1.35-1.36 2.71-1.1-.26-1.35-1.36-2.71-1.35.25-1.1 1.36-1.36 1.35-2.72zM480.36 777.54c1.11.26 1.36 1.36 2.72 1.36-.26 1.1-1.36 1.35-1.36 2.71-1.1-.26-1.35-1.36-2.71-1.35.26-1.1 1.36-1.36 1.35-2.72zM472.22 783h2.72v2.71h-2.72zM477.65 785.68h5.43v2.72h-5.43zM1046.22 807.4a27.7 27.7 0 01-8.14 8.14c-1.32 2.27 2.09 2.91 2.71 5.43.29 1.16-.49 3 0 4.07.61 1.34 2.48 1 2.72 2.71-.54.74.67 3.48 0 4.07-.36.31-2.52-.39-2.72 0-1 2 .3 4.24-1.35 5.43a10.24 10.24 0 01-8.15-8.14c2-1.66 2.06-5.18 4.07-6.79.75-3-2.59-1.93-2.71-4.07 1.23-4.19 3.38-7.47 5.43-10.85zM793.82 814.18h2.72v2.71h-2.72zM1009.58 816.89c1.5 2.77-2.36 2-2.71 2.72-.69 1.48.72 4 0 5.43-.44.89-2.27-.31-2.72 1.35-.67 2.52-.23 2.1-2.71 2.72s-5.6 5.32-9.5 5.42c1-3.55-2.49-1.71-4.07-2.71-1.15-.72-1.17-2-2.72-2.71s-2.63-.74-4.06-1.36-3-2.3-6.79-1.35c.05 0-4 1.24-4.07 1.35-1.54 1.89-3.22 0-5.43 1.36a16.54 16.54 0 00-2.71 2.71c-.5.77-1-.05-1.36 1.36-.61 2.45.54 4.44-2.71 4.06 1.32 5.47 5.93 7.65 9.5 10.86 2.32.78 3.41-1.94 5.43-2.71 1.18-.46 2.88.45 4.07 0 4.3-1.65 9.61-4.84 13.57-1.36.16 3.55-3.65 1.83-5.43 2.71-1 .51-1 4.12-5.43 2.72-1.22 2.85-2.11 6-4.07 8.14-.08 2.58 1.7 2.5 2.71 4.07s.18 4.05 2.72 4.07c-.12 1.93-.23 3.85 1.35 4.07v14.93c-2.77.87-2.92-2.09-4.07-2.72-1.64-.9-3.91-.24-5.43-1.35-.77-.57-.08-3.89-2.71-2.72.29-3.08.15-5.81-1.36-8.14-.48-.75-1.27.21-1.35-1.35-.12-2.19-1.19-3.06-2.72-5.43a58 58 0 00-8.14 9.5c-.56 4.31 4 2.88 2.72 8.14-.11.41-1.31 1.94-1.36 1.35.19 2.26 4.54 3.72 2.71 9.5-2.93 1.14-4.63 3.52-9.5 2.72-.6-1.21-1.19-2.43-2.71-2.72-1.48-6 2.3-6.74 2.71-10.85.5-2.31-1.05-2.56-2.71-2.72.5-2.3-1.06-2.56-2.71-2.71.38-3.09-.33-5.1-2.72-5.43.58-2.59 3.88-2.45 2.72-6.78 4.39 1.68 1-4.39 5.42-2.72.32-2.4-1.36-6.79 2.72-5.43-1.14-5.53 1.52-9.15 0-14.92-.09-.35-1.29-.12-1.36-1.36-.1-1.91 4.75-3.91 2.72-9.5 2.88 1.08 1.81-1.81 2.71-2.71.45-.45 2.26.45 2.72 0s-.46-2.31 0-2.72c1-.89 3-.57 4.07-1.35s.91-2.79 2.71-2.72c4.62 1.54 11.51.35 16.28 1.36 3.09.66 4.12 2.72 6.79 2.72 3.3 2 3.86-2 5.43-2.72 2.58-1.17 7.28.13 8.14-4.07zM1059.79 868.46c1.62 4-3.46 2.21-5.43 2.71-5.18 1.32-11.28 1.57-16.28-1.35v-4.08c3.31-2.63 11.71-1.66 13.57 1.36 2.35.78 7.97-1.64 8.14 1.36zM907.81 922.74c.32 7.52-10.29 5.88-13.57 2.71-10.11-1.83-20 .29-28.5-1.35-2.78-.54-3.25-1.53-5.42-2.72-.5-.27-2.38.42-2.72 0-.21-.25-1.15-2.63-1.35-2.71-1.94-.8-4.79.65-6.79 0-1-.34-1.4-3.8-4.07-2.72-5.41-1.34-4.08 4.06-9.5 2.72-3.3 1.84-5.36-1.9-8.14-2.72-3.66-1.08-7.81-.31-10.85-1.35-.66-.23-1.65-2.19-2.72-2.72-1.6-.8-2.79-.37-4.07-1.35-1-1 2.91-6.65 5.43-6.79 1.39-.07 2.65-.06 2.72-1.35.07-1.47 12.86-3.7 12.21 1.35H840c-.37 3.7 3.57 1.48 5.43 2.72.43.29-.42 2.37 0 2.71 1.12.92 3.15.28 4.07 1.36 4.31-1.19 8.73-.24 13.56-1.36 3.5-.8 5.15-3 8.15-2.71 3.59.4 2.28 1.92 5.43 2.71a13.24 13.24 0 018.14 6.78h8.14c1.62 3.53 6.92 3.61 10.86 5.43.53.25.15 1.06 1.35 1.36.87.26 1.87-.17 2.68 0zM981.09 928.16c-.19 3.89-5.66 2.48-9.5 2.72-4.11.41-4.85 4.19-10.86 2.71 0-2.33-1.59-2.82-2.71-4.07s-3-1.53-2.71-4.07c4-1.24 8-5.24 12.21 0 3.83.56 5.38-.8 8.14 0-.82-.24 1.48 5.24 5.43 2.71zM941.73 930.88c-2.22.27-4.58-.36-6.78 0-3.39.54-4.15 2.83-6.79 2.71-2.89-.13-3.89-3.23-8.14-2.71-.64-8.14 22.36-8.14 21.71 0zM994.66 945.8h-6.79c-4.2-4.88 6.62-3.42 4.07-10.85 4.72.48 5.15-6.9 9.5-2.71-2.14-6.22 5.63-2.51 5.43-6.79 4.13.6 9-.81 12.21 0 .26.07-.26 2.6 0 2.72 1.16.5 9.09-1.45 6.78 2.71h-9.49c-1.77 2.75-7.19 1.86-8.15 5.43-3.7 1-2.73-2.7-5.42-2.71-.76 0-1.54 1.09 0 1.35V939c-2.53 1.61-4.11 1.05-5.43 2.71-1.09 1.39-2.73 1.67-2.71 4.09zM958 945.8h-1.36c-.55-1.84-1.76-2.59-4.07-2.71-1.51-.08-.67-1-1.35-1.36-1.75-.88-6.48-.85-5.43-4.07 6.24-.89 8.89 1 10.85 2.72 2.51 2.11 3.36 3.62 1.36 5.42z"
            transform="translate(-1.21 .02)"
          ></path>
          <path
            d="M1210.41 138.41c-4.32-1.16-5.15 1.18-6.78 2.71-3-1.58-8.69 2.17-10.85 0-.33-.32.38-2.52 0-2.71-1.67-.84-5.65-.69-8.15-1.36-.35-.09-.11-1.29-1.35-1.35-1.81-.1-3.63.07-5.43 0a6.85 6.85 0 00-4.07-4.07 3.7 3.7 0 00-4.07 2.71c-1.86-2.66-8.19-.86-8.15-5.43-2.19-.32-4.6.44-6.78 0-4-.78-6.7-5.07-10.85-1.35-3.62 4.6 5.9 5.14 5.42 10.85-4.95.88-7.23-.91-9.5-2.71-4.95-.88-7.23.91-9.5 2.71 0 4.78 6.59 3.2 9.5 4.07.25.07-.24 2.65 0 2.72 2.1.58 4.65-.45 6.79 0 .23 3.05 4.25 2.45 6.78 4.07a11.39 11.39 0 011.36 1.35c3.24 1.39 8.27.21 9.5 4.07 4.75-1.39 6.5 1.34 9.5 2.72 1.21.56 2.7-.33 2.71 1.35 1.78 5.85-6.46 1.68-5.43 6.79-3.48-3.31-6.58-3.06-10.85-2.72-3.52.28-6.69 4.62-12.22 4.07-2.46 1.59-1.54 4.37-2.71 6.79-.63 1.31-4.69 2.19-2.71 5.43a7.77 7.77 0 00-5.43 1.35c-.59.43-2.2 4-2.72 4.07-1.64.22-1.86-2.25-2.71-2.71-.66-.36-2 .18-2.71 0-2-.49-4.31-3.54-8.15-4.07a30.46 30.46 0 00-8.14 2.71c-.58.28-.12 1.05-1.36 1.36-2.17.54-3.63.55-4.07 2.71-2.19.35-4.62-.46-6.78 0-1.58.34-1.77 2.34-2.72 2.72-1.52.6-4-.73-5.43 0a11.82 11.82 0 00-5.42 5.43c-.41 1.63 2.22.65 2.71 1.35.79 1.11-1 5.63 2.71 5.43 1.22 2.85 2.11 6 4.08 8.14h6.78c-.67 3.6 4 1.65 5.43 2.72.77.59.6 3.35 1.35 4.07 2.66 2.53 6.38 1.28 8.15 4.07.37 1.7-.48 3.75 0 5.43.59 2.07 4.66 2 2.71 6.78 0 2.4 2.86 2.38 4.07 4.07.65.91-.6 3.13 0 4.07.37.57 3.39-.33 2.72 1.36.49 4.11-4.43 2.81-6.79 4.07.79 6.86 5.75 9 2.72 16.28-.06 5.93 4.93 6.82 4.07 13.57-3.78-1.12-5 2.84-8.15 2.71-4.19-.16-9.14-5.43-9.5-10.85-4.33-1.58-5.92-5.21-9.49-8.14-.77-.63.22-1.28-1.36-1.36-4.76-.25-5.05-4.65-9.5-6.78-1.6-.78-2.83-.35-4.07-1.36-1-.82-2.68-2.68-4.07-4.07s-3.16-3-4.07-4.07-.44-2.63-1.36-4.07a31.24 31.24 0 00-4.06-5.43c-2.48-2.47-4.31-2.3-5.43-6.79-.67-2.66-3-1.13-4.07-2.71s1.13-5.44-2.72-5.43c1.89-4.89 3.89-9.69 6.79-13.57v-10.85c-1.36-2.85 2.18-1.86 2.71-2.71.37-.6-.17-2 0-2.72.36-1.44 3.52-4.6 4.07-8.14A11.7 11.7 0 011072 175c-.2-.48.37-2.4 0-2.71-1.09-.89-2.62.58-2.72-1.36-.12-2.26-.51-1.52-1.35-2.71-2.09-2.95-4.55-5.36-6.79-8.14-2.13.58-1.16 4.26-5.43 2.71-.48 1.78-2.39 2.14-2.71 4.07-.75 3 2.59 1.93 2.71 4.07-.09 4-3.1 5-5.43 6.79-3.83 1.86-5.36-3.09-6.78-4.08-1.69-1.17-6.13-.43-5.43-4.06h-6.78c-4-1-5.91-4.05-12.22-2.72-1 1-5.58 2.81-5.43 5.43 0 .37 1.71 1.3 1.36 2.71-.08.32-1.29.15-1.36 1.36-.07 1.41-2.92 7.4-1.35 12.21.33 1 3.8 1.41 2.71 4.07-1.57 1.14-3.64 1.79-6.78 1.36-1.38.68-1 2.25-2.72 2.71a17 17 0 01-5.42 0c-3.08-.45-2.32-1.67-4.07-2.71s-4.94.88-4.07-2.71c-5.79 2.38-7.42-4.26-13.57-2.72-1.8.45-2.15 2.3-4.07 2.72-2.11.45-4.74-.66-6.79 0-1.43.45-.95 2.6-2.71 2.71-3.56-.37-7.31.49-10.86 0-2.64-.37-3.54-2.24-5.43-2.71-4.36-1.1-11.72-.13-14.92 1.35-.54.25-.16 1.06-1.36 1.36-.73.18-2.07-.37-2.71 0-4.61 2.59-6.44 8.17-12.21 9.5-.36 1.71.46 3.74 0 5.42-.28 1-2.68 2.43-2.72 2.72-.44 3.15 3.1 4.9 0 8.14-1.62 1.69.34 3.18-1.36 6.79-.3.63-2.46.83-2.71 1.35-.49 1 .62 3.11 0 4.07-1 1.64-4.3 1.8-4.07 4.07-1.42 3.73 4.08 1.07 5.43 2.72.15.18-.19 1.25 0 1.35.63.36 5.34 1.13 5.43 2.72.2 3.77 5.22-1.81 5.43 4.07 5.15-1.32 9.75 1.72 13.56 1.35 4.33-.41 6.72-2.93 10.86-4.07s4 2 6.78 2.72a14.06 14.06 0 016.79 4.07c.41.45-.46 2.34 0 2.71.84.69 3-.42 2.71 1.36-.06 2 2.84.57 4.07 1.36 2.66 1.69 3.49 7.14 8.15 6.78v5.43c3.64-1.55 1.59 3.15 2.71 4.07.42.34 4 1.4 2.71 5.43 2.94 2.94 7.4 4.36 10.86 6.78 2 .81.08 2.95 0 2.72 1 3 4 2.94 2.71 10.85.34 1.48 2.7.92 2.72 2.71 1.67 8.46-4.39 9.19-2.72 17.65-.74 3 2.59 1.93 2.72 4.07-.43 2.15.56 4.67 0 6.78-.48 1.78-2.2 2.19-2.72 4.07-.56 2.07-.95 4.78-1.35 6.79 0-.23-2.28.61-1.36 1.35a2.75 2.75 0 011.36 2.72c-4.12 0-1.32 6.82-5.43 6.78v6.79c-2.89-1.08-1.81 1.81-2.72 2.71s-3.63 0-2.71 2.72c-7.33 2.52-14.48-.07-20.36-2.72-2.36 1.25-3 4.24-2.71 8.14-4.92 1-4.24 7.53-8.14 9.5-.26 5.69 6.66 4.2 5.43 10.86-2.9-.64-2.59 1.94-2.72 4.07-4.91 1-7 4.73-12.21 5.43q.71 8.78 9.5 9.5c1.1 1 1.57 3.18 2.71 4.07 1.76 1.36 4.19 2.46 6.79 4.07.73.45 0 1 1.35 1.35 3.16.79 4.85 3 8.14 5.43 1.24.92.9 2.11 2.72 2.72-.69-.23.76-1.48 1.35-1.36 0 0 .36 2.17 1.36 1.36-2 3.27 1.93 3.7 2.72 5.42.93 2.06.72 3.82 1.35 5.43 1 2.61 4.36 5.53 2.71 10.86-3.45-.89-5 1.79-6.78 2.71-2.16 1.13-3.76 1.07-5.43 2.72-.1-2.78-3.12.81-4.07 1.35-.49.29-2.37-.42-2.71 0-.94 1.14 0 3.46-2.72 2.72 1.67-4-2.57-4.07-2.71-6.79-.12-2.25-.84-1.52-1.36-2.71-1.86-4.27-1.78-8.68-4.07-12.22-.48-.75-1.27.22-1.35-1.35-.29-5.54-8.55-8.26-10.86-13.57-6.38-1.31-14.65-.73-16.28-6.79-.75-3 2.59-1.93 2.71-4.07 0-3.25-3.52-6.05-6.78-8.14-.49-.31-2.36.44-2.71 0s-1.08-2.58-1.36-2.71c-1.1-.54-2.94.48-4.07 0-.61-.27.13-1.36-1.35-1.36a14.08 14.08 0 00-5.43 1.36c-2.41 1.19-3.67 3.33-6.79 5.43-1.36.91-3.28 0-2.71 2.71-1-.95-4.3-2.36-5.43-4.07-.62-.94.49-3 0-4.07-.15-.31-2.69-1.23-2.72-1.36-.16-1 2.38-3.21 1.36-5.43-1.47-3.95-5.54-5.31-9.5-6.78-1.12 1.47-2.85 2.74-4.07 4.07-3.2 3.5-6.6 7.06-8.14 12.21-1.39.64-4.17-.83-5.43 0-.44.29.41 2.38 0 2.72-.81.66-6.72-.21-6.79 4.07-.42 2 1.67 4.23 2.72 5.43 2.62 3 4.85 3.34 9.5 5.43.63.28-.11 1.27 1.35 1.35s2.43.06 2.72 1.36c2.81 1.54 5.44 1.36 8.14 4.07 3 3 3-5.12 9.5-5.43 2.69-.13 2.77-.38 6.78 2.71 5.56-.58 8.7 1.26 12.22 2.72 1.68 5.2-6.61 2.07-6.79 5.43-.09 1.74-1.8.51-2.71 1.35-.46.43.44 2.27 0 2.72s-2.19-.41-2.72 0c-5.54 4.39-5.51 4.09-8.14 12.21-.15.46-1.29 0-1.36 1.35s.06 2.72 0 4.08c2.49 2.93 5.29 5.56 10.86 5.42 1.82.84.45 3.56 1.36 5.43.29.61 2.48.86 2.71 1.36.33.74-.37 2 0 2.71.81 1.6 1.83 2.44 2.71 4.07 1.3 2.4 2.5 7.16 5.43 9.5 1.25 1 2.43.53 4.07 1.36 2.28 1.14 4.86 6.18 9.5 5.43-1.45 5.06 3.37 3.86 2.72 8.14-1.21 1.05-3.07 1.46-5.43 1.35.5 2.31-1.06 2.57-2.72 2.72.77 5 4.76 2.88 9.5 4.07 2 .51 1.49 2.73 5.43 2.71 1.85 4.74-1.92 6.52-2.71 9.5-.32 1.21 1.32 6.82 0 8.14-.23.24-2.65-.26-2.72 0-1 3.69.13 7.54-1.35 10.86 0-.11-2.33.58-1.36 1.35 3.14 2.51-.46 2.21-1.35 5.43-.84 3 .89 5.79-1.36 8.15-1.6 1.67.39 4.23-1.36 8.14-.34.77-2.29-.2-2.71 1.36-.23.84.17 1.85 0 2.71-4 1.87-5.49 6.27-9.5 8.14 1.52 3.13-1.19 3.49-2.71 5.43-.81 1-1.7 3.35-2.72 4.07s-3.07-.47-4.07 0c-.52.25-1 2.57-1.35 2.71-2.86 1-7.86.74-10.86 1.36-1.77 2.75-7.18 1.86-8.14 5.43-1.53.56-4-.72-5.43 0-.28.14-1.25 2.7-1.36 2.71-1.68.25-4.47-5.39-5.42 0-1.48-.33-.92-2.69-2.72-2.71-3.6-1.17-2.42 2.56-5.43 2.71-3.53.19-2.41 2.56-5.43 2.72-3.61.19-5.5 3.79-8.14 6.78-.94 1.07-3.26 1.59-4.07 2.72-1.13 1.57.93 5.11-2.71 4.07-1.21-2.42-3.79-3.45-2.72-8.15-1.09-4.33-7-3.88-9.5-6.78-2.66-1.09-3 2.37-4.07 2.71-1.6.54-3.87-.63-5.42 0s-.33 2.05-1.36 2.72-3.1-.61-4.07 0c-1.9 1.19-2.93 3.56-5.43 5.43-1 .63-1.83 2-2.71 2.71-.67.52-1.16 1.69-2.72 1.36-.35 1.71.47 3.74 0 5.42-.81 2.93-3.63 1.91-1.35 5.43.48.76 1.27-.21 1.35 1.36.06 1.12 1.25 2.22 1.36 4.07.14 2.43 1.52 4.92 2.71 6.78.48.76 1.28-.2 1.36 1.36.1 1.88 2.18 3.78 4.07 5.43.86.75 1.85 2 2.71 2.71s-.23 1.27 1.36 1.36c2.86.15 9.37 6.65 12.21 9.5 1.56 1.56 1.9 2.18 2.72 5.43.37 1.48 2.61.91 2.71 2.71 0 .31-.15 1.08 0 1.36.51 1 2.48 2.11 2.71 2.71.46 1.13-.55 3 0 4.07s2.06 1.28 2.72 2.71c.23.49-.4 2.4 0 2.72.16.13 1.27-.18 1.35 0 .76 1.52-.46 4.14 2.72 4.07V688c-.45 2.93 2.19 2 2.71 4.07 1 3.75 0 9.38-1.35 12.21-.25.54-1.06.16-1.36 1.36-.64 2.56-1.77 2.6-2.71 5.43.23-.69 1.47.76 1.35 1.35 0 0-2.16.35-1.35 1.36-3.27-2.08-3.91 2.07-5.43 2.71-2.06.87-4.76.38-6.79 1.35-1.65.81-2.53 4.41-5.42 2.72a11.72 11.72 0 00-1.36 2.72c-.19.48.37 2.4 0 2.71-.09.07-3.89.42-2.71 1.35 1.49 1.2.22.74 0 2.72-2.59.58-2.46 3.88-6.79 2.71 1.68 4.4-4.39 1-2.71 5.43-2.33-1.74-5.34-2.81-5.43-6.78-.15-4.21 4.27-3.87 2.71-9.5-.44-3.18-5.92-1.32-6.78-4.07-2.59.58-2.46 3.88-6.79 2.71-1-1.2-1.46-3.06-1.35-5.43-.54-1.43-2.92-.47-4.07-1.35-.46-.35.41-2.3 0-2.71s-2.5.4-2.72 0c-.47-.87.66-3.37 0-4.08-1.87-2-4.72-3.75-6.78-5.42-1.75-1.43-5.66-2.27-5.43-5.43-6 1.41-8.31-6.9-12.21-9.5-1.74-1.16-5.18 0-6.79-2.71-3.85 1.15-4.18 4.25-4.07 8.14.12 4.08 2.55 5.39 2.72 8.14-.25 2.81 1 6.3-1.36 8.14-1.84 1.47-.74 3.5-1.35 8.15-.45 3.41-2.5 4.92-2.72 8.14-1.45 2.8 2.31 1.92 2.72 2.72.52 1-.63 3.13 0 4.06 1 1.5 2.77 1.54 4.07 2.72.87.8 0 3.72 2.71 2.71-1.77 7.2 3.93 6.93 2.72 13.57a34.65 34.65 0 012.71 2.71c1.36 1.28 1.55 3.94 5.43 2.72 3.21 5.4 9.19 9.07 14.93 13.57 1.63 1.28 4.34 2.37 5.42 4.07.62 1-.49 3 0 4.07s4.45 1.91 2.72 6.78c-.59 1.59 2.44.72 2.71 1.36.65 1.52-.44 3.83 0 5.43.39 1.39 2.45 1.92 2.72 2.71.55 1.63-.5 3.78 0 5.43.2.65 2.6 2.27 2.71 2.72s-1.35 2.62-1.35 4.07c0 3.52 3.23 3.66 2.71 6.78-5.31-2.15-2.81 3.52-5.43 4.07-4.2.53-1.81-3.17-5.43-4.07a13.4 13.4 0 01-8.14-6.78c-1.78-1.39-5-1.33-6.79-2.72-1.39-4.94-4.74-7.92-5.42-13.57.41-1.64-2.22-.66-2.72-1.35-.78-1.11 1-5.63-2.71-5.43v-8.14c-.34-1.48-2.7-.93-2.71-2.72-.32-2.2.41-4.6 0-6.78-.24-1.27-2.62-2.18-2.72-2.72-.17-.93 1.86-1.55 1.36-2.71-1-2.4-3.12-4.59-5.43-6.79-.75-.71.21-1.27-1.36-1.35-2.69-.14-2.22-3.47-5.43-4.07-.59-.11-2.26.35-2.71 0s.43-2.36 0-2.72c-1.14-.93-3.46 0-2.72-2.71-2.83.57-3.59-.93-5.43-1.36-2-4.71 2.07-6.55 2.72-9.49.53-2.4-1.52-6.14 1.36-8.15 1-4.18-3.73-2.6-2.72-6.78-.06-4.13 2.87-5.28 4.07-8.14.35-8 .75-16.13-5.43-17.65-.09-3.25-.62-6-2.71-8.14-1.76-1.83.11-2.82-1.36-6.78-.54-1.47-2.23-.44-2.71-1.36-.72-1.38.42-3.92 0-5.43s-2.45-1.92-2.72-2.71c-.53-1.58.67-3.91 0-5.43-2-4.66-5.19-8.65-8.14-12.21-7.75 1.75-8.53 10.46-16.28 12.21-.42-3.77-5-2-6.79-4.07-1.46-1.69 1.26-5.9-2.71-5.43-.66-4.27 4.16-3.07 2.71-8.14-4-10-9.64-18.4-13.56-28.5-2.36 1-3.28-1-4.08-1.36-1.17-.54-2.56-.65-4.07-1.35-1.84-.86-3.28-3.66-6.78-2.72 1.72-3.52-1.59-3.45-2.71-5.42-.44-.76.62-3.52 0-4.07-.35-.31-2.52.38-2.72 0-.92-1.77-.14-5.11-1.35-6.79-1.09-1.5-2.7-5.28-5.43-5.43-2.28-.12-2.59-.58-2.72-2.71-2.71-.41-3.23 1.51-5.43 2.71-.49.28-2.37-.41-2.71 0s-1.13 2.62-1.35 2.72c-1.53.66-3.86-.57-5.43 0-1.41.51-1 2.56-2.72 2.71-5-.2-8.56-.34-12.21 1.36-.53.25-.16 1.06-1.36 1.35-2.07.52-5.07.33-6.78 2.72-1.14 1.57.93 5.11-2.71 4.07.88 1.38 3.11 1.4 2.71 4.07V612c-2.36-1.05-3.28 1-4.07 1.35-1.17.54-2.56.66-4.07 1.36-1.84.85-3.28 3.66-6.79 2.71-.6 1.21-1.19 2.43-2.71 2.72-.66 4.32-4.27 5.68-4.07 10.85-2.36-1.05-3.28 1-4.07 1.36-.59.27-5.35 1.18-5.43 2.71-.09 1.77-3.8 2.23-5.43 4.07 1 4.15-2.34 4-1.35 8.14-1.69 0-1.8 2-2.72 2.72-1.15.88-2.69.46-4.07 1.35s-1.69 1.94-2.71 2.72-2.86.47-4.07 1.35c-1.77 1.29-3.22 3.32-5.43 5.43-1.77 1.68-4.76 2.77-5.43 5.43-1.94 3.47 1.83 4.78 2.71 8.14.77 2.93.79 5.86 1.36 8.15.49 2-.78 12-2.71 13.57-.59.46-1.72 0-1.36 1.35-.48 8 1.24 16.1-1.36 21.71-.24.54-1 .16-1.35 1.36-.18.71.37 2.09 0 2.71-.25.42-2.35-.36-2.72 0-1 1-.5 4.37-1.35 5.43-1.58 2-4.11 3-5.43 4.07.37 5.8-3.94 6.92-6.79 9.5-4.5-1.82-8.85-3.81-13.56-5.43-.29-2.21.37-4.59 0-6.78-.46-2.67-2.18-3.16-2.72-5.43-1-4.32 2.19-3.41 0-6.79-.48-.75-1.27.22-1.35-1.35-.08-1.39-.07-2.65-1.36-2.71-3.65-.2 1-5.23-2.72-5.43-1.6-.09-.69-1.71-1.35-2.72s-2.4-2.09-2.72-2.71c-.83-1.66-.37-4.27-1.35-6.79-.58-1.48-1.8-2.7-2.72-4.07s0-3.28-2.71-2.71c1.22-4.37-1-6.52-2.72-9.5-1-1.73-.21-4-2.71-4.07 1.35-3.92.82-3-1.36-6.78-.28-.5.42-2.37 0-2.72-2.06-1.68-2.44-2.81-4.07-6.78-.17-.44-1.07-.25-1.35-1.36-.19-.77.34-2 0-2.71s-2.49-.86-2.72-1.36c-1-2.13.12-3.94-1.35-6.78-.31-.59-2.5-.87-2.72-1.36-.65-1.44.86-5.39-2.71-5.43v-8.14c-.74-1.34-2.18-1.09-2.71-2.71-1-3 .92-5.76-1.36-8.15-1.27-1.33-1.19-2.67-1.36-6.78-.19-4.78 4.66-6.54 2.72-13.57-.39-1.39-2.45-1.92-2.72-2.71-.94-2.79.9-6.65-2.71-8.15-5.66 0-6.11 5.28-4.07 9.5a12.24 12.24 0 00-5.43 5.43c-2.55-1.4-8.9 2-10.86 0-.33-.33.4-2.51 0-2.71-2.65-1.37-4.29-.23-6.78-2.72a26.55 26.55 0 01-5.43-9.5c3.1-1 6.86 0 9.5-4.07.71-1.89-.91-2-1.36-2.71-.07-.12-1.37-2.72-1.35-2.71-2.72-.63-2.79 3.65-5.43 2.71-5.05-1.8-7.2-4.64-10.86-9.5-5.41 1.34-4.08-4.06-9.49-2.71-2.5-.7.62-3.58 0-4.07-.44-.35-4-1.4-2.72-5.43a105.74 105.74 0 00-16.28-8.15c-3-.75-1.93 2.61-4.07 2.72s-3.29 1.32-5.43 2.71c-3.46-.44-6.57.6-9.5 0-2.57-.52-3.47-2.4-5.43-2.71-4.37-.69-9 1.46-13.57-1.36-2.85 1.22-6 2.11-8.14 4.07-5.41.44-10 .08-12.22-2.71-4-.27-7 .36-9.49 0-3.81-.56-5.76-4.24-10.86-2.72-2.24-7.71-8.23-11.66-13.57-16.28-2.91-1.52-4.51 2-6.78 2.72-1.23.38-2.81-.28-4.07 0-1.71.37-8.05 2.31-13.57 1.35.19 0-.73-1.2-1.36-1.35-2.64-.66-2.59-1.41-5.43-2.72-.49-.23-2.39.39-2.71 0-.15-.18.19-1.25 0-1.35-2.17-1.21-6.91-1.06-5.43-4.07-5.29.31-7-2.92-10.86-4.08-1.81-.83-.44-3.55-1.35-5.42-.3-.61-2.49-.86-2.71-1.36-.9-2-.53-3.34-1.36-5.43-.63-1.57-3.29-2.36-2.72-6.78-1.6-2-5.12-2.11-6.78-4.07-.67-1.4-2.75-.54-4.07-1.36s-1.12-2.38-2.72-2.71c-5.95 1.94-11.28 4.79-12.21 10.85-.54 3.56 3.26 2.72 2.72 5.43 0 .11-2.06.2-1.36 1.36 1.32 2.16 4.27 3 5.43 4.07-1.31 5.25 4.57 6.68 6.78 9.5.58.72-.68 3.46 0 4.07.37.32 2.49-.41 2.72 0 1 1.67-2.28 6.62 2.71 5.42.32 2.61-.43 6.1 0 8.15.3 1.44 1.94 2.72 2.72 4.07 1 1.72.21 4 2.71 4.07 3.37.2 6.58.25 6.78-2.72 3.26.54-.75-6.18 4.08-4.07 4.92-1.3 1.14 6.1 5.42 5.43-1.12 4.87 3.07 6.57 0 9.5 3.64 3.86 12.43 6.41 16.29 2.71 1.19-1.14 8.47-.44 9.5-2.71.28-.64-.43-2.18 0-2.71s2.29.42 2.71 0-.45-2.28 0-2.72 2.26.46 2.71 0-.45-2.36 0-2.71c1.2-.92 3.1-.29 4.07-1.36-.22-1.58.3-2.41 1.36-2.71 2.54-2 1.6-7.45 6.78-6.79-.46 2.73.28 4.25 2.72 4.07 1 4.18-3.73 2.61-2.72 6.79-1 4.17 3.73 2.6 2.72 6.78.86 1.47 2.64 1.79 4.07 2.72a43.76 43.76 0 008.14 4.07c.44.17.24 1.07 1.36 1.35.85.21 1.85-.16 2.71 0 1.88 4 6.27 5.5 8.15 9.5 3.48-1.21 3.86 1.44 5.42 2.71s2.36 2.65 4.08 4.07c.85 7.56-6.6 10.67-10.86 14.93-1.48 1.49-3.54 3.32-4.07 4.07-1 1.42 1.09 4.07-1.36 4.07-1.28 0-1.1 1.69-1.35 2.72s-2.62 2.21-2.72 2.71c-.14.75 1 1.93 1.36 1.36-1.06 1.7-2.33 2.32-4.07 4.07a48.13 48.13 0 00-4.07 4.07c-1.19 2 0 3.89-1.36 5.42-1.05 1.19-2.95 1.6-4.07 2.72s-1.58 3.17-2.71 4.07c-1.82 1.45-4.66 1.19-6.79 2.71-1.85 1.34-1.2 3.67-4.07 4.07-11.18-1.68-13.79 5.21-21.71 6.79.22 1.57-.3 2.41-1.35 2.71-2.52.21-.84 4.6-2.72 5.43-3.31.76-2.89 5.25-8.14 4.07 1.67 4.39-4.39 1-2.72 5.43-3.09-.38-5.1.32-5.42 2.71-3-.43-6.67.46-9.5 1.36-1.42.44-1.85 2.37-2.72 2.71-1.56.62-3.88-.64-5.43 0-.81.34-1.52 2.12-2.71 2.72-1.58.79-2.66.7-4.07 1.35-.53.25-.16 1.06-1.36 1.36-1.93.48-3.61.43-5.42 1.36-1.22.61-1.46 1.93-2.72 2.71s-2.78.62-4.07 1.35c-.69.39 0 1-1.36 1.36-.74.19-2-.36-2.71 0-1.2.65-.94 2.17-2.71 2.71-3.41 1.05-7.85-1.65-10.86 1.36-.08.08.08 1.35 0 1.36-1.81.19-5-3-6.78-1.36-1-1.44-1.72-2.59-2.72-4.07-.37-.55.46-2.26 0-2.72s-2.5.4-2.71 0c-.86-1.61-.44-4.77-1.36-6.78-.75-1.64-2.22-2.23-2.71-4.07-1.3-4.81 2.13-11.17-2.72-14.93-.49-3.91.67-6.6 0-9.49-1.45-6.28-8.3-9.51-12.21-13.57 2-3.3-2-3.87-2.71-5.43-1-2.28-.25-3.68-1.36-5.43-2.67-4.19-6.44-8.46-12.21-9.5 1.67-4-2.57-4.07-2.72-6.78-.1-1.88-2-.33-2.71-1.36s.48-3 0-4.07c-.27-.57-2.53-.9-2.72-1.35-.62-1.55.45-3.82 0-5.43-.29-1-2.65-2.36-2.71-2.72-.16-1 1.79-2.21 1.36-4.07-.62-2.64-3.7-5.75-2.72-9.5.41-1.63-2.22-.65-2.71-1.35s.46-2.22 0-2.72-2.27.45-2.72 0 .46-2.26 0-2.71c-1.62-1.62-4-3.93-6.78-4.07-.31-1.26.38-2.83 0-4.07-.54-1.75-1.92-.24-2.72-1.36-.43-.61.39-2.07 0-2.71-2.35-3.88-5.93-6.8-9.5-9.5.66-6.69-6.87-8.38-9.49-12.21-.52-.75.66-3.49 0-4.07-.35-.3-2.53.37-2.72 0-.45-.91 1.82-6.48-2.71-5.43v-8.14c-1.19-2.46-1.77-1.65-2.72-5.43-.32-1.31-1.64-3.12-2.71-5.43-.25-.54-1.06-.16-1.36-1.36-.66-2.67-2.39-5.73-4.07-9.5-.22-.5-1.06-.18-1.35-1.35-.75-3-1.36-2.56-1.36-6.79-.93-3.64 2.81-2.62 4.07-4.07.76-5.06 1.3-11.78 2.71-16.28.62-1.95.21-2.83 2.72-2.71.11-5.12 0-9.44 1.36-14.93.64-2.56.4-3.11 0-8.14-.19-2.25.13-4.54 0-6.79 1.2-1.05 3.06-1.46 5.42-1.35-2-2.11-2.85-5.29-4.07-8.15-1.57.23-2.41-.3-2.71-1.35-3 .59-5.65-.82-8.14 0-.67.22-.85 2.48-1.36 2.71-2.29 1-3.68.23-5.43 1.36-.75.48.21 1.27-1.36 1.35-2.35.13-2.83 2-5.42 2.72a22.73 22.73 0 01-6.79 0c-3-.37-2.47-1.22-4.07-2.72-2-1.82-4.14-2.43-8.14-4.07-.44-.17-.24-1.07-1.36-1.35-.85-.22-1.85.16-2.71 0-5.44-.47-6.58 3.37-9.5 5.43-2.56-.61-8.18 1.84-6.78-2.72-6.51.93-8.62-.48-12.22-2.71-.73-.46 0-1-1.35-1.36-.86-.21-1.85.16-2.72 0-.62-8-7.31-9.88-5.43-20.35-1.32-1.75-2.12-3.86-4.07-5.43-1.42-1.15-6.18-.47-5.43-4.07-1-3.52 2.41-1.77 4.07-2.72 1.42-.81 1.38-3.17 4.07-2.71 4.27-1.55 3.3 2.13 5.43 2.71 5.85-2.75 13.2-4 13.57-12.21 3.6 0 8 .75 8.14-2.71 4.28-.66 3.08 4.16 8.15 2.71 3.6 1.17 2.41-2.55 5.43-2.71.93-.05 4.91-.11 4.07-4.07 3.09.38 5.1-.33 5.42-2.72 4.82.4 9.17-.53 13.57 0 3.37.41 2.26 2 5.43 2.72 1.23.28 8.42-1.32 9.5 0s1 2 2.71 2.71c2.08.85 5.1.52 6.79 1.36.71.35 1.77 2.08 2.71 2.71 1.37.91 3.28 0 2.72 2.72 2.22.26 4.57-.35 6.78 0 3.81.6 7 5.29 13.57 2.71 1.13-.44.93-2.33 2.72-2.71 2.16-.47 4.59.35 6.78 0 .55-1 2.12-1.87 2.72-2.72s1.27.22 1.35-1.35c.19-3.5 2.5-3.56 4.07-6.79-.43-3.19-2.14-5.09-1.35-9.5a48.26 48.26 0 006.78 2.72c3.32 1 7.18 1.16 9.5 2.71 1.31.88 2.14.87 4.07 1.36 1.49.37 6.64 2.89 9.5 4.07 5.09 2.1 10.39 2.89 13.57 6.78 4.07-.08 8.4 1.08 10.85 2.72 1.48 1 2.48 1.81 4.07 2.71 2.36 1.33 4.72 1.63 6.79 2.71.89.48 1.94 2.29 2.71 2.72.5.27 2.38-.42 2.72 0a22.1 22.1 0 006.78 4.07c.39 2.9-2.11 2.07-2.71 4.07-.87 2.9 1.42 7.44-4.07 6.78a12.33 12.33 0 011.35 2.72c.19.48-.37 2.41 0 2.71 1.68 1.37 2.54-.34 2.72 2.72v2.71c3-.75 1.93 2.6 4.07 2.72a10.6 10.6 0 016.78 2.71c1.53 1.47 3.22.31 5.43 1.36.71.33.77 2.37 1.36 2.71.75.43 3.52-.63 4.07 0 .31.35-.38 2.52 0 2.71 1.43.75 3.92-.61 5.43 0 .34.15-.3 2.43 0 2.72a46.61 46.61 0 006.78 1.35c.85 0 5-.78 5.43-1.35.13-.16-.17-1.27 0-1.36.83-.4 4.41-.57 5.43-1.35 2.47-1.91 1.84-9.24 8.14-8.15.41-1.63-2.22-.65-2.71-1.35-.79-1.11.94-5.63-2.72-5.43v-8.14c.82-3-3.93-1.33-4.07-4.07a20.45 20.45 0 00-2.71-2.72c-.66-.49-1.17-1.71-2.72-1.36.23-5.65-4.16-6.69-4.07-12.21 3.37-.2 5.63.7 6.79 2.72 2.38-2.9 5.47-1.83 8.14-4.07 2.82-2.38-1.46-4.2-5.43-9.5-.36-.48.45-2.35 0-2.72-1.48-1.21-4.21-2.35-5.43-5.43a19.26 19.26 0 01-9.5 4.07c1.17-4.33-2.13-4.19-2.71-6.78-6 .16-7-4.75-13.57-4.07 1.08-2.88-1.81-1.81-2.71-2.72-.46-.45.45-2.26 0-2.71s-2.39.45-2.72 0 .16-2.07 0-2.71c-.44-1.79-2.41-2.13-2.71-4.07-.73-3.55 2-2.51 2.71-5.43.15-.6-.37-2.25 0-2.72s2.3.42 2.72 0-.44-2.44 0-2.71 2 .17 2.71 0c1.79-.45 2.13-2.41 4.07-2.71 3.6 0 8-.76 8.14 2.71 4.33 1.16 4.2-2.14 6.79-2.71.41-1.64-2.22-.66-2.71-1.36s.46-2.22 0-2.72-2.28.45-2.72 0 .41-2.19 0-2.71c-1.66-2.09-3.86-4.39-5.43-6.78-4.1 1.81-3.05-2.12-5.43-2.72-2.83-.71-4.57-2.38-8.14-4.07-5.22-15.13-14.48-26.22-19-42.06a3.76 3.76 0 002.72-4.07c7.73-.95 11.27 2.29 19 1.35 1.39-4.56-4.23-2.11-6.79-2.71.42-1.85 3.4-1.13 5.43-1.36 8.49-.69 18.05-4.27 25.78-1.35.48.18 2.42-.37 2.72 0 .9 1.1 1 .93 2.71 1.35-.05 0 4 1.24 4.07 1.36.86 1.05 4.27 2.73 6.79 4.07.83.44 3.12.65 4.07 1.35.77.59.66 2.07 1.35 2.72.47.44 2.26-.46 2.72 0 .07.08-1.82 3.42 0 4.07 4.69-1.07 5.72 1.51 8.14 2.71 3.6 1.17 2.42-2.55 5.43-2.71 1.38-.07 2.64-.06 2.71-1.36.11-2.13 4.94-1.75 5.43-5.43-.15-1.07-4.49-4.11-4.07-1.35-.49-.95-2.21-1.9-2.72-2.72-1.27-2.05-2-4.29-4.07-6.78-1.82-2.23-1.7-2.17-2.71-6.79a71.76 71.76 0 00-2.72-9.49c-2-4.83-5.1-6.33-6.78-10.86-5.07 2.17-6 8.44-12.21 9.5-3.17-2.86-6.36-5.27-9.5-8.14s-4.76-7.23-9.5-8.15c2.63-2.8 8.27-2.59 12.21-4.07 3.41-2 4.77-6.09 6.79-9.5-2.63-5.51-6.43-9.85-9.5-14.92-.94-11 1.31-19.29 0-27.14-.81-4.88-4.88-11.34-6.79-16.29-.76-2-.4-3.48-1.35-5.42-.33-.68-1.28.14-1.36-1.36-.09-1.76-2.13-1.69-2.71-2.72-1-1.79-.39-3.53-1.36-5.42-.4-.79-2.23-.71-2.71-1.36-.36-.48.45-2.35 0-2.71-.63-.52-2.27-2.82-1.36-6.79 2-2.45 7.46-3.3 12.21-5.43.51-.22.19-1.06 1.36-1.35a42.48 42.48 0 008.14-2.72c.66-.31-.13-1.28 1.36-1.35 2.92-.16 6.43-4 9.5-6.79.1-.09 2.72-1.43 2.71-1.36.27-2.46-9.6-9.53-12.21-12.21.48-1.69 7.82 1.12 12.21 0 .12 4.41 8.09 1 6.79 6.79 3.43-1.54 7.69-2.26 9.5-5.43-.19-1.53-.6-5.32-2.72-5.43-3.53-.19-2.41-2.56-5.43-2.71-.3 0-1.1.14-1.35 0-.89-.5-2.19-2.5-2.72-2.72-1.14-.46-3 .54-4.07 0s-1-4.12-5.43-2.71c.47-5.9-3.28-7.58-4.07-12.21-1.6-3.58 6.55-3.64 6.79-8.15.07-1.33 4-1.61 8.14-2.71.35-.1.11-1.29 1.36-1.36a30.77 30.77 0 015.43 0c2.78.39 2.15 1.65 4.07 2.72 1.5.84 2.87.33 4.07 1.35 1.85 1.59 4.06 4.47 4.07 6.79 4.91 3.51 7 10.81 12.21 14.92.77.61-.23 1.28 1.36 1.36 1.93.1.68 2.65 1.35 4.07.56 1.18 5.44 3.43 6.79 5.43.37.56-.17 2 0 2.71.44 1.79 2.41 2.13 2.71 4.07-.32 4.37-4.21 4.63-5.43 9.5-.56 2.23-2.36 1.7-4.07 4.07.48 1.78 2.39 2.14 2.72 4.07 4.26 1.3 6-1.77 8.14-2.71 1.71-.75 2.59-.67 4.07-1.36.53-.24.16-1.06 1.35-1.35.86-.22 1.86.16 2.72 0 1-2.06.4-4.27 1.36-6.79.75-2 5-4.58 2.71-9.5-.31-.66-2.44-.8-2.71-1.35-.74-1.46-.28-4.25-1.36-5.43-.4-.44-2.34.45-2.72 0-.88-1.09.58-2.61-1.35-2.72-3.63-.18-2.79-3-8.14-2.71-.88-3-4.12-3.5-5.43-6.79-.2-.48.37-2.4 0-2.71-.82-.67-4.31-2.52-2.72-6.78 5.11-4.13 10 1.08 14.93 1.35 2.85 1.36 1.86-2.18 2.71-2.71.6-.37 2 .17 2.72 0 1.2-.3 2.33-.92 4.07-1.36 1.39-.34.66-1 1.36-1.35.89-.41 3-.66 4.07-1.36a36.33 36.33 0 009.49-9.5c2.36 1.05 3.28-1 4.08-1.35 1.76-.82 5.42-1.46 8.14-2.72.53-.25.16-1.06 1.35-1.35 4.05-1 7.32.63 12.22 2.71 3.83-.69 5.76-3.28 9.5-4.07-.9-1.68-.25-3.87-1.36-5.43-.54-.76-3.92-.09-2.72-2.71-1.81-4.1 4.15-2.19 5.43-2.72 1.68-.69 2.21-2.29 4.07-2.71 5.44-1.22 13.89.21 20.36-1.36.44-.11 2.45.32 2.71 0 .87-1.06 1-2.48 2.72-2.71a68.88 68.88 0 0114.92 0c3.11.33 3.72 2.22 6.79 2.71 2.2.35 4.56-.26 6.78 0 1.36-1.35 2.78-2.65 4.07-4.07 1.09-1.19 3-1.54 2.72-4.07 5.8.38 6.91-3.94 9.5-6.78-2.65-3.1-12.74-.52-19-1.36-5.08-.11-4.1 5.85-10.86 4.07 5.1-4-2.38-5.49 2.72-9.5-11.35-.91-20.43 1.24-29.86 0-2.33-.31-2.79-2.1-5.42-2.71-.9-.21-7.19 1.16-8.15 0s-1-2.46-2.71-2.72c-4.23-.61-8.78.32-13.57 0-2.42-.16-8 1.68-9.5-2.71-1.32-4.94 6.61-.63 4.07-6.79 3.6 0 8 .76 8.14-2.71h4.07v1.34c2.15 2.24 5.32.64 8.15 1.35 1.52.39 1.79 2.35 2.71 2.72 1.55.61 3.92-.69 5.43 0 2.69 1.21 3.72 4.67 6.78 4.07h12.22c5.68-.26 4.19 6.66 10.85 5.43 5.9.39 10.46-.55 14.93 0 2.25.27 1.48.42 2.71 1.35.77.58-.22 1.27 1.36 1.36 4 .21 12.18.71 19 1.35 3.35 1.6-3.3 5.64 2.71 5.43h9.5c.08 3.51 3.54 2 5.43 2.72.56.22-.06 1.28 1.35 1.35 5.05.27 4.29 5.14 9.5 5.43 1.14.06 8 1 10.86 0 .48-.17.05-2.36 1.35-2.71 2.7-.73 13.61-.6 19 0 2.63.29 3.79 2.17 6.79 2.71 3.64.66 6.21-.51 9.5 0-1.08 2.88 1.8 1.81 2.71 2.72.45.45-.45 2.26 0 2.71 1 1 8.24.06 6.78 5.43 0 2-2.74.64-4.07 1.35-1 .53-1.4 2-2.71 2.72-.56.3-2.28-.44-2.71 0s.39 2.51 0 2.71c-1 .53-3.11-.62-4.08 0-1.86 1.2-2 3.9-4.07 5.43s-7.36-.51-5.42 4.07c4.46 1.36 15.19 1.73 17.64-1.35 1.69-2.13 2.45 0 6.78-1.36 3.27-1 4.76-2.79 8.14-2.71 4 .08 1.09 1.82 5.43 2.71 2.12.44 4.72-.63 6.79 0 .68.2.83 2.47 1.36 2.71 1.08.52 2.9-.34 4.06 0 1.66.49 2.74 1.32 5.43 1.36 2.21 0 2.32-1 4.07-1.36s3.73.42 5.43 0c2.38-.58 4.55-3 8.14-2.71 2.45.21 4.3 2 6.79 2.71 2.87.78 7 .62 12.21 1.36.41.06 2.48-.29 2.72 0 .46.57 3.19 4.59 6.78 2.71 9.88-4.48 16.22-4.07 29.85-4.07 7.74 0 16.39-.73 21.72 2.72.75.49-.21 1.27 1.35 1.35 3.54.19 2.42 2.56 5.43 2.72 3.51.18 6 4.58 9.5 6.78.49.32 2.36-.43 2.71 0 1.09 1.34 1.15 1.78 2.72 2.72.49.29 2.36-.43 2.71 0 .89 1.08-.57 2.61 1.36 2.71 3.53.19 2.41 2.56 5.43 2.72 2.67.14 7.55 2.31 12.21 0 1.15-.57 1.94-2.36 2.71-2.72 2.05-1 3.82-.69 5.43-1.35.44-.18.25-1.08 1.36-1.36.85-.21 1.85.16 2.71 0 3.06-2.32 4.17 2.37 5.43 2.71 4.78 1.31 10-.25 14.93 1.36.46.15 0 1.29 1.35 1.36s2.72-.06 4.08 0C757 79.17 761 81 762.64 80c1-.55-.4-2.24 1.36-2.71.84-.23 1.85.17 2.72 0 2.61-3.19 2.27-2.4 1.35-5.43-.08-.25-6-3-1.35-4.07 4.14 1.22 6.13-2.2 9.49-2.72 3-.46 7-.16 10.86 0 3.3.15 5.81 2.23 9.49 2.72 4.11.54 6.92-.41 10.86 0 1.77 2.75 7.18 1.86 8.14 5.43 4.45-.08 5.19-3.86 10.86-2.72 4.24 1.64 6.73 5 13.56 4.07-.83 2.82 1.5 1.91 2.72 2.72 2.14 1.42 1.81 1.81 5.43 2.71 2.12.53 1.58 2 5.43 2.72 7.75 1.5 18-.48 28.49 0 7.87.35 15.2 1.81 23.07 1.35 4.94-.29 9.92-1.93 13.57-1.35a32.24 32.24 0 015.43 1.35c.6.3.85 2.49 1.35 2.72 1.68.75 4-.89 4.07 1.35.15 2.85 5.28 0 5.43 4.07C941 90.66 945 94.44 949.9 95c4.65.5 8.94-.37 14.93 0 2.8 1.45 1.91-2.31 2.71-2.72 2-1 11.9-.6 17.64 0 3 .32 6 2.28 9.5 2.72s7.23-.55 9.5 0c.29.07.16 1.29 1.36 1.35s3-.37 4.07 0c2.58.92 1.6 1.76 5.42 2.72 2 .51 1.49 2.74 5.43 2.71 3.55-3.68 2-3.08 0-6.78-.69-1.27-7.16-3.36-2.71-5.43 5.5 0 12-.61 16.28 1.36.53.24.16 1 1.36 1.35s18.12-2.23 20.35 0c.33.33-.39 2.52 0 2.71 1 .51 3-.23 4.07 0 6.52 1.4 13.62.38 20.36 1.36 2.76.41 3.88 2.19 6.78 2.72 3.07.55 6.31-.43 9.5 0 .1 4.48 5.42 2.3 8.14 4.07.76.48-.21 1.27 1.36 1.35.23 0 6.27.57 8.14 1.36.64.27.85 2.48 1.36 2.71 2.72 1.23 13.91-.37 17.64 1.36.53.25.15 1.06 1.35 1.35 2.19.55 8-.39 12.22 0-1.42 3.73 4.07 1.07 5.43 2.72a16 16 0 005.42 4.07c1.61.81 2.67.58 4.07 1.36.72.39-.18 1.27 1.36 1.35 2.24.12 3.81 2.53 6.78 2.72 1.35-.73 1.09-2.19 2.72-2.72 1.2-.39 2.9.47 4.07 0 2.26-.91 4-4.08 6.78-2.71 1.6 2.46 4.37 1.54 6.79 2.71 1.31.63 2.19 4.69 5.43 2.72.59 3.62 4.48 4.76 6.78 6.78.44.39-.45 2.35 0 2.71.27.23 1.08-.21 1.36 0 1.3 1 2.54 3.05 6.78 2.72-.02.9-.02 1.81-.02 2.71zm-977 135.7c-2.81.81-8.92-1.68-9.5 1.35 2.8-.8 8.9 1.68 9.49-1.35zM1097.78 753.11c-.77.28-1.73-2.05-1.35-2.71.24-.42 2.4.39 2.71 0 .15-.18.27-3.8 1.36-2.71 2.09 2.09-2.77 3.22-2.72 5.42zM944.45 778.9c-3.6-1.14-1.66 2.6-2.72 4.07-2.53 3.54-5.52 3.08-6.78 8.14-.22.86-5.26 5.76-2.71 10.85.23.48 2.6 1 2.71 1.36.68 2.1-1.16 7 1.36 8.14s2 0 2.71 2.72c.56 2.24 5.55 4.2 5.43 8.14-3.83.69-5.77 3.28-9.5 4.07.5 2.31-1.06 2.56-2.71 2.71v9.5c-4.29-.67-.51 6.74-5.43 5.43.23 3.53-.5 3.36-1.36 6.79-.34 1.36-1.06.68-1.35 1.35-.5 1.1-.66 2.67-1.36 4.07-.48 1-2.51 2.15-2.71 2.72-.74 2 .76 4.81 0 6.78-.24.61-2.34 0-2.72 1.36-.16.6.38 2.24 0 2.71-2 2.41-7.28 1-6.78 5.43-5.65-1.59-9.49-5-14.93-6.79-5.07-1.44-3.87 3.37-8.14 2.72-4.7 1.07-5.73-1.51-8.15-2.72-4-.26-7 .37-9.5 0-3.8-.56-5.75-4.23-10.85-2.71-.38-1.21.47-2.9 0-4.07-.55-1.38-2.26-.48-2.72-1.36-.55-1.07.53-3 0-4.07-.24-.51-2.57-1-2.71-1.35-.71-2 1.48-2.44 1.36-4.07s-2.31-2.27-2.72-4.07c-.26-1.13.81-6.13 0-6.79-2-1.64-3.7-3.51-2.71-9.49-.34-1.48-2.7-.93-2.72-2.72.56-1.53-.72-4 0-5.43.33-.64 2.45-.81 2.72-1.35.35-.7-.19-2 0-2.72.37-1.5 3.5-1.31 2.71-4.07 5.18-.2 6.53 3.42 10.86 4.07 3.54.17 1.83-3.64 2.71-5.43.5-1 4.12-1 2.72-5.42 2.31.49 2.56-1.07 2.71-2.72 2.36 1.05 3.28-1 4.07-1.35 1.17-.55 2.56-.66 4.07-1.36 1.84-.85 3.28-3.66 6.78-2.71 1.85-4.4 3.24-7.49 5.43-12.22.25-.53 1.06-.15 1.36-1.35.21-.85-.16-1.85 0-2.72 3.18 2.19 4-2.2 5.43-2.71 3-1.06 5.44.39 8.14-1.36.75-.48-.21-1.27 1.36-1.35 2.92-.16 3.51-2 5.42-4.07 1.1-1.16 1.63-2.91 4.08-2.72-1-6 4.39-5.56 5.42-9.49 8.47-1.24 10.11 4.37 13.57 8.14 3.15 2.73 7.26 4.5 8.15 9.49z"
            transform="translate(-1.21 .02)"
          ></path>
        </g>
      </g>
    </svg>