<svg
      xmlns="http://www.w3.org/2000/svg"
      width="1210.412"
      height="945.805"
      overflow="visible"
      viewBox="0 0 1210.412 945.805"
    >
      <g>
        <g>
          <path
            fill="#FFF"
            d="M375.879 0h834.533v135.694c-4.244.329-5.479-1.677-6.783-2.714-.275-.219-1.084.225-1.357 0-.45-.368.438-2.328 0-2.714-2.302-2.021-6.19-3.162-6.784-6.785-3.241 1.977-4.117-2.081-5.428-2.714-2.419-1.169-5.193-.25-6.785-2.714-2.732-1.365-4.521 1.807-6.785 2.714-1.171.469-2.866-.39-4.07 0-1.63.526-1.368 1.988-2.714 2.714-2.972-.184-4.543-2.596-6.785-2.714-1.535-.081-.642-.959-1.355-1.355-1.404-.779-2.463-.545-4.07-1.357-2.879-1.455-4.425-2.847-5.428-4.071-1.351-1.648-6.844 1.015-5.428-2.714-4.167-.396-10.026.547-12.214 0-1.198-.299-.822-1.107-1.356-1.355-3.724-1.727-14.913-.128-17.642-1.357-.511-.229-.718-2.446-1.355-2.714-1.866-.785-7.914-1.345-8.142-1.357-1.569-.082-.604-.871-1.357-1.355-2.725-1.765-8.044.416-8.142-4.071-3.192-.43-6.435.557-9.497 0-2.901-.526-4.021-2.309-6.787-2.714-6.729-.986-13.83.034-20.354-1.357-1.096-.231-3.088.506-4.07 0-.392-.199.333-2.381 0-2.714-2.23-2.229-19.032.33-20.354 0-1.198-.299-.823-1.107-1.356-1.355-4.233-1.962-10.782-1.351-16.283-1.357-4.452 2.067 2.025 4.163 2.714 5.428 2.013 3.704 3.549 3.106 0 6.785-3.938.024-3.392-2.205-5.429-2.714-3.825-.957-2.844-1.793-5.428-2.714-1.06-.378-2.939.06-4.07 0-1.2-.064-1.063-1.287-1.356-1.357-2.268-.544-5.886.448-9.498 0-3.484-.432-6.489-2.395-9.5-2.714-5.746-.607-15.646-1.022-17.641 0-.795.408.085 4.169-2.714 2.714-5.986-.365-10.276.505-14.927 0-4.868-.525-8.881-4.311-14.928-2.714-.147-4.113-5.276-1.222-5.429-4.069-.117-2.245-2.394-.602-4.069-1.357-.5-.225-.75-2.418-1.356-2.714-1.176-.572-4.885-1.271-5.429-1.357-3.653-.578-8.624 1.067-13.568 1.357-7.866.461-15.2-.999-23.068-1.357-10.479-.476-20.742 1.508-28.494 0-3.852-.749-3.31-2.184-5.43-2.714-3.611-.903-3.288-1.288-5.429-2.714-1.219-.811-3.55.098-2.715-2.714-6.838.958-9.324-2.438-13.568-4.071-5.669-1.145-6.407 2.638-10.854 2.714-.958-3.563-6.368-2.678-8.143-5.428-3.943-.405-6.747.54-10.855 0-3.688-.485-6.199-2.572-9.498-2.714-3.818-.165-7.81-.468-10.854 0-3.361.517-5.354 3.932-9.497 2.714-4.619 1.028 1.279 3.821 1.355 4.071.912 3.03 1.26 2.242-1.355 5.428-.859.172-1.872-.226-2.716 0-1.764.47-.365 2.161-1.357 2.714-1.679.938-5.672-.874-5.427 2.714-1.354-.057-2.719.072-4.072 0-1.332-.068-.896-1.208-1.354-1.355-4.972-1.611-10.148-.056-14.928-1.357-1.263-.345-2.375-5.034-5.429-2.714-.863.163-1.861-.213-2.714 0-1.113.278-.925 1.179-1.356 1.357-1.615.662-3.378.407-5.428 1.355-.77.355-1.563 2.145-2.714 2.714-4.663 2.315-9.539.143-12.214 0-3.013-.158-1.891-2.525-5.428-2.714-1.936-.102-.471-1.629-1.356-2.714-.349-.427-2.218.295-2.714 0-1.567-.936-1.624-1.381-2.715-2.714-.354-.434-2.219.313-2.713 0-3.496-2.204-5.989-6.602-9.5-6.785-3.012-.159-1.893-2.528-5.429-2.714-1.565-.082-.604-.869-1.355-1.357-5.33-3.447-13.979-2.714-21.713-2.714-13.629 0-19.976-.415-29.853 4.071-3.596 1.876-6.317-2.146-6.784-2.714-.234-.286-2.302.058-2.714 0-5.212-.745-9.347-.583-12.215-1.357-2.483-.67-4.334-2.506-6.784-2.714-3.599-.26-5.759 2.132-8.143 2.714-1.706.416-3.694-.306-5.429 0-1.751.311-1.86 1.395-4.07 1.357-2.692-.044-3.771-.871-5.428-1.357-1.16-.341-2.985.516-4.069 0-.522-.248-.679-2.509-1.356-2.714-2.066-.625-4.664.436-6.785 0-4.349-.891-1.471-2.625-5.429-2.714-3.388-.076-4.872 1.712-8.143 2.714-4.331 1.328-5.095-.77-6.785 1.357-2.447 3.08-13.173 2.719-17.641 1.355-1.938-4.584 3.42-2.563 5.428-4.07 2.04-1.528 2.205-4.232 4.071-5.429.969-.62 3.042.529 4.071 0 .391-.201-.332-2.381 0-2.714.438-.437 2.147.302 2.714 0 1.309-.7 1.738-2.188 2.714-2.714 1.326-.714 4.06.618 4.07-1.357 1.455-5.37-5.835-4.478-6.784-5.428-.452-.452.452-2.262 0-2.714-.905-.905-3.789.169-2.714-2.714-3.28-.51-5.858.66-9.5 0-2.997-.543-4.157-2.424-6.783-2.714-5.398-.598-16.299-.723-18.998 0-1.312.35-.871 2.544-1.357 2.714-2.895 1.012-9.721.063-10.854 0-5.211-.296-4.453-5.163-9.499-5.428-1.416-.074-.792-1.136-1.357-1.357-1.89-.743-5.349.792-5.428-2.714h-9.499c-6.006.211.641-3.836-2.714-5.428-6.814-.646-15.001-1.146-18.998-1.357-1.583-.083-.59-.782-1.357-1.356-1.234-.929-.461-1.079-2.714-1.356-4.468-.55-9.024.396-14.927 0-6.662 1.232-5.168-5.688-10.855-5.428h-12.213c-3.063.602-4.092-2.854-6.784-4.071-1.511-.682-3.884.611-5.429 0-.92-.364-1.19-2.326-2.714-2.714-2.819-.718-5.992.884-8.142-1.357-.007-.456-.007-.908-.007-1.361z"
          ></path>
          <path d="M977.015 253.752h8.142c.02 2.187 1.581 3.018 2.714 4.069.752.698-.22 1.273 1.357 1.357 2.095.11 2.236 2.159 2.714 4.071.347 1.385 1.033.657 1.356 1.355 1.148 2.48 2.475 7.158 5.429 9.499 1.498 1.188 3.519.223 5.428 1.357 1.177.7 1.61 3.325 2.714 4.07 2.391 1.616 7.309.633 6.785 5.429h5.428c-1.241 2.876 2.028 1.816 2.716 2.714.93 1.215.354 3.009 1.356 4.071 1.57 1.666 5.796 2.083 5.426 5.428.748 2.782-2.591 3.235-2.714 1.355-2.836-.575-3.594.932-5.428 1.357-.133 6.769 4.97 8.657 8.142 12.213 1.354 1.516 2.521 3.877 4.071 5.428 2.509 2.507 4.324 2.37 5.428 6.785.511 2.037 2.737 1.49 2.714 5.428-2.172-.38-4.641.503-6.783 0-3.03-.712-2.369-1.304-5.43-4.069-1.476-1.335-4.52-2.762-5.426-4.071-.63-.91.479-3.061 0-4.071-.28-.588-2.517-.884-2.716-1.355-.681-1.615-.485-4.964-1.356-6.785-.655-1.372-2.1-.407-2.714-1.357-1.148-1.775 1.429-5.279-1.355-5.428-2.038-.107-.556-2.705-1.356-4.071-.324-.553-2.504-.887-2.715-1.355-.319-.709.407-2.063 0-2.714-1.059-1.692-2.545-3.371-4.07-5.428-.354-.479-2.508-.923-2.714-1.357-.451-.95.64-3.257 0-4.071-1.3-1.656-3.868-3.867-5.428-5.428-3.299-3.298-6.853-6.944-10.856-10.855-1.771-1.729-4.238-2.45-5.428-4.069-.644-.878.504-3.09 0-4.071-.278-.543-4.115-.26-2.714-2.714-2.312.496-2.562-1.061-2.717-2.717z"></path>
          <path
            fill="#FFF"
            d="M223.899 275.464c.584-3.035 6.688-.55 9.499-1.357-.585 3.035-6.688.549-9.499 1.357z"
          ></path>
          <path d="M1038.077 339.24c4.249-.724 3.229 3.407 6.785 4.071 2.997.558 6.412 3.434 8.144 6.785 3.094-.379 5.102.327 5.428 2.714 2.852.514 5.197-.681 8.142 0 .688.159.843 2.454 1.357 2.714 1.813.917 4.909-.806 6.784 0 .727.313-.16 2.312 1.355 2.714 2.387.637 4.124.311 5.43 2.714-.059 4.919-7.199 2.751-9.5 5.43v6.783c-3.147 1.673-4.173-2.149-6.783-2.714-2.125-.457-4.709.618-6.785 0-.949-.28-2.055-4.654-6.785-2.714-1.475.337-.921 2.698-2.714 2.714-2.663 1.028 3.682 4.331 1.355 9.499-3.009.755-1.931-2.602-4.069-2.714-1.875-.098-2.7-4.848-4.07-6.785-1.495-2.111-5.318-2.21-4.071-5.428 3.646 1.553 1.593-3.152 2.714-4.071.285-.231 3.879-1.847 4.071-4.069.226-2.641-.467-3.855-1.355-5.43-1.322-2.336-2.438-4.157-4.07-8.142-.178-.436-1.079-.244-1.357-1.357-.218-.851.157-1.849-.006-2.714zM1080.144 407.089c.141 4.211-4.27 3.874-2.713 9.499-2.3 3.076 2.344 4.137 2.713 5.428 1.046 3.646-2.289 1.89 0 5.428.488.753 1.275-.212 1.357 1.357.113 2.18 2.82 3.874 2.714 6.785-.164 4.373-1.909 3.566-2.714 6.782-.52 2.074-.74 3.455-2.715 5.431-2.434 2.433-2.979 1.285-8.143 2.714-.938.26-2.49 2.688-2.714 2.714-.664.078-3.575-1.191-5.428-1.357-2.244-.196-4.536.152-6.785 0-3.134.247-1.835 1.914-2.714 5.43-.37 1.478-4.387 4.435-2.714 9.499-5.209 1.322-4.13-5.054-5.43-6.785-2-2.666-5.018-2.487-5.428-5.43-5.53.774-11.767-1.67-14.927 1.357-1.803 1.727-2.73.044-6.785 1.356-3.419 1.104-5.23 2.925-8.142 2.714-2.947-.214-3.975-4.314-8.144-2.714-1.013-3.531 2.438-1.743 4.07-2.716 1.172-.693 1.299-3.521 4.07-2.714 4.445-2.34 6.41-7.16 10.854-9.499 5.627-1.554 5.287 2.854 9.499 2.715 3.607 1.169 2.416-2.556 5.428-2.715 2.428-.127 2.988-2.229 5.428-4.068 3.029-2.286 9.093-4.112 10.855-9.499 1.783-1.383 5.003-1.33 6.785-2.714 1.84-.299.08-5.289 2.714-5.43 3.767-.195-1.808-5.223 4.071-5.428 1.167-3.607-2.559-2.416-2.714-5.428-.188-3.537-2.558-2.417-2.714-5.43-.073-1.387-.063-2.645-1.357-2.714-1.604-.085-.693-1.711-1.357-2.714-1.717-2.595-7.189-10.563-1.354-14.927h4.069c-1.166 3.607 2.644 1.645 4.07 2.714 2.05 1.535 3.365 6.862 8.143 5.428-1.752 5.372 4.469 2.771 2.715 8.144-.409 1.635 2.22.659 2.715 1.355.795 1.115-.94 5.627 2.722 5.432zM81.418 442.368c.654 4.274-4.165 3.072-2.714 8.145-5.659-.232-6.695 4.161-12.213 4.068-.578-2.588-3.876-2.453-2.715-6.782 1.749-1.87 5.896-1.346 9.499-1.357 3.315-.757 2.892-5.251 8.143-4.074z"></path>
          <path d="M1034.008 462.725c.807 4.113-1.129 6.193-2.715 8.143-1.209 1.486-4.457 4.08-6.783 4.07-.787-3.735-3.379-5.669-4.071-9.498 4.463-.771 8.629-6.664 13.569-2.715zM1000.084 464.08h4.069c1.476 3.953 5.542 5.313 9.499 6.785-1.951 4.574 2.728 7.563 2.714 10.855-.01 2.859-.521 3.56-1.355 5.428-.282.631-1.278-.11-1.356 1.357-.083 1.561-.058 2.426-1.355 2.714-4.207 1.574-2.16-4.043-2.715-5.429-1.014-2.529-3.638-3.136-2.715-5.43a58.025 58.025 0 00-9.499-8.142c.444-3.166 1.631-5.603 2.713-8.138zM245.611 544.143h2.715v5.428h-2.715v-5.428zM944.447 590.279c-3.542.729-2.5-1.98-5.428-2.714-3.63-.907-1.313-1.111-2.714-4.07-.279-.589-2.515-.884-2.714-1.355-.805-1.906-1.351-6.266-1.356-6.784-.007-.471.568-4.915 1.356-6.785.275-.656 2.462-.827 2.714-1.355.461-.979-.638-3.221 0-4.07.338-.452 2.306.408 2.714 0 .423-.423-.457-2.345 0-2.714 1.376-1.11 4.23-.122 4.071-2.714 2.189-.382 2.336 1.28 4.068 1.354 1.334 1.875-1.361 3.909-1.354 4.071.127 3.045 2.663 2.563 2.714 5.428.053 2.999-1.053 3.395-1.357 5.428-.262 1.747.38 3.705 0 5.43-.807 3.649-4.187 6.583-2.714 10.85zM848.104 617.419c.444 1.632-2.265.663-2.714 1.355-.625.963.583 3.078 0 4.07-.324.553-2.502.888-2.715 1.355-.312.691.418 2.094 0 2.714-1.697 2.527-3.962 5.399-6.784 6.785-7.354-1.859-12.03-10.085-5.428-14.927.864-.637 3.086.466 4.068 0 .397-.188 1.11-2.654 1.357-2.714 3.901-.948 9.164-.091 12.216 1.362zM951.232 630.988h2.714c4.181-1.015 1.654 4.678 6.785 2.715-1.752 5.37 4.466 2.771 2.714 8.144 2.756 1.767 3.241 5.806 5.428 8.142 1.499 2.772-2.361 1.956-2.714 2.714-.835 1.804 1.827 6.75-2.714 5.43.881 4.951-.915 7.228-2.714 9.499a76.66 76.66 0 0013.569 13.567c4.177 1.012 2.606-3.725 6.785-2.714 4.412 1.71 9.867 4.554 9.496 12.213-1.953 1.52-3.312 1.463-4.068-1.355-4.27 1.555-3.297-2.131-5.428-2.714-4.953-.883-7.229.914-9.5 2.714-3.83-.692-5.764-3.282-9.498-4.07-2.06-6.988-6.582-11.511-13.569-13.57 1.753-5.37-4.468-2.771-2.714-8.142-.883-1.381-3.121-1.403-2.715-4.07.539-.745-.675-3.479 0-4.069.298-.262 2.588.32 2.715 0 .732-1.871-1.758-6.701 2.714-5.43.418-6.826-1.567-16.046 2.714-19.004zM955.304 689.338h4.07c.921 3.148 3.466 4.677 5.428 6.783 1.842.422 1.125 3.397 1.355 5.43-4.271.654-3.07-4.165-8.142-2.714 1.343-5.413-4.052-4.085-2.711-9.499zM982.442 698.837h5.428v2.714h-5.428v-2.714zM994.655 698.837c3.756-.506 6.564.813 9.499 2.714.753.484-.211 1.271 1.356 1.355 1.829.096.834 2.614 1.355 4.07.701 1.952 3.505 2.209 5.43 4.071-.151 3.467-4.544 2.69-8.144 2.714 1.221-2.88-2-1.814-2.714-2.714-.934-1.179-.378-3.021-1.356-4.071-.506-.54-2.324-.792-2.715-1.356-.408-.597.269-2.025 0-2.714-.58-1.498-3.345-1.312-2.711-4.069zM970.229 705.62c3.91.163 8.883-.74 10.856 1.356-.037 1.32-1.662 1.054-2.716 1.357 1.343 5.41-4.056 4.085-2.714 9.496-1.635.514-4.167-1.56-5.429-2.714.036.032-2.789-3.208-2.714-2.714-.334-2.206 4.88-3.451 2.717-6.781zM947.16 712.406c5.451 1.43-.179 5.517 1.357 10.856-3.152.918-3.633 4.509-6.785 5.428 1.104 3.824-1.419 3.693-2.714 5.428-1.025 1.374-1.978 2.443-2.714 4.07-4.283-.663-4.792 2.445-9.499 1.357-1.726-4.915 4.681-6.493 6.785-9.499.622-.891-.666-3.221 0-4.07 2.931-3.744 10.488-7.891 13.57-13.57zM991.941 712.406h4.071c2.063 1.226.517 4.996 1.354 6.785.627 1.337 2.477 1.025 2.714 2.714.384 2.192-1.28 2.336-1.354 4.071-4.497-.303-2.84-4.979-4.071-8.145-.782-2.008-3.487-3.11-2.714-5.425zM979.729 720.549c4.806-.734 3.337 4.805 8.142 4.068 1.166 3.607-2.556 2.417-2.714 5.43-.079 1.513-1.357 5.933-5.428 5.428 1.159-4.325-1.182-5.15-2.714-6.784-.657-4.278 4.165-3.076 2.714-8.142zM1009.582 724.617c5.387 1.813 1.096 6.889 4.07 10.855.416.555 2.418.831 2.714 1.355.584 1.037-.512 2.991 0 4.071.234.495 2.591.988 2.714 1.356.881 2.643-.646 5.19 0 8.142.801 1.287 2.092 1.164 2.715 2.714.735 1.836-.556 5.694 0 8.145-4.807.731-3.336-4.809-8.143-4.071-1.955.761-3.313 2.117-4.071 4.071-.521 4.591 6.009 2.135 4.071 8.142-6.009-1.484-6.748 2.299-10.855 2.714.041-2.784-3.905-2.297-4.069-5.428-.021-.36.132-1.026 0-1.357-.233-.581-1.376-1.438-1.357-1.354-.355-1.547.673-4.008 0-5.429-.655-1.387-2.095-.399-2.714-1.356-1.313-2.031.334-6.282-4.07-6.785-5.426-.449-7.531 2.419-13.568 1.357-.755-3.009 2.602-1.933 2.714-4.071.104-1.993 1.322-3.282 2.714-5.428 5.457-.937 7.746 1.3 12.213 1.355 2.777.828 2.911-2.023 4.071-2.714 1.242-.739 3.915-.36 5.428-1.355.711-.47.131-3.972 2.714-2.714.742-4.226 1.103-8.843 2.709-12.215zM555 730.047c2.19-.384 2.336 1.281 4.069 1.355 1.453 4.879 3.988 8.677 8.145 10.855-1.012 5.53 4.373 4.673 2.713 10.854.336 1.476 2.698.92 2.714 2.714.655 4.275-4.165 3.073-2.714 8.145-6.729-1.754-6.667 3.283-12.213 2.714-.611-1.748-2.214-2.184-2.714-4.071-.334-1.265 1.354-8.391 0-9.499-1.084-.888-2.454-.979-2.715-2.714-.468-3.106-.58-8.037 0-10.854.454-2.208.396-1.435 1.357-2.716.575-.768 1.271.229 1.355-1.355.097-1.805-.07-3.623.003-5.428zM483.079 770.756v5.428c-5.225 1.069-5.225-6.496 0-5.428zM709.692 773.47h2.716c3.145-1.46 4.188 1.91 6.784 2.714 3.293 1.02 7.026.117 9.498 1.355.894.448-.313 2.271 1.356 2.716 4.881 1.303 6.646 5.281 12.214 8.142 2.157 1.108 3.757 3.761 6.782 5.428-1.121 3.835 1.912 3.518 1.356 6.785 2.104 1.612 3.299 3.969 5.429 5.428.892.609 1.958 1.896 4.069 1.357 2.777 6.722 12.152 6.847 14.928 13.568 5.412-1.344 4.086 4.058 9.499 2.715-2.086 2.965 1.939 3.854 2.714 5.428.538 1.095-.521 2.966 0 4.071.104.223 2.716 1.35 2.716 1.354.121 1.74-2.848 2.167-2.716 4.071 2.007 3.423 5.247 5.606 9.498 6.784-.499 2.309 1.062 2.561 2.718 2.715 1.936 8.918 6.338 15.37 14.925 17.64.267 2.22-.352 4.579 0 6.785.518 3.255 2.814 4.124 2.714 6.785-.167 4.37-1.909 3.567-2.714 6.784-.787 3.147-3.209 6.906-8.145 8.143-2.035.509-1.486 2.737-5.427 2.714 1.552-3.646-3.152-1.591-4.071-2.714-.855-1.049-3.094-.846-5.429-2.714.092.072-2.804-3.211-2.712-2.714-.144-.77 1.938-1.781 1.354-2.715-1.313-2.101-6.758-5.427-9.5-8.144-1.101-1.092-2.827-2.832-4.067-4.068-1.46-1.464-3.78-3.646-4.073-4.071-.628-.917.483-3.057 0-4.071-.334-.708-2.374-.763-2.712-1.354-1.06-1.854.874-4.904-2.712-4.071-.659-4.284 2.096-3.542 0-6.784-.489-.753-1.277.212-1.358-1.356-.188-3.534-2.557-2.416-2.715-5.429-.108-2.087-1.537-3.144-2.715-4.069-.664-.523-1.157-1.69-2.712-1.356.574-2.836-.93-3.594-1.357-5.428-1.349-1.364-2.651-2.777-4.069-4.071-1.191-1.088-1.544-2.964-4.072-2.714.205-2.616-.438-3.884-1.354-5.428-.325-.547-2.506-.891-2.715-1.357-.328-.726.392-2.022 0-2.714-.852-1.501-1.729-2.601-2.715-4.069-.368-.551.459-2.257 0-2.715-.32-.32-2.53.381-2.714 0-.492-1.017.63-3.145 0-4.07-.604-.894-1.922-1.965-2.712-2.714-5.414-5.128-9.918-10.544-16.284-16.282-.852-.77-1.853-2.036-2.716-2.715-.663-.522-1.159-1.689-2.713-1.356 2.149-3.758-3.188-4.418-2.714-6.785.044-.227 1.913-.07 1.356-1.355-.478-1.116-3.685-1.355-2.713-4.079zM473.58 777.541c1.102.257 1.354 1.36 2.716 1.354-.26 1.102-1.361 1.354-1.357 2.714-1.099-.257-1.353-1.359-2.714-1.354.256-1.1 1.361-1.352 1.355-2.714zM480.365 777.541c1.101.257 1.354 1.36 2.714 1.354-.257 1.102-1.36 1.354-1.355 2.714-1.099-.257-1.354-1.359-2.714-1.354.257-1.1 1.359-1.352 1.355-2.714zM472.224 782.969h2.714v2.714h-2.714v-2.714zM477.652 785.683h5.428v2.714h-5.428v-2.714zM1046.22 807.395a27.603 27.603 0 01-8.144 8.142c-1.313 2.272 2.091 2.915 2.716 5.43.287 1.163-.494 2.987 0 4.069.613 1.348 2.481 1.021 2.714 2.716-.539.742.673 3.479 0 4.068-.354.313-2.513-.386-2.714 0-1.047 1.981.296 4.24-1.356 5.429-4.387-1.041-7.103-3.755-8.143-8.143 1.959-1.659 2.06-5.179 4.069-6.785.747-3.009-2.592-1.932-2.714-4.069 1.229-4.197 3.382-7.475 5.428-10.854 2.717-.003 5.431-.003 8.144-.003zM793.823 814.179h2.714v2.714h-2.714v-2.714zM1009.582 816.893c1.496 2.771-2.362 1.956-2.715 2.714-.686 1.479.728 3.974 0 5.429-.44.89-2.271-.307-2.714 1.356-.672 2.521-.235 2.094-2.714 2.714-2.532.634-5.595 5.326-9.499 5.428 1.048-3.554-2.486-1.715-4.071-2.714-1.144-.72-1.168-1.979-2.714-2.714-1.61-.769-2.633-.74-4.069-1.354-1.547-.663-3.002-2.304-6.784-1.357.052-.014-3.978 1.24-4.071 1.357-1.542 1.884-3.224-.005-5.428 1.354-.6.37-2.357 2.168-2.714 2.714-.498.766-1.005-.05-1.356 1.357-.614 2.454.536 4.448-2.714 4.068 1.319 5.467 5.929 7.644 9.498 10.856 2.322.783 3.41-1.943 5.429-2.715 1.187-.451 2.887.454 4.07 0 4.299-1.645 9.614-4.835 13.569-1.356.165 3.548-3.641 1.834-5.43 2.714-1.021.505-1.039 4.114-5.428 2.714-1.218 2.854-2.108 6.033-4.07 8.144-.075 2.579 1.705 2.501 2.716 4.071 1.037 1.614.178 4.048 2.714 4.068-.115 1.927-.227 3.845 1.354 4.071v14.927c-2.768.875-2.925-2.085-4.068-2.714-1.645-.901-3.909-.24-5.43-1.356-.776-.572-.08-3.89-2.715-2.715.289-3.083.148-5.815-1.355-8.142-.486-.753-1.273.212-1.356-1.356-.115-2.185-1.185-3.057-2.714-5.429a58.05 58.05 0 00-8.144 9.499c-.562 4.31 4.03 2.88 2.716 8.143-.104.411-1.31 1.938-1.356 1.356.193 2.253 4.54 3.714 2.714 9.499-2.935 1.137-4.629 3.513-9.499 2.714-.601-1.209-1.19-2.428-2.714-2.714-1.485-6.008 2.299-6.748 2.714-10.855.5-2.31-1.058-2.561-2.714-2.715.5-2.307-1.059-2.559-2.714-2.714.379-3.093-.327-5.101-2.714-5.428.577-2.588 3.876-2.455 2.714-6.785 4.392 1.679 1.036-4.39 5.428-2.714.313-2.403-1.367-6.795 2.714-5.428-1.14-5.536 1.52-9.158 0-14.928-.09-.345-1.292-.115-1.354-1.355-.104-1.912 4.746-3.916 2.714-9.499 2.883 1.073 1.809-1.81 2.714-2.714.451-.452 2.262.452 2.714 0 .438-.438-.459-2.307 0-2.714 1-.892 3.046-.572 4.07-1.357.963-.735.915-2.789 2.714-2.714 4.624 1.535 11.51.344 16.284 1.356 3.09.656 4.111 2.716 6.783 2.715 3.3 2.022 3.862-2.006 5.43-2.715 2.584-1.17 7.287.13 8.142-4.07 1.805.003 3.614.003 5.423.003zM1059.791 868.456c1.614 3.993-3.459 2.212-5.43 2.716-5.184 1.32-11.279 1.564-16.284-1.357v-4.071c3.314-2.637 11.714-1.664 13.569 1.357 2.386.78 7.973-1.64 8.145 1.355zM907.81 922.736c.32 7.521-10.291 5.884-13.569 2.714-10.108-1.834-19.991.287-28.497-1.355-2.785-.539-3.254-1.521-5.428-2.714-.496-.272-2.373.416-2.714 0-.208-.255-1.152-2.63-1.356-2.716-1.938-.799-4.783.652-6.785 0-1.025-.334-1.405-3.798-4.068-2.714-5.414-1.342-4.087 4.059-9.499 2.714-3.304 1.842-5.366-1.896-8.144-2.714-3.663-1.077-7.813-.308-10.854-1.354-.653-.229-1.65-2.185-2.714-2.714-1.603-.803-2.789-.377-4.07-1.357-.958-.995 2.908-6.651 5.428-6.785 1.39-.07 2.646-.061 2.715-1.354.075-1.467 12.862-3.701 12.214 1.354h9.497c-.364 3.703 3.572 1.474 5.43 2.714.438.295-.414 2.376 0 2.717 1.125.921 3.152.281 4.07 1.354 4.311-1.188 8.729-.241 13.567-1.354 3.492-.807 5.151-3.056 8.144-2.717 3.591.407 2.278 1.929 5.429 2.717 2.884.721 6.171 3.005 8.142 6.782h8.144c1.615 3.526 6.916 3.604 10.854 5.43.534.248.158 1.058 1.357 1.355.843.209 1.844-.166 2.707-.003zM981.086 928.162c-.188 3.884-5.659 2.482-9.498 2.716-4.108.416-4.851 4.196-10.855 2.714-.006-2.334-1.596-2.824-2.714-4.071-1.079-1.203-2.972-1.535-2.714-4.07 4.025-1.24 7.977-5.24 12.212 0 3.831.559 5.383-.803 8.143 0-.82-.239 1.476 5.238 5.426 2.711zM941.733 930.878c-2.218.267-4.579-.354-6.784 0-3.389.538-4.151 2.831-6.785 2.714-2.896-.13-3.89-3.234-8.142-2.714-.647-8.133 22.361-8.133 21.711 0zM994.655 945.805h-6.784c-4.203-4.882 6.618-3.43 4.07-10.855 4.714.476 5.152-6.898 9.499-2.714-2.142-6.213 5.633-2.509 5.428-6.785 4.134.594 9.009-.81 12.214 0 .262.066-.267 2.602 0 2.714 1.159.507 9.089-1.449 6.783 2.716h-9.498c-1.771 2.75-7.185 1.861-8.143 5.428-3.702.987-2.73-2.696-5.428-2.714-.754-.004-1.54 1.099 0 1.355v4.07c-2.528 1.607-4.104 1.047-5.429 2.714-1.087 1.37-2.727 1.643-2.712 4.071zM958.018 945.805h-1.357c-.549-1.842-1.76-2.592-4.068-2.714-1.511-.08-.675-1.014-1.357-1.357-1.749-.885-6.478-.852-5.428-4.07 6.238-.896 8.887 1.039 10.854 2.716 2.484 2.111 3.317 3.574 1.356 5.425z"></path>
          <path d="M1210.412 138.41c-4.324-1.159-5.148 1.182-6.783 2.714-3.029-1.58-8.69 2.165-10.854 0-.33-.329.387-2.521 0-2.714-1.663-.838-5.644-.689-8.144-1.356-.354-.094-.108-1.291-1.356-1.357-1.805-.095-3.623.073-5.428 0-.761-1.953-2.115-3.312-4.071-4.069-2.32-.062-3.516 1.008-4.07 2.714-1.857-2.665-8.182-.864-8.143-5.428-2.196-.326-4.608.431-6.784 0-3.972-.786-6.697-5.077-10.854-1.357-3.618 4.607 5.909 5.14 5.428 10.855-4.952.881-7.229-.914-9.499-2.716-4.952-.881-7.229.915-9.499 2.716.021 4.773 6.59 3.196 9.499 4.069.242.071-.241 2.646 0 2.714 2.099.584 4.646-.441 6.785 0 .228 3.051 4.251 2.456 6.784 4.071.373.237 1.364 1.361 1.355 1.357 3.245 1.382 8.267.207 9.499 4.069 4.748-1.397 6.504 1.333 9.498 2.716 1.219.561 2.703-.326 2.714 1.354 1.777 5.85-6.461 1.682-5.428 6.785-3.479-3.309-6.578-3.053-10.854-2.714-3.522.277-6.683 4.619-12.213 4.069-2.466 1.592-1.546 4.366-2.715 6.785-.633 1.313-4.688 2.188-2.714 5.43-2.515-.132-4.017.342-5.428 1.355-.59.424-2.193 4-2.714 4.071-1.642.22-1.862-2.255-2.714-2.714-.664-.358-1.973.185-2.714 0-1.947-.486-4.308-3.541-8.145-4.071-2.891.504-5.646 1.495-8.142 2.714-.575.281-.122 1.048-1.356 1.357-2.17.542-3.629.552-4.07 2.714-2.188.348-4.621-.461-6.783 0-1.584.338-1.768 2.339-2.715 2.714-1.522.602-3.972-.725-5.43 0-2.644 1.313-4.213 3.146-5.426 5.428-.41 1.635 2.218.659 2.712 1.357.786 1.108-.947 5.625 2.714 5.428 1.219 2.854 2.108 6.032 4.071 8.142h6.785c-.675 3.601 4.024 1.646 5.428 2.716.771.587.604 3.353 1.356 4.069 2.656 2.528 6.371 1.287 8.143 4.071.368 1.706-.479 3.754 0 5.428.592 2.071 4.665 2.041 2.713 6.785-.001 2.397 2.857 2.377 4.071 4.071.649.905-.605 3.131 0 4.071.364.563 3.385-.329 2.714 1.355.498 4.117-4.421 2.817-6.785 4.071.786 6.864 5.745 9.021 2.715 16.283-.054 5.933 4.938 6.82 4.07 13.568-3.771-1.121-4.979 2.84-8.143 2.714-4.188-.166-9.141-5.438-9.498-10.854-4.334-1.583-5.927-5.213-9.498-8.144-.769-.627.228-1.271-1.357-1.355-4.758-.25-5.048-4.648-9.499-6.785-1.604-.771-2.827-.346-4.07-1.356-1.008-.819-2.681-2.682-4.069-4.07-1.443-1.443-3.158-3.007-4.07-4.071-1-1.165-.441-2.627-1.357-4.071-1.207-1.901-2.509-3.863-4.069-5.428-2.475-2.473-4.307-2.299-5.429-6.785-.666-2.663-2.988-1.137-4.069-2.714-1.068-1.556 1.129-5.436-2.714-5.428 1.888-4.896 3.883-9.688 6.784-13.569V191.33c-1.362-2.846 2.185-1.86 2.714-2.714.37-.6-.176-2.019 0-2.716.358-1.438 3.523-4.604 4.069-8.142-.636-.947-.888-1.541-1.355-2.714-.193-.483.374-2.408 0-2.714-1.086-.891-2.611.578-2.714-1.357-.119-2.266-.515-1.52-1.356-2.714-2.083-2.948-4.547-5.362-6.785-8.142-2.131.583-1.159 4.268-5.428 2.714-.479 1.781-2.39 2.135-2.714 4.069-.747 3.011 2.592 1.934 2.714 4.071-.092 3.979-3.104 5.04-5.428 6.785-3.833 1.866-5.364-3.087-6.785-4.071-1.69-1.17-6.125-.437-5.428-4.069h-6.785c-4.021-.956-5.907-4.043-12.212-2.716-1.024 1.045-5.582 2.807-5.43 5.43.022.374 1.709 1.296 1.356 2.714-.077.313-1.292.142-1.356 1.355-.072 1.416-2.927 7.4-1.355 12.215.335 1.025 3.797 1.405 2.714 4.069-1.574 1.14-3.639 1.791-6.785 1.357-1.379.676-1.043 2.254-2.714 2.714-1.327.367-4.058.203-5.428 0-3.077-.455-2.317-1.672-4.07-2.714-1.811-1.076-4.938.885-4.07-2.714-5.782 2.389-7.416-4.252-13.568-2.714-1.797.447-2.148 2.299-4.071 2.714-2.104.455-4.737-.653-6.785 0-1.435.458-.95 2.604-2.714 2.714-3.563-.371-7.307.494-10.854 0-2.642-.367-3.541-2.242-5.43-2.714-4.362-1.093-11.721-.128-14.927 1.355-.534.248-.157 1.06-1.355 1.357-.729.183-2.068-.363-2.716 0-4.607 2.595-6.439 8.176-12.211 9.499-.354 1.71.465 3.748 0 5.428-.272.984-2.676 2.428-2.715 2.714-.438 3.15 3.104 4.903 0 8.144-1.624 1.692.34 3.173-1.356 6.783-.3.639-2.466.833-2.714 1.357-.492 1.042.615 3.107 0 4.071-1.049 1.639-4.305 1.792-4.07 4.069-1.416 3.729 4.078 1.064 5.429 2.715.146.179-.188 1.253 0 1.356.635.354 5.344 1.124 5.429 2.714.197 3.769 5.223-1.807 5.429 4.071 5.148-1.317 9.753 1.723 13.567 1.355 4.321-.414 6.712-2.937 10.855-4.069 4.063-1.245 4.029 2.022 6.784 2.714 2.006.501 4.694 1.771 6.784 4.071.408.447-.459 2.337 0 2.714.838.684 3.009-.425 2.716 1.355-.063 2.03 2.84.571 4.068 1.357 2.657 1.696 3.493 7.143 8.145 6.785v5.428c3.646-1.553 1.591 3.152 2.714 4.071.418.343 4.002 1.4 2.714 5.428 2.938 2.94 7.396 4.364 10.854 6.785 2.03.808.077 2.947 0 2.714.995 2.987 4.054 2.944 2.713 10.854.337 1.476 2.698.921 2.716 2.714 1.674 8.458-4.39 9.184-2.716 17.643-.745 3.008 2.593 1.932 2.716 4.07-.425 2.148.56 4.672 0 6.784-.474 1.781-2.201 2.188-2.716 4.071-.563 2.067-.948 4.781-1.355 6.785.047-.229-2.281.616-1.355 1.356.822.656 1.45 1.163 1.355 2.716-4.114-.043-1.313 6.824-5.428 6.782v6.785c-2.885-1.072-1.811 1.811-2.714 2.714-.905.905-3.637-.017-2.716 2.715-7.328 2.522-14.479-.063-20.354-2.715-2.369 1.249-2.995 4.242-2.714 8.144-4.918.962-4.236 7.522-8.144 9.499-.259 5.688 6.66 4.192 5.43 10.854-2.896-.633-2.584 1.939-2.715 4.071-4.911.966-7.026 4.733-12.214 5.428.476 5.858 3.643 9.024 9.499 9.499 1.1.99 1.573 3.184 2.715 4.071 1.754 1.366 4.192 2.46 6.784 4.071.736.457-.023 1.011 1.356 1.355 3.163.79 4.849 2.977 8.142 5.429 1.232.918.892 2.104 2.716 2.715-.687-.229.761-1.478 1.355-1.357-.019-.004.354 2.167 1.357 1.357-2.012 3.274 1.933 3.704 2.714 5.428.932 2.058.721 3.814 1.354 5.428 1.027 2.604 4.361 5.526 2.715 10.856-3.455-.893-5.006 1.787-6.783 2.714-2.162 1.125-3.763 1.069-5.431 2.714-.099-2.775-3.116.81-4.068 1.355-.497.284-2.369-.422-2.716 0-.932 1.14.037 3.456-2.714 2.715 1.671-4.031-2.57-4.069-2.714-6.784-.119-2.25-.838-1.524-1.355-2.714-1.866-4.272-1.779-8.675-4.07-12.214-.487-.753-1.275.212-1.355-1.356-.291-5.537-8.547-8.259-10.855-13.57-6.384-1.305-14.651-.728-16.284-6.784-.747-3.009 2.591-1.933 2.714-4.07.003-3.254-3.521-6.05-6.783-8.144-.494-.315-2.356.437-2.714 0-.254-.309-1.077-2.577-1.356-2.714-1.104-.537-2.94.485-4.07 0-.614-.262.13-1.352-1.355-1.355-1.619-.006-3.937.615-5.43 1.355-2.404 1.194-3.669 3.336-6.784 5.429-1.359.913-3.286-.023-2.715 2.715-1.03-.949-4.293-2.359-5.428-4.071-.623-.939.487-3.042 0-4.071-.146-.308-2.691-1.227-2.714-1.355-.163-1.015 2.38-3.215 1.355-5.43-1.474-3.952-5.543-5.313-9.498-6.784-1.125 1.469-2.852 2.738-4.07 4.07-3.201 3.496-6.602 7.057-8.143 12.213-1.386.641-4.173-.833-5.429 0-.437.289.412 2.376 0 2.715-.813.666-6.719-.209-6.785 4.07-.42 1.984 1.665 4.23 2.714 5.429 2.62 2.987 4.849 3.347 9.5 5.429.631.281-.109 1.279 1.356 1.355 1.562.082 2.428.06 2.714 1.357 2.813 1.54 5.438 1.365 8.143 4.071 3.022 3.021 2.963-5.116 9.498-5.43 2.693-.127 2.771-.379 6.784 2.715 5.56-.583 8.693 1.259 12.214 2.715 1.68 5.204-6.607 2.072-6.785 5.428-.092 1.744-1.806.513-2.715 1.356-.456.426.444 2.271 0 2.715-.461.464-2.189-.412-2.713 0-5.548 4.396-5.51 4.088-8.143 12.213-.148.459-1.287.022-1.357 1.354-.068 1.354.06 2.718 0 4.071 2.489 2.938 5.289 5.565 10.856 5.428 1.819.835.446 3.559 1.355 5.429.298.608 2.488.856 2.714 1.356.334.741-.367 1.99 0 2.714.813 1.596 1.834 2.438 2.715 4.07 1.294 2.395 2.496 7.157 5.429 9.499 1.244.994 2.422.532 4.069 1.354 2.278 1.144 4.855 6.185 9.5 5.431-1.451 5.067 3.367 3.864 2.714 8.142-1.207 1.055-3.063 1.459-5.429 1.356.5 2.309-1.06 2.561-2.714 2.714.771 4.96 4.752 2.884 9.498 4.07 2.036.511 1.489 2.736 5.429 2.714 1.854 4.735-1.916 6.521-2.715 9.5-.32 1.206 1.323 6.815 0 8.142-.23.233-2.646-.263-2.714 0-.967 3.685.129 7.54-1.355 10.854.049-.107-2.328.581-1.357 1.356 3.138 2.508-.464 2.203-1.354 5.428-.84 3.026.895 5.792-1.357 8.144-1.6 1.67.388 4.233-1.355 8.142-.345.771-2.297-.196-2.713 1.357-.228.844.172 1.854 0 2.714-4.007 1.875-5.494 6.267-9.5 8.142 1.517 3.13-1.189 3.485-2.714 5.43-.803 1.021-1.692 3.352-2.715 4.069-.896.633-3.067-.475-4.069 0-.525.249-.953 2.568-1.356 2.714-2.853 1.029-7.854.739-10.856 1.356-1.772 2.75-7.182 1.863-8.142 5.428-1.531.558-3.979-.723-5.428 0-.285.146-1.255 2.698-1.356 2.715-1.684.251-4.479-5.393-5.429 0-1.475-.336-.919-2.696-2.714-2.715-3.606-1.166-2.417 2.558-5.429 2.715-3.534.188-2.415 2.557-5.429 2.716-3.618.188-5.499 3.791-8.142 6.782-.946 1.073-3.261 1.585-4.071 2.716-1.133 1.575.931 5.112-2.714 4.069-1.205-2.413-3.787-3.449-2.714-8.142-1.092-4.336-6.979-3.88-9.499-6.785-2.668-1.091-3.055 2.371-4.071 2.714-1.599.539-3.868-.635-5.427 0-1.537.626-.325 2.048-1.357 2.714-.96.622-3.101-.604-4.068 0-1.898 1.188-2.933 3.564-5.43 5.429-1 .632-1.832 2.021-2.715 2.715-.663.521-1.158 1.689-2.712 1.355-.356 1.711.463 3.747 0 5.428-.81 2.923-3.635 1.908-1.356 5.43.485.753 1.272-.212 1.356 1.355.058 1.121 1.251 2.219 1.355 4.07.138 2.427 1.518 4.922 2.713 6.785.481.751 1.275-.209 1.356 1.355.102 1.884 2.186 3.776 4.071 5.43.861.754 1.85 2.043 2.712 2.714.769.598-.228 1.271 1.356 1.354 2.865.151 9.371 6.655 12.214 9.499 1.562 1.563 1.9 2.183 2.715 5.429.371 1.483 2.618.916 2.714 2.715.017.313-.146 1.08 0 1.355.511.98 2.476 2.116 2.714 2.715.453 1.132-.549 2.988 0 4.069.521 1.028 2.054 1.279 2.714 2.714.229.49-.393 2.395 0 2.714.163.135 1.271-.173 1.356 0 .753 1.525-.465 4.146 2.714 4.071v9.499c-.445 2.931 2.189 2.034 2.714 4.07.964 3.752-.042 9.379-1.354 12.213-.248.535-1.06.158-1.357 1.356-.64 2.559-1.771 2.6-2.714 5.429.229-.688 1.477.761 1.356 1.354.004-.019-2.167.353-1.356 1.357-3.266-2.079-3.903 2.07-5.428 2.714-2.06.868-4.761.375-6.785 1.354-1.653.806-2.538 4.409-5.427 2.717-.64.945-.892 1.541-1.357 2.714-.192.48.375 2.406 0 2.714-.085.067-3.888.416-2.714 1.354 1.495 1.197.229.735 0 2.715-2.589.577-2.456 3.878-6.784 2.715 1.676 4.392-4.392 1.035-2.716 5.428-2.323-1.743-5.335-2.808-5.427-6.784-.144-4.212 4.271-3.872 2.713-9.499-.44-3.177-5.919-1.316-6.784-4.071-2.588.579-2.455 3.879-6.784 2.716-1.055-1.207-1.459-3.063-1.354-5.43-.544-1.438-2.923-.478-4.071-1.354-.456-.35.414-2.302 0-2.714-.345-.347-2.494.4-2.714 0-.472-.861.653-3.37 0-4.071-1.873-2.006-4.728-3.759-6.785-5.428-1.752-1.422-5.662-2.267-5.428-5.43-5.979 1.415-8.315-6.895-12.212-9.498-1.737-1.159-5.183-.043-6.786-2.713-3.858 1.151-4.181 4.252-4.07 8.142.113 4.078 2.551 5.393 2.712 8.143-.245 2.805.962 6.302-1.354 8.144-1.841 1.464-.745 3.5-1.355 8.142-.449 3.411-2.496 4.926-2.714 8.143-1.455 2.801 2.306 1.92 2.714 2.715.521 1.016-.63 3.133 0 4.069 1.006 1.497 2.773 1.533 4.07 2.715.877.796.006 3.72 2.714 2.714-1.766 7.193 3.931 6.925 2.715 13.568 1.016.746 1.813 1.87 2.712 2.714 1.367 1.275 1.556 3.933 5.432 2.715 3.212 5.396 9.187 9.07 14.926 13.569 1.633 1.278 4.342 2.366 5.429 4.07.614.967-.495 3.027 0 4.07.445.938 4.448 1.912 2.714 6.784-.589 1.587 2.442.721 2.714 1.356.646 1.519-.441 3.827 0 5.428.387 1.394 2.446 1.919 2.716 2.714.55 1.63-.5 3.781 0 5.429.198.654 2.604 2.274 2.714 2.715.137.542-1.357 2.624-1.357 4.07 0 3.521 3.232 3.663 2.714 6.784-5.311-2.145-2.809 3.523-5.429 4.07-4.197.526-1.813-3.167-5.427-4.07-2.896-.723-6.488-3.312-8.144-6.784-1.781-1.385-5.003-1.33-6.785-2.715-1.394-4.938-4.745-7.919-5.427-13.567.409-1.639-2.221-.659-2.715-1.357-.786-1.109.947-5.624-2.715-5.428v-8.143c-.334-1.475-2.697-.922-2.712-2.715-.313-2.202.41-4.602 0-6.784-.239-1.264-2.617-2.178-2.715-2.714-.17-.934 1.857-1.554 1.355-2.715-1.039-2.395-3.119-4.585-5.429-6.784-.748-.712.218-1.272-1.358-1.355-2.684-.142-2.22-3.473-5.426-4.071-.593-.11-2.258.354-2.715 0-.443-.342.437-2.356 0-2.714-1.141-.933-3.455.037-2.714-2.714-2.837.575-3.596-.932-5.429-1.355-1.966-4.711 2.062-6.556 2.717-9.499.528-2.392-1.521-6.132 1.354-8.143 1.011-4.179-3.726-2.607-2.714-6.785-.063-4.132 2.867-5.275 4.07-8.142.345-8.033.748-16.127-5.429-17.643-.096-3.255-.623-5.958-2.715-8.142-1.753-1.832.109-2.816-1.354-6.785-.541-1.462-2.23-.432-2.714-1.356-.721-1.375.418-3.915 0-5.429-.387-1.387-2.449-1.923-2.716-2.714-.529-1.581.667-3.909 0-5.428-2.043-4.654-5.197-8.649-8.143-12.213-7.748 1.75-8.534 10.464-16.283 12.213-.415-3.765-4.975-1.979-6.784-4.07-1.461-1.687 1.26-5.896-2.715-5.429-.655-4.273 4.165-3.072 2.715-8.143-4.04-9.981-9.648-18.396-13.568-28.496-2.355 1.047-3.279-.989-4.071-1.356-1.17-.541-2.562-.652-4.07-1.355-1.842-.855-3.28-3.66-6.784-2.715 1.719-3.523-1.586-3.455-2.714-5.428-.433-.754.628-3.52 0-4.07-.351-.309-2.517.383-2.715 0-.918-1.77-.146-5.104-1.355-6.784-1.086-1.506-2.695-5.284-5.43-5.43-2.272-.12-2.585-.584-2.714-2.714-2.712-.406-3.233 1.509-5.428 2.714-.497.273-2.374-.416-2.712 0-.226.272-1.129 2.615-1.357 2.714-1.527.668-3.857-.568-5.428 0-1.411.516-.971 2.563-2.716 2.716-4.966-.202-8.557-.338-12.212 1.355-.533.248-.159 1.059-1.356 1.357-2.07.517-5.072.33-6.786 2.714-1.133 1.575.932 5.112-2.712 4.069.881 1.38 3.118 1.402 2.712 4.07v5.429c-2.354-1.048-3.276.99-4.068 1.355-1.17.543-2.563.655-4.071 1.356-1.842.856-3.281 3.658-6.785 2.714-.602 1.207-1.189 2.428-2.714 2.715-.655 4.32-4.271 5.679-4.069 10.854-2.358-1.048-3.279.991-4.07 1.357-.586.271-5.351 1.185-5.43 2.714-.094 1.765-3.799 2.229-5.429 4.07.985 4.149-2.34 3.991-1.356 8.143-1.688-.028-1.797 2.014-2.715 2.714-1.149.881-2.688.466-4.07 1.356-1.27.818-1.688 1.931-2.714 2.714-1.068.818-2.854.47-4.07 1.356-1.764 1.288-3.215 3.32-5.427 5.429-1.765 1.678-4.758 2.771-5.431 5.428-1.938 3.466 1.83 4.783 2.715 8.143.771 2.928.784 5.854 1.357 8.144.486 1.948-.783 12.034-2.715 13.568-.584.468-1.717-.02-1.357 1.356-.48 8.018 1.246 16.098-1.354 21.711-.247.534-1.059.159-1.357 1.357-.178.711.368 2.094 0 2.714-.249.418-2.352-.362-2.714 0-1 .999-.502 4.367-1.356 5.428-1.577 1.956-4.104 2.979-5.428 4.07.373 5.803-3.938 6.918-6.785 9.499-4.509-1.823-8.854-3.813-13.569-5.429-.284-2.214.375-4.589 0-6.784-.456-2.669-2.178-3.159-2.715-5.43-1.021-4.316 2.186-3.407 0-6.784-.485-.75-1.273.214-1.355-1.355-.074-1.388-.062-2.646-1.357-2.714-3.653-.192 1.015-5.23-2.714-5.428-1.604-.084-.693-1.712-1.356-2.715-.577-.872-2.399-2.09-2.715-2.715-.831-1.653-.372-4.265-1.356-6.784-.581-1.484-1.797-2.704-2.714-4.07-.913-1.36.022-3.286-2.714-2.714 1.22-4.365-1.015-6.524-2.715-9.498-.984-1.727-.218-3.967-2.714-4.071 1.354-3.916.817-2.979-1.356-6.785-.284-.497.42-2.368 0-2.714-2.061-1.684-2.441-2.813-4.07-6.783-.179-.435-1.079-.244-1.356-1.356-.192-.769.346-2.014 0-2.714-.3-.605-2.489-.858-2.715-1.357-.959-2.128.121-3.942-1.356-6.784-.309-.591-2.493-.863-2.714-1.355-.651-1.444.854-5.396-2.714-5.429v-8.143c-.735-1.34-2.177-1.094-2.714-2.714-.988-2.978.928-5.757-1.357-8.143-1.273-1.331-1.188-2.677-1.356-6.784-.194-4.777 4.658-6.544 2.715-13.569-.386-1.391-2.445-1.919-2.715-2.714-.94-2.786.899-6.65-2.714-8.144-5.659.04-6.106 5.28-4.071 9.499-2.393 1.229-4.201 3.035-5.428 5.429-2.547-1.396-8.896 1.959-10.855 0-.333-.332.391-2.514 0-2.714-2.657-1.363-4.299-.229-6.785-2.715-1.872-1.871-4.027-5.432-5.428-9.499 3.099-.988 6.854.048 9.498-4.069.709-1.895-.907-2.021-1.356-2.714a108.58 108.58 0 01-1.356-2.714c-2.715-.628-2.788 3.654-5.428 2.714-5.048-1.801-7.203-4.643-10.855-9.499-5.413 1.341-4.086-4.057-9.499-2.715-2.5-.692.623-3.571 0-4.07-.438-.349-3.99-1.399-2.714-5.428-5.087-3.055-10.414-5.87-16.284-8.144-3.009-.755-1.932 2.604-4.071 2.714-1.992.106-3.283 1.322-5.428 2.715-3.459-.438-6.57.594-9.499 0-2.571-.521-3.465-2.405-5.428-2.715-4.374-.688-9 1.462-13.57-1.354-2.854 1.216-6.032 2.107-8.142 4.069-5.409.435-10.026.075-12.215-2.715-3.978-.265-7.021.364-9.499 0-3.806-.561-5.751-4.235-10.854-2.714-2.242-7.71-8.236-11.667-13.57-16.283-2.912-1.519-4.515 1.994-6.785 2.715-1.226.389-2.811-.273-4.069 0-1.708.37-8.044 2.312-13.57 1.355.188.032-.728-1.199-1.357-1.355-2.636-.658-2.591-1.405-5.428-2.715-.492-.227-2.393.394-2.714 0-.145-.178.188-1.253 0-1.355-2.173-1.207-6.904-1.052-5.428-4.07-5.288.313-7.036-2.916-10.856-4.071-1.817-.835-.447-3.558-1.355-5.428-.296-.608-2.489-.855-2.714-1.355-.896-1.983-.521-3.337-1.357-5.43-.629-1.572-3.285-2.362-2.714-6.782-1.606-2.016-5.126-2.111-6.785-4.071-.672-1.394-2.75-.535-4.071-1.357-1.213-.755-1.12-2.377-2.714-2.714-5.953 1.947-11.282 4.788-12.213 10.856-.545 3.554 3.256 2.718 2.714 5.428-.021.107-2.06.201-1.355 1.355 1.315 2.163 4.272 3.041 5.428 4.07-1.304 5.258 4.574 6.688 6.785 9.499.573.729-.686 3.469 0 4.07.371.327 2.483-.401 2.714 0 .956 1.678-2.274 6.627 2.714 5.428.321 2.604-.427 6.101 0 8.143.302 1.446 1.942 2.722 2.714 4.07.985 1.726.218 3.968 2.714 4.071 3.366.2 6.584.253 6.785-2.714 3.252.538-.753-6.183 4.071-4.071 4.924-1.306 1.14 6.1 5.428 5.428-1.123 4.87 3.062 6.565 0 9.499 3.638 3.861 12.426 6.411 16.284 2.714 1.193-1.144 8.476-.442 9.499-2.714.287-.638-.429-2.184 0-2.714.37-.457 2.291.423 2.714 0 .449-.449-.455-2.271 0-2.714.46-.449 2.259.454 2.713 0 .413-.412-.455-2.365 0-2.714 1.198-.916 3.098-.286 4.071-1.357-.221-1.577.299-2.414 1.355-2.714 2.538-1.983 1.603-7.442 6.785-6.784-.461 2.725.277 4.245 2.714 4.07 1.013 4.177-3.725 2.608-2.714 6.785-1.011 4.177 3.727 2.607 2.714 6.784.864 1.47 2.643 1.788 4.071 2.714 2.285 1.48 4.149 2.435 8.142 4.071.436.178.243 1.077 1.357 1.355.852.213 1.85-.163 2.714 0 1.875 4.004 6.269 5.494 8.144 9.498 3.482-1.21 3.864 1.437 5.428 2.714 1.645 1.352 2.356 2.646 4.071 4.071.852 7.554-6.595 10.663-10.855 14.927-1.484 1.484-3.537 3.323-4.071 4.07-1.014 1.417 1.093 4.071-1.355 4.071-1.282 0-1.102 1.687-1.357 2.714-.293 1.174-2.614 2.215-2.714 2.714-.147.745.997 1.934 1.357 1.355-1.064 1.704-2.326 2.326-4.071 4.07-1.301 1.302-3.593 3.272-4.071 4.071-1.188 1.981.017 3.891-1.355 5.428-1.055 1.181-2.951 1.594-4.071 2.714-1.044 1.044-1.582 3.171-2.714 4.071-1.822 1.447-4.661 1.187-6.785 2.714-1.857 1.335-1.206 3.672-4.071 4.07-11.18-1.682-13.791 5.206-21.711 6.783.222 1.578-.3 2.414-1.355 2.716-2.512.203-.833 4.595-2.715 5.428-3.313.756-2.893 5.25-8.143 4.07 1.676 4.391-4.391 1.036-2.714 5.429-3.093-.379-5.101.325-5.428 2.714-3.032-.43-6.664.461-9.499 1.355-1.413.446-1.852 2.371-2.714 2.716-1.562.614-3.881-.644-5.43 0-.809.335-1.521 2.116-2.714 2.714-1.582.791-2.656.702-4.07 1.354-.531.245-.16 1.06-1.356 1.357-1.937.481-3.612.432-5.428 1.356-1.216.617-1.459 1.935-2.715 2.713-1.39.863-2.782.623-4.07 1.356-.687.39-.024 1.024-1.357 1.356-.743.186-2.049-.357-2.714 0-1.2.646-.942 2.171-2.714 2.714-3.403 1.043-7.848-1.65-10.856 1.355-.08.081.08 1.351 0 1.356-1.81.196-4.96-2.957-6.783-1.356-.987-1.439-1.719-2.586-2.716-4.069-.367-.552.458-2.256 0-2.716-.34-.339-2.501.399-2.714 0-.858-1.612-.438-4.776-1.355-6.782-.753-1.646-2.219-2.229-2.714-4.071-1.296-4.813 2.131-11.173-2.715-14.927-.488-3.917.672-6.6 0-9.499-1.448-6.272-8.298-9.502-12.213-13.569 2.025-3.298-2.006-3.862-2.714-5.428-1.031-2.28-.243-3.678-1.355-5.428-2.667-4.189-6.443-8.462-12.213-9.5 1.67-4.03-2.571-4.068-2.716-6.784-.099-1.879-2.014-.329-2.714-1.356-.627-.92.481-3.055 0-4.071-.271-.571-2.526-.897-2.714-1.354-.628-1.545.447-3.813 0-5.428-.289-1.045-2.654-2.354-2.714-2.714-.163-.983 1.788-2.218 1.357-4.071-.616-2.645-3.697-5.749-2.716-9.499.409-1.635-2.22-.657-2.714-1.356-.396-.56.46-2.219 0-2.714-.426-.459-2.27.445-2.714 0-.452-.453.453-2.264 0-2.714-1.621-1.616-3.95-3.931-6.785-4.071-.307-1.262.385-2.832 0-4.069-.542-1.75-1.922-.238-2.714-1.356-.432-.611.391-2.071 0-2.714-2.355-3.882-5.938-6.796-9.499-9.499.657-6.69-6.871-8.384-9.499-12.213-.515-.75.665-3.486 0-4.07-.343-.301-2.524.375-2.714 0-.453-.903 1.816-6.482-2.714-5.428v-8.144c-1.185-2.453-1.771-1.646-2.714-5.429-.325-1.303-1.644-3.114-2.714-5.428-.248-.534-1.059-.159-1.357-1.356-.667-2.668-2.389-5.731-4.071-9.498-.225-.506-1.063-.186-1.355-1.356-.75-2.998-1.358-2.554-1.357-6.784-.934-3.647 2.807-2.624 4.071-4.071.756-5.068 1.298-11.787 2.714-16.281.616-1.956.204-2.829 2.714-2.716.114-5.116-.013-9.441 1.357-14.927.64-2.557.401-3.109 0-8.142-.181-2.248.137-4.534 0-6.785 1.208-1.055 3.063-1.459 5.428-1.357-1.961-2.107-2.854-5.286-4.071-8.142-1.577.222-2.415-.299-2.714-1.357-3.053.597-5.646-.813-8.142 0-.663.219-.845 2.483-1.357 2.716-2.29 1.03-3.677.224-5.428 1.355-.752.486.211 1.275-1.357 1.357-2.354.123-2.834 2.028-5.428 2.714-1.751.461-4.979.22-6.785 0-3.039-.371-2.471-1.218-4.069-2.714-1.956-1.829-4.146-2.433-8.144-4.071-.434-.177-.243-1.077-1.355-1.357-.853-.212-1.853.163-2.715 0-5.443-.468-6.583 3.369-9.499 5.43-2.564-.604-8.179 1.845-6.784-2.714-6.508.925-8.618-.479-12.213-2.716-.736-.457.024-1.012-1.357-1.355-.852-.213-1.85.163-2.714 0-.619-7.977-7.312-9.877-5.428-20.354-1.319-1.75-2.122-3.854-4.071-5.428-1.425-1.148-6.183-.469-5.428-4.071-.989-3.517 2.406-1.764 4.069-2.714 1.42-.813 1.373-3.174 4.071-2.714 4.27-1.555 3.297 2.129 5.428 2.714 5.846-2.75 13.201-3.984 13.569-12.213 3.598-.021 7.99.753 8.142-2.714 4.274-.656 3.072 4.165 8.144 2.714 3.605 1.166 2.417-2.555 5.428-2.714.932-.049 4.919-.104 4.071-4.071 3.093.38 5.101-.326 5.428-2.714 4.813.397 9.169-.537 13.569 0 3.364.409 2.253 1.979 5.428 2.714 1.224.284 8.42-1.316 9.499 0 1.051 1.285.995 2.008 2.714 2.714 2.074.854 5.095.521 6.785 1.357.708.35 1.774 2.087 2.714 2.714 1.368.912 3.281-.021 2.714 2.714 2.221.265 4.577-.347 6.785 0 3.809.601 7.049 5.292 13.57 2.714 1.131-.444.93-2.333 2.714-2.714 2.163-.461 4.598.352 6.785 0 .553-.977 2.122-1.862 2.714-2.714.531-.762 1.272.22 1.355-1.355.186-3.499 2.501-3.552 4.071-6.785-.433-3.188-2.144-5.096-1.356-9.499 2.338 1.043 3.86 1.83 6.784 2.714 3.319 1.003 7.183 1.168 9.499 2.714 1.313.875 2.141.873 4.071 1.356 1.495.374 6.642 2.89 9.499 4.07 5.089 2.104 10.391 2.896 13.57 6.785 4.076-.077 8.399 1.078 10.854 2.714 1.479.987 2.475 1.813 4.071 2.714 2.361 1.332 4.717 1.626 6.785 2.715.896.473 1.938 2.282 2.714 2.715.497.273 2.373-.417 2.714 0 .482.589 3.983 3.153 6.785 4.069.386 2.901-2.114 2.075-2.714 4.071-.871 2.896 1.427 7.443-4.071 6.785.637.948.889 1.542 1.357 2.714.191.483-.374 2.408 0 2.714 1.674 1.369 2.541-.345 2.714 2.714.051.901-.04 1.813 0 2.714 3.009-.754 1.932 2.603 4.069 2.715 2.353.122 4.915.925 6.786 2.715 1.531 1.466 3.215.309 5.428 1.355.71.335.766 2.376 1.356 2.714.754.434 3.519-.628 4.071 0 .308.352-.381 2.519 0 2.714 1.434.743 3.927-.616 5.428 0 .345.144-.292 2.422 0 2.716.022.021 5.307 1.381 6.785 1.354.854-.015 4.958-.781 5.428-1.354.132-.162-.172-1.272 0-1.357.833-.407 4.41-.571 5.428-1.356 2.471-1.902 1.842-9.237 8.144-8.143.41-1.635-2.22-.657-2.714-1.356-.786-1.109.945-5.625-2.714-5.429v-8.142c.813-3.037-3.928-1.325-4.071-4.071-.016-.286-2.438-2.506-2.714-2.714-.657-.493-1.165-1.715-2.714-1.357.23-5.658-4.161-6.693-4.071-12.213 3.37-.203 5.631.701 6.785 2.714 2.381-2.9 5.474-1.822 8.142-4.069 2.823-2.378-1.462-4.192-5.428-9.499-.36-.481.45-2.348 0-2.714-1.483-1.216-4.216-2.349-5.428-5.43-2.614 1.91-5.459 3.586-9.499 4.071 1.164-4.33-2.138-4.197-2.715-6.785-6.041.162-7.01-4.75-13.568-4.07 1.074-2.884-1.812-1.81-2.714-2.715-.453-.451.452-2.261 0-2.714-.404-.402-2.389.451-2.714 0-.376-.517.159-2.073 0-2.714-.447-1.791-2.413-2.128-2.716-4.071-.727-3.542 1.982-2.501 2.716-5.428.149-.6-.373-2.251 0-2.714.367-.458 2.292.421 2.714 0 .376-.376-.434-2.439 0-2.714.585-.373 2.023.172 2.714 0 1.79-.448 2.128-2.413 4.071-2.714 3.598.02 7.988-.752 8.142 2.714 4.33 1.164 4.197-2.136 6.785-2.714.409-1.636-2.221-.659-2.714-1.357-.396-.559.46-2.218 0-2.714-.426-.458-2.271.444-2.715 0-.465-.464.412-2.193 0-2.714-1.66-2.095-3.862-4.389-5.429-6.785-4.1 1.813-3.049-2.119-5.428-2.714-2.834-.709-4.574-2.377-8.142-4.071-5.226-15.131-14.486-26.222-18.997-42.064 1.669-.592 2.787-1.736 2.714-4.071 7.727-.941 11.271 2.299 18.998 1.357 1.393-4.562-4.223-2.112-6.785-2.715.42-1.843 3.396-1.126 5.428-1.356 8.487-.692 18.046-4.273 25.782-1.356.479.181 2.414-.365 2.714 0 .908 1.108 1.036.938 2.714 1.356-.051-.013 3.978 1.24 4.071 1.356.861 1.054 4.267 2.735 6.785 4.07.838.444 3.128.649 4.07 1.357.773.581.669 2.063 1.356 2.714.472.445 2.256-.457 2.714 0 .077.077-1.817 3.426 0 4.071 4.692-1.073 5.729 1.508 8.144 2.714 3.605 1.166 2.417-2.556 5.428-2.714 1.387-.073 2.646-.063 2.714-1.357.112-2.132 4.937-1.753 5.427-5.428-.148-1.079-4.484-4.113-4.069-1.357-.488-.948-2.207-1.896-2.716-2.714-1.273-2.051-2.03-4.293-4.069-6.785-1.82-2.225-1.709-2.164-2.714-6.784-.282-1.298-1.478-6.466-2.716-9.499-1.969-4.824-5.104-6.326-6.783-10.855-5.067 2.171-6.032 8.44-12.214 9.499-3.167-2.858-6.36-5.27-9.499-8.143-2.996-2.743-4.758-7.223-9.498-8.143 2.627-2.801 8.267-2.589 12.213-4.071 3.402-2.023 4.764-6.092 6.784-9.499-2.625-5.517-6.424-9.857-9.499-14.926-.937-11.014 1.312-19.284 0-27.14-.813-4.873-4.88-11.339-6.784-16.284-.76-1.97-.401-3.485-1.357-5.428-.33-.672-1.277.143-1.355-1.357-.095-1.761-2.137-1.688-2.715-2.714-1.017-1.797-.388-3.536-1.356-5.428-.4-.782-2.227-.707-2.714-1.357-.361-.48.45-2.346 0-2.714-.626-.513-2.269-2.815-1.357-6.785 1.999-2.453 7.458-3.304 12.213-5.428.505-.225.185-1.063 1.357-1.357 2.54-.635 5.298-1.366 8.142-2.714.656-.31-.13-1.277 1.357-1.355 2.923-.154 6.43-3.996 9.499-6.785.103-.094 2.722-1.431 2.714-1.357.272-2.469-9.602-9.532-12.213-12.212.476-1.688 7.821 1.118 12.213 0 .118 4.405 8.091.955 6.785 6.785 3.436-1.54 7.692-2.257 9.499-5.428-.189-1.527-.598-5.316-2.714-5.429-3.536-.187-2.417-2.557-5.43-2.715-.301-.016-1.101.146-1.355 0-.886-.5-2.184-2.5-2.714-2.714-1.145-.457-2.967.534-4.071 0-1.018-.49-1.044-4.124-5.428-2.714.469-5.896-3.282-7.573-4.071-12.212-1.603-3.576 6.548-3.638 6.785-8.142.069-1.333 4.015-1.61 8.142-2.715.354-.095.11-1.291 1.357-1.356 1.698-.089 3.744-.232 5.428 0 2.784.383 2.153 1.643 4.071 2.714 1.502.839 2.877.333 4.07 1.357 1.852 1.589 4.066 4.467 4.07 6.784 4.91 3.515 6.984 10.812 12.212 14.927.77.604-.227 1.271 1.357 1.355 1.939.104.686 2.653 1.355 4.071.559 1.175 5.438 3.432 6.785 5.428.375.559-.167 2.046 0 2.714.447 1.79 2.413 2.128 2.714 4.071-.315 4.367-4.211 4.63-5.428 9.499-.558 2.23-2.359 1.7-4.071 4.071.48 1.781 2.391 2.135 2.715 4.069 4.268 1.294 5.998-1.776 8.143-2.714 1.711-.748 2.587-.669 4.071-1.355.532-.248.157-1.06 1.355-1.357.854-.213 1.852.163 2.714 0 .964-2.058.402-4.262 1.357-6.785.753-1.986 5.042-4.585 2.714-9.499-.314-.664-2.436-.807-2.714-1.355-.738-1.457-.271-4.25-1.357-5.429-.399-.437-2.342.454-2.714 0-.888-1.085.577-2.611-1.355-2.715-3.626-.188-2.79-3.022-8.144-2.714-.88-2.956-4.112-3.497-5.428-6.785-.194-.48.374-2.406 0-2.714-.819-.67-4.31-2.519-2.714-6.785 5.11-4.121 9.968 1.081 14.927 1.357 2.845 1.361 1.861-2.184 2.714-2.714.599-.372 2.019.175 2.714 0 1.197-.298 2.327-.921 4.071-1.356 1.386-.346.657-1.033 1.356-1.355.891-.412 3-.661 4.07-1.357 3.571-2.321 7.061-5.957 9.499-9.499 2.357 1.047 3.28-.989 4.071-1.355 1.767-.819 5.42-1.453 8.142-2.715.534-.247.158-1.059 1.357-1.356 4.049-1.013 7.311.639 12.212 2.714 3.831-.692 5.763-3.284 9.499-4.071-.896-1.675-.248-3.864-1.357-5.428-.537-.758-3.917-.095-2.714-2.714-1.814-4.099 4.145-2.183 5.43-2.714 1.672-.692 2.201-2.294 4.069-2.714 5.437-1.223 13.891.213 20.354-1.357.446-.108 2.452.321 2.714 0 .872-1.063.99-2.486 2.714-2.714 4.705-.619 10.631-.461 14.928 0 3.104.333 3.713 2.225 6.784 2.714 2.206.353 4.564-.265 6.785 0 1.362-1.348 2.778-2.652 4.07-4.07 1.088-1.192 2.965-1.546 2.715-4.07 5.802.374 6.917-3.938 9.498-6.785-2.646-3.097-12.736-.518-18.997-1.357-5.082-.105-4.102 5.853-10.855 4.071 5.098-4.004-2.385-5.494 2.714-9.499-11.349-.912-20.427 1.24-29.854 0-2.336-.308-2.792-2.106-5.428-2.714-.896-.207-7.19 1.163-8.144 0-.883-1.08-.982-2.462-2.714-2.714-4.231-.616-8.777.319-13.57 0-2.413-.162-7.986 1.68-9.499-2.714-1.317-4.939 6.61-.627 4.071-6.785 3.6-.021 7.99.753 8.144-2.714h4.069v1.355c2.15 2.241 5.321.641 8.144 1.357 1.521.388 1.793 2.35 2.714 2.714 1.545.611 3.918-.682 5.428 0 2.692 1.217 3.72 4.673 6.785 4.071h12.212c5.688-.262 4.194 6.66 10.855 5.428 5.9.396 10.459-.55 14.928 0 2.252.277 1.479.429 2.714 1.356.768.574-.227 1.272 1.356 1.356 3.996.21 12.185.711 18.998 1.357 3.354 1.591-3.292 5.639 2.714 5.428h9.499c.08 3.505 3.539 1.971 5.429 2.714.564.223-.06 1.283 1.356 1.357 5.046.265 4.287 5.132 9.499 5.428 1.135.063 7.961 1.012 10.855 0 .485-.17.047-2.364 1.356-2.714 2.698-.723 13.601-.598 18.998 0 2.626.291 3.785 2.171 6.783 2.714 3.642.66 6.219-.51 9.5 0-1.075 2.883 1.809 1.809 2.714 2.714.452.452-.452 2.262 0 2.714.949.95 8.239.058 6.784 5.428-.011 1.977-2.744.645-4.07 1.357-.977.525-1.406 2.014-2.714 2.714-.563.302-2.276-.437-2.714 0-.333.333.391 2.514 0 2.714-1.029.529-3.103-.62-4.071 0-1.866 1.195-2.03 3.899-4.07 5.429-2.009 1.507-7.365-.514-5.429 4.07 4.469 1.362 15.191 1.725 17.642-1.355 1.688-2.127 2.454-.029 6.784-1.357 3.27-1.002 4.755-2.79 8.143-2.714 3.958.089 1.081 1.823 5.429 2.714 2.12.436 4.719-.625 6.784 0 .68.205.834 2.466 1.358 2.714 1.084.516 2.908-.341 4.068 0 1.655.486 2.733 1.313 5.428 1.357 2.209.036 2.317-1.048 4.07-1.357 1.733-.306 3.724.416 5.429 0 2.384-.582 4.545-2.974 8.143-2.714 2.45.208 4.299 2.043 6.785 2.714 2.867.774 7.002.612 12.214 1.357.412.058 2.479-.286 2.714 0 .467.567 3.189 4.59 6.784 2.714 9.877-4.486 16.224-4.071 29.853-4.071 7.734 0 16.383-.733 21.713 2.714.753.488-.21 1.275 1.355 1.357 3.536.186 2.417 2.555 5.429 2.714 3.511.185 6.004 4.581 9.5 6.785.493.313 2.358-.434 2.713 0 1.091 1.333 1.146 1.779 2.715 2.714.496.295 2.365-.427 2.715 0 .887 1.085-.578 2.612 1.355 2.714 3.536.188 2.415 2.556 5.428 2.714 2.676.143 7.552 2.315 12.215 0 1.147-.569 1.943-2.357 2.713-2.714 2.05-.947 3.813-.693 5.428-1.355.434-.18.243-1.079 1.356-1.357.853-.213 1.851.163 2.715 0 3.053-2.32 4.166 2.369 5.428 2.714 4.778 1.304 9.956-.254 14.928 1.357.46.147.023 1.287 1.355 1.355 1.354.072 2.718-.057 4.071 0-.244-3.587 3.748-1.776 5.428-2.714.991-.553-.405-2.244 1.356-2.714.844-.226 1.854.172 2.716 0 2.615-3.186 2.27-2.396 1.355-5.428-.076-.25-5.976-3.042-1.355-4.071 4.146 1.218 6.137-2.197 9.497-2.714 3.047-.468 7.036-.165 10.854 0 3.3.142 5.812 2.229 9.498 2.714 4.108.54 6.912-.405 10.855 0 1.772 2.75 7.185 1.865 8.143 5.428 4.448-.076 5.188-3.857 10.854-2.714 4.244 1.636 6.73 5.029 13.568 4.071-.835 2.813 1.496 1.903 2.715 2.714 2.141 1.426 1.815 1.811 5.429 2.714 2.12.53 1.578 1.965 5.43 2.714 7.752 1.508 18.017-.476 28.495 0 7.867.358 15.201 1.818 23.067 1.357 4.944-.29 9.915-1.936 13.568-1.357.544.086 4.253.785 5.429 1.357.606.295.856 2.489 1.356 2.714 1.678.757 3.953-.888 4.069 1.357.15 2.849 5.279-.044 5.429 4.069 6.047-1.597 10.06 2.188 14.928 2.714 4.648.505 8.938-.365 14.927 0 2.799 1.455 1.918-2.306 2.714-2.714 1.995-1.022 11.895-.607 17.642 0 3.01.319 6.014 2.282 9.498 2.714 3.613.448 7.23-.544 9.5 0 .294.07.155 1.294 1.355 1.357 1.131.061 3.014-.378 4.07 0 2.584.921 1.603 1.757 5.428 2.714 2.037.509 1.489 2.738 5.429 2.714 3.55-3.679 2.013-3.081 0-6.785-.688-1.265-7.166-3.358-2.714-5.428 5.5.008 12.05-.604 16.282 1.357.534.248.159 1.058 1.357 1.355 1.321.33 18.123-2.229 20.354 0 .332.333-.392 2.515 0 2.714.983.506 2.978-.231 4.07 0 6.522 1.394 13.623.371 20.354 1.357 2.767.405 3.887 2.188 6.787 2.714 3.063.558 6.306-.43 9.497 0 .098 4.487 5.416 2.309 8.143 4.071.753.485-.213 1.273 1.355 1.355.229.014 6.274.572 8.143 1.357.64.268.847 2.482 1.355 2.714 2.729 1.229 13.917-.368 17.642 1.357.534.248.157 1.058 1.356 1.355 2.188.547 8.046-.396 12.213 0-1.416 3.729 4.077 1.064 5.429 2.714 1.003 1.227 2.55 2.616 5.429 4.071 1.605.813 2.666.578 4.068 1.357.717.396-.179 1.274 1.357 1.355 2.242.118 3.813 2.53 6.785 2.714 1.346-.726 1.084-2.188 2.714-2.714 1.204-.39 2.898.469 4.07 0 2.265-.907 4.053-4.079 6.784-2.714 1.593 2.464 4.365 1.545 6.785 2.714 1.312.633 2.188 4.688 5.429 2.714.594 3.623 4.48 4.766 6.782 6.785.44.386-.448 2.346 0 2.714.273.225 1.082-.219 1.357 0 1.304 1.037 2.54 3.043 6.785 2.714-.018.934-.018 1.837-.018 2.742zM233.398 274.107c-2.812.809-8.915-1.678-9.499 1.357 2.811-.808 8.914 1.678 9.499-1.357zM1097.783 753.115c-.771.274-1.733-2.051-1.354-2.714.237-.416 2.398.385 2.714 0 .15-.184.272-3.799 1.357-2.714 2.092 2.093-2.773 3.219-2.717 5.428z"></path>
          <path
            fill="#FFF"
            d="M371.809 0c-.152 3.467-4.544 2.691-8.143 2.714 2.539 6.158-5.391 1.846-4.07 6.785 1.511 4.394 7.085 2.552 9.499 2.714 4.792.32 9.336-.616 13.569 0 1.729.251 1.831 1.634 2.714 2.714.952 1.163 7.248-.207 8.143 0 2.636.607 3.091 2.406 5.428 2.714 9.428 1.24 18.506-.912 29.854 0-5.1 4.004 2.384 5.494-2.714 9.499 6.755 1.78 5.772-4.178 10.854-4.071 6.261.842 16.354-1.738 18.998 1.357-2.582 2.847-3.697 7.159-9.499 6.785.25 2.524-1.626 2.878-2.714 4.069-1.292 1.42-2.708 2.725-4.071 4.071-2.219-.265-4.579.353-6.785 0-3.07-.489-3.682-2.381-6.783-2.714-4.296-.461-10.224-.619-14.928 0-1.725.229-1.843 1.648-2.715 2.714-.262.321-2.267-.107-2.714 0-6.466 1.57-14.92.136-20.354 1.357-1.867.42-2.397 2.021-4.07 2.714-1.285.531-7.244-1.385-5.429 2.714-1.202 2.619 2.177 1.956 2.715 2.714 1.108 1.563.46 3.753 1.355 5.428-3.735.787-5.668 3.377-9.499 4.071-4.9-2.075-8.163-3.727-12.212-2.714-1.198.299-.822 1.109-1.356 1.357-2.722 1.261-6.375 1.895-8.143 2.714-.792.366-1.714 2.402-4.07 1.355-2.439 3.542-5.928 7.178-9.499 9.499-1.07.696-3.182.945-4.07 1.357-.7.324.028 1.011-1.357 1.355-1.743.438-2.875 1.061-4.07 1.356-.696.175-2.115-.372-2.714 0-.854.53.131 4.075-2.714 2.714-4.958-.276-9.814-5.479-14.928-1.357-1.595 4.268 1.896 6.114 2.714 6.785.374.308-.193 2.231 0 2.714 1.315 3.288 4.549 3.829 5.429 6.785 5.353-.31 4.517 2.523 8.143 2.714 1.934.104.469 1.63 1.356 2.716.372.453 2.313-.438 2.714 0 1.087 1.178.619 3.971 1.356 5.428.279.55 2.399.691 2.714 1.355 2.328 4.914-1.961 7.513-2.714 9.499-.955 2.523-.394 4.729-1.356 6.785-.863.163-1.861-.213-2.714 0-1.198.299-.823 1.109-1.356 1.357-1.483.688-2.36.607-4.071 1.355-2.144.938-3.875 4.008-8.142 2.715-.326-1.937-2.234-2.289-2.715-4.07 1.712-2.371 3.515-1.841 4.071-4.071 1.217-4.869 5.109-5.132 5.428-9.499-.301-1.943-2.268-2.281-2.714-4.071-.167-.668.375-2.155 0-2.714-1.349-1.996-6.229-4.252-6.785-5.428-.671-1.418.584-3.969-1.356-4.071-1.584-.083-.589-.752-1.356-1.355-5.229-4.116-7.303-11.412-12.212-14.927-.003-2.317-2.221-5.195-4.07-6.784-1.194-1.024-2.569-.52-4.071-1.357-1.917-1.071-1.287-2.331-4.071-2.714-1.684-.232-3.729-.089-5.428 0-1.247.066-1.004 1.263-1.356 1.356-4.126 1.104-8.071 1.382-8.143 2.715-.236 4.504-8.387 4.564-6.785 8.142.789 4.639 4.54 6.317 4.071 12.212 4.384-1.41 4.411 2.224 5.428 2.714 1.104.534 2.929-.457 4.071 0 .531.213 1.829 2.213 2.714 2.714.256.146 1.057-.016 1.356 0 3.012.158 1.893 2.529 5.429 2.716 2.118.109 2.523 3.899 2.714 5.428-1.806 3.171-6.063 3.888-9.499 5.428 1.308-5.83-6.667-2.38-6.785-6.785-4.391 1.118-11.736-1.688-12.213 0 2.612 2.681 12.486 9.744 12.213 12.212.009-.071-2.61 1.265-2.714 1.357-3.068 2.79-6.576 6.631-9.499 6.785-1.486.078-.701 1.047-1.356 1.355-2.844 1.348-5.603 2.079-8.143 2.714-1.174.293-.853 1.134-1.356 1.357-4.754 2.124-10.214 2.975-12.213 5.428-.91 3.971.73 6.272 1.356 6.785.451.368-.36 2.231 0 2.714.488.65 2.313.575 2.714 1.357.971 1.892.342 3.631 1.357 5.428.578 1.024 2.62.953 2.714 2.714.079 1.5 1.026.687 1.356 1.357.956 1.941.599 3.458 1.356 5.428 1.906 4.944 5.973 11.411 6.785 16.284 1.311 7.854-.937 16.126 0 27.14 3.074 5.067 6.873 9.41 9.499 14.926-2.021 3.407-3.382 7.476-6.785 9.499-3.946 1.481-9.585 1.271-12.213 4.071 4.741.919 6.502 5.397 9.499 8.144 3.137 2.872 6.331 5.282 9.499 8.142 6.181-1.058 7.146-7.328 12.213-9.499 1.681 4.529 4.814 6.031 6.785 10.856 1.237 3.031 2.432 8.199 2.714 9.498 1.004 4.62.895 4.561 2.714 6.784 2.039 2.491 2.796 4.733 4.071 6.785.507.816 2.226 1.767 2.714 2.714-.416-2.756 3.92.278 4.07 1.357-.491 3.675-5.314 3.296-5.427 5.428-.069 1.296-1.328 1.284-2.715 1.357-3.012.158-1.82 3.88-5.428 2.714-2.412-1.206-3.449-3.788-8.143-2.714-1.818-.646.077-3.994 0-4.071-.458-.457-2.242.445-2.714 0-.688-.649-.583-2.133-1.356-2.714-.942-.708-3.233-.913-4.071-1.357-2.52-1.334-5.924-3.018-6.785-4.069-.095-.117-4.121-1.37-4.07-1.357-1.678-.42-1.807-.248-2.714-1.357-.301-.364-2.234.182-2.715 0-7.735-2.917-17.295.665-25.781 1.357-2.029.23-5.008-.485-5.429 1.357 2.564.602 8.179-1.848 6.785 2.714-7.728.94-11.271-2.299-18.998-1.357.073 2.335-1.045 3.479-2.714 4.071 4.511 15.844 13.772 26.935 18.997 42.064 3.567 1.693 5.309 3.362 8.143 4.071 2.378.595 1.327 4.525 5.428 2.714 1.564 2.396 3.768 4.69 5.429 6.785.413.521-.465 2.25 0 2.714.443.444 2.289-.458 2.714 0 .46.496-.396 2.155 0 2.714.495.698 3.124-.277 2.714 1.357-2.588.578-2.456 3.877-6.784 2.714-.151-3.466-4.545-2.694-8.143-2.714-1.943.301-2.281 2.266-4.071 2.714-.688.172-2.128-.373-2.714 0-.433.272.376 2.337 0 2.714-.423.421-2.345-.458-2.714 0-.373.462.15 2.114 0 2.714-.73 2.927-3.439 1.886-2.714 5.428.301 1.942 2.267 2.28 2.714 4.071.161.641-.376 2.197 0 2.714.328.451 2.312-.401 2.714 0 .452.453-.453 2.264 0 2.714.904.905 3.788-.169 2.714 2.715 6.561-.681 7.528 4.232 13.569 4.07.577 2.588 3.877 2.456 2.714 6.785 4.04-.485 6.885-2.162 9.499-4.071 1.212 3.081 3.943 4.214 5.428 5.43.45.366-.359 2.231 0 2.714 3.967 5.306 8.251 7.12 5.429 9.499-2.668 2.248-5.762 1.169-8.143 4.069-1.152-2.013-3.415-2.917-6.785-2.714-.09 5.52 4.304 6.555 4.071 12.213 1.549-.356 2.058.864 2.714 1.357.276.208 2.699 2.428 2.714 2.714.146 2.746 4.885 1.034 4.071 4.071v8.142c3.662-.197 1.928 4.317 2.714 5.429.494.699 3.124-.277 2.714 1.356-6.302-1.096-5.673 6.239-8.142 8.143-1.019.785-4.596.949-5.429 1.356-.172.084.132 1.195 0 1.357-.471.573-4.571 1.342-5.429 1.354-1.479.024-6.763-1.335-6.784-1.354-.292-.294.345-2.572 0-2.715-1.501-.617-3.994.742-5.429 0-.381-.197.309-2.363 0-2.715-.553-.628-3.316.434-4.07 0-.593-.338-.646-2.378-1.356-2.714-2.212-1.048-3.896.109-5.428-1.355-1.871-1.79-4.436-2.592-6.786-2.715-2.139-.112-1.062-3.469-4.07-2.715-.04-.9.052-1.813 0-2.714-.173-3.059-1.04-1.345-2.714-2.714-.374-.306.192-2.229 0-2.714-.469-1.172-.721-1.767-1.356-2.714 5.498.659 3.199-3.89 4.07-6.785.601-1.996 3.101-1.17 2.714-4.071-2.802-.916-6.302-3.479-6.784-4.069-.342-.417-2.218.273-2.715 0-.774-.433-1.817-2.242-2.714-2.715-2.067-1.089-4.424-1.383-6.785-2.715-1.598-.899-2.591-1.727-4.07-2.714-2.455-1.636-6.778-2.791-10.854-2.714-3.18-3.891-8.48-4.68-13.569-6.785-2.855-1.182-8.005-3.696-9.499-4.07-1.933-.483-2.759-.481-4.071-1.356-2.316-1.545-6.18-1.711-9.499-2.714-2.924-.884-4.446-1.671-6.784-2.714-.787 4.404.924 6.313 1.356 9.499-1.568 3.233-3.888 3.286-4.071 6.785-.082 1.575-.826.595-1.356 1.355-.592.852-2.16 1.737-2.714 2.714-2.188.352-4.622-.461-6.785 0-1.783.38-1.583 2.27-2.714 2.714-6.521 2.578-9.761-2.113-13.569-2.714-2.208-.347-4.563.265-6.785 0 .566-2.734-1.347-1.802-2.714-2.714-.938-.626-2.007-2.364-2.715-2.714-1.689-.836-4.711-.505-6.784-1.357-1.72-.705-1.663-1.429-2.714-2.714-1.078-1.316-8.273.284-9.499 0-3.176-.732-2.063-2.305-5.429-2.714-4.399-.537-8.758.397-13.568 0-.327 2.389-2.334 3.094-5.429 2.714.849 3.968-3.14 4.022-4.07 4.071-3.012.159-1.821 3.88-5.429 2.714-5.069 1.451-3.866-3.37-8.143-2.714-.151 3.467-4.544 2.693-8.142 2.714-.368 8.229-7.727 9.463-13.569 12.213-2.131-.584-1.159-4.269-5.428-2.714-2.698-.46-2.65 1.901-4.071 2.714-1.662.95-5.061-.803-4.07 2.714-.754 3.604 4.002 2.923 5.428 4.071 1.95 1.572 2.753 3.677 4.071 5.428-1.882 10.479 4.81 12.381 5.428 20.354.864.163 1.862-.213 2.715 0 1.383.345.62.899 1.356 1.356 3.595 2.235 5.706 3.64 12.213 2.715-1.395 4.559 4.221 2.11 6.785 2.714 2.916-2.062 4.054-5.896 9.499-5.429.862.162 1.862-.213 2.714 0 1.113.279.924 1.181 1.356 1.356 3.997 1.641 6.187 2.242 8.143 4.071 1.601 1.496 1.032 2.343 4.07 2.714 1.807.22 5.034.461 6.785 0 2.595-.686 3.074-2.591 5.429-2.714 1.567-.082.604-.871 1.356-1.357 1.75-1.133 3.138-.325 5.428-1.355.513-.231.694-2.497 1.356-2.715 2.495-.813 5.09.596 8.143 0 .301 1.059 1.138 1.578 2.715 1.356 1.216 2.854 2.108 6.032 4.07 8.142-2.364-.102-4.222.305-5.429 1.357.138 2.251-.18 4.537 0 6.785.403 5.029.641 5.585 0 8.142-1.369 5.483-1.242 9.811-1.356 14.928-2.51-.114-2.099.759-2.714 2.715-1.416 4.494-1.958 11.213-2.714 16.281-1.267 1.447-5.006.423-4.071 4.071-.001 4.23.606 3.786 1.356 6.784.293 1.173 1.133.853 1.357 1.356 1.682 3.767 3.403 6.831 4.07 9.499.3 1.196 1.108.821 1.356 1.355 1.071 2.313 2.39 4.125 2.714 5.428.946 3.782 1.53 2.976 2.715 5.429v8.144c4.529-1.058 2.261 4.522 2.714 5.428.188.375 2.371-.301 2.714 0 .665.584-.516 3.32 0 4.07 2.628 3.829 10.156 5.521 9.499 12.213 3.56 2.703 7.143 5.617 9.499 9.499.391.643-.433 2.104 0 2.714.792 1.118 2.171-.394 2.714 1.356.385 1.237-.307 2.81 0 4.069 2.834.143 5.164 2.455 6.785 4.071.453.45-.452 2.261 0 2.714.443.445 2.288-.459 2.714 0 .46.495-.396 2.154 0 2.714.495.699 3.124-.276 2.715 1.356-.983 3.75 2.098 6.854 2.714 9.499.431 1.854-1.521 3.088-1.356 4.07.061.361 2.425 1.67 2.714 2.715.446 1.615-.628 3.883 0 5.428.187.457 2.441.783 2.714 1.355.48 1.018-.627 3.15 0 4.07.7 1.027 2.615-.521 2.715 1.356.143 2.716 4.384 2.754 2.714 6.784 5.771 1.039 9.546 5.311 12.213 9.5 1.114 1.75.325 3.146 1.356 5.428.708 1.563 4.739 2.13 2.715 5.428 3.914 4.067 10.764 7.297 12.212 13.569.671 2.899-.489 5.582 0 9.499 4.845 3.754 1.419 10.115 2.714 14.927.496 1.844 1.961 2.425 2.714 4.071.917 2.006.497 5.17 1.356 6.782.213.399 2.374-.339 2.715 0 .458.459-.369 2.164 0 2.716.997 1.483 1.727 2.63 2.714 4.069 1.824-1.601 4.976 1.555 6.785 1.356.079-.008-.081-1.275 0-1.356 3.008-3.008 7.452-.313 10.855-1.355 1.771-.543 1.514-2.068 2.714-2.714.665-.357 1.972.186 2.714 0 1.333-.332.673-.969 1.356-1.356 1.288-.733 2.683-.493 4.071-1.356 1.255-.778 1.499-2.096 2.714-2.713 1.815-.927 3.493-.875 5.429-1.356 1.195-.3.824-1.112 1.356-1.357 1.415-.653 2.488-.563 4.07-1.354 1.192-.599 1.904-2.379 2.714-2.714 1.549-.644 3.868.614 5.429 0 .863-.345 1.301-2.27 2.714-2.717 2.835-.896 6.468-1.784 9.499-1.354.327-2.388 2.335-3.093 5.429-2.714-1.678-4.393 4.391-1.038 2.714-5.43 5.25 1.181 4.828-3.313 8.143-4.069 1.881-.833.204-5.226 2.714-5.428 1.058-.302 1.578-1.138 1.356-2.716 7.92-1.577 10.532-8.465 21.711-6.784 2.865-.397 2.215-2.734 4.071-4.069 2.124-1.527 4.963-1.267 6.784-2.714 1.133-.9 1.671-3.027 2.715-4.071 1.119-1.12 3.019-1.533 4.07-2.714 1.372-1.537.169-3.444 1.356-5.428.479-.8 2.771-2.771 4.071-4.071 1.744-1.744 3.007-2.366 4.07-4.07-.359.576-1.506-.61-1.356-1.355.101-.499 2.42-1.54 2.714-2.714.258-1.027.075-2.715 1.356-2.715 2.448 0 .344-2.653 1.356-4.07.535-.747 2.588-2.586 4.071-4.07 4.264-4.264 11.708-7.373 10.854-14.927-1.713-1.428-2.427-2.722-4.071-4.071-1.563-1.278-1.943-3.924-5.428-2.714-1.875-4.004-6.268-5.494-8.143-9.498-.863-.163-1.861.213-2.714 0-1.114-.277-.923-1.18-1.356-1.356-3.992-1.638-5.855-2.589-8.143-4.07-1.431-.926-3.208-1.244-4.071-2.714 1.012-4.178-3.725-2.607-2.714-6.784-1.011-4.177 3.726-2.608 2.714-6.785-2.438.175-3.175-1.348-2.714-4.07-5.185-.658-4.247 4.801-6.785 6.784-1.058.3-1.577 1.138-1.356 2.714-.973 1.071-2.872.441-4.07 1.357-.455.349.413 2.302 0 2.714-.455.454-2.253-.449-2.713 0-.455.443.448 2.265 0 2.714-.425.423-2.346-.457-2.715 0-.429.53.287 2.076 0 2.714-1.022 2.271-8.306 1.57-9.498 2.714-3.858 3.697-12.646 1.147-16.284-2.714 3.061-2.934-1.123-4.629 0-9.499-4.288.672-.503-6.731-5.429-5.428-4.823-2.109-.818 4.609-4.07 4.071-.2 2.967-3.419 2.914-6.785 2.714-2.496-.104-1.729-2.349-2.714-4.071-.771-1.351-2.412-2.624-2.714-4.07-.428-2.042.32-5.538 0-8.143-4.988 1.199-1.759-3.75-2.715-5.428-.229-.401-2.343.327-2.714 0-.685-.604.575-3.341 0-4.07-2.211-2.813-8.089-4.241-6.785-9.499-1.153-1.029-4.11-1.907-5.428-4.07-.702-1.154 1.335-1.248 1.356-1.355.542-2.71-3.259-1.874-2.714-5.428.931-6.068 6.26-8.909 12.213-10.856 1.594.337 1.501 1.959 2.714 2.714 1.321.822 3.397-.034 4.071 1.357 1.658 1.96 5.179 2.058 6.784 4.07-.57 4.42 2.084 5.21 2.715 6.783.836 2.093.463 3.444 1.356 5.43.226.5 2.417.747 2.714 1.355.91 1.87-.462 4.593 1.356 5.428 3.82 1.155 5.567 4.386 10.855 4.071-1.478 3.021 3.256 2.863 5.429 4.07.188.104-.146 1.18 0 1.355.32.394 2.222-.227 2.714 0 2.836 1.31 2.792 2.057 5.428 2.715.63.156 1.545 1.39 1.357 1.355 5.525.954 11.861-.985 13.569-1.355 1.261-.273 2.846.389 4.07 0 2.271-.721 3.873-4.231 6.785-2.715 5.334 4.616 11.328 8.573 13.57 16.283 5.104-1.521 7.05 2.153 10.854 2.714 2.479.364 5.521-.265 9.499 0 2.188 2.79 6.805 3.147 12.214 2.714 2.108-1.961 5.288-2.854 8.143-4.068 4.569 2.816 9.195.669 13.569 1.354 1.962.31 2.856 2.194 5.429 2.714 2.929.595 6.04-.438 9.499 0 2.146-1.392 3.436-2.605 5.428-2.714 2.14-.111 1.063-3.469 4.071-2.714 5.869 2.271 11.195 5.089 16.283 8.144-1.275 4.026 2.277 5.079 2.714 5.428.623.499-2.5 3.378 0 4.07 5.413-1.342 4.087 4.056 9.499 2.715 3.653 4.856 5.811 7.697 10.856 9.499 2.64.94 2.713-3.342 5.428-2.715-.015-.004 1.28 2.596 1.356 2.715.448.69 2.063.819 1.356 2.714-2.644 4.117-6.398 3.081-9.499 4.069 1.4 4.067 3.557 7.627 5.428 9.498 2.486 2.486 4.129 1.353 6.785 2.716.393.199-.333 2.382 0 2.714 1.959 1.959 8.311-1.396 10.856 0 1.226-2.394 3.034-4.2 5.428-5.43-2.037-4.218-1.588-9.459 4.071-9.498 3.613 1.491 1.771 5.355 2.714 8.144.269.795 2.329 1.323 2.714 2.714 1.943 7.025-2.909 8.792-2.714 13.569.168 4.107.083 5.453 1.355 6.784 2.285 2.386.369 5.164 1.357 8.143.538 1.62 1.979 1.374 2.714 2.714v8.143c3.568.033 2.063 3.982 2.714 5.429.222.491 2.406.767 2.715 1.355 1.479 2.842.396 4.656 1.356 6.784.225.499 2.415.752 2.714 1.357.346.7-.191 1.944 0 2.714.278 1.112 1.179.924 1.356 1.355 1.629 3.973 2.012 5.103 4.07 6.784.42.345-.283 2.217 0 2.714 2.176 3.809 2.713 2.869 1.357 6.785 2.496.104 1.729 2.348 2.714 4.071 1.7 2.974 3.935 5.133 2.714 9.498 2.737-.572 1.801 1.354 2.714 2.714.917 1.366 2.134 2.586 2.714 4.071.985 2.521.526 5.13 1.357 6.783.313.625 2.137 1.844 2.714 2.715.664 1.004-.247 2.631 1.356 2.715 3.729.194-.939 5.233 2.715 5.428 1.297.066 1.283 1.326 1.356 2.714.082 1.569.87.604 1.356 1.356 2.185 3.377-1.021 2.467 0 6.783.537 2.271 2.258 2.761 2.714 5.43.375 2.195-.284 4.57 0 6.783 4.716 1.616 9.063 3.604 13.569 5.43 2.847-2.581 7.159-3.696 6.786-9.499 1.322-1.09 3.851-2.114 5.428-4.07.854-1.061.354-4.429 1.356-5.428.361-.362 2.465.418 2.714 0 .367-.62-.179-2.003 0-2.714.3-1.198 1.109-.823 1.356-1.357 2.603-5.614.874-13.693 1.355-21.711-.358-1.376.772-.891 1.356-1.355 1.933-1.534 3.201-11.62 2.715-13.569-.572-2.29-.586-5.216-1.356-8.145-.885-3.356-4.651-4.676-2.715-8.142.673-2.656 3.666-3.75 5.43-5.428 2.212-2.106 3.664-4.142 5.427-5.43 1.218-.888 3.002-.536 4.071-1.355 1.025-.783 1.444-1.896 2.713-2.714 1.382-.894 2.921-.479 4.072-1.356.917-.701 1.022-2.743 2.714-2.714-.983-4.15 2.342-3.991 1.356-8.142 1.629-1.842 5.334-2.309 5.43-4.071.078-1.529 4.841-2.442 5.428-2.714.791-.366 1.712-2.405 4.071-1.357-.202-5.177 3.416-6.534 4.069-10.854 1.521-.287 2.111-1.507 2.714-2.714 3.503.943 4.942-1.856 6.785-2.714 1.51-.702 2.901-.814 4.07-1.357.792-.365 1.715-2.403 4.07-1.356v-5.428c.405-2.668-1.831-2.689-2.712-4.071 3.642 1.045 1.578-2.492 2.712-4.068 1.713-2.383 4.715-2.197 6.785-2.714 1.196-.302.823-1.109 1.355-1.357 3.656-1.692 7.246-1.56 12.212-1.354 1.745-.151 1.306-2.201 2.717-2.717 1.567-.568 3.898.667 5.428 0 .229-.099 1.134-2.439 1.356-2.714.339-.416 2.216.273 2.712 0 2.193-1.205 2.717-3.12 5.429-2.714.13 2.13.438 2.594 2.714 2.714 2.731.146 4.344 3.923 5.43 5.431 1.211 1.68.438 5.016 1.355 6.782.197.385 2.363-.308 2.716 0 .628.555-.435 3.317 0 4.071 1.128 1.973 4.431 1.902 2.713 5.428 3.504-.944 4.942 1.857 6.784 2.715 1.511.703 2.899.814 4.07 1.355.791.367 1.716 2.404 4.07 1.357 3.92 10.102 9.53 18.514 13.57 28.494 1.449 5.069-3.37 3.868-2.716 8.144 3.975-.466 1.255 3.742 2.716 5.429 1.81 2.091 6.368.309 6.783 4.07 7.749-1.749 8.534-10.463 16.282-12.213 2.943 3.563 6.102 7.559 8.145 12.213.667 1.519-.531 3.847 0 5.428.265.791 2.328 1.327 2.715 2.714.417 1.515-.72 4.054 0 5.429.481.928 2.172-.104 2.713 1.356 1.466 3.969-.396 4.953 1.355 6.785 2.093 2.184 2.619 4.887 2.716 8.142 6.175 1.517 5.771 9.607 5.427 17.643-1.203 2.864-4.132 4.01-4.069 8.142-1.013 4.177 3.726 2.607 2.714 6.785-2.875 2.011-.824 5.751-1.354 8.142-.655 2.944-4.682 4.788-2.715 9.5 1.833.427 2.59 1.933 5.427 1.355-.741 2.751 1.575 1.782 2.714 2.714.438.356-.442 2.372 0 2.714.457.354 2.122-.11 2.716 0 3.205.602 2.741 3.933 5.427 4.071 1.575.083.608.646 1.356 1.354 2.312 2.2 4.391 4.393 5.43 6.785.502 1.161-1.525 1.781-1.356 2.714.098.537 2.477 1.451 2.715 2.716.41 2.184-.313 4.581 0 6.783.016 1.793 2.378 1.24 2.712 2.715v8.143c3.662-.196 1.93 4.316 2.716 5.428.493.698 3.124-.278 2.715 1.357.682 5.648 4.033 8.631 5.428 13.567 1.781 1.386 5.003 1.33 6.785 2.716 1.652 3.474 5.247 6.063 8.142 6.783 3.614.903 1.229 4.6 5.428 4.07 2.619-.547.117-6.215 5.429-4.07.52-3.121-2.714-3.266-2.714-6.783 0-1.447 1.494-3.529 1.356-4.071-.109-.438-2.514-2.06-2.714-2.714-.5-1.646.55-3.799 0-5.43-.269-.795-2.329-1.32-2.714-2.714-.443-1.601.646-3.907 0-5.428-.271-.638-3.304.229-2.714-1.354 1.733-4.873-2.271-5.849-2.715-6.785-.494-1.043.614-3.104 0-4.071-1.087-1.704-3.796-2.792-5.43-4.07-5.738-4.499-11.714-8.175-14.926-13.568-3.876 1.217-4.063-1.438-5.43-2.715-.901-.845-1.697-1.969-2.712-2.715 1.216-6.646-4.48-6.375-2.716-13.567-2.708 1.005-1.837-1.918-2.715-2.714-1.297-1.183-3.063-1.219-4.069-2.716-.63-.938.521-3.056 0-4.069-.407-.794-4.169.086-2.714-2.714.219-3.217 2.266-4.73 2.714-8.144.609-4.641-.483-6.678 1.354-8.142 2.318-1.841 1.111-5.338 1.356-8.144-.161-2.75-2.6-4.063-2.713-8.143-.108-3.888.213-6.988 4.07-8.14 1.604 2.67 5.049 1.553 6.785 2.712 3.896 2.604 6.234 10.914 12.212 9.499-.233 3.163 3.677 4.007 5.429 5.428 2.061 1.669 4.912 3.422 6.785 5.428.653.701-.472 3.21 0 4.071.22.4 2.368-.345 2.714 0 .414.413-.456 2.366 0 2.714 1.148.879 3.527-.081 4.07 1.355-.103 2.363.303 4.222 1.356 5.43 4.328 1.163 4.195-2.136 6.783-2.715.864 2.754 6.345.895 6.784 4.069 1.559 5.627-2.854 5.287-2.714 9.499.093 3.979 3.104 5.041 5.428 6.784-1.677-4.392 4.393-1.036 2.717-5.428 4.327 1.164 4.194-2.136 6.783-2.714.229-1.979 1.495-1.519 0-2.714-1.175-.94 2.629-1.288 2.714-1.356.375-.307-.192-2.229 0-2.714.469-1.172.721-1.767 1.357-2.714 2.889 1.692 3.772-1.911 5.427-2.715 2.024-.981 4.729-.488 6.784-1.356 1.524-.643 2.163-4.793 5.429-2.714-.811-1.006 1.36-1.376 1.356-1.357.119-.596-1.129-2.042-1.356-1.354.942-2.829 2.073-2.87 2.715-5.428.3-1.199 1.107-.822 1.355-1.357 1.314-2.834 2.32-8.461 1.356-12.213-.523-2.036-3.159-1.141-2.714-4.07v-9.499c-3.181.073-1.962-2.546-2.715-4.07-.086-.174-1.192.135-1.355 0-.394-.319.228-2.225 0-2.715-.661-1.435-2.192-1.686-2.714-2.714-.55-1.081.453-2.938 0-4.068-.239-.6-2.203-1.733-2.714-2.716-.146-.274.016-1.041 0-1.355-.098-1.798-2.344-1.229-2.715-2.714-.813-3.247-1.152-3.865-2.715-5.429-2.843-2.845-9.349-9.349-12.215-9.498-1.583-.084-.589-.761-1.354-1.356-.863-.671-1.853-1.96-2.712-2.714-1.89-1.651-3.974-3.545-4.071-5.428-.082-1.566-.875-.606-1.357-1.357-1.194-1.863-2.575-4.357-2.714-6.785-.104-1.853-1.299-2.949-1.354-4.069-.084-1.568-.871-.604-1.357-1.356-2.276-3.521.548-2.506 1.357-5.428.463-1.683-.357-3.719 0-5.43 1.554.334 2.049-.835 2.712-1.355.882-.694 1.715-2.083 2.715-2.714 2.497-1.863 3.529-4.239 5.428-5.429.971-.605 3.11.621 4.07 0 1.032-.666-.181-2.089 1.356-2.715 1.56-.635 3.827.539 5.428 0 1.018-.343 1.402-3.805 4.07-2.714 2.521 2.905 8.406 2.449 9.499 6.785-1.072 4.692 1.509 5.729 2.714 8.142 3.645 1.045 1.581-2.492 2.715-4.069.812-1.129 3.125-1.643 4.069-2.714 2.645-2.993 4.522-6.596 8.144-6.784 3.013-.159 1.893-2.527 5.428-2.714 3.012-.159 1.821-3.881 5.428-2.715 1.795.017 1.241 2.379 2.715 2.715.947-5.395 3.744.251 5.43 0 .103-.019 1.07-2.571 1.355-2.715 1.446-.725 3.896.556 5.428 0 .961-3.564 6.367-2.68 8.143-5.43 3.001-.617 8.005-.327 10.855-1.354.403-.146.832-2.466 1.355-2.714 1.003-.477 3.176.632 4.071 0 1.021-.722 1.911-3.053 2.714-4.071 1.522-1.942 4.229-2.299 2.714-5.428 4.005-1.875 5.494-6.269 9.5-8.144.172-.857-.228-1.87 0-2.714.415-1.555 2.369-.587 2.713-1.356 1.744-3.905-.243-6.473 1.356-8.143 2.252-2.35.519-5.115 1.356-8.142.894-3.227 4.491-2.92 1.355-5.43-.972-.774 1.405-1.466 1.356-1.355 1.484-3.315.392-7.172 1.355-10.855.067-.263 2.481.233 2.714 0 1.324-1.323-.321-6.935 0-8.142.798-2.979 4.567-4.764 2.716-9.499-3.938.022-3.393-2.204-5.43-2.714-4.746-1.188-8.729.889-9.497-4.071 1.653-.153 3.212-.405 2.713-2.714 2.364.103 4.222-.302 5.429-1.356.653-4.273-4.165-3.07-2.715-8.142-4.643.754-7.22-4.287-9.498-5.429-1.648-.824-2.826-.362-4.07-1.356-2.933-2.342-4.135-7.104-5.43-9.499-.881-1.633-1.9-2.476-2.714-4.069-.368-.725.334-1.974 0-2.715-.225-.5-2.417-.747-2.714-1.355-.91-1.871.464-4.593-1.355-5.428-5.566.139-8.367-2.489-10.855-5.43.058-1.354-.069-2.717 0-4.069.07-1.332 1.209-.897 1.356-1.356 2.634-8.125 2.596-7.815 8.143-12.213.521-.412 2.252.464 2.714 0 .443-.444-.457-2.289 0-2.714.909-.844 2.623.387 2.714-1.357.178-3.354 8.465-.223 6.785-5.428-3.521-1.456-6.655-3.297-12.213-2.714-4.015-3.093-4.091-2.841-6.785-2.714-6.536.312-6.476 8.45-9.498 5.428-2.706-2.706-5.329-2.531-8.142-4.071-.286-1.299-1.153-1.273-2.715-1.355-1.469-.077-.728-1.075-1.356-1.357-4.652-2.082-6.879-2.438-9.499-5.428-1.049-1.198-3.134-3.444-2.714-5.428.065-4.28 5.972-3.405 6.784-4.071.412-.338-.438-2.425 0-2.714 1.257-.833 4.044.639 5.429 0 1.541-5.158 4.939-8.717 8.143-12.213 1.222-1.332 2.945-2.604 4.07-4.071 3.955 1.471 8.024 2.832 9.498 6.785 1.022 2.214-1.521 4.415-1.355 5.428.021.13 2.567 1.049 2.714 1.357.486 1.026-.623 3.131 0 4.069 1.136 1.712 4.396 3.122 5.429 4.071-.572-2.738 1.354-1.801 2.714-2.714 3.116-2.091 4.38-4.234 6.785-5.428 1.492-.741 3.809-1.362 5.428-1.357 1.487.005.743 1.095 1.357 1.357 1.13.483 2.967-.537 4.068 0 .28.136 1.104 2.403 1.358 2.714.354.435 2.219-.317 2.713 0 3.264 2.091 6.787 4.887 6.784 8.142-.123 2.141-3.461 1.063-2.715 4.071 1.634 6.057 9.899 5.479 16.283 6.785 2.313 5.311 10.565 8.032 10.855 13.568.082 1.568.87.604 1.356 1.357 2.291 3.539 2.203 7.939 4.069 12.213.521 1.189 1.238.464 1.357 2.714.142 2.715 4.385 2.753 2.714 6.784 2.751.742 1.782-1.575 2.714-2.714.345-.421 2.217.285 2.714 0 .953-.547 3.973-4.132 4.07-1.356 1.668-1.644 3.267-1.589 5.429-2.714 1.779-.927 3.33-3.604 6.784-2.714 1.646-5.33-1.688-8.254-2.714-10.854-.637-1.612-.426-3.37-1.356-5.43-.78-1.723-4.724-2.15-2.714-5.428-1.005.811-1.376-1.361-1.356-1.357-.598-.117-2.042 1.131-1.355 1.357-1.825-.608-1.481-1.795-2.715-2.714-3.294-2.453-4.979-4.638-8.143-5.428-1.383-.348-.62-.9-1.355-1.357-2.593-1.61-5.032-2.705-6.785-4.071-1.142-.89-1.616-3.081-2.714-4.069-5.857-.476-9.025-3.642-9.499-9.499 5.187-.694 7.301-4.462 12.213-5.43.13-2.132-.183-4.705 2.714-4.069 1.232-6.662-5.688-5.168-5.428-10.855 3.904-1.975 3.224-8.537 8.143-9.499-.281-3.898.345-6.894 2.713-8.142 5.873 2.65 13.025 5.235 20.354 2.714-.921-2.731 1.81-1.811 2.714-2.714.905-.905-.169-3.787 2.714-2.714v-6.785c4.115.042 1.313-6.827 5.429-6.784.096-1.552-.533-2.058-1.355-2.715-.926-.741 1.402-1.585 1.355-1.357.406-2.003.794-4.717 1.356-6.785.513-1.883 2.242-2.29 2.714-4.069.561-2.114-.423-4.638 0-6.785-.123-2.139-3.461-1.063-2.714-4.071-1.674-8.458 4.388-9.182 2.714-17.641-.016-1.793-2.379-1.24-2.714-2.714 1.339-7.911-1.718-7.869-2.714-10.855.078.233 2.031-1.904 0-2.714-3.459-2.421-7.915-3.845-10.855-6.785 1.289-4.024-2.296-5.084-2.714-5.428-1.122-.918.935-5.624-2.714-4.071v-5.428c-4.648.358-5.484-5.088-8.143-6.785-1.23-.786-4.133.673-4.07-1.355.293-1.782-1.877-.673-2.714-1.357-.459-.376.407-2.265 0-2.714-2.091-2.298-4.78-3.57-6.785-4.071-2.755-.688-2.722-3.958-6.785-2.714-4.144 1.134-6.534 3.656-10.854 4.071-3.816.366-8.419-2.674-13.569-1.357-.206-5.878-5.229-.305-5.427-4.069-.085-1.592-4.794-2.361-5.429-2.716-.188-.104.146-1.179 0-1.355-1.353-1.65-6.846 1.013-5.431-2.714-.231-2.279 3.023-2.434 4.071-4.071.616-.963-.493-3.029 0-4.071.248-.521 2.414-.72 2.714-1.355 1.697-3.612-.267-5.091 1.356-6.785 3.104-3.238-.438-4.992 0-8.142.039-.286 2.439-1.729 2.716-2.716.464-1.68-.356-3.717 0-5.428 5.771-1.323 7.602-6.904 12.211-9.499.646-.363 1.984.185 2.715 0 1.199-.299.822-1.107 1.356-1.355 3.205-1.485 10.563-2.448 14.927-1.357 1.887.472 2.788 2.347 5.428 2.714 3.55.494 7.29-.371 10.854 0 1.765-.108 1.278-2.255 2.715-2.714 2.047-.653 4.68.455 6.785 0 1.922-.415 2.272-2.265 4.069-2.714 6.153-1.539 7.786 5.103 13.569 2.714-.866 3.599 2.261 1.638 4.07 2.714 1.754 1.042.992 2.259 4.069 2.714 1.37.203 4.103.367 5.429 0 1.672-.459 1.336-2.038 2.715-2.714 3.146.436 5.211-.219 6.783-1.355 1.084-2.664-2.379-3.044-2.713-4.071-1.568-4.813 1.282-10.797 1.356-12.213.063-1.215 1.278-1.044 1.355-1.357.353-1.418-1.334-2.34-1.355-2.714-.154-2.623 4.403-4.383 5.428-5.428 6.306-1.329 8.191 1.758 12.212 2.714h6.785c-.697 3.634 3.737 2.901 5.428 4.071 1.422.981 2.952 5.937 6.785 4.069 2.325-1.744 5.336-2.807 5.429-6.783-.122-2.141-3.462-1.063-2.714-4.071.323-1.938 2.234-2.289 2.714-4.071 4.27 1.554 3.298-2.131 5.429-2.714 2.237 2.78 4.701 5.193 6.785 8.142.844 1.194 1.236.448 1.354 2.716.104 1.935 1.628.468 2.714 1.355.374.306-.191 2.23 0 2.714.471 1.173.723 1.769 1.357 2.714-.546 3.537-3.711 6.702-4.071 8.144-.174.696.371 2.116 0 2.714-.528.854-4.076-.13-2.714 2.714v10.856c-2.9 3.882-4.896 8.673-6.784 13.567 3.843-.008 1.646 3.872 2.714 5.43 1.081 1.575 3.405.051 4.07 2.714 1.123 4.483 2.955 4.312 5.428 6.784 1.563 1.563 2.864 3.524 4.071 5.429.916 1.441.356 2.906 1.356 4.07.911 1.063 2.627 2.629 4.069 4.07 1.392 1.392 3.063 3.25 4.071 4.071 1.243 1.011 2.466.585 4.069 1.356 4.45 2.137 4.74 6.533 9.499 6.784 1.585.083.592.73 1.356 1.357 3.573 2.929 5.165 6.56 9.498 8.142.358 5.416 5.312 10.69 9.499 10.855 3.164.126 4.37-3.835 8.143-2.714.866-6.748-4.124-7.639-4.069-13.57 3.029-7.262-1.93-9.419-2.716-16.283 2.364-1.254 7.283.046 6.785-4.07.672-1.687-2.351-.792-2.714-1.356-.605-.939.648-3.166 0-4.071-1.214-1.691-4.071-1.674-4.071-4.07 1.952-4.743-2.12-4.714-2.713-6.784-.479-1.675.368-3.725 0-5.43-1.771-2.782-5.483-1.542-8.144-4.069-.754-.719-.587-3.484-1.355-4.071-1.401-1.069-6.104.885-5.428-2.714h-6.785c-1.963-2.11-2.854-5.288-4.071-8.144-3.66.198-1.928-4.315-2.714-5.428-.493-.698-3.122.278-2.712-1.355 1.213-2.281 2.781-4.113 5.426-5.43 1.459-.725 3.905.604 5.429 0 .948-.375 1.131-2.376 2.715-2.714 2.162-.461 4.598.35 6.784 0 .441-2.162 1.9-2.172 4.07-2.714 1.234-.309.781-1.076 1.355-1.356 2.495-1.22 5.252-2.211 8.143-2.715 3.838.53 6.195 3.585 8.144 4.071.743.186 2.051-.357 2.714 0 .853.458 1.074 2.935 2.714 2.714.521-.068 2.125-3.646 2.715-4.07 1.41-1.016 2.912-1.486 5.428-1.356-1.975-3.241 2.081-4.116 2.714-5.428 1.17-2.418.25-5.194 2.715-6.785 5.53.548 8.688-3.792 12.213-4.071 4.276-.339 7.374-.594 10.854 2.714-1.032-5.104 7.205-.936 5.429-6.785-.012-1.683-1.496-.796-2.715-1.354-2.994-1.381-4.75-4.114-9.498-2.714-1.233-3.864-6.254-2.688-9.499-4.071.01.004-.983-1.12-1.356-1.356-2.533-1.614-6.558-1.021-6.784-4.07-2.14-.443-4.688.584-6.784 0-.241-.067.241-2.645 0-2.714-2.909-.874-9.479.704-9.5-4.071 2.271-1.799 4.548-3.595 9.5-2.714 2.271 1.8 4.547 3.595 9.498 2.714.482-5.715-9.046-6.248-5.428-10.854 4.158-3.721 6.885.57 10.854 1.356 2.177.431 4.588-.326 6.784 0-.039 4.563 6.282 2.763 8.143 5.428.556-1.706 1.75-2.771 4.07-2.714 1.956.759 3.313 2.116 4.07 4.071 1.806.073 3.623-.095 5.429 0 1.248.064 1.005 1.263 1.354 1.355 2.5.667 6.48.521 8.146 1.356.387.195-.33 2.386 0 2.714 2.164 2.165 7.824-1.58 10.854 0 1.635-1.532 2.459-3.874 6.784-2.714v807.395H994.626c-.016-2.428 1.625-2.701 2.714-4.069 1.325-1.669 2.899-1.106 5.428-2.716v-4.068c-1.539-.259-.752-1.361 0-1.357 2.697.02 1.728 3.701 5.43 2.714.957-3.563 6.368-2.678 8.143-5.428h9.498c2.305-4.165-5.624-2.209-6.783-2.714-.267-.114.261-2.647 0-2.714-3.205-.812-8.08.592-12.214 0 .205 4.274-7.568.572-5.428 6.785-4.348-4.188-4.785 3.188-9.499 2.714 2.548 7.427-8.273 5.974-4.071 10.854h-29.853c1.961-1.849 1.129-3.312-1.357-5.428-1.969-1.675-4.617-3.612-10.854-2.714-1.05 3.219 3.68 3.186 5.429 4.069.684.347-.152 1.276 1.356 1.356 2.312.122 3.521.872 4.069 2.714H-.026C0 630.533 0 315.268 0 0h371.809zm607.92 256.466c-1.401 2.454 2.437 2.17 2.714 2.714.504.981-.644 3.192 0 4.071 1.188 1.62 3.657 2.342 5.428 4.069 4.006 3.912 7.56 7.559 10.856 10.855 1.56 1.561 4.128 3.771 5.428 5.428.64.814-.451 3.121 0 4.071.206.436 2.36.88 2.714 1.357 1.525 2.057 3.016 3.733 4.07 5.428.407.65-.319 2.005 0 2.714.211.47 2.391.804 2.715 1.355.803 1.366-.682 3.964 1.356 4.071 2.784.147.207 3.651 1.355 5.428.614.95 2.059-.015 2.716 1.357.869 1.821.676 5.169 1.354 6.785.199.473 2.437.769 2.716 1.355.479 1.012-.63 3.161 0 4.071.906 1.311 3.95 2.735 5.426 4.071 3.061 2.767 2.397 3.357 5.43 4.069 2.145.504 4.611-.38 6.785 0 .021-3.938-2.205-3.391-2.716-5.428-1.104-4.415-2.919-4.277-5.428-6.785-1.551-1.55-2.72-3.912-4.071-5.428-3.172-3.556-8.272-5.444-8.142-12.213 1.834-.427 2.592-1.933 5.428-1.357.123 1.88 3.462 1.427 2.714-1.355.37-3.345-3.854-3.762-5.426-5.428-1.002-1.063-.429-2.856-1.357-4.071-.687-.896-3.956.163-2.713-2.714h-5.43c.521-4.796-4.396-3.813-6.785-5.429-1.104-.745-1.535-3.37-2.714-4.07-1.91-1.136-3.93-.169-5.428-1.357-2.954-2.34-4.278-7.018-5.429-9.499-.323-.699-1.012.027-1.356-1.355-.478-1.912-.619-3.961-2.714-4.071-1.577-.083-.604-.659-1.356-1.357-1.134-1.053-2.695-1.884-2.715-4.069h-8.142c.158 1.659.408 3.216 2.717 2.717zm58.348 85.487c.278 1.113 1.182.924 1.357 1.357 1.634 3.983 2.748 5.806 4.07 8.142.891 1.573 1.582 2.789 1.355 5.43-.192 2.224-3.786 3.837-4.071 4.069-1.121.918.935 5.624-2.714 4.071-1.247 3.218 2.576 3.314 4.071 5.428 1.37 1.938 2.195 6.688 4.07 6.785 2.141.112 1.063 3.469 4.069 2.714 2.324-5.168-4.021-8.471-1.355-9.499 1.793-.016 1.239-2.377 2.714-2.714 4.729-1.94 5.836 2.434 6.785 2.714 2.076.618 4.66-.457 6.785 0 2.609.563 3.636 4.387 6.783 2.716v-6.785c2.301-2.679 9.441-.511 9.5-5.43-1.306-2.403-3.043-2.075-5.43-2.714-1.518-.402-.631-2.399-1.355-2.714-1.875-.806-4.971.917-6.784 0-.517-.26-.669-2.555-1.357-2.714-2.942-.681-5.29.514-8.142 0-.326-2.387-2.334-3.093-5.428-2.714-1.729-3.354-5.146-6.229-8.144-6.785-3.557-.664-2.536-4.794-6.785-4.071.169.866-.206 1.864.006 2.714zm39.354 59.707c-.495-.696-3.124.278-2.715-1.355 1.754-5.371-4.465-2.771-2.714-8.144-4.776 1.436-6.094-3.894-8.144-5.428-1.429-1.069-5.234.895-4.068-2.714h-4.071c-5.835 4.364-.36 12.332 1.354 14.927.664 1.003-.242 2.629 1.357 2.714 1.297.069 1.284 1.327 1.357 2.715.156 3.012 2.524 1.892 2.714 5.429.155 3.012 3.881 1.821 2.714 5.428-5.879.205-.307 5.23-4.071 5.428-2.634.141-.874 5.132-2.714 5.43-1.782 1.384-5.002 1.331-6.785 2.714-1.765 5.387-7.826 7.213-10.854 9.499-2.439 1.842-3 3.941-5.43 4.068-3.012.159-1.818 3.884-5.428 2.717-4.212.14-3.872-4.271-9.499-2.717-4.442 2.341-6.409 7.159-10.854 9.499-2.772-.81-2.899 2.021-4.071 2.715-1.633.972-5.083-.816-4.07 2.715 4.169-1.603 5.194 2.5 8.144 2.714 2.909.211 4.723-1.607 8.142-2.714 4.057-1.313 4.982.369 6.785-1.356 3.16-3.027 9.396-.583 14.927-1.355.41 2.938 3.428 2.762 5.428 5.428 1.302 1.731.221 8.107 5.43 6.785-1.671-5.064 2.344-8.021 2.714-9.499.879-3.516-.42-5.183 2.714-5.43 2.249.152 4.541-.196 6.785 0 1.853.166 4.764 1.438 5.428 1.357.224-.026 1.776-2.454 2.714-2.714 5.163-1.429 5.709-.281 8.143-2.714 1.975-1.976 2.195-3.354 2.715-5.431.805-3.216 2.55-2.409 2.714-6.782.106-2.912-2.601-4.605-2.714-6.785-.082-1.569-.869-.604-1.357-1.357-2.289-3.538 1.046-1.782 0-5.428-.369-1.291-5.013-2.35-2.713-5.428-1.557-5.625 2.854-5.288 2.713-9.499-3.669.192-1.934-4.32-2.72-5.432zM73.276 446.441c-3.604.014-7.75-.513-9.499 1.357-1.163 4.329 2.137 4.194 2.715 6.782 5.518.093 6.554-4.303 12.213-4.068-1.451-5.07 3.368-3.868 2.714-8.145-5.252-1.176-4.829 3.318-8.143 4.074zm947.162 18.998c.692 3.829 3.284 5.763 4.071 9.498 2.326.01 5.574-2.584 6.783-4.07 1.586-1.947 3.521-4.027 2.715-8.143-4.939-3.948-9.105 1.945-13.569 2.715zm-23.07 6.785a57.88 57.88 0 019.499 8.142c-.923 2.294 1.701 2.898 2.715 5.43.555 1.386-1.492 7.003 2.715 5.429 1.3-.288 1.272-1.153 1.355-2.714.078-1.469 1.074-.729 1.356-1.357.836-1.868 1.348-2.564 1.355-5.428.014-3.295-4.665-6.281-2.714-10.855-3.957-1.473-8.022-2.832-9.499-6.783h-4.071c-1.077 2.527-2.264 4.964-2.711 8.136zM245.611 549.57h2.715v-5.428h-2.715v5.428zm701.549 29.854c.381-1.725-.262-3.683 0-5.43.307-2.033 1.41-2.429 1.357-5.428-.051-2.862-2.587-2.383-2.714-5.428-.007-.162 2.688-2.196 1.354-4.071-1.732-.074-1.879-1.737-4.068-1.354.158 2.592-2.695 1.604-4.071 2.714-.457.369.423 2.291 0 2.714-.408.408-2.376-.452-2.714 0-.639.852.461 3.094 0 4.07-.252.528-2.438.699-2.714 1.355-.788 1.87-1.363 6.314-1.356 6.785.008.521.552 4.878 1.356 6.784.198.474 2.435.769 2.714 1.355 1.4 2.959-.916 3.163 2.714 4.07 2.928.731 1.886 3.441 5.428 2.714-1.472-4.262 1.908-7.196 2.714-10.85zm-111.269 36.639c-.247.06-.96 2.525-1.357 2.714-.982.466-3.204-.637-4.068 0-6.604 4.842-1.929 13.065 5.428 14.927 2.822-1.386 5.087-4.258 6.784-6.783.418-.622-.312-2.022 0-2.716.213-.47 2.391-.805 2.715-1.355.583-.992-.625-3.107 0-4.07.449-.692 3.158.274 2.714-1.355-3.055-1.459-8.318-2.316-12.216-1.362zm112.628 33.923c-4.471-1.271-1.979 3.559-2.714 5.428-.127.322-2.417-.26-2.714 0-.674.595.538 3.326 0 4.071-.407 2.667 1.832 2.689 2.714 4.07-1.753 5.371 4.467 2.771 2.714 8.142 6.987 2.062 11.512 6.582 13.569 13.57 3.734.788 5.668 3.378 9.499 4.07 2.271-1.801 4.547-3.597 9.499-2.714 2.131.581 1.159 4.269 5.428 2.714.759 2.818 2.116 2.875 4.069 1.355.37-7.659-5.084-10.503-9.498-12.213-4.178-1.011-2.607 3.724-6.784 2.714a76.665 76.665 0 01-13.569-13.568c1.799-2.271 3.595-4.548 2.714-9.498 4.541 1.32 1.879-3.627 2.714-5.43.353-.758 4.213.061 2.715-2.714-2.188-2.336-2.672-6.375-5.429-8.142 1.752-5.371-4.466-2.771-2.714-8.144-5.131 1.963-2.604-3.729-6.785-2.715h-2.714c-4.282 2.964-2.297 12.184-2.714 19.004zm9.499 48.851c5.069-1.451 3.868 3.368 8.142 2.714-.23-2.03.484-5.008-1.355-5.43-1.962-2.106-4.507-3.635-5.43-6.783h-4.068c-1.344 5.414 4.051 4.086 2.711 9.499zm24.424 2.714h5.428v-2.714h-5.428v2.714zm14.926 1.355c.269.688-.407 2.117 0 2.714.391.564 2.209.816 2.716 1.356.979 1.053.424 2.896 1.355 4.071.714.897 3.936-.166 2.714 2.714 3.599-.021 7.99.753 8.144-2.714-1.924-1.862-4.729-2.119-5.43-4.071-.521-1.456.474-3.977-1.355-4.07-1.567-.084-.604-.871-1.356-1.355-2.935-1.898-5.743-3.22-9.499-2.714-.636 2.757 2.129 2.571 2.711 4.069zm-29.852 9.5c-.075-.494 2.75 2.746 2.714 2.714 1.262 1.154 3.794 3.228 5.429 2.716-1.342-5.413 4.057-4.087 2.714-9.498 1.054-.306 2.679-.037 2.716-1.357-1.976-2.099-6.946-1.193-10.856-1.356 2.159 3.325-3.055 4.57-2.717 6.781zm-33.923 13.571c-.666.852.623 3.182 0 4.07-2.104 3.006-8.511 4.584-6.785 9.499 4.707 1.088 5.216-2.021 9.499-1.357.738-1.627 1.688-2.696 2.714-4.07 1.295-1.732 3.815-1.604 2.714-5.428 3.152-.919 3.633-4.51 6.785-5.428-1.536-5.342 4.094-9.429-1.357-10.856-3.085 5.678-10.642 9.825-13.57 13.57zm61.062-8.143c1.231 3.163-.426 7.84 4.071 8.143.074-1.735 1.738-1.879 1.355-4.071-.238-1.688-2.087-1.377-2.715-2.714-.84-1.789.709-5.562-1.354-6.785h-4.071c-.773 2.314 1.932 3.416 2.714 5.427zm-17.64 10.856c1.532 1.634 3.873 2.459 2.714 6.784 4.068.505 5.349-3.915 5.428-5.428.158-3.013 3.88-1.82 2.714-5.43-4.805.734-3.336-4.805-8.142-4.068 1.451 5.067-3.371 3.865-2.714 8.142zm29.852 8.14c-2.583-1.256-2.003 2.246-2.714 2.716-1.513.993-4.186.615-5.428 1.355-1.16.688-1.294 3.542-4.071 2.714-4.467-.058-6.756-2.292-12.213-1.355-1.392 2.146-2.607 3.435-2.714 5.428-.112 2.141-3.469 1.063-2.714 4.071 6.037 1.062 8.145-1.809 13.568-1.357 4.404.503 2.759 4.754 4.07 6.785.619.957 2.06-.028 2.714 1.354.673 1.423-.355 3.884 0 5.431-.019-.081 1.124.772 1.357 1.354.132.331-.019.997 0 1.357.164 3.131 4.11 2.644 4.069 5.428 4.107-.415 4.849-4.199 10.855-2.714 1.938-6.007-4.592-3.551-4.071-8.142.761-1.954 2.116-3.313 4.071-4.071 4.807-.735 3.336 4.805 8.143 4.071-.556-2.448.735-6.309 0-8.145-.623-1.55-1.914-1.427-2.714-2.714-.647-2.949.88-5.499 0-8.142-.125-.368-2.479-.861-2.715-1.356-.512-1.08.584-3.034 0-4.071-.296-.524-2.298-.803-2.714-1.355-2.977-3.971 1.314-9.045-4.071-10.855-1.599 3.372-1.96 7.989-2.708 12.213zM555 735.475c-.084 1.584-.781.59-1.356 1.355-.963 1.281-.904.508-1.357 2.716-.58 2.816-.468 7.747 0 10.854.261 1.732 1.63 1.826 2.714 2.714 1.354 1.108-.334 8.234 0 9.499.5 1.892 2.104 2.323 2.715 4.071 5.546.569 5.482-4.468 12.213-2.714-1.451-5.069 3.369-3.867 2.714-8.145-.017-1.794-2.377-1.238-2.714-2.714 1.66-6.183-3.726-5.322-2.713-10.854-4.154-2.181-6.689-5.979-8.145-10.855-1.732-.074-1.879-1.738-4.07-1.355-.074 1.805.093 3.623-.001 5.428zm545.5 12.213c-1.084-1.085-1.207 2.53-1.357 2.714-.314.385-2.478-.416-2.714 0-.379.663.583 2.988 1.354 2.714-.056-2.21 4.809-3.336 2.717-5.428zm-164.194 21.711c-3.467-3.771-5.102-9.373-13.569-8.142-1.034 3.938-6.433 3.52-5.427 9.498-2.45-.198-2.98 1.56-4.072 2.714-1.919 2.028-2.5 3.917-5.428 4.069-1.569.082-.604.869-1.357 1.356-2.694 1.746-5.179.303-8.142 1.355-1.42.508-2.246 4.903-5.428 2.716-.163.862.212 1.86 0 2.714-.3 1.198-1.109.823-1.356 1.355-2.188 4.728-3.582 7.816-5.429 12.212-3.505-.942-4.943 1.858-6.784 2.715-1.511.703-2.9.814-4.071 1.356-.79.367-1.715 2.404-4.068 1.357-.154 1.652-.406 3.212-2.716 2.714 1.401 4.389-2.211 4.403-2.715 5.428-.878 1.789.834 5.592-2.714 5.428-4.321-.652-5.678-4.271-10.854-4.069.787 2.764-2.337 2.563-2.714 4.069-.19.767.348 2.018 0 2.714-.27.538-2.394.714-2.715 1.356-.725 1.449.555 3.896 0 5.429.017 1.793 2.38 1.24 2.715 2.714-.991 5.988.699 7.852 2.714 9.498.806.659-.259 5.656 0 6.785.411 1.801 2.591 2.361 2.714 4.071.118 1.627-2.069 2.021-1.355 4.07.135.389 2.472.846 2.715 1.355.52 1.097-.558 2.993 0 4.07.449.874 2.164-.021 2.714 1.355.468 1.169-.375 2.863 0 4.07 5.104-1.523 7.051 2.155 10.854 2.715 2.478.364 5.522-.266 9.499 0 2.413 1.205 3.448 3.787 8.143 2.714 4.272.655 3.07-4.165 8.143-2.714 5.439 1.798 9.275 5.198 14.927 6.784-.494-4.448 4.827-3.014 6.786-5.428.378-.468-.162-2.109 0-2.714.376-1.411 2.479-.75 2.713-1.357.764-1.972-.733-4.802 0-6.784.208-.561 2.229-1.743 2.714-2.714.703-1.406.865-2.972 1.356-4.07.301-.677 1.016.008 1.357-1.355.856-3.435 1.584-3.255 1.354-6.785 4.925 1.308 1.144-6.097 5.429-5.428v-9.499c1.654-.153 3.212-.405 2.715-2.714 3.734-.787 5.67-3.378 9.497-4.071.118-3.938-4.863-5.896-5.428-8.142-.685-2.74-.331-1.641-2.714-2.715-2.521-1.138-.677-6.046-1.355-8.143-.112-.348-2.479-.885-2.715-1.357-2.549-5.096 2.499-9.993 2.715-10.854 1.265-5.058 4.252-4.601 6.783-8.142 1.055-1.473-.88-5.205 2.714-4.071-.894-4.981-5.006-6.746-8.145-9.488zm-453.227 6.785v-5.428c-5.225-1.068-5.225 6.497 0 5.428zm229.328 1.357c.557 1.283-1.313 1.13-1.356 1.354-.475 2.367 4.864 3.027 2.714 6.785 1.554-.333 2.05.834 2.713 1.355.863.68 1.864 1.946 2.716 2.716 6.366 5.738 10.87 11.154 16.284 16.281.79.749 2.106 1.821 2.712 2.715.63.928-.492 3.056 0 4.07.184.38 2.393-.32 2.714 0 .459.458-.368 2.164 0 2.714.985 1.472 1.863 2.569 2.715 4.07.392.689-.329 1.988 0 2.714.209.468 2.39.813 2.714 1.357.918 1.544 1.563 2.812 1.355 5.428 2.528-.25 2.881 1.626 4.072 2.714 1.418 1.294 2.723 2.707 4.069 4.071.43 1.834 1.934 2.592 1.357 5.428 1.555-.334 2.048.833 2.712 1.356 1.178.928 2.604 1.982 2.715 4.069.158 3.012 2.527 1.895 2.715 5.43.081 1.567.869.604 1.358 1.355 2.096 3.242-.659 2.5 0 6.784 3.586-.833 1.652 2.218 2.712 4.071.338.594 2.378.646 2.712 1.354.483 1.018-.628 3.154 0 4.071.293.426 2.613 2.607 4.073 4.07 1.24 1.237 2.969 2.979 4.068 4.069 2.741 2.717 8.188 6.043 9.5 8.144.582.934-1.498 1.945-1.355 2.715-.092-.497 2.804 2.786 2.712 2.714 2.335 1.868 4.571 1.665 5.429 2.714.919 1.123 5.623-.935 4.071 2.714 3.938.023 3.392-2.205 5.427-2.714 4.936-1.234 7.355-4.993 8.145-8.143.805-3.218 2.547-2.414 2.714-6.784.103-2.661-2.196-3.53-2.714-6.785-.352-2.206.267-4.565 0-6.785-8.587-2.27-12.989-8.722-14.927-17.64-1.654-.154-3.215-.406-2.716-2.715-4.251-1.178-7.491-3.361-9.498-6.784-.132-1.904 2.837-2.331 2.714-4.071 0-.007-2.607-1.134-2.714-1.354-.521-1.105.538-2.979 0-4.071-.772-1.573-4.8-2.463-2.714-5.428-5.413 1.343-4.087-4.059-9.499-2.714-2.773-6.725-12.148-6.85-14.928-13.569-2.111.538-3.18-.748-4.069-1.357-2.13-1.459-3.325-3.813-5.429-5.428.556-3.27-2.479-2.95-1.358-6.785-3.023-1.667-4.625-4.317-6.78-5.428-5.567-2.858-7.333-6.839-12.215-8.142-1.669-.445-.464-2.268-1.355-2.716-2.472-1.238-6.205-.338-9.498-1.355-2.599-.805-3.642-4.174-6.784-2.714h-2.716c-.974 2.733 2.233 2.972 2.713 4.08zm-240.183 2.714c1.361-.005 1.615 1.1 2.714 1.354-.004-1.359 1.1-1.612 1.357-2.714-1.361.006-1.615-1.1-2.716-1.354.007 1.362-1.098 1.614-1.355 2.714zm6.786 0c1.359-.005 1.615 1.1 2.714 1.354-.005-1.359 1.1-1.612 1.355-2.714-1.36.006-1.613-1.1-2.714-1.354.004 1.362-1.098 1.614-1.355 2.714zm-6.786 5.428h2.714v-2.714h-2.714v2.714zm5.428 2.713h5.428v-2.714h-5.428v2.714zm560.425 18.999c-2.046 3.382-4.196 6.657-5.428 10.855.122 2.139 3.461 1.062 2.714 4.068-2.012 1.606-2.111 5.126-4.07 6.785 1.041 4.388 3.757 7.101 8.144 8.142 1.651-1.188.312-3.444 1.354-5.428.203-.386 2.36.313 2.715 0 .674-.592-.538-3.326 0-4.07-.229-1.693-2.1-1.366-2.715-2.714-.492-1.082.289-2.906 0-4.069-.625-2.515-4.026-3.155-2.714-5.43 3.286-2.141 6-4.854 8.144-8.142-2.714.003-5.428.003-8.144.003zm-244.254 9.498h2.714v-2.714h-2.714v2.714zm210.331 0c-.854 4.2-5.558 2.901-8.142 4.071-1.565.708-2.13 4.736-5.429 2.714-2.673.001-3.694-2.059-6.784-2.714-4.774-1.016-11.66.178-16.284-1.357-1.799-.075-1.751 1.979-2.714 2.714-1.024.785-3.07.468-4.07 1.357-.459.408.438 2.274 0 2.714-.452.452-2.263-.452-2.714 0-.905.905.169 3.787-2.714 2.714 2.032 5.583-2.815 7.587-2.714 9.499.063 1.24 1.267 1.013 1.354 1.356 1.519 5.769-1.14 9.391 0 14.927-4.081-1.367-2.401 3.022-2.714 5.428-4.393-1.676-1.036 4.392-5.428 2.714 1.162 4.33-2.139 4.197-2.714 6.785 2.387.327 3.093 2.335 2.714 5.428 1.654.155 3.214.407 2.714 2.714 1.656.154 3.214.405 2.714 2.714-.415 4.108-4.199 4.851-2.714 10.856 1.521.286 2.112 1.505 2.714 2.714 4.87.799 6.564-1.577 9.499-2.714 1.826-5.785-2.521-7.246-2.714-9.499.049.582 1.253-.945 1.355-1.357 1.315-5.262-3.274-3.831-2.715-8.142a57.905 57.905 0 018.144-9.499c1.528 2.372 2.599 3.244 2.714 5.429.083 1.568.87.604 1.355 1.356 1.506 2.324 1.646 5.059 1.356 8.142 2.635-1.175 1.937 2.143 2.715 2.714 1.521 1.117 3.785.455 5.429 1.357 1.146.629 1.304 3.589 4.069 2.714v-14.927c-1.581-.229-1.472-2.146-1.354-4.071-2.536-.021-1.679-2.454-2.715-4.068-1.01-1.57-2.791-1.492-2.715-4.071 1.961-2.108 2.854-5.288 4.07-8.143 4.389 1.399 4.405-2.211 5.428-2.715 1.789-.88 5.594.834 5.428-2.714-3.953-3.479-9.271-.286-13.567 1.356-1.187.454-2.886-.451-4.07 0-2.019.771-3.104 3.498-5.429 2.715-3.569-3.215-8.18-5.393-9.498-10.856 3.25.378 2.1-1.614 2.714-4.068.354-1.407.858-.595 1.356-1.357.354-.546 2.112-2.344 2.714-2.714 2.204-1.359 3.886.527 5.428-1.355.096-.116 4.123-1.37 4.071-1.356 3.781-.944 5.235.694 6.783 1.356 1.438.615 2.459.589 4.07 1.355 1.546.735 1.57 1.994 2.714 2.714 1.585.999 5.119-.84 4.071 2.714 3.904-.102 6.967-4.794 9.499-5.428 2.478-.62 2.042-.193 2.714-2.714.443-1.663 2.271-.469 2.714-1.356.728-1.455-.686-3.949 0-5.429.353-.758 4.211.058 2.714-2.714-1.803-.003-3.612-.003-5.422-.003zm47.493 50.208c-1.857-3.021-10.255-3.994-13.569-1.357v4.071c5.004 2.924 11.103 2.68 16.284 1.357 1.97-.503 7.044 1.277 5.429-2.716-.172-2.995-5.759-.575-8.144-1.355zm-146.551 55.635c-1.199-.3-.823-1.107-1.357-1.355-3.938-1.826-9.239-1.901-10.854-5.43h-8.144c-1.971-3.777-5.258-6.063-8.142-6.782-3.148-.788-1.838-2.31-5.428-2.717-2.991-.339-4.65 1.91-8.145 2.717-4.838 1.113-9.259.169-13.567 1.354-.918-1.073-2.945-.436-4.07-1.354-.414-.341.437-2.424 0-2.717-1.855-1.24-5.794.989-5.43-2.714h-9.497c.648-5.058-12.139-2.823-12.214-1.354-.068 1.296-1.325 1.283-2.715 1.354-2.52.133-6.386 5.79-5.428 6.785 1.281.979 2.47.557 4.07 1.357 1.063.529 2.061 2.485 2.714 2.714 3.042 1.049 7.19.276 10.854 1.354 2.775.816 4.84 4.556 8.144 2.714 5.412 1.345 4.085-4.056 9.499-2.714 2.663-1.084 3.043 2.38 4.068 2.714 2.004.652 4.848-.799 6.785 0 .204.085 1.148 2.46 1.356 2.715.341.416 2.218-.271 2.714 0 2.174 1.194 2.643 2.176 5.428 2.715 8.506 1.645 18.389-.479 28.497 1.355 3.278 3.17 13.892 4.807 13.569-2.714-.856-.16-1.857.215-2.707.003zm70.561 2.712c-2.76-.803-4.312.559-8.143 0-4.235-5.242-8.188-1.242-12.212 0-.258 2.535 1.635 2.867 2.714 4.07 1.118 1.247 2.708 1.737 2.714 4.071 6.007 1.482 6.747-2.299 10.854-2.715 3.841-.23 9.312 1.169 9.5-2.715-3.948 2.53-6.244-2.947-5.427-2.711zm-55.635 5.43c4.252-.521 5.246 2.584 8.142 2.714 2.634.117 3.396-2.177 6.785-2.714 2.205-.354 4.566.267 6.784 0 .65-8.133-22.358-8.133-21.711 0z"
          ></path>
          <path d="M944.447 778.897c-3.594-1.134-1.66 2.601-2.714 4.071-2.532 3.541-5.521 3.084-6.784 8.142-.215.86-5.263 5.76-2.714 10.855.235.473 2.603 1.01 2.714 1.355.682 2.098-1.164 7.005 1.356 8.144 2.383 1.073 2.028-.026 2.714 2.714.563 2.246 5.546 4.205 5.428 8.142-3.829.693-5.763 3.284-9.498 4.071.498 2.309-1.06 2.561-2.714 2.714v9.499c-4.287-.669-.504 6.734-5.429 5.428.229 3.53-.498 3.354-1.356 6.785-.342 1.363-1.057.681-1.355 1.356-.491 1.1-.653 2.665-1.356 4.069-.484.973-2.506 2.153-2.714 2.714-.733 1.982.763 4.813 0 6.784-.233.607-2.337-.054-2.713 1.357-.162.604.378 2.246 0 2.714-1.959 2.414-7.28.979-6.786 5.428-5.65-1.586-9.487-4.985-14.927-6.784-5.07-1.449-3.868 3.369-8.144 2.715-4.691 1.072-5.729-1.51-8.142-2.715-3.978-.266-7.022.364-9.499 0-3.805-.56-5.751-4.236-10.855-2.715-.375-1.207.47-2.899 0-4.068-.55-1.379-2.263-.483-2.714-1.357-.556-1.077.521-2.974 0-4.07-.243-.512-2.579-.969-2.713-1.355-.714-2.047 1.474-2.443 1.355-4.07-.123-1.71-2.305-2.271-2.714-4.071-.26-1.129.806-6.126 0-6.784-2.016-1.647-3.705-3.511-2.716-9.497-.335-1.476-2.696-.923-2.714-2.716.555-1.53-.724-3.979 0-5.429.322-.644 2.446-.817 2.714-1.354.35-.698-.188-1.949 0-2.716.378-1.507 3.503-1.308 2.716-4.069 5.178-.201 6.532 3.417 10.854 4.069 3.548.164 1.836-3.639 2.714-5.428.504-1.021 4.116-1.039 2.715-5.428 2.31.498 2.562-1.062 2.716-2.714 2.354 1.047 3.278-.99 4.068-1.357 1.17-.542 2.563-.651 4.071-1.355 1.841-.855 3.278-3.658 6.784-2.714 1.847-4.396 3.238-7.486 5.429-12.212.247-.534 1.057-.159 1.354-1.357.214-.852-.161-1.85 0-2.714 3.184 2.188 4.01-2.208 5.43-2.714 2.963-1.057 5.443.389 8.142-1.357.753-.487-.212-1.272 1.357-1.354 2.928-.154 3.509-2.041 5.428-4.071 1.091-1.154 1.622-2.912 4.072-2.714-1.006-5.979 4.392-5.561 5.427-9.498 8.469-1.231 10.104 4.37 13.569 8.142 3.142 2.733 7.254 4.498 8.144 9.489z"></path>
        </g>
      </g>
    </svg>