<svg
      xmlns="http://www.w3.org/2000/svg"
      width="1027.26"
      height="1025"
      overflow="visible"
      version="1.1"
      viewBox="0 0 1027.26 1025"
      xmlSpace="preserve"
    >
      <path
        fillRule="evenodd"
        d="M667.888 0h1.131c.254.877.031 2.229 1.13 2.26.19 2.451-4.008.512-5.65 1.13-.346-2.605 3.264-1.256 3.389-3.39z"
        clipRule="evenodd"
      ></path>
      <path
        fillRule="evenodd"
        d="M676.929 6.781c3.31-.295 3.472 2.555 6.781 2.26-.601 3.165-1.659 5.875-2.261 9.041-1.825.319-1.945-1.068-3.391-1.13.685 2.707 1.625 5.156 1.131 9.041-3.92-.906-4.346 1.683-7.911 1.13.295-3.309-2.556-3.472-2.26-6.781 5.029-2.095 11.621-6.205 7.911-13.561z"
        clipRule="evenodd"
      ></path>
      <path
        fillRule="evenodd"
        d="M654.328 11.301c3.193-.934 2.927 1.593 5.65 1.13-.743 1.518-2.415 2.104-4.521 2.26.182 1.324 2.06.954 3.39 1.13-.83 3.232-4.631 7.234-7.91 4.521-1.335-1.792 3.101-2.55 2.261-3.39-.063-.062-1.127.056-1.13 0-.108-1.764 2.719-3.145 2.26-5.651z"
        clipRule="evenodd"
      ></path>
      <path
        fillRule="evenodd"
        d="M672.41 18.082h-4.521c-.175-2.811 1.776-3.499 2.261-5.65 1.675.961 2.428 2.843 2.26 5.65z"
        clipRule="evenodd"
      ></path>
      <path
        fillRule="evenodd"
        d="M669.019 33.903c-1.583.4-.098 1.99 1.13 2.26-.311 2.327-4.21 1.064-4.52 3.391-1.228-.279-.768-2.247-2.261-2.26-1.218-2.887 4.865-3.956 1.13-5.651 1.347-1.693 6.1-2.224 10.172-2.26-.19 3.201-2.072 4.709-2.261 7.911-1.627-.633-2.758-1.763-3.39-3.391z"
        clipRule="evenodd"
      ></path>
      <path
        fillRule="evenodd"
        d="M676.929 32.773c1.518.744 2.104 2.416 2.261 4.521h-3.391c-.143-2.028 1.384-2.384 1.13-4.521z"
        clipRule="evenodd"
      ></path>
      <path
        fillRule="evenodd"
        d="M652.068 38.423c3.456-.82 3.324 1.95 6.779 1.13-.109 2.904-4.41 1.615-4.52 4.52-1.676-.96-2.429-2.843-2.259-5.65z"
        clipRule="evenodd"
      ></path>
      <path
        fillRule="evenodd"
        d="M649.807 46.334c1.484.399 1.778 1.99 3.391 2.26-.957 1.68-3.639 1.636-5.65 2.26.586-1.671 1.671-2.848 2.259-4.52z"
        clipRule="evenodd"
      ></path>
      <path
        fillRule="evenodd"
        d="M549.228 63.286c1.528-1.109 2.259-3.015 3.39-4.521 1.343-.44.574 1.973 1.131 2.26.841.433 1.364-1.008 1.13-1.13 3.633 1.896 5.586 3.506 10.171 4.52.91 7.691-6.717 6.844-5.649 14.691-3.555 1.343-5.98 3.814-10.172 4.521-.485-1.775-3.555-.966-2.26-4.521-6.354 1.081-9.015-1.534-12.432-3.39 1.032-1.981 2.102-3.927 5.65-3.391-1.566-2.953-9.59.55-11.301-2.26-.191-2.829 1.736-3.537 3.391-4.521-.744-1.517-2.416-2.104-4.521-2.26.29-2.646 4.965-.651 5.651 0 2.913-.273-1.553-1.945 0-4.521 1.483.399 1.776 1.99 3.39 2.26.462-2.723-2.064-2.457-1.131-5.65 2.279 1.487 3.824 3.71 4.521 6.78 2.625-.331 5.297-2.839 4.521 2.26 2.3-1.09 2.441-4.339 2.261-7.911 4.854-.385 3.056 4.12 2.259 6.784z"
        clipRule="evenodd"
      ></path>
      <path
        fillRule="evenodd"
        d="M494.983 82.497c.961-.208 1.066.44 1.13 1.13.982 5.045 2.8 9.255 3.39 14.691-3.072-3.708-4.261-9.298-4.52-15.821z"
        clipRule="evenodd"
      ></path>
      <path
        fillRule="evenodd"
        d="M576.351 87.018c-.079 4.064-4.716 3.571-9.041 3.391 1.188-2.956 4.592-3.697 9.041-3.391z"
        clipRule="evenodd"
      ></path>
      <path
        fillRule="evenodd"
        d="M543.578 94.928v5.65c1.381 1.632 4.313 1.714 5.65 3.391-3.082 4.188 2.685 7.339 6.781 7.911-2.507 5.028-8.795 6.273-11.302 11.301-3.182-1.142.313-4.799 0-6.78-3.165.602-5.874 1.659-9.041 2.26.877-3.644 2.363-6.678 4.521-9.041-1.326-5.078-6.643-6.165-5.65-13.561 4.19.799 4.85-1.931 9.041-1.131z"
        clipRule="evenodd"
      ></path>
      <path
        fillRule="evenodd"
        d="M336.77 195.507c-1.416 3.104-6.112 2.928-10.171 3.39 1.711-2.647 6.783-5.953 10.171-3.39z"
        clipRule="evenodd"
      ></path>
      <path
        fillRule="evenodd"
        d="M808.021 210.198c-.095 2.068-1.974 1.426-3.391 2.26-.4.236-2.005 2.204-2.26 2.26-1.416.313-3.645-4.387-5.65 0-2.881-3.146-8.214-3.842-9.041-9.041 1.055-.829 1.712-2.055 2.26-3.391 5.344 1.437 10.478 3.083 15.821 4.521.972.913.672 3.097 2.261 3.391z"
        clipRule="evenodd"
      ></path>
      <path
        fillRule="evenodd"
        d="M748.125 255.402c-2.03 4.75-6.038 7.523-7.91 12.431-9.234-.318-10.805-12.636-5.65-18.082 6.049.356 10.271 2.536 13.56 5.651z"
        clipRule="evenodd"
      ></path>
      <path
        fill="#fff"
        fillRule="evenodd"
        d="M766.208 261.053c1.927-3.857 3.134 1.387 2.26 2.26-.474.474-1.343-2.824-2.26-2.26z"
        clipRule="evenodd"
      ></path>
      <path
        fillRule="evenodd"
        d="M247.492 363.892c.909.598 1.834 1.179 3.39 1.13-.095 4.048-1.757 6.53-2.26 10.171-2.594-2.584-4.55-8.999-1.13-11.301z"
        clipRule="evenodd"
      ></path>
      <path
        fillRule="evenodd"
        d="M254.272 442.999c2.962.804 1.083 6.45 4.52 6.78-2.289 2.579-8.584-.392-7.911-4.52.912-.972 3.097-.672 3.391-2.26z"
        clipRule="evenodd"
      ></path>
      <path
        fillRule="evenodd"
        d="M530.016 506.284c2.976 1.17 3.807 4.481 6.781 5.651-.338 3.051-4.754 2.026-5.65 4.52-2.975-1.17-3.807-4.48-6.78-5.65.338-3.052 4.754-2.026 5.649-4.521z"
        clipRule="evenodd"
      ></path>
      <path
        fillRule="evenodd"
        d="M381.974 577.48c-4.191.802-4.851-1.931-9.042-1.13-.002-4.519-2.258-6.783-2.26-11.301 4.191.8 4.85-1.931 9.041-1.13.399 1.295 1.99 2.863 2.261 1.13 3.38 3.092-1.509 7.469 0 12.431z"
        clipRule="evenodd"
      ></path>
      <path
        fillRule="evenodd"
        d="M431.698 580.871c3.052.339 2.027 4.753 4.521 5.65-1.393 3.434-3.886-1.227-6.781 0-.175-2.81 1.775-3.498 2.26-5.65z"
        clipRule="evenodd"
      ></path>
      <path
        fillRule="evenodd"
        d="M203.418 864.525c-.972.912-.672 3.095-2.26 3.391 1.028 1.985 3.959 2.068 5.65 3.391-2.695 3.332-4.948 7.107-10.171 7.91-1.308-2.836-4.503-3.784-4.521-7.91-.744-1.517-2.416-2.105-4.52-2.261 2.688-2.466 7.443-2.482 11.301-3.39 1.149-.27 2.444-1.675 4.521-1.131z"
        clipRule="evenodd"
      ></path>
      <path
        fillRule="evenodd"
        d="M309.647 870.177c1.416 2.114-2.187 1.881-2.26 2.26-.158.823 1.892 2.491 2.26 3.391.761 1.853-.163 3.377 1.13 4.521-.077 3.313-2.583 4.196-4.521 5.65-1.841 8.33-1.869 18.472-5.65 24.862-3.026-.741-4.297-3.237-6.781-4.521-2.968.799-2.23 5.304-4.521 6.78-1.407-.296-2.441-1.564-3.39-2.26-.447-.328-1.875.384-2.26 0-.27-.271.318-2.104 0-2.261-.658-.323-2.402 1.712-3.39 0-.416-1.922.882-2.132 2.26-2.26-2.958-6.045 1.514-11.197 4.521-14.691-.031-1.1-1.383-.876-2.26-1.13.601-3.166 1.659-5.876 2.26-9.041-.599-4.3-2.361-7.435-3.391-11.301 1.517-.744 2.105-2.416 2.26-4.521 2.904.11 1.616 4.412 4.521 4.521 5.064-.965 9.708-2.348 12.431-5.651 3.314.83 4.861 3.429 6.781 5.652z"
        clipRule="evenodd"
      ></path>
      <path
        fillRule="evenodd"
        d="M212.458 866.786c1.504-2.866 5.016 1.656 7.911 1.13v5.65c-3.335-1.561-4.575-5.218-7.911-6.78z"
        clipRule="evenodd"
      ></path>
      <path
        fillRule="evenodd"
        d="M172.905 872.437c.982 4.372-2.76 4.021-3.391 6.78-2.232-.781-3.013-3.015-3.39-5.65 3.457.82 3.325-1.949 6.781-1.13z"
        clipRule="evenodd"
      ></path>
      <path
        fillRule="evenodd"
        d="M568.441 907.47c3.286.983 1.271 1.691 1.13 4.521-1.484-.399-1.778-1.99-3.391-2.261.278-1.227 2.247-.766 2.261-2.26z"
        clipRule="evenodd"
      ></path>
      <path
        fillRule="evenodd"
        d="M559.4 918.771h7.91c-.485 2.152-2.435 2.839-2.261 5.65-2.091-1.316-6.66.989-5.649-5.65z"
        clipRule="evenodd"
      ></path>
      <path
        fillRule="evenodd"
        d="M563.919 1025h-10.171c-.182-1.244.2-3.319-1.131-3.391-1.208-.063-.619-.91-1.129-1.13-1.17-.503-3.244.169-4.521 0-4.432-.585-10.63-2.213-14.691-2.26 1.267-5.143-.423-6.594 1.131-9.041.644-1.016 1.328 2.35 1.129 2.26 1.218.541 1.569-3.11 2.261-3.39 1.588.294 1.288 2.479 2.26 3.39 2.663.025 3.328-1.946 6.781-1.13-2.268 2.301-.295 3.011 1.13 4.521 10.196-.779 16.925 1.909 27.122 1.13v3.391c3.988-.157 5.053-3.234 9.041-3.391.294 3.309-2.555 3.472-2.261 6.781-2.24-.964-4.179.842-6.78 1.13-3.189.353-7.916-1.228-10.171 1.13z"
        clipRule="evenodd"
      ></path>
      <path
        fillRule="evenodd"
        d="M438.479 850.965c-1.585 3.292-3.894-2.004-6.781-1.13 1.585-3.292 3.893 2.004 6.781 1.13z"
        clipRule="evenodd"
      ></path>
      <path
        fillRule="evenodd"
        d="M0 843.054c5.742-7.442 12.397-13.973 11.301-28.252-1.69-.192-4.17.402-4.52-1.13-1.075-4.818-1.518-8.482 0-11.302.341-.633 1.867-1.531 2.26-2.26 1.261-2.339.691-5.456 3.39-5.65 1.444.062 1.565 1.447 3.39 1.13 1.983-3.667 5.652-5.65 9.041-7.911 1.501-2.386-.558-3.339 1.13-6.78 2.905-.763 2.684-2.953 3.391-4.521.166-.368 1.981-.708 2.26-1.13.911-1.375.33-3.104 1.13-4.521.248-.439 1.913-.666 2.26-1.13.795-1.061.806-3.226 1.13-4.521.716-2.865 3.476-8.698 1.13-12.431 3.94-1.539 4.68-1.981 3.39-6.781 2.887-.126 3.956-2.072 5.65-3.39-1.654-.982-3.582-1.692-3.39-4.521 1.982-5.345-1.488-5.154-1.13-11.302 2.531-1.235 5.663-1.871 7.911-3.39 3.299 1.222 6.512 2.529 11.301 2.26 2.011-2.132 3.285-5.002 7.911-4.521-1.62 3.287-.867 1.271 2.26 1.131 1.243 4.03 4.807 5.739 5.65 10.171 2.578.899 3.705.643 5.65 1.13.661.165 1.103 1.123 1.13 1.13 4.081 1.013 7.907.874 9.041 2.26.303.369 1.853-.284 2.26 0 .698.487 1.449 1.643 2.26 2.261 1.855 1.414 3.021 3.255 4.521 4.521 3.386 2.858 7.764 7.026 11.301 7.91 2.758.69 6.038 2.553 10.171 2.261 2.738 2.536 6.018 4.53 7.911 7.91 2.723.463 2.456-2.063 5.651-1.13 2.479 2.576 4.519 7.159 9.041 7.911 2.878.478 5.313-.803 9.041-1.131 1.734-6.929 6.176-11.151 7.911-18.081 1.502-1.135 4.205-1.068 4.521-3.391-1.945-.445-2.897 1.678-3.391 0 4.197-5.22 6.008-12.826 10.171-18.081-1.588-.296-1.289-2.479-2.26-3.391 3.723-1.551 4.568-5.98 5.651-10.171-1.501-3.772-6.611-3.938-7.911-7.911-1.252-2.138-1.442-5.339-2.26-7.91.333-2.305 3.058-2.216 3.39-4.521-3.034-1.824-1.68-3.579 0-5.65-1.502-1.135-4.205-1.068-4.521-3.391 1.335-.547 2.562-1.205 3.39-2.26-1.958-.451-6.991-1.957-6.78-3.391.055-.374 2.887.066 2.26-1.13-1.556.05-2.481-.532-3.391-1.13-1.494.013-1.033 1.98-2.26 2.26-.174-2.811 1.776-3.497 2.26-5.65-3.281-3.123-7.433-5.375-10.171-9.041-3.194-.934-2.927 1.593-5.65 1.131 1.654-4.021-3.631-6.772-1.13-7.911 2.104-1.082 3.777 3.385 4.521 0-2.03.146-2.645-1.122-2.26-3.391-.486-1.774-3.555-.966-2.26-4.521.88-.249 1.313-.946 1.13-2.26 5.684-.788 7.877 1.918 13.561 1.13-.049 1.203.532 2.871 1.13 1.13 1.613.271 1.906 1.861 3.39 2.261-.205-2.465.925-3.596 3.391-3.391 3.255 2.396 4.177 7.124 5.65 11.301 3.457.82 3.324-1.948 6.78-1.13-.191 2.829 1.736 3.538 3.39 4.521-.117-7.482 5.869 1.455 6.781-1.13-1.758-.295-.783-2.479 0-3.391.156-2.105.744-3.777 2.26-4.521.477-2.327-3.836-6.335-2.26-7.91 1.712-1.712 1.046-6.326 3.391-6.781 1.646 2.874 6.852 2.188 7.911 5.651.82 3.456-1.95 3.323-1.13 6.78 5.416 2.119 9.983 5.085 16.952 5.65 2.243-2.606-.284-1.256-1.13-3.391 5.074-5.474 16.43-4.665 24.862-6.78.899-2.577.644-3.705 1.13-5.65.175-.697 1.109-1.056 1.13-1.13.679-2.521-.234-6.459 2.26-7.911 10.015.597 18.11-.725 25.992-2.26 3.409.521 8.463 7.002 10.171 2.26-3.981-1.292-8.063-2.484-10.171-5.65 3.202-.113 7.474 4.479 9.041 2.26-2.12-.271.641-1.86-1.13-2.26-1.335-.548-2.562-1.205-3.39-2.26 3.194.934 2.927-1.593 5.65-1.131-.315-2.576.273-4.247 2.26-4.521 2.152-.484 2.839-2.435 5.65-2.26 2.09-5.444 3.942-11.126 7.911-14.691 7.215 4.069 11.67-4.325 18.082-4.521 1.083-.033 1.406.872 2.26 1.13 4.563 1.38 6.691.904 10.171 3.391-.924-4.313 2.405-4.375 4.52-5.65 4.654-.888 5.8 1.735 10.171 1.13-.687 4.454 2.528 5.005 5.651 5.65-.744-4.133 2.445-4.335 2.26-7.91 3.268 1.402 5.152.577 5.651-3.391 1.477-4.867-3.207-3.573-4.521-5.65 2.636-.377 4.869-1.159 5.65-3.391-1.815-1.353-2.331-7.699-2.26-9.04.042-.801 1.132-1.144 1.13-1.131.257-2.23-1.465-2.233-2.26-3.389 4.017 1.756.682-3.84 3.39-3.392.373-4.893-6.259-2.782-5.65-7.911 1.68-.957 1.635-3.638 2.26-5.65 1.003 2.271 4.947-.498 2.26-1.13-.271 1.735-1.861.166-2.26-1.13 1.795-1.188.296-3.868 1.13-5.65.065-.14 1 .108 1.13 0 .382-.313-.354-1.907 0-2.261.565-.564 2.479.218 2.26-1.13-3.156-1.449.517-5.38 2.26-5.65-1.294 2.318 1.775 5.387 2.26 2.26-1.68-.956-1.635-3.637-2.26-5.65 3.064-.703 2.813-4.721 6.781-4.521 3.567-.553 3.991 2.037 7.911 1.131 3.703-1.948 5.338-5.963 9.041-7.911 2.951.938 6.2-3.417 7.911 0-1.572 8.224-7.641 11.948-7.911 21.472-1.42-.248-2.31-1.76-2.26 1.131.611 1.439 2.453.098 4.52 1.13.404.202 1.698 1.831 2.26 2.26.915.7 2.03.9 2.26 2.261-3.303.84-2.187 6.101-6.78 5.65-1.866-.018-.632-3.135-2.26-3.391-1.005 2.59-3.291 6.016-3.391 7.911-.214 4.082-3.554-2.645-3.39 1.13.013.288 2.008.916 1.13 2.26-2.642.372-4.669 1.359-6.781 2.261-.819 3.456 1.95 3.324 1.13 6.78-1.501 1.136-4.205 1.069-4.52 3.391 4.03 1.214 1.292 3.587 0 4.521 4.214-1.923 1.789.667 5.65 1.13-1.082 2.309-2.308 4.472-3.391 6.78 3.42-.843 5.402 1.381 7.911 2.261 2.546.894 6.303.955 7.911 3.39-1.567.693-.17 4.351-2.26 4.521-1.055 1.206-4.169.353-3.391 3.391 4.126-2.323 5.075.508 7.911 2.26.257-4.64 5.51-4.284 10.171-4.521 1.692-1.697 2.021-4.759 4.52-5.65 4.425 4.339 8.898.366 12.431-2.26.156 3.987 3.234 5.054 3.39 9.041-2.636.377-4.869 1.157-5.65 3.39 3.327-.034 5.772 1.389 7.911 3.391 1.335 1.249.86 1.941 3.391 2.26 1.262.159.648-.923 1.13-1.13.903-.386 2.419.19 3.39 0a588.4 588.4 0 0119.212-3.39 15.925 15.925 0 015.65-5.651c7.017-1.271 14.328-2.246 21.472-3.39 2.219 1.925 5.648 2.64 6.78 5.65-2.246-.015-1.437-3.084-4.52-2.261 1.104 2.663.365 7.17 4.52 6.781 2.188 2.839 6.884-1.327 10.171-1.13 1.292-3.981 2.484-8.063 5.651-10.171 2.723-.464 2.457 2.064 5.65 1.13.812-3.152 4.652-3.839 5.65-5.65.543-.984.986-3.953 1.13-4.521 1.18-4.661 1.796-9.709 1.13-14.691-.674-5.05-.257-10.518 0-15.821 4.75-3.916 6.314-11.015 10.171-15.821 3.177-1.345 6.498-2.543 10.171-3.391 3.436 6.359 6.383 13.207 12.432 16.951 2.264-1.88 4.187-4.101 7.911-4.521.659-5.934-1.992-8.556-1.131-14.69.849-3.217 4.129-7.736 2.261-10.171-3.631-.995-1.549 3.726-4.521 3.39-.744-1.517-2.415-2.105-4.521-2.26-.379-3.679-2.261-6.826-2.261-7.911 0-.279.883-1.874 1.131-1.13-.449-1.349-1.647-1.145-2.261-2.26-.003-1.133.915-1.345 1.13-2.26-.114-1.268 1.644-1.759 0-2.26.004.628-.914 1.283-1.13 0-.877-.252-2.229-.031-2.26-1.13 2.861 2.057 2.366-2.672 3.39-3.39 1.773-1.244 5.52.245 5.651-2.26.182-3.45 11.416-3.292 15.82-3.391 2.905-.109 1.616-4.411 4.521-4.52 6.699 2.717 14.838 3.997 24.862 3.39v-6.781c1.539.43 2.142 1.512 4.521 1.13.313-.051.147-2.064 1.129-2.26 1.093-.219 1.38 1.087 2.261 1.13 1.334-1.679.978-5.049 4.521-4.521 4.111-.619 9.739 3.727 11.3-1.13-3.906-1.366-7.488-3.059-13.561-2.26-3.334-2.317-6.278-5.022-7.911-9.041 1.054.69 4.169 2.63 3.39-1.13-.837.675-1.145-1.133-1.129-1.13-1.154-.231-.837 1.066-1.13 1.13-3.83.84-5.034 2.047-6.782 3.39-3.999 3.077-3.644.614-6.78-1.13-2.355 2.232-4.604 3.765-7.91 2.26.99 5.268-2.932-1.556-3.39 2.26 3.49 2.768-3.246-1.242-2.261 1.13.882.25 1.313.947 1.131 2.26-1.674-.588-2.849-1.672-4.521-2.26-3.827 6.719-16.8 4.296-22.602 9.041-1.495-.013-1.033-1.981-2.261-2.26-.823 2.567-3.4 3.38-5.649 4.521.765-2.625 3.755-3.025 4.52-5.651-3.519.529-4.04-2.842-2.261-4.52-2.811-.174-3.497 1.775-5.65 2.26-.671-3.605 2.122-3.495 0-5.65-6.468-.503-8.638-1.881-11.301-2.261-1.076-8.547-1.773-17.697 2.261-21.472.795-.744 2.121-.867 2.261-2.26-6.824-5.659-2.039-15.992-5.652-24.862.994-3.527 5.331-3.71 6.782-6.781-.881-.25-1.315-.946-1.13-2.26-1.141-.013-1.422-1.981 0-2.26 3.452-.817 4.118 1.156 6.779 1.13 1.016-3.309 1.016-3.472 0-6.781 2.982.344 2.916-2.36 3.392-4.521 4.443 5.243 6.855-4.158 11.3-5.65 1.352-6.184 5.432-9.638 6.781-15.821 3.061-1.459 4.018-5.024 9.04-4.521.792-4.937-1.922-6.366-1.129-11.301-3.177-1.72-7.433-2.363-6.782-7.911-2.524 1.988-7.97.166-11.3 1.13-1.382.4-1.119 1.684-2.261 2.26-2.152-.485-2.838-2.435-5.649-2.26.374 2.118-1.435 2.517-1.131 4.521.067.447 3.59 1.728 1.131 2.26-3.817-3.741-8.048 1.691-10.171 3.391 1.526 1.109 2.258 3.015 3.389 4.521-2.265 1.878-5.252 3.034-5.649 6.78 2.316 1.828 2.849 5.438 4.52 7.911-4.018 3.893-5.766 10.054-10.17 13.562-3.618.901-5.703 3.338-10.171 3.39-.356 1.527-1.608 2.159-1.13 4.521-3.414-3.28-3.154 3.486-5.651 4.521-1.981 1.033-5.638.388-6.78 2.26 4.887-.401-3.048 7.533-4.521 4.521-.254 2.137 1.274 2.493 1.13 4.521-2.513.877-6.128.653-6.78 3.39 5.541 4.516-3.612 8.58-1.13 16.952-1.672-.588-2.848-1.672-4.52-2.26 2.066 8.3-1.195 11.553-1.13 20.342 3.034 1.487 6.007 3.034 9.041 4.521.77 4.126 4.284 5.511 5.65 9.041-1.133.003-1.345-.915-2.26-1.13-1.139 3.399 2.518 2.003 4.521 2.26-.295 3.309 2.555 3.472 2.26 6.78-1.445-.062-1.565-1.448-3.391-1.13-1.294 3.555 1.775 2.746 2.26 4.521-2.473 1.671-6.083 2.204-7.911 4.52 1.004.333 4.948 3.059 2.26 3.391-5.1-.775-2.592 1.896-2.26 4.521-5.072-.928-5.046 3.24-7.911 4.52.315-2.576-.272-4.248-2.26-4.52-.503 2.887-1.584 5.196-3.39 6.78-2.702.689-8.199-1.418-9.041 1.13 3.79-.776 4.131 1.896 4.521 4.52-2.577 1.553-4.248-2.913-4.521 0 1.989.274 2.576 1.945 2.26 4.521-.744 1.721-2.033.964-2.26 3.391-.138 1.482 1.982 2.193 1.13 4.521-1.133.003-1.345-.915-2.26-1.131-.281 2.135 1.311 2.497 1.13 4.521-.013.149-2.19 1.873-2.26 2.261-.212 1.179 1.284 3.07 1.13 3.39-.36.751-3.168 1.415-3.391 2.261-.271 1.029.128 2.328 0 3.391-.256 2.138-2.918 6.102 0 7.91-.096-3.332 2.266-3.6 3.391-4.521.375-.306-.299-1.857 0-2.26.5-.675 1.636-1.519 2.26-2.261.717-.852 1.523-2.998 2.26-1.13-1.831 3.873-3.688 7.102-5.651 11.301-1.766 3.779-2.584 8.36-5.65 11.302-.672-2.341 1.396-7.425-1.13-7.911-1.484 4.166-3.756 7.546-6.781 10.171-3.647-1.627-8.385-2.163-12.431-3.391.984 6.524-3.752.313-5.65 3.391-1.811 4.972 1.707 10.569-4.521 12.431-5.28-1.124-12.418-.388-15.821-3.39 1.806-1.585 2.887-3.894 3.39-6.781-2.377-1.389-.73-6.804-3.39-7.91-.604 5.047-1.074 10.228-6.781 10.171-.294 3.309 2.555 3.472 2.26 6.78-3.194-.935-2.927 1.594-5.65 1.13.151 5.644 4.583.453 5.65 5.651-6.286-.636-6.738 4.563-10.171 6.78.687-6.361-2.528-.611-5.65-1.13-.856-2.93-5.752-5.218-3.39-7.911 4.369-2.553 4.458 2.098 7.911 3.391-.167-9.044 5.752 4.444 6.78-2.261-2.063-1.722-8.649-2.319-5.65-5.65-2.012-.626-4.693-.58-5.65-2.26.343-5.24-.011-9.784-2.26-12.432 3.417-.35 8.789 1.255 9.041-2.26-1.847.823-4.916-2.246-2.26-2.261 2.012.625 4.693.581 5.65 2.261-1.29.356-4.318 5.356 0 4.521v-4.521c4.372.604 5.517-2.018 10.171-1.13.934-3.194-1.592-2.928-1.13-5.65 3.561 3.665.477-4.313 5.651-2.261-1.25-9.923-10.789-15.46-6.781-27.122-.102-1.781-2.883-.886-2.26-3.391.706-4.191 3.177-6.617 4.521-10.171-3.353 1.487-5.575 1-6.781-2.26-.787-5.685 1.917-7.876 1.13-13.561.014-2.246 3.083-1.437 2.26-4.521-3.066-.323-5.327-1.455-6.781-3.39-.881 5.718-6.719 6.577-12.431 4.521-.25.88-.946 1.314-2.26 1.13-.676.825 1.136 1.161 1.13 1.13.281 1.541-1.679.501-2.26 1.13-.76.821-2.391 2.6-3.391 3.39-1.863 1.471-2.983 1.568-4.52 2.26-.367.166-.711 1.981-1.13 2.26-.994.662-2.535.624-3.39 1.13-.291.172-.597.79-1.13 1.13-2.78 1.772-1.475-.292-4.52 0 .125-.012-.537.982-1.13 1.13-3.631.907-6.926-.684-10.171 0-.36-2.653-3.498-2.529-4.52-4.52 1.504-1.131 3.411-1.863 4.52-3.391-4.136 1.524-6.956-1.452-9.041-4.52-2.094-3.082-2.624-7.698-3.391-11.301 2.327-.31 1.064-4.21 3.391-4.52v3.39c3.009 1.541 2.462-2.518 3.39-3.39 1.363-1.283 4.31-.957 4.521-3.391-3.575-1.552-3.777-.246-7.911 0 2.036-3.494-2.668-5.007-2.26-6.78.087-.382 2.943-1.939 3.39-2.26 1.191-.856 2.225-1.417 3.391-2.26-1.62 1.654-.867 3.582 2.26 3.39 2.099-1.998-.491-3.3-1.13-5.65 2.773-.995 6.518-1.017 6.781-4.521-3.548-.534-2.986 3.042-5.651 3.39-.656-3.864-3.78-5.26-3.39-10.171 5.159 1.704 9.482-3.239 6.781-5.65-.311 1.026-4.21 3.795-4.521 1.13-2.001-5.364.704-5.938 1.13-11.301 1.983 2.532 7.698 5.431 10.171 1.13-5.093.195-10.346.552-10.171-4.521 4.333.205.41-.925 1.13-3.39 1.69-.193 4.171.404 4.521-1.13-1.677-.96-2.43-2.844-2.26-5.65 3.018.004 2.456-3.571 5.65-3.39.934-3.194-1.593-2.928-1.13-5.651 1.411.126 1.574 1.403 2.26 2.26.333.415 1.743-.745 1.13-1.13 1.855 1.165 1.604 1.36 3.39 3.39 1.121-4.368 6.761-3.557 9.041-5.65-6.765-.323-.207-.671 0-2.26.009-.073-2.738-1.382-2.26-2.26 3.92-.906 4.344 1.683 7.911 1.13.271-1.614 1.861-1.906 2.261-3.391-1.229-.271-2.714-1.86-1.131-2.26 2.717-2.583 6.835-.193 9.041 1.13.158-3.232 4.713-2.067 7.911-2.26-1.676-7.703 7.293-4.761 11.301-6.781 1.441-2.829-.574-3.537 1.13-4.521 4.006-.221 4.114-4.315 5.65-5.65 2.113-1.836 5.242-2.087 6.781-4.521-2.063-1.052 3.977-3.467 5.65-4.52.156 2.104.743 3.776 2.26 4.52 2.118-2.152.124-2.838 0-5.65-.628.003-1.283-.915 0-1.13 1.366-.238.695-1.255 0-2.26 5.199-.829 11.573-.48 13.561-4.521-1.33-.176-3.208.194-3.39-1.13 2.25-1.14 4.827-1.954 5.65-4.521-1.004-.332-4.947-3.058-2.26-3.39h3.39c.463-2.723-2.063-2.457-1.13-5.651 2.21-3.111 5.149 2.459 4.521-2.26-.013-1.493-1.98-1.033-2.26-2.26 3.82.429 4.822-1.959 6.781-3.391-1.776-.108-3.918.151-3.391-2.26-.004-1.134.916-1.345 1.13-2.26-.468-1.972 2.177.097 2.26 0 1.299-1.514-.742-3.439 1.13-4.52 1.352-.78 4.427.849 4.521-1.13-1.268-.238-1.759-1.253-2.26-2.26 2.787-.13 8.439-.729 9.041-2.26-3.844-2.136 1.936-3.962 1.13-6.78 2.295-.982 3.828-3.258 6.781-4.521 1.233-.527 5.572 1.479 4.52-2.26-2.476-3.354-6.278 5.017-7.911 2.26 3.436-1.131 1.442-1.863 0-3.39 1.127-.047 2.264.06 3.391 0 .917-.049.993-1.105 1.13-1.13 1.726-.319 5.041 1.235 5.65-1.13-.686-1.951-5.361.087-5.65-2.26h5.65c.109-5.783 2.603-2.984 3.391-3.39.557-.287-.212-2.702 1.13-2.26 3.837.307 9.162-.875 11.301 1.13-.204-4.692-8.218-1.576-10.171-4.521 1.613-.27 1.906-1.86 3.391-2.26 1.69-.192 4.17.404 4.521-1.13-2.085-.585.587-1.158 1.13-2.26.797-1.619.479-2.885 1.13-4.52 4.699-.575 4.685-5.863 6.781-9.041 2.246 1.882 1.438-.103 4.52 0 2.019-4.386 8.104-4.704 11.302-7.911 1.632.134 1.879 2.041 3.391 2.26-.157-.022 1.035-2.251 1.129-2.26.851-.077 1.338 1.208 1.13 2.26 3.632.994 1.549-3.725 4.521-3.391 1.132 1.505 1.863 3.412 3.39 4.521-.366-.941.46-2.496 0-3.39-.167-.326-1.982.277-2.26 0-.382-.382.369-1.863 0-2.26-1.424-1.53-4.333-.776-4.521-3.39 1.672-.588 2.849-1.672 4.521-2.26.138.468.74 2.177 1.131 2.26 1.36.288 1.248-2.577 2.259-2.26.77.24.563 3.024 1.131 3.39 1.332.857 4.186-.649 5.65 0-.315 2.576.272 4.248 2.26 4.521-.906-3.92 1.683-4.344 1.131-7.911 2.772-.995 6.518-1.018 6.779-4.521 3.269-.505-4.68-4.862-1.129-5.65 3.56 3.659.845-2.944 3.39-3.391 3.494 1.236 7.008-.993 9.041 3.391-3.813 3.721-6.765 8.303-6.78 15.821 4.295-.808 3.862-5.937 5.65-9.041.257-.447 1.907-.66 2.26-1.13.634-.845.68-2.629 1.131-3.39 1.002-1.696 1.215-4.138 3.391-4.521-.373 2.642-1.358 4.669-2.261 6.781 4.614-.345.604 2.359 1.131 4.52 4.27 1.157 3.357-5.032 3.39-5.65.152-2.897 3.227-1.208 3.39-3.39-2.104-.156-3.776-.744-4.521-2.26 4.8 1.409 3.022-3.759 5.651-4.521.896 2.493 5.312 1.469 5.65 4.521-1.464 3.152-2.404 3.501-1.131 4.521.987.789-4.09 2.836-2.26 4.52 3.112 1.092 2.65-3.371 3.391-4.52 1.267-1.967 2.47-3.791 4.521-4.521-.317 2.576.271 4.249 2.26 4.521.464-1.42 1.458-2.31 3.391-2.26.014 1.493 1.98 1.033 2.261 2.26 2.057 3.216 6.425 4.122 7.91 7.911-2.81.7-4.74 3.669-7.91 4.521-1.929.518-4.362-1.373-5.651 1.13 1.335.548 2.561 1.205 3.391 2.26.36 2.621-.182 4.338-1.13 5.65 4.599.833 3.82-3.713 5.649-5.65 2.681 1.841 6.537 2.505 10.172 3.39-1.243-1.944 2.127-1.938 2.26-2.26.447-1.083-2.474-2.752 0-3.39 2.81 2.088 8.517 1.278 9.041 5.65-1.157-.132-2.286 4.875-3.391 1.13-2.828-.142-3.538-2.157-4.521 1.13 3.297-.315 3.886.272 2.261 2.26 3.334-2.145 6.996.335 9.041-1.13v4.52c2.991-.873 3.677-1.814 6.78-2.26 3.115-.448 7.418-.543 10.171 0 .08.016-.068 1.046 0 1.13.255.311 1.857-.161 2.26 0 3.107 1.243 5.626 3.11 6.781 4.52.269.33 1.851-.194 2.26 0 .14.067-.108.998 0 1.13.291.355 1.846-.247 2.261 0 .464.278.644 1.895 1.13 2.26.824.618 2.65.708 3.391 1.13 1.328.757 1.354 1.151 2.259 2.26.29.353 1.847-.243 2.261 0 .163.095-.126.976 0 1.13.284.346 1.847-.231 2.261 0 .641.355 1.49 1.926 2.261 2.26 1.597.694 3.78.51 5.649 1.13 1.828.607 4.426 3.456 4.521 1.13-.88-.249-1.314-.946-1.129-2.26 5.054 2.103 5.138 9.177 13.56 7.911 1.229 4.069 4.51 6.623 5.651 10.171.436 1.354-.279 3.12 0 4.52.022.113.938.36 1.13 1.13.918 3.67-4.378 8.585-4.521 11.301-.066 1.246-.859.574-1.13 1.13-.681 1.396-.157 3.416-1.131 4.52-2.649 3.01-9.735 5.678-13.56 6.781-5.165 1.489-6.586.439-10.172 0-3.466-.424-5.795-.832-6.781-1.13-1.006-.305-2.347.151-3.39 0-5.314-.77-10.876-1.678-14.69-2.26-2.627-.765-3.026-3.756-5.651-4.521.191 2.45-4.009.512-5.65 1.13-1.499-1.123-2.139-2.139-3.391-3.39-1.251-1.251-2.267-1.892-3.39-3.39-.295 3.309 2.554 3.472 2.259 6.78 3.195-.934 2.929 1.593 5.652 1.13-2.843 2.738 2.276 2.513 4.52 3.39-.271 1.612-1.862 1.906-2.261 3.391 4.063.882 7.664 1.589 9.041 3.39.688.903.374 2.469 1.131 3.39 2.262 2.754 4.135 2.995 4.521 4.521-.026-.102-1.043.088-1.131 0-4.251-4.25 4.022 9.55-2.26 6.781.826 4.824 6.371 4.929 4.521 12.431 1.33.176 3.208-.194 3.39 1.13-.64 2.352-3.229 3.653-1.13 5.65 4.079 1.833 5.471-.193 9.04 1.13 1.891 1.878 4.576 2.958 4.521 6.78 5.685-.788 7.877 1.918 13.561 1.13 2.126-2.619 4.673-4.813 2.261-9.041h-9.041c-2.457-4.325-7.391-6.17-9.041-11.301.295-1.589 2.479-1.289 3.391-2.26.191-1.691-.404-4.17 1.131-4.521 2.405 2.115 7.195 1.844 9.041 4.521 3.192.934 2.927-1.593 5.649-1.13 2.004 2.895 7.922 1.873 10.171 4.521 3.479.842 2.172-3.102 5.65-2.26 2.104-1.08 3.776 3.385 4.521 0-1.401-.009-.663-1.246-1.13-2.26-1.411-3.06-3.994-4.495-5.65-6.78-2.182-3.009-5.467-5.387-5.651-10.171 3.942-5.098 7.638-10.445 12.432-14.691.991-3.906 1.967-7.829 4.521-10.171 3.268.334 5.908-.46 7.91 0 2.624.604 3.277 2.703 4.521 3.39 2.031 1.123 2.844-.022 4.521 1.13-.55-2.368-1.367-4.376-1.13-6.781.162-1.633 1.584-2.047 1.13-4.521-.673-3.674-3.623-5.551-4.521-9.041-1.642-.618-5.84 1.32-5.65-1.13-.574-5.127-1.709-8.956-2.26-13.561-.287-2.388 1.34-2.294 0-3.39-.327-.267.188-1.851 0-2.26-.304-.658-2.005-1.428-1.131-3.391-3.619-.523-3.983-4.303-7.91-4.52.114-1.268-1.644-1.759 0-2.26 6.25 2.604 13.691-.658 20.342-1.13 4.785 3.125 7.394 8.427 11.301 12.431-6.092 1.819-12.072 3.749-11.301 12.431 5.617 1.164 8.638 4.924 12.431 7.911.014-1.493 1.98-1.033 2.261-2.26 2.223-.337 2.241 1.526 3.39 2.26.893-2.499 3.952-2.827 5.65-4.521-.59-5.438-2.407-9.646-3.39-14.691 1.059-3.462 6.264-2.777 7.91-5.651-1.697-1.693-4.759-2.021-5.65-4.52 2.787.149 5.445.171 6.781-1.13 3.009-8.667 6.771-16.585 14.69-20.342 1.998-8.173 7.09-13.251 13.562-16.951-.332 2.304-3.057 2.216-3.39 4.521 2.524.747.58 4.072 1.13 5.65.039.113 1.021-.089 1.13 0 .369.302-.283 1.853 0 2.26.526.756 2.327.858 2.26 2.26-1.309.359-5.322 3.497-2.26 4.52 1.021-1.992 2.527-3.5 4.521-4.52.254.876.032 2.229 1.13 2.26-.528-3.519 2.842-4.039 4.521-2.26.248-3.639-1.999-4.782-1.13-9.041 1.99-1.023 1.867-4.161 4.521-4.521 3.166-.602 5.874-1.659 9.04-2.26.339-6.442 2.876-10.685 6.781-13.561.17 2.09 3.827.694 4.521 2.26h2.26c-.112 3.503.512 6.269 2.26 7.911.125-2.136 3.737-.784 3.391-3.39-.332-2.305-3.057-2.216-3.391-4.521 3.151-.993 3.748-4.539 4.521-7.911-2.313.617-2.406-1.605-3.39-2.26-.521-.347-1.684.26-2.261 0-.335-.151-.76-1.979-1.13-2.26-2.524-1.918-6.041-2.93-6.78-5.65.117.43 2.193-1.839 2.26-2.26.228-1.436-2.049-2.228-1.13-4.521 9.444-3.089 17.78-8.258 30.513-6.781 4.146.481 5.382.595 7.91 0 4.663-1.097 8.267.363 11.302-1.13.43 2.812 2.79 4.971 4.521 6.781 2.012 2.104 4.719 3.589 6.78 5.65 3.638 3.636 10.314 9.436 11.301 13.561.715 2.987-.733 6.298-1.13 10.171-.464 4.535-.876 9.047-1.13 11.301-.255 2.248.41 4.558 0 6.78-.271 1.464-.982 1.575-1.131 3.391-.21 2.564.368 4.794 0 6.78-.6 3.237-2.474 7.13-3.39 10.171-.847 2.812-1.436 4.978-2.261 5.651-.288.236.023 2.964 0 3.39-.056 1.074-1.029.791-1.13 1.13-2.295 7.79-3.342 15.441-5.65 21.472 2.844 2.542 3.208 6.13 4.521 9.041.181.402 1.997.651 2.26 1.13.846 1.538.339 3 1.131 4.52.089.171.851.691 1.13 1.13 1.371 2.152 2.126 1.995 2.26 4.521.064 1.225.89.6 1.13 1.13.963 2.125 2.218 5.953 2.261 6.781.063 1.185.938.649 1.13 1.13 1.058 2.633 1.146 6.146 2.261 9.041-.036-.091.969.877 1.13 1.13 1.437 2.256 1.469 4.722 2.26 6.781 3.85 10.01 9.008 21.955 12.432 30.513.11.276-.016.83 0 1.13.062 1.177.946.661 1.13 1.13.689 1.768.46 2.812 1.13 4.52.827 2.108 3.282 6.988 3.391 9.041.064 1.239.872.584 1.131 1.13.993 2.098 1.712 5.176 2.259 6.781.799 2.336 1.729 4.816 2.261 5.65.438.688.864 1.584 1.13 2.26 1.084 2.764 1.749 4.374 2.26 5.65.971 2.424 1.524 4.875 2.261 6.781 1.325 3.427 3.183 6.478 3.391 9.041.179 2.21-.944 3.241-1.131 4.52-.496 3.407-.84 5.822-1.13 6.781-.311 1.03.221 2.334 0 3.39-.335 1.607-1.508 2.081-1.13 4.521.365 2.355 3.516 4.21 3.391 6.781 5.747 1.034 9.601 3.959 15.821 4.521.173 3.594 2.563 4.972 2.26 9.041-3.812 4.181-6.722 8.991-10.171 13.561-3.423 4.536-8.121 8.882-10.171 14.691 3.693 1.939 8.36 4.567 10.171 6.781.295.36 1.848-.259 2.261 0 .723.454 1.345 1.668 2.26 2.26.413.267 1.9 1.111 2.26 1.13 1.303.068.51.74 1.131 1.13 2.524 1.587 4.628 3.227 6.78 3.39 3.205.245 5.358-1.755 9.041-2.26-.407-1.245.857-1.77 1.13-2.26.587-1.057.414-2.266 1.13-3.39.312-.489 1.875-.617 2.261-1.13.706-.942.529-2.542 1.13-3.39 2.242-3.169 3.669-6.901 7.911-7.911.721 2.293 5.282.744 5.65 3.39 1.297 6.99.963 15.612 2.26 22.603 2.499.892 2.827 3.953 4.521 5.65.452 2.938 3.372 3.407 3.391 6.78 8.512.152 14.502 2.826 22.602 3.391 1.007 3.514 3.775 5.265 4.521 9.04 6.16.511 9.285-2.014 15.821-1.13 1.01 4.956 4.063 6.816 3.391 11.301-.269 1.785-3.313 3.052-3.391 4.521-.068 1.31-.712.5-1.13 1.131-2.447 3.687-9.002 5.453-12.432 6.78.169 2.807-.584 4.689-2.26 5.65h-11.301c-1.998-1.016-3.3-2.729-5.65-3.391-1.399 3.541-5.263 3.827-7.911 4.521-3.046.798-6.878.674-10.171 1.13-3.312.462-7.029.528-10.171 1.131-3.73.716-12.228 2.892-13.562 4.521-.229.277-1.879-.108-2.26 0-3.706 1.046-10.214 2.062-11.301 3.39-.307.375-1.858-.3-2.261 0-.822.618-.81 2.185-2.26 2.261-2.231.118-2.616 3.289-4.521 3.39-2.076.109-2.628 2.459-3.391 3.391-.302.37-1.853-.283-2.26 0-.704.491-1.438 1.64-2.261 2.26-2.182 1.647-4.12 3.578-5.65 4.521-1.158.713-1.336 1.557-2.26 2.261-1.422 1.085-3.292 1.336-4.52 2.26-1.578 1.187-1.869 4.361-4.521 3.391 1.262 6.649 2.204 13.617 2.261 21.472 3.675 3.678 6.568 8.319 10.17 12.432 3.467 3.958 8.591 7.476 11.302 12.431.833 1.524.518 2.933 1.13 4.521 1.524 3.953 4.335 8.918 4.521 12.431.061 1.151.974.695 1.13 1.13 2.158 5.953 3.941 12.712 5.65 19.212-1.969-.085-3.514.253-4.521 1.13-1.582 4.733-6.07 7.865-9.04 11.302-.817.945-.367 2.298-1.131 3.392-1.334 1.907-5.82 5.265-6.78 5.648-.843.337-2.256-.036-2.261 1.131.627-.004 1.284.915 0 1.13-3.273.634 1.734 1.764 1.131 3.391-1.203-.049-2.871.531-1.131 1.13v2.26c-2.887.504-5.195 1.585-6.78 3.391 3.273 2.264-3.259 4.186-2.26 7.91-2.152.486-2.84 2.435-5.65 2.261-1.071 2.468-4.841 4.359-2.261 4.521.033.002-.051-1.081 0-1.13.577-.576 2.289-1.114 2.261 0-.295 1.588-2.479 1.287-3.391 2.26-.048 3.721-1.908 5.626-1.13 10.171-3.474 3.309-4.179 9.383-5.65 14.691 3.176 1.344 6.497 2.543 10.171 3.391.662 2.352 2.375 3.652 3.39 5.65 2.104 1.08 3.778-3.385 4.521 0 .429 5.675 1.688 12.257 2.261 14.691 1.068 4.54-.03 3.776 2.26 5.65.37.303-.286 1.854 0 2.26 2.03 2.89 6.891 4.795 10.171 6.78 3.9 2.361 7.233 4.758 11.301 5.651-.44 1.612-1.354 1.905 0 3.39 4.145 1.693 6.896 5.243 10.171 7.911.837.682 1.505 1.682 2.261 2.26.92.704 2.434.37 3.39 1.13 1.762 1.399 2.616 5.198 5.65 4.521 6.036-2.947 11.945.767 14.691 4.521h-10.171c.05 1.557-.531 2.481-1.13 3.391-1.494.013-1.033 1.979-2.26 2.26-1.438 6.168 4.34 13.882-1.131 16.952-6.193-2.095-12.313-4.262-16.951-7.91-4.182 1.863-9.374.745-13.561 1.129-3.916.361-8.006 1.516-10.172-1.129-.25-.306-1.861.15-2.26 0-2.604-.983-4.419-2.138-6.78-2.261-1.124-.06-.729-.996-1.13-1.131-2.115-.71-4.801-.473-6.781-1.13-8.06-2.672-14.994-5.864-20.342-10.171a378.883 378.883 0 01-54.244 0c-.295-3.472-2.451-5.082-3.391-7.91-3.69-.412-8.044-3.989-10.171-4.521-1.398-.35-1.504-.207-2.261-1.13-.228-.278-1.879.106-2.26 0-3.552-1.004-6.433-1.608-9.041-2.261-.943-.236-.749-.969-1.13-1.13-3.812-1.608-7.711-3.519-11.301-5.65-.162-.098.127-.976 0-1.13-.282-.348-1.847.229-2.261 0-.641-.357-1.54-1.837-2.26-2.261-1.742-1.026-4.45-1.573-5.65-3.391-4.371.605-5.518-2.017-10.171-1.13-.766-2.625-3.756-3.023-4.521-5.65-3.457-.818-3.324 1.95-6.78 1.13-.766-2.624-3.755-3.024-4.521-5.65-4.169-.729-8.635-1.16-11.301-3.39 3.725-1.169-.224-4.482 4.52-5.651 2.029.387 3.396 2.485 4.521 2.261.34-.068.033-1.024 1.13-1.13 1.895-.184 5.435-.343 6.781-2.261-1.806-1.585-2.887-3.893-3.391-6.78 1.806-1.585 2.887-3.894 3.391-6.78a15.933 15.933 0 005.65-5.651c-5.647-.756-8.525-4.281-10.171-9.04 3.885.494 6.334-.446 9.041-1.131-.315-2.575.272-4.248 2.26-4.52 2.832-2.441 6.983-3.565 9.041-6.781 2.113.06 2.393-.87 1.13-2.26-1.143-3.182-4.801.311-6.78 0-3.153 5.102-9.688 5.461-14.691 7.91-.144.071.111.995 0 1.131-.27.328-1.851-.194-2.261 0-.141.065.108.997 0 1.13-.273.333-1.848-.203-2.26 0-.145.07.111.993 0 1.13-.732.896-3.556.405-4.521 1.13-1.861 1.906-2.455 5.079-4.521 6.781-.294-1.59-2.479-1.289-3.39-2.261-1.59 4.062-6.148 5.153-11.302 5.65-2.868 5.043-6.214 9.607-10.171 13.562.696 3.07 2.243 5.293 4.521 6.78.217 3.552 2.101 5.435 5.65 5.65.647 2.96 3.841-2.811 3.391-2.26.255-.312 1.858.161 2.26 0 3.011-1.205 7.715-1.607 11.302-2.261-1.63 2.515-2.838 5.45-2.261 10.171-3.165.601-5.875 1.66-9.041 2.261-2.151-.484-2.838-2.435-5.65-2.261-1.402 3.495-2.786 7.007-5.65 9.041-3.166.601-5.875 1.66-9.041 2.261-.696 3.07-2.24 5.291-4.52 6.78-4.474 1.111-8.207 1.566-11.302-1.13 3.693-2.724 1.243-6.457 1.131-11.301-4.907-2.626-13.148-1.92-16.951-5.651 4.052-2.906 6.128-7.195 10.171-10.171 1.983-1.459 5.546-1.052 5.649-4.52-1.647-.189-1.264-1.246-2.26 0-.791.989-3.533-4.906-5.65-3.391-2.363 2.158-5.396 3.646-9.041 4.521-3.205-1.692-7.438-2.356-11.301-3.391.271-1.613 1.86-1.906 2.261-3.391-4.592 1.303-5.778-3.229-9.041-3.39-.951-.047-2.167.769-3.391 1.13-1.896.561-2.675.658-4.521 1.13-2.488 5.046-4.877 10.191-6.78 15.821h-4.521c-.24 3.247-1.347 3.555-2.261 4.521-1.474 1.559-2.392-1.104-2.259 2.261 1.157 5.874 1.157 9.946 0 15.821-1.949.021-3.71 1.197-5.652 2.26-.959.525-2.426.425-3.389 1.13-.543.397-.081 3.486-1.131 1.131-1.228.27-2.713 1.86-1.13 2.26-.003-.628.915-1.282 1.13 0-1.141 2.102-2.68 2.504-3.391 5.65-1.455 6.447 1.657 16.203-2.261 20.342h-6.779c-1.504 3.393-1.15 8.646-1.131 13.562-.203 3.188-5.371 1.409-4.52 5.65 2.451-.85 2.769 2.351 3.391 3.391 3.002 5.034 4.386 10.031 6.78 14.69 2.415.931 4.584 1.834 5.65 2.261.275.11.829-.016 1.13 0 1.214.063.614.906 1.13 1.13 2.681 1.171 7.201.369 6.78 4.521v3.391c-7.782 1.636-16.59 2.245-25.992 2.26-.414 3.353-1.959 5.574-4.52 6.78-1.142-.136-1.337 1.082-2.261 1.131-1.247.065-.575.859-1.13 1.13-1.531.745-3.178.194-4.521 1.13-.488.341-1.765 1.766-2.259 2.261-2.66 2.659-3.962 5.953-6.781 7.91-2.174-8.954 5.464-8.099 7.911-12.431-3.639-.249-4.782 1.998-9.041 1.13-1.771-1.62-.89-5.892-4.521-5.65-.14-1.285-1.085-.81-2.261-1.13-2.839-.775-6.373-1.591-9.041-2.261-2.793 1.063-5.889 3.378-9.041 4.521-.664.24-1.572-.172-2.259 0-1.892.473-4.215 1.993-5.651 2.26-2.422.453-5.06-1.273-6.78 1.131 1.729 2.209 2.51 3.948 4.521 5.65 2.156 1.825 5.727 1.43 6.78 4.521-3.554-1.344-5.979-3.815-10.171-4.521-2.862 3.429 5.718 2.649 3.391 9.041-3.752-1.146-3.539-6.255-9.04-5.651-.939 3.306 6.735 3.668 3.39 5.651-2.724.462-2.456-2.064-5.65-1.131.462-2.723-2.064-2.456-1.131-5.65-2.887-.503-5.195-1.585-6.779-3.39-.722-2.466 3.202-3.596-1.131-3.391.559 1.403-1.957.661-2.261 1.13-.416.644.13 2.615 0 3.391-.617 3.711.537 6.295 1.131 6.78.369.303-.284 1.854 0 2.261.545.781 1.62 1.3 2.261 2.26.528.795.599 1.535 1.13 2.26.528.725 1.724 1.468 2.259 2.261.532.786.603 1.538 1.131 2.26 1.604 2.192 5.332 5.037 3.391 6.781-2.912.557-6.395-7.488-6.78-2.261-4.026 2.402 4.985 4.208 1.129 6.781-2.011.624-4.693.58-5.65 2.26 5.286.741 11.501.554 11.302 6.78 6.727-.322 8.971 3.837 12.431 6.781.375 4.519-2.015 6.272-1.13 11.301-3.364-1.533-4.692-5.103-6.781-7.911-3.148.995-6.876 1.411-9.041 3.391 3.469-.931 2.622 3.611 3.391 4.521 1.158 1.369 1.19-.073 2.261 1.13 1.588.295 1.288 2.479 2.26 3.391-5.075.554-8.467-.573-12.431-1.13-1.269.114-1.76-1.643-2.261 0 2.337 1.411 2.21 4.159 3.392 6.78 2.126 4.725 4.684 9.478 4.52 15.821-4.22-1.808-5.023-7.03-10.172-7.911-1.987 1.779-1.48 6.053-3.39 7.911-2.534-4.246-2.648-10.912-6.78-13.562-1.635 1.755-1.507 5.274-3.39 6.781-.295-1.589-2.479-1.287-3.391-2.261.084-1.969-.252-3.515-1.13-4.521-.495-3.885.446-6.334 1.13-9.04-2.331-4.073-6.709-6.099-9.041-10.171 1.668-1.26 2.092-2.973 3.39-4.521 1.476-1.76 3.385-2.477 4.521-4.521-3.07-2.604-5.292 2.151-6.781 0-1.253-2.138-1.442-5.34-2.26-7.911-2.104-.155-3.777-.743-4.52-2.26.062-1.445 1.448-1.565 1.13-3.391-4.408-2.907-6.926-7.734-9.041-11.301-1.354-2.286-1.84-3.39-3.39-4.521-1.503-4.896-2.364-8.015-4.521-10.171-2.428-2.428-5.579-3.872-6.78-6.78 4.013.294.515-4.5 1.13-6.781.026-.096 1.035.079 1.13 0 .351-.286-.237-1.846 0-2.26.793-1.386 2.359-1.184 2.26-3.391v-10.171c1.011-2.002 4.587-1.44 3.391-5.65-2.621.36-4.339-.182-5.65-1.13-4.188-6.039-8.645-10.364-13.562-14.691-1.225-1.077-2.328-2.328-3.39-3.391-2.859-2.859-5.516-3.329-7.911-5.65.627.005 1.282-.915 0-1.129-.25.88-.946 1.313-2.26 1.129 1.965-2.074-1.531-4.436-3.39-6.78-1.636-2.062-3.723-5.363-5.651-6.78-1.68-1.235-4.201.088-4.52-2.261h-9.041v-5.65c-1.764-.331-3.33-2.992-5.65-5.65-4.508-5.163-6.578-5.578-3.391-7.911.72-.526 1.439-1.772 2.26-2.26-3.313-.077-4.197-2.584-5.65-4.521-1.025-6.808.098-16.074-6.78-15.821-2.604-.172-3.403 2.978-4.521 4.521-1.47 2.028-2.201 4.628-4.521 5.65-1.331-5.449-2.767-10.795-4.521-15.821.46-2.178 4.381-.893 3.391-4.521-.955.633-.992-1.077-1.13-1.13-.837-.319-2.41 1.093-2.26 1.13-1.405-.349-1.976-2.553-4.521-2.26 1.012 3.648-3.685 1.588-4.52 3.39-4.069.396-5.446 1.729-9.041 0-2.796 4.971 2.088 7.216 3.39 11.301-1.557.326-1.331 2.438-2.26 3.391-.793.813-4.812.119-3.391 3.391-.249 3.64 2 4.781 1.13 9.041a143.813 143.813 0 0116.951 16.951c2.217 4.281.901 11.044 2.26 15.821.084.295.902.218 1.13 1.13.403 1.615.424 2.283 1.13 3.391.518.813.624 1.517 1.13 2.26.857 1.26 2.531 2.16 3.39 3.391 2.277 3.261 3.927 7.43 4.521 7.91.441.358 1.73-.238 2.26 0 .833.376.813 2.185 2.26 2.261 1.162.061.681.961 1.13 1.13 2.914 1.091 7.666.424 11.301 1.13.43.084 1.603 2.174 3.391 1.131 1.493.013 1.033 1.98 2.26 2.26-.208 3.56-6.087 1.447-5.65 5.65 4.582 4.612 10.979 7.465 16.952 11.301 1.162.747 2.269 2.705 3.39 3.391.471.287 3.269 1.123 3.391 1.13 1.304.068.504.729 1.129 1.13 3.311 2.119 6.879 3.269 9.041 5.651.571.63.741 2.764 1.13 3.39.423.68 1.805 1.5 2.26 2.261.67 1.117.581 2.462 1.13 3.39.173.292.791.597 1.13 1.131.513.804.502 1.607 1.13 2.26-2.494.897-1.468 5.312-4.521 5.65-.459-2.413-3.415-1.154-4.52-2.26-.386-.386.342-1.825 0-2.261-1.32-1.672-2.56-3.489-3.391-5.65-3.153-.988-5.582-2.705-9.041-3.391-2.622-1.654 2.208-3.582-2.26-3.39-5.302 3.74-9.828 8.253-10.171 16.951 4.166 1.484 7.545 3.757 10.171 6.78 2.207 9.741-4.266 10.803-11.301 11.302.554 3.566-2.036 3.991-1.13 7.91-4.601 2.18-5.77 7.791-11.301 9.041-1.143-1.872-4.8-1.228-6.781-2.26-.253-.877-.031-2.229-1.13-2.261-2.203 4.579-6.505 7.056-7.911 12.432 2.191 1.575 1.685 5.849 3.391 7.91-2.421 2.477-3.517 6.278-6.781 7.911-2.736-1.407-5.49-2.798-9.041-3.391-1.27-2.875-2.776-5.512-4.521-7.911-3.202-.189-4.71-2.071-7.911-2.26-.741-1.781-3.58-4.471-4.521-4.521-2.264-.119-2.354-2.681-3.39-3.391-1.328-.909-3.087-.433-4.521-1.13-.109-.053-.738-.879-1.13-1.13-.82-.523-1.548-.552-2.26-1.13-2.499-2.027-2.963-3.255-4.521-6.781 4.318-3.037 2.877-5.644 6.78-6.78-.246.07 1.087 2.22 1.13 2.261 1.952 1.817 3.906.658 5.65 0 1.285-.485 1.687-1.126 3.39-1.131 2.166 2.355 4.333 4.709 7.911 5.65 6.953.549 10.798-2.011 18.082-1.13 3.653 4.692 8.664-.514 14.691 0 1.402-3.063 4.362-2.812 2.26-6.78 3.44.05 4.394-2.386 6.781-3.391-.941-8.853-4.931-14.657-5.65-23.731-4.528-2.63-11.387-2.929-13.562-7.911 4.16-2.334-.042-5.779-1.13-9.041-3.457-.819-3.324 1.949-6.781 1.13 3.152-4.967-3.604-2.95-4.521-6.78-1.486-3.033-3.034-6.007-4.52-9.041-4.372.605-5.517-2.017-10.171-1.13-5.961-9.484-15.438-15.45-19.212-27.122-2.472-1.671-6.083-2.204-7.911-4.521v-4.521c-1.015-.701-2.695-1.293-3.39-2.26-.615-.856-.341-3.711-1.13-4.521-.736-.755-3.663.638-3.39-1.13 4.903-7.479-1.805-16.023-2.26-24.862-7.122-2.673-11.192-8.396-18.082-11.302-3.517 3.265-8.195 5.366-12.431 7.911-1.127.048-2.263-.06-3.39 0-.917.048-.993 1.104-1.13 1.13-1.725.318-5.041-1.234-5.65 1.13 1.366.24.695 1.255 0 2.261-.294 1.588-2.479 1.289-3.39 2.26-4.52.479-3.383-3.689-6.781-3.39-1.862 1.905-2.455 5.078-4.521 6.78-9.489 1.579-11.575-4.247-18.082-5.65-1.152-1.484-1.108-4.166-2.26-5.65-4.267-1.057-5.305-.063-7.911-1.13-4.211-2.193-6.409-6.399-11.301-7.911-3.41 3.747-10.457 3.858-14.691 6.78-.253.878-.031 2.229-1.13 2.261.193 5.081.897 9.649 2.26 13.561-5.36-.463-2.82 6.973-5.65 9.041-5.811.986-12.54 4.746-20.342 5.65-8.519.989-16.606-2.355-21.472 2.261.899.126 3.425 3.735 1.13 3.39h-5.65c-2.756 2.892-5.946 5.359-9.041 7.911-3.283 2.707-6.378 5.835-10.171 7.911v13.561c1.015 1.999 2.728 3.3 3.39 5.65-7.619 2.176-14.591 4.998-20.342 9.041.823 3.084-2.245 2.274-2.26 4.521.881.249 1.314.947 1.13 2.26.627-.003 1.282.916 0 1.131-5.568-1.186-8.126-2.599-11.301-2.261-1.159.124-.637.92-1.13 1.13-.913.393-2.53-.481-3.391 0-.526.295-1.592 1.761-2.26 2.261-2.462 1.843-3.925 3.229-5.65 4.521-3.292 2.463-2.545 1.84-4.521 0-3.146-2.93-5.886.571-9.041 0-8.795-4.013-16.568-9.048-25.992-12.432-3.549 3.408-7.637 1.051-12.431 0-2.889 2.008-4.938 4.857-9.041 5.65-6.549-3.277-9.889-14.407-6.78-23.731-2.158-2.362-3.645-5.396-4.521-9.041-5.666-1.868-10.272-4.796-18.082-4.52-3.559-3.977-7.117-7.951-14.691-7.912-.01-.387-.01-.763-.01-1.141zm710.833-72.326c1.387 5.154-3.964 3.571-4.521 6.78 1.493.014 1.033 1.98 2.26 2.261.393-3.306 7.278-7.209 2.261-9.041zM504.024 594.433c3.457-.82 3.324 1.949 6.781 1.13v-6.781c.148-1.485.171-8.176-1.131-4.52 1.118 6.391-4.276 6.27-5.65 10.171zm264.443-331.12c.874-.873-.333-6.117-2.26-2.26.918-.564 1.787 2.734 2.26 2.26zm-343.55 127.701c-.346-2.606 3.265-1.256 3.39-3.39-2.866-1.196-6.441 2.379-3.39 3.39zm-10.17 6.781c2.723-.462 2.457 2.063 5.65 1.13-3.125-5.014 3.98-3.516 5.65-6.78-4.398 1.252-8.174 3.125-11.3 5.65zm-2.261 1.13c.308-1.538-.7-4.411-1.13-2.26-.308 1.538.7 4.411 1.13 2.26zm-35.033 18.082c-.541-.05 1.103-3.656 1.13-3.391-.134-1.279-1.334-1.75-2.26-2.26.544 3.706-1.342 5.425 1.13 5.651zm509.674 0c.78 1.091 2.508 1.623 1.131-1.13-.261-.522-.619-2.092-1.131-2.26-1.515-.497-.023 1.075 0 1.13.242.562-.349 1.77 0 2.26zm-231.669 6.78c2.105-.155 3.777-.744 4.521-2.26-2.813.174-3.498-1.774-5.65-2.26-.255 2.136 1.272 2.493 1.129 4.52zm-291.566-1.13c1.642-.618 5.841 1.321 5.65-1.13-2.636-.343-4.868-2.413-5.65 1.13zm526.626 2.26c-.314-.052 2.28-2.146 2.26-2.26.012.067-2.339-1.069-2.26-1.13-.344.263.236 1.866 0 2.26-.097.164-1.716.844 0 1.13zm-228.279 9.041c-.126-.898-3.737-3.426-3.392-1.13 1.141.013 1.422 1.981 0 2.26-1.924-2.22-2.639-5.648-5.649-6.781 1.788 5.955 4.589 8.849 2.26 14.691 6.97 2.442 12.141 5.727 14.691 11.301.532 1.163-1.971 1.815-1.13 3.391.324.608 3.425.028 3.391 1.13.217-3.926 3.997-4.291 4.52-7.911-4.148-5.27-7.905-10.93-11.3-16.952.77-3.027-1.082-5.149-1.131-5.65-.302-3.066.215-5.147-3.391-5.65.304 4.398 6.037 8.176 1.131 11.301zm228.279-1.13c.078.506 3.067 1.682 3.391 2.26.326-3.701-3.587-3.54-3.391-2.26zm-519.846 9.041c-.338-2.221 1.526-2.241 2.26-3.39-2.136.254-2.493-1.273-4.521-1.13.157 2.104.745 3.776 2.261 4.52zm241.842 11.301c1.685 3.55.858 5.434-3.391 5.65-.408 2.805 2.254 3.473 3.391 4.521 1.635 1.506 2.991 2.281 4.521 4.521 1.584 2.322 3.271 5.649 3.391 7.91.066 1.266.827.551 1.13 1.13 1.428 2.734 1.339 8.847 6.78 7.911.617-1.642-1.321-5.841 1.131-5.65 4.191.8 4.85-1.93 9.04-1.13-.427-4.194-.172-7.707 3.391-7.911-.569-4.707-3.954-6.594-4.521-11.301-6.986-3.185-12.594-7.749-19.212-11.301.364 4.13-3.042 4.491-5.651 5.65zm-254.273-2.26c.324 1.992-5.321 3.5-2.26 4.521 1.702-3.195 7.687-2.108 10.171-4.521h-7.911zm333.38 21.471c2.138.254 2.494-1.273 4.521-1.13.205-2.465-.925-3.596-3.391-3.39-.357 1.529-1.609 2.159-1.13 4.52zm11.3 19.212c3.807 3.432 3.427-4.178 0 0zm-236.19 3.39c.061-1.944-.87-2.897-2.26-3.39-.061 1.944.869 2.897 2.26 3.39zm5.65 3.391c2.514.49 6.128 2.597 6.781-1.13-1.991-1.023-1.868-4.161-4.521-4.521 1.617 5.231-6.867-1.111-3.39 2.26 2.349.633 2.395 1.763 1.13 3.391zm227.151 0c.017-1.866 3.135-.632 3.39-2.26-2.304-.332-2.216-3.058-4.521-3.39 1.939 2.886-1.294 3.955 1.131 5.65zm-5.651 4.52c-.062 1.439 1.334.616 2.26 1.13.642.356 1.539 1.836 2.26 2.26 1.807 1.064 3.625 1.662 4.521 2.26 1.702 1.135 3.188 1.408 5.65 1.13-.205 2.465.925 3.596 3.391 3.39-.924-5.916 2.406-.514 4.521-3.39v-4.521c-1.528-.355-2.158-1.608-4.521-1.13-2.121-1.81-6.921-8.545-9.041-3.391 1.651.986 4.376.897 3.391 4.521-3.194.934-2.927-1.592-5.65-1.13-.254.877-.032 2.229-1.13 2.26-1.069-1.285-5.499-8.381-5.652-3.389zm-109.62 18.082c.878 3.645 2.362 6.679 4.521 9.041.464-1.927 1.458.237 3.391 0 .55-4.316-3.996-3.537-5.65-5.65 4.655-3.308 2.784-9.383 1.129-14.691-4.055-.666-5.467 1.313-7.91 2.26.875 3.643 2.361 6.678 4.519 9.04zm179.687-3.391c1.943.446 2.896-1.677 3.39 0-2.679 3.245.513 7.854 3.391 9.041.294-3.309-2.556-3.472-2.261-6.78-.313-1.981 3.182-5.64 0-6.781 1.087 4.102-5.08.949-4.52 4.52zm110.749 1.131c-.507.078-1.682 3.066-2.26 3.39 3.701.327 3.539-3.586 2.26-3.39zm-19.212 14.691c-1.146.789-3.175 1.505-4.521 2.26.704 4.376.937 4.654-1.13 7.911 5.233-.419 4.965-6.337 6.78-10.171 1.249-.766 5.862-3.756 3.391-4.521-1.663 1.473-2.637 3.225-4.52 4.521zm-488.203-2.261c-.821 1.905-5.99 5.191-2.26 7.911.003-2.153 3.571-1.464 4.521-2.261.979-.821.879-2.951 2.26-3.39 1.385.359 6.979-.183 3.39-1.131-3.669.657-5.258-.768-7.911-1.129zm2.26 7.912v2.26c2.781 1.758 3.323-3.838 1.13-3.391-.064.69-.168 1.338-1.13 1.131zm481.422 11.3c-.548-1.336-1.205-2.562-2.26-3.391-.174 1.512 1.775 6.232 2.26 3.391zm-4.52 3.391c-.315 2.575.273 4.247 2.261 4.52.249-.88.945-1.313 2.26-1.13.316-2.575-.272-4.248-2.26-4.521-.249.881-.948 1.315-2.261 1.131zm13.561 9.04c-2.021.274.211 1.577 1.13 0 .312-.531-.366-1.771 0-2.26.572-.762 2.294-.854 2.261-2.261-2.979-.343-2.914 2.361-3.391 4.521zm-1.13 12.432h5.65c-.271 1.612-1.86 1.905-2.26 3.39 3.578-.942 5.744-3.296 7.91-5.65-4.371-.604-5.517 2.018-10.171 1.131.464-2.723-2.063-2.457-1.13-5.651.013-1.494 1.979-1.032 2.26-2.26-2.151-2.118-2.839-.124-5.65 0 .004-.628-.915-1.282-1.13 0 2.158 2.36 3.646 5.395 4.521 9.04zm-2.26 32.772c.333-2.304 3.058-2.216 3.391-4.521-1.556.049-2.481-.533-3.391-1.13 1.467 2.804-2.521 5.486 0 5.651zm-431.698 6.781c.785-3.153-5.623-4.781-6.781-2.261 2.375.932 4.407 4.654 6.781 2.261zm414.747 45.204c-.022-1.689 4.199-4.623 1.13-5.65-.23 1.439-3.285 5.535-1.13 5.65zm-3.391 18.082c2.324-.135.805-4.019 1.131-5.65.404-2.029 3.002-7.998 0-9.041.659 5.934-1.991 8.556-1.131 14.691zm-14.69 21.471c3.247-2.282-2.272-3.567-2.261-1.13 1.134-.003 1.345.915 2.261 1.13zm-3.391 6.781c-.049-1.556.533-2.48 1.13-3.39h-2.26c-1.265 1.628-1.219 2.758 1.13 3.39zm-4.521 5.651c.062 1.444 1.448 1.564 1.13 3.39-2.185 1.12-2.166 6.894-5.65 3.391 1.227 2.895-3.434 5.388 0 6.78a31.27 31.27 0 017.911-7.91c-.674-2.341 1.396-7.424-1.131-7.911-.013 1.493-1.98 1.032-2.26 2.26zm-636.245 28.252c-.36-2.653-1.785-4.242-1.13-7.91-1.493-.014-1.033-1.98-2.26-2.261 1.232 2.22 2.276 16.65 3.39 10.171zm481.421 33.903c4.269.841 11.353 2.819 12.432-2.261-2.95-.937-6.2 3.418-7.91 0-.064-.689-.17-1.338-1.13-1.13 1.756 4.018-3.839.683-3.392 3.391zM526.625 957.194c-3.244-.232-3.543-.182-5.649-1.131-.421-.189-.575-2.104-1.131-2.26-2.486-.702-2.002 1.388-3.39 0-.816-.816-8.741-.04-6.781 1.13 5.569 1.29 14.219 11.461 16.951 2.261z"
        clipRule="evenodd"
      ></path>
      <path
        fillRule="evenodd"
        d="M490.463 297.216c-4.648.722-6.904 10.329-11.3 4.521-1.006.501-2.022.992-2.261 2.26-2.612-.319 1.031-2.635 1.13-4.521.086-1.63 1.393-2.593 4.521-2.26-1.6-3.489-.958-8.455 4.521-7.91-.284 1.228-2.393 6.913 1.13 3.39 1.751-1.753.507-.416 2.259 4.52z"
        clipRule="evenodd"
      ></path>
      <path
        fillRule="evenodd"
        d="M383.104 576.351c2.133.902-2.775 6.436-3.39 9.041-3.328-3.038 2.725-6.25 3.39-9.041z"
        clipRule="evenodd"
      ></path>
      <path
        fillRule="evenodd"
        d="M662.239 30.513h-4.521c.4-1.484 1.99-1.778 2.261-3.39-2.308 1.082-4.472 2.309-6.78 3.39-2.841-.484 1.879-2.435 3.391-2.26-.268-3.123-6.377-.405-5.651-4.521 2.575.316 4.248-.272 4.521-2.26 3.537.231 8.295-.762 10.172 1.13.961.208 1.064-.44 1.129-1.13 2.656.015-.413 3.083-2.26 2.26.292 3.309-2.557 3.472-2.262 6.781z"
        clipRule="evenodd"
      ></path>
      <path
        fillRule="evenodd"
        d="M643.027 32.773c-.524 5.35.981 1.679 4.521 2.26-2.034 3.24-4.245 6.303-6.781 9.041 3.013 3.626 1.351 4.938-1.129 7.911-1.055-.829-1.715-2.055-2.261-3.39-2.028-.144-2.385 1.384-4.522 1.13-.167-1.505 4.596-3.412 1.132-4.521.781-2.233 3.015-3.013 5.651-3.391.314-2.576-.273-4.248-2.261-4.52-1.584.399-.099 1.99 1.13 2.26-.71 2.406-2.213-.358-3.391 0-2.799.849-3.424 4.564-4.52 7.911-2.156-.481-2.046-3.229-5.651-2.26.803-1.253 2.066-3.154 3.391-4.521.75-.775 2.602-2.854 3.39-3.39.748-.51 2.542.35 3.391 0 2.932-1.208 4.841-5.22 7.91-4.52z"
        clipRule="evenodd"
      ></path>
      <path
        fillRule="evenodd"
        d="M742.475 141.262c-3.056 1.016 2.384 2.729 3.391 3.391-1.715 7.005 5.01 15.502-4.521 14.691.35 1.534 2.829.938 4.521 1.13-.589 1.672-1.674 2.848-2.261 4.521.908-.598 1.835-1.179 3.391-1.13-.5 1.007-.993 2.021-2.261 2.26.183 1.324 2.061.954 3.391 1.13-.398 1.484-1.988 1.778-2.26 3.39-.374 1.358 1.889.552 2.26 1.13 1.15 1.792.429 6.958-2.26 5.651 1.028 1.985 3.959 2.067 5.65 3.39-.816 3.453 1.155 4.119 1.13 6.781 7.363 6.574 15.473 12.403 27.122 14.691v4.521h-7.91c.828 1.055 2.055 1.712 3.391 2.26-.135 1.482-2.123.747-3.391 1.13-1.242.375-3.548 2.281-5.65 0-3.385.744 1.08 2.416 0 4.521-3.051-2.224-9.875-.672-14.691-1.13-.185-1.313.249-2.011 1.13-2.26-.339-1.33-5.983-2.836-2.26-4.521-.709-2.304-5.71-.318-4.521-4.521-1.134 1.912-3.443 1.45-5.65 2.26-1.687.62-3.115.333-3.391 2.26-4.183-2.974-7.83-6.484-9.041-12.431 2.027.144 2.384-1.384 4.521-1.13 1.092-1.673-1.11-3.11-1.13-3.391-.121-1.749 1.364-2.083 1.13-3.39-.189-1.064-3.31-1.903-1.13-3.39-.743-1.517-2.415-2.104-4.521-2.26.13-2.883.212-5.815 3.391-5.65.191-2.829-1.737-3.539-3.391-4.521 1.193-.461.4-2.418 1.13-3.39.228-.303 2.173-.886 2.261-1.13.137-.378-1.227-2.198-1.131-3.39-.006.09 1.092-.39 1.131-1.13.068-1.3.047-2.021 1.13-2.26-.462-2.494-1.908 1.107-2.261 1.13-1.771.119-2.721-2.524-5.65-2.26.727-.964.235-3.788 1.13-4.521.182-.148 2.261-2.262 2.261-2.26.089-.723-1.84-2.048-1.13-3.39.267-.505 3.14-.437 3.39-1.13.696-1.615-3.207-.574-3.39-1.13-.396-1.195 2.15-1.771 2.26-2.26.32-1.44-1.921-.471-2.26-1.13-.404-.784.942-1.426 1.13-1.13-.962-1.521-1.842-3.166-3.391-3.39.315-2.322 3.019-2.256 4.521-3.39-.272-2.914-1.944 1.552-4.521 0-.174-2.811 1.776-3.499 2.261-5.651-2.027-.143-2.384 1.384-4.521 1.13.144-2.026-1.384-2.384-1.13-4.521 7.271 3.94-1.823-6.25 5.65-5.65-4.13-3.197 1.147-4.814-1.131-9.041 2.2-.914 2.183-4.408 3.391-6.78.378-.74 1.919-1.625 2.261-2.26 1.31-2.433 1.138-4.495 0-7.911 2.642-.372 4.668-1.359 6.78-2.26 3.83-3.704 5.728-9.341 9.041-13.561-2.322-1.821-2.621-5.666-2.261-10.171 2.93-1.215 4.202-4.086 7.911-4.521.156 2.565 4.387.85 4.521 3.39.051.946 3.364 7.376 3.39 7.911.032.664-.689 4.16-1.13 4.521-.136.111-1.059-.145-1.13 0-.202.412.334 1.988 0 2.26-.133.108-1.063-.141-1.13 0-.194.411.33 1.99 0 2.26-1.76 1.439-2.843 6.409-4.521 9.041-1.206 1.893-.939 3.67-2.261 5.65-1.14 1.711-3.47 8.363-5.65 10.171-.578 6.605 2.661 9.394 3.391 14.691-4.428-1.448-3.988 3.292-1.13 3.391-.829 2.013-2.055.163-3.391 0 .155 2.104.743 3.776 2.26 4.52-.183 1.325-2.06.954-3.39 1.13.829 1.055 2.055 1.711 3.39 2.26-3.82 2.537 2.09 7.446 0 7.911-1.314.183-2.011-.251-2.26-1.132z"
        clipRule="evenodd"
      ></path>
      <path
        fillRule="evenodd"
        d="M170.645 218.109c.215-1.283 1.134-.627 1.13 0 1.632-1.347 1.714-5.567 3.391-1.13 2.177-.459.893-4.381 4.52-3.39.817 3.453-1.155 4.119-1.13 6.78-.44 2.237 2.679-1.185 3.39 0 .55.916-2.707 2.208-2.26 3.391.909-.598 1.835-1.179 3.39-1.13-.744-4.15-2.076-7.747 1.13-10.171 2.304.333 2.216 3.058 4.521 3.391 1.052 4.751-3.961 10.526 1.13 12.431-.64 1.055-3.142 1.711-1.13 2.26-.892 2.229-3.953 4.063-5.651 2.26 1.57 2.957-1.833 3.302-2.26 4.521-.456 1.301 1.048.722 1.13 1.13.225 1.125-1.874 2.492-2.26 4.52 2.499-.892 2.828-3.952 4.521-5.65 1.517.743 2.104 2.416 2.26 4.521 4.958-1.068 5.617-6.437 7.911-10.171 1.672.588 2.849 1.672 4.521 2.26-.818 2.571-1.008 5.773-2.26 7.911 2.625-.765 3.025-3.756 5.65-4.521 2.723-.462 2.456 2.064 5.651 1.13.244 1.058-.306 2.35 0 3.39.42 1.43 1.309.315 1.13 0 .282.496 2.146 1.881 2.26 2.26.42 1.379-.322 3.112 0 4.521 3.865 1.286 8.231-6.096 7.911 1.13 4.195-.326 3.062-5.979 7.911-5.65.031 1.099 1.383.877 2.26 1.13v10.171c3.166-1.3 5.875-1.3 9.041 0-.923 2.843-5.958 1.576-7.911 3.391 2.778 3.391 2.065 5.651-2.26 6.78.282 1.393 2.777 1.267 3.391 2.26.19.308-1.169 1.596-1.13 2.26-.008-.143 1.093.428 1.13 1.13.072 1.364 1.226 2.515 1.13 5.651-2.027-.144-2.384 1.384-4.521 1.13.829 1.055 2.055 1.712 3.391 2.26-.828 2.012-2.055.163-3.391 0-2.295-.346.232 3.265 1.13 3.39-1.028 3.068-3.96-1.151-5.65-1.13.972.912.671 3.096 2.26 3.39-.35 1.534-2.829.938-4.521 1.13-.183 1.325-2.061.954-3.391 1.13-3.104 2.169-6.228 4.319-11.301 4.521v-3.39c-2.079 1.805-4.656.76-6.781 1.13-2.457.427-6.278 2.572-9.041 0-.136-.126-1.101-2.255-1.13-2.26-2.496-.483-1.481 3.375-5.65 1.13-.081-.044-.794-.906-1.13-1.13-.569-.379-1.366.01-1.13-1.13-2.104.156-3.777.744-4.52 2.261-1.006-.695-2.021-1.365-2.26 0-4.943-4.098-9.63-8.452-14.691-12.431-1.009-4.314 1.845-7.213 0-9.041-3.622-3.912-8.199-6.869-12.431-10.171.663-2.352 2.375-3.653 3.39-5.65 2.33.308.27 5.005 3.391 4.521 2.567.347 4.725-1.024 5.65-2.26.746-.996-1.105-.993-1.13-1.13-.272-1.493 1.965-.42 2.26-1.13.106-.253-1.308-3.042-1.13-4.521-.034.281 1.022-.7 1.13-1.13.452-1.808.461-3.022 2.26-3.391-2.993-2.657-6.428-4.874-10.171-6.78-.144-2.026 1.383-2.384 1.13-4.521 5.126.523 6.702 4.6 12.431 4.521-2.754 2.653 1.261 2.529 2.26 4.52 2.822-.781-2.097-3.015-1.13-5.65 2.786-.149 5.445-.171 6.781 1.13 1.113.028.577-1.683 0-2.26-2.462-2.462 1.408 1.02 1.13-3.391-.761-3.125-5.929 3.146-4.521-3.39-3.92.906-4.344-1.683-7.911-1.13.295-3.309-2.555-3.472-2.26-6.781 2.625-.331 5.296-2.838 4.521 2.26 1.517-.743 2.104-2.416 2.26-4.521 2.451-.19.512 4.008 1.13 5.65 1.673-.588 2.849-1.672 4.521-2.26-.501-1.643-.993.115-2.26 0 .182-1.316-.251-2.013-1.132-2.262z"
        clipRule="evenodd"
      ></path>
      <path
        fillRule="evenodd"
        d="M278.004 427.178c.404-.36 3.168.449 3.39 0 .741-1.497-1.143-1.881-1.13-2.26.091-2.536 1.858-2.334 5.65-3.391.079 7.613-4.636 10.433-6.781 15.822-2.295.346.231-3.265 1.13-3.391.297-3.309-2.553-3.472-2.259-6.78z"
        clipRule="evenodd"
      ></path>
      <path
        fillRule="evenodd"
        d="M203.418 453.17c-1.918-.734-.707-2.598 1.13-2.26 1.17-.916-.042-2.986 1.13-4.521 2.395-3.136 8.908-3.454 13.561-4.521v4.521c-2.327 1.441-5.732 1.802-5.65 5.65-3.372 1.619-3.842-.922-6.781 1.13-1.654-.019-3.581 4.766-3.39.001z"
        clipRule="evenodd"
      ></path>
      <path
        fillRule="evenodd"
        d="M214.719 467.861c-.829-1.055-2.055-1.712-3.39-2.26 1.744-2.399 3.252-5.036 4.521-7.911 1.099.031.876 1.384 1.13 2.26 1.991-1 1.867-5.014 4.521-2.26 1.677-.494-.446-1.446 0-3.391 1.922.416 2.132-.882 2.26-2.26 1.082-.877 2.3 1.117 2.26 1.13 1.404-.47.361-1.236 1.13-2.26.861-1.149 3.77-1.858 4.521-4.521 1.563 1.828 5.376 1.405 4.521 5.65 5.726-2.898 10.394 1.483 15.821 2.26-1.749 7.668-9.569 9.266-16.952 11.301-.563 1.269 2.127.663 2.26 1.13.424 1.479-3.971 2.595-6.781 2.26.279 1.227 2.247.767 2.26 2.26 11.829-1.281 14.637 6.458 22.602 9.041-.063 2.09-2.104 1.786-3.39 3.391-.94 1.172-1.096 3.217-2.26 4.52-2.481 2.78-5.251 4.346-7.911 7.911-1.324 1.776-1.941 4.294-6.781 3.391.155 2.104.743 3.777 2.26 4.521-1.935 2.585-8.626.415-12.431 1.13-.411 2.13 2.641 1.343 3.39 2.26.135.165-.17 1.021 0 1.13.412.265 1.963-.362 2.26 0 .301.369.766 2.023 1.13 2.26.412.269 1.963-.363 2.26 0 1.251 1.53 3.122 3.177 5.65 4.521 4.443 8.672-.378 19.363-1.13 29.383 1.55 2.595 4.654 3.633 6.781 5.65.186 4.804 2.144 7.073 2.26 10.171-.022-.598-2.195.713-2.26 1.13-.414 2.654 2.558 6.606 1.13 10.171-1.484-.398-1.778-1.988-3.391-2.259 1.626 3.646 2.164 8.383 3.391 12.43-2.938.452-3.409 3.372-6.781 3.391.961 1.357 2.135 4.646 4.521 2.26.045-.045 1.324-2.234 1.13-2.26 4.016.539 6.219 4.127 11.301 5.65.218 3.079.339 3.145 1.13 6.78.19.877 1.221 1.166 1.13 2.261-.303 3.657-4.245 5.382-5.65 9.04-2.621-.36-4.339.183-5.65 1.131-1.725.583.928 1.744-1.13 2.26-1.789.447-4.143.289-5.65 2.261-.206.268 2.094 3.169-1.13 2.26 1.828 2.316 5.438 2.85 7.911 4.521-1.833 2.393-1.922 4.718-5.65 5.65-1.818.455-9.845 2.291-13.562 3.391-2.636-.379-4.868-1.159-5.65-3.391-4.372.604-5.517-2.018-10.171-1.13-.06-1.407-1.567-1.498-2.26-2.261-.236-.259-.885-2.146-1.13-2.26-.175-.082-2.375 1.172-3.39 1.13.465.019-.829-1.055-1.13-1.13-2.11-.527-3.183-.014-4.521-1.13-1.324.182-.953 2.059-1.13 3.39-3.567.553-3.991-2.037-7.911-1.13-.37-6.033-5.522-7.285-10.171-9.041-2.04 2.481-4.409 4.632-5.65 7.911-4.513-3.398-7.545-8.277-15.822-7.911-3.314.077-4.197 2.584-5.65 4.521-2.996-1.147-3.062-5.226-5.65-6.78.141-2.496 4.794-.48 6.781-1.13 3.726-1.925 6.865-4.436 11.301-5.65 2.684-2.591 4.857-5.69 9.041-6.781 4.464 1.94 10.155 2.652 13.561 5.65 2.386-1.004 3.341-3.439 6.781-3.39-1.643-3.35-4.409 1.488-7.911 0-.939-2.829-3.096-4.439-3.391-7.911h-6.78c-.436-1.117 2.215-1.876 2.26-2.26.125-1.048-3.248-1.245-2.26-3.391h-7.911c-.753-2.25-3.898-4.827 0-5.65-.031-1.099-1.383-.876-2.26-1.13 2.596-2.591 6.609-1.472 10.171-2.261 2.091-.463 3.695-.44 5.65-1.13 2.396-.846 4.131-3.195 6.781-3.391-.318-1.825 1.068-1.945 1.13-3.389.144-2.028-1.383-2.385-1.13-4.521-2.723-.463-2.457 2.063-5.65 1.13.144-2.027-1.383-2.384-1.13-4.521 5.284-1.121 9.408-3.4 14.692-4.521 2 2.144 4.78 3.509 6.78 5.65 2.304-2.018.317-4.17 4.521-2.26.144-2.027-1.383-2.384-1.13-4.521.909-.599 1.834-1.179 3.39-1.13-1.763-3.579.811-5.746 3.39-7.911-.493-1.678-1.446.446-3.39 0-1.105-1.454 1.129-3.395 1.13-3.39-.251-1.694-1.255-.089-1.13 0-1.829-1.31-.933-3.258-2.26-6.781-.374-1.385 1.032-3.12 2.26-4.521 1.744-1.99 3.077-3.403 6.78-3.39-2.441-4.268-6.597-.773-10.17 0-.588-1.672-1.672-2.848-2.26-4.521-1.517.743-2.105 2.416-2.26 4.521-2.232-.781-3.013-3.015-3.391-5.65-1.39.493-2.321 1.445-2.26 3.39-1.621-1.393-2.141-3.887-2.26-6.78 1.613.602 4.512-.798 5.65-2.261.624-.799.417-2.545 1.13-3.39 1.972-2.338 4.04-2.736 4.521-4.521.446-1.654-.976-2.099-1.13-3.391-.31-2.596 1.023-3.343 1.13-5.65-7.705-.17-5.263 9.805-14.691 7.911 1.983-3.667 5.652-5.649 9.041-7.911.34-1.362-1.847-.547-2.26-1.13-.242-.34 2.083-2.531 0-2.26.103-2.126 2.006-2.537 3.39-4.521 1.474-2.111.871-5.35 5.651-4.521-.695-1.006-1.366-2.021 0-2.26-.494-1.677-1.446.446-3.391 0-.972-.911-.671-3.095-2.26-3.39-.72-2.465 3.204-3.595-1.13-3.39.17-2.811 3.827-.33 4.521 0 1.309-.558-1.332-5.907 4.52-4.521-2.168-2.159.632-1.724 0-1.13.202-.19 2.735-3.011 2.26-3.391-2.02-1.608.156-.542 2.256-2.256z"
        clipRule="evenodd"
      ></path>
      <path
        fillRule="evenodd"
        d="M175.166 533.407c.555 5.075-.573 8.467-1.13 12.431-.916-.214-1.126-1.134-2.26-1.13.249 3.639-1.999 4.782-1.13 9.041-4.242 4.046-9.719 6.856-11.301 13.561-1.69-1.323-4.622-1.404-5.65-3.39-3.775 1.96-5.526-1.029-9.041-2.261-2.887.503-5.196 1.585-6.781 3.391-1.295-.211-2.637-.377-3.39-1.13-1.729-1.729-1.974 1.716-5.65 2.26-1.753.26-2.024-.89-3.391-1.13-3.031-.535-4.686.193-7.911-1.13-.489-.201.063-1.067-1.13-1.131-.938-.048-1.813-1.599-3.391-1.13.494-1.391 1.446-2.321 3.391-2.26.041-1.685-2.352-.484-3.391-1.131-.562-.35-.132-3.337-2.26-2.26-.579-1.255 2.146-.682 2.26-1.13.404-1.585-4.174-3.518-3.39-6.781 3.669.656 5.258-.768 7.911-1.13-.824-2.565-3.4-3.379-5.65-4.521.954-2.66 5.827.07 6.781 1.131 1.766.393.376-2.812 1.13-3.391 1.136-.873 4.865.247 2.26-1.13 1.393-1.62 3.886-2.142 6.781-2.261 3.07-1.45 3.252-5.788 6.78-6.78-.828-1.055-2.055-1.712-3.39-2.261 1.799-3.615-.146-6.409-4.521-6.78-.144-2.026 1.383-2.384 1.13-4.521 4.15-1.479 7.747-.147 10.17-1.13-.743-1.518-2.415-2.104-4.52-2.26 1.126-1.51 3.054-2.219 3.39-4.521-.215-1.283-1.134-.626-1.13 0-3.225-1.862 4.218-2.456 4.52-4.52 2.266 1.878 5.253 3.034 5.651 6.78 1.746-2.365 2.948 1.169 4.52 1.13 2.03-.05 4.079-3.459 7.911-2.26.529-3.542-2.842-3.186-4.52-4.521-.567-3.081 4.357.844 4.52-2.26.075-1.432 2.404-1.131 2.26 0 1.985-1.028 2.067-3.959 3.391-5.65 2.104.156 3.776.743 4.52 2.26 2.573-2.272 4.378 1.312 6.781-1.13 2.499.892 2.828 3.952 4.521 5.651 3.551.592 6.305 1.982 9.041 3.39-1.39 5.829 3.979 11.45-2.26 12.431.828 1.055 2.055 1.712 3.39 2.26-.189 3.203-2.071 4.711-2.26 7.911-2.099 1.146-6.68-.101-7.911 1.13-.072.072.074 1.119 0 1.13-.941.133-2.594-1.012-2.26-1.13-2.484.88 2.266 2.579-3.391 2.263z"
        clipRule="evenodd"
      ></path>
      <path
        fillRule="evenodd"
        d="M520.976 519.846c.215-1.282 1.133-.627 1.13 0 1.826-.318 1.946 1.068 3.39 1.13 2.072-1.246 4.234-1.767 6.781-3.391.506-.321 3.533-.861 4.521-2.26 2.605-.347 1.256 3.266 3.39 3.391-1.437 2.063-5.522-.796-1.13 2.26-4.183 4.104-13.425 3.148-14.69 10.171-1.792 3.364-.832-3.706 1.129-3.391-.314-2.32-3.018-2.254-4.52-3.39.329-.694 2.811-4.35-.001-4.52z"
        clipRule="evenodd"
      ></path>
      <path
        fillRule="evenodd"
        d="M483.683 528.887c1.41 1.77 1.864 2.657 5.65 1.13-1.593 3.557-4.77 6.78-2.26 11.301a51.774 51.774 0 00-10.171 10.171c-2.671-.315 1.295-3.019 1.13-4.521.539-3.317-1.434-5.468-1.13-7.91.53-4.254 5.184-6.604 6.781-10.171z"
        clipRule="evenodd"
      ></path>
      <path
        fillRule="evenodd"
        d="M201.158 532.276c2.53.823-2.497 3.401-2.26 5.65-3.194-.934-2.928 1.593-5.65 1.131 1.866-3.029 5.734-4.059 7.91-6.781z"
        clipRule="evenodd"
      ></path>
      <path
        fillRule="evenodd"
        d="M313.038 828.362c3.18 1.97.205 4.672 0 6.781-.182 1.866.172 3.783 0 5.65-.809 8.765-6.105 16.001-9.041 22.602-2.975-1.169-3.806-4.481-6.78-5.65.5-1.006.993-2.021 2.26-2.26-.828-1.056-2.055-1.712-3.39-2.261 2.741-2.25-1.908-4.827 2.26-5.65-.628-.652-.618-1.455-1.13-2.26-1.831-2.873 1.663-1.866 0-6.781 2.418-2.478 5.487-4.306 11.301-3.39 2.858-.907 2.881-4.652 4.52-6.781z"
        clipRule="evenodd"
      ></path>
      <path
        fillRule="evenodd"
        d="M531.147 81.367c.35 1.534 2.829.937 4.52 1.13 1.242 3.279 3.611 5.43 5.651 7.911-3.126 2.525-6.903 4.397-11.302 5.65v9.041c-4.913.36-3.947 6.6-4.521 11.301-7.56.351-6.584 9.237-7.911 15.821-2.104.155-3.776.744-4.52 2.26-2.732-1.411-3.655-4.632-4.521-7.911 1.825.318 1.946-1.068 3.391-1.13-.005-1.167-1.417-.792-2.261-1.13-1.299-.52-2.421-2.419-4.52-3.391.801-4.19-1.931-4.85-1.13-9.041 3.202.188 4.709 2.071 7.911 2.26-.837-.546-1.521-1.654-2.261-2.26-1.42-1.162-2.019-2.478-5.65-2.26v-7.911c.707-.165 1.386 1.609 2.26 1.13.949-.52 1.319-1.588 2.26-2.26 1.049-.749 2.028-.457 3.391-1.13.533-.264 1.859-2.139 2.26-2.26 1.379-.419 3.112.322 4.521 0-.214-.915-1.135-1.127-1.131-2.26-.398-1.583-1.988-.097-2.259 1.13-2.348-.291-.309-4.965-2.261-5.65-2.496.141-.48 4.794-1.13 6.78-4.049.095-6.53 1.758-10.171 2.26.937-2.951-3.417-6.2 0-7.911-2.291-1.853-3.681-4.606-3.391-9.041h3.391c-.695-1.006-1.366-2.021 0-2.26.034-1.55-1.445-.294-1.13 0-2.365-2.205-.593-6.012-1.13-10.171 1.993-1.021 3.5-2.527 4.521-4.521 1.654 2.622 3.582-2.208 3.39 2.26 3.309.294 3.473-2.555 6.78-2.26.157 4.678-5.013 4.028-3.39 10.171 2.732-1.411 3.655-4.632 4.521-7.911 1.748 1.642 2.372 4.408 2.259 7.911 2.03-2.155.8-5.719 2.261-7.911.591-.885 1.31-2.659 2.261-4.521 3.788 1.485 4.694 5.853 7.91 7.911-.777 4.548 1.083 6.454 1.131 10.174zm-21.473 28.253c2.837-.932 9.73 2.197 9.041-2.26-2.849 1.127-11.666.651-9.041 2.26z"
        clipRule="evenodd"
      ></path>
    </svg>