<svg id="Capa_1" data-name="Capa 1" xmlns="http://www.w3.org/2000/svg" viewBox="0 0 389.42 512"><defs><style>.cls-1{fill:#545c81;}.cls-2{fill:#dbf6fe;}.cls-3{fill:#7bb0fe;}.cls-4{fill:#48506d;}.cls-5{fill:#c1e8f1;}.cls-6{fill:#fcdc45;}.cls-7{fill:#62a4f3;}.cls-8{fill:#010101;}</style></defs><path d="M294.56,0c1.18,1.92,3.29,1,4.91,1.45a38.32,38.32,0,0,1,27.78,36.19c.4,23.43.15,46.87.11,70.31,0,4-1.5,7.12-5.8,8.16-6.27,1.55-9.6-.65-10.4-6.9a52,52,0,0,1-.19-6.49c0-20,0-40,0-60-.05-17.22-9.05-26.12-26.32-26.13q-114.74,0-229.49,0c-1.5,0-3,.08-4.5-.05-3.49-.11-7,0-10.49.11-12.34.51-20.86,8.76-21.89,21.06-.16,2-.11,4-.11,6q0,212.48,0,424.94a37.41,37.41,0,0,0,.69,9.44c2.67,10.42,10.37,16.76,21.21,17.26,3.49.15,7,.18,10.49.13,64.63-.14,129.25,0,193.88-.07,14,0,28,.07,42,0,14.87-.1,24.44-9.45,24.52-24.36.17-30.31.07-60.62,0-90.94,0-5.78-5.88-8.88-11.05-5.92-2,1.14-1.69,3.13-1.71,4.9-.1,8.49,0,17-.05,25.48,0,17,.14,34-.05,51-.15,13.14-6,21.68-16.91,25.66a27,27,0,0,1-9.34,1.4q-107.43,0-214.86,0a28.75,28.75,0,0,1-17.2-5.79c-6-5.33-8.57-12.13-8.79-20,0-1.33,0-2.67,0-4q0-197-.05-393.91c0-8.85,1.57-16.9,8.31-23.22,9.91-8,21.49-6.76,32.87-5.49,4.62.52,6.51,4.07,6.74,9.6-.93,5.13-4.27,7.33-9.22,7.57-4.17,0-8.33.12-12.49.35-5.14.28-7,2.21-7.73,7.35a46,46,0,0,0-.21,6V451.4c0,.67,0,1.34,0,2,.15,9,1.91,10.89,10.85,11,59.3.51,118.61.1,177.91.22,10.5,0,21,0,31.49,0,2.16,0,4.35.18,6.31-1,4-2.23,4.2-6.13,4.21-10,.06-21.48,0-43,0-64.46,0-3.33-.15-6.67,0-10,.21-4.12-1.62-5.6-5.63-5.57-12.82.09-25.65,0-38.47,0-12.49,0-25,.06-37.48,0-5.3,0-9.48-1.79-10.89-7.51.65-6.57,3.6-9.65,9.94-10.3a63.84,63.84,0,0,1,6.49-.12q65,0,130,0c21.19,0,36.39-13.48,39-34.51,2.47-20-15.17-39.68-36.66-40.57-10.65-.44-21.33-.28-32,0s-19,7.31-21.52,17.62c-.44,1.79-.6,3.62-.95,5.41-.94,4.86-4.61,7.94-9,7.64a9,9,0,0,1-8.42-8.94,36.88,36.88,0,0,1,2.94-14.6c4.11-10.26,11.41-17.41,21.54-21.8,6.05-2.62,6-3,4.2-9.39-8-27.78-37.77-43.67-64.59-36.2-21,4.68-38.51,25.87-39.6,48a30.59,30.59,0,0,1-.3,5c-1.57,5.32-5.48,7.2-10.65,7.24-8.49.07-17,0-25.48,0a53.57,53.57,0,0,0-10.43.81c-14.31,2.51-23.58,11.19-28.62,24.35-8.81,23,9.16,46.58,28.16,49.35,6.57,1.1,13.19.27,19.78.6s9.71,3,11.06,9.1c-.47,4.72-2.88,8.09-7.7,8.4-14.87,1-29.59,1.1-43.15-7-31.41-18.74-37.36-59.72-13.2-85.38,3.89-4.13,7.83-8.27,13.08-10.69,3.31-1.52,4-4,3.62-7.31-4.28-34.87,25.56-62.59,57.16-62.12a46.71,46.71,0,0,1,22.05,5.68,9.52,9.52,0,0,0,9,.4c21.25-9,42.16-8.1,62.68,2.45,3.79,2,4.17,1.76,4.17-2.49q0-74.71,0-149.42c0-7.48-2.5-9.76-10.06-9.78q-27.48-.09-55,0c-7.67,0-9.74,1.86-11,9.33C201.88,70.27,192.6,78.32,179,78.41c-9.49.07-19,.09-28.48,0-13.22-.13-22.83-8-25.62-20.88-2-9.24-3-10.05-12.26-10.09-2.83,0-5.67.11-8.49-.09-5.86-.41-8.38-2.69-9.79-8.73,1.18-6.21,3.81-8.68,10-9a127.35,127.35,0,0,1,14.49,0,24.78,24.78,0,0,1,23.09,20.62c1.55,8.73,3.32,10.23,12.23,10.27,7.66,0,15.32.11,23,0,6.16-.12,8.85-1.92,9.51-8,1.59-14.63,14.09-23.34,28.43-23.06,18.81.36,37.64,0,56.45.1,15.63.06,25.61,9.62,26.49,25.22.13,2.33.07,4.67.07,7q0,78.93-.05,157.87a20.2,20.2,0,0,0,4,12.94,52.43,52.43,0,0,1,9.9,26.35,44,44,0,0,1-.89-9.29q0-52.2,0-104.41a23.29,23.29,0,0,1,.37-5.47c1-4.22,3.81-6.17,8.26-5.81,6.67,1.46,7.84,6,7.81,12.18-.2,37.66,0,75.33-.22,113,0,4.32,1.23,5,5.22,5,27.45-.1,46.93,13.25,54.28,36.86,11.17,35.86-14.29,70.77-51.9,71.16-7.48.08-7.48.08-7.48,7.65,0,30.83.07,61.66,0,92.49-.06,18.44-11.24,33.44-27.92,38.29-1.61.46-3.73-.52-4.88,1.45h-262C11,506.83,0,493,0,470.47Q0,256,0,41.53C0,24.23,6.82,11,22.53,2.76,26.05.92,29.94,1.1,33.56,0Z" transform="translate(0)"/><path class="cls-1" d="M319.68,133.9c-5.49,1.18-7.34,4.6-7.32,10.13.15,37.16.08,74.32.08,111.48v5.3c-2.74-5.91-3.81-12.3-6.45-18.18-2.06-4.58-4.12-9.15-7.79-12.67-2.16-2.07-1.79-4.51-1.79-7q0-83.48,0-167c0-12.87-6.41-21.61-17.86-24.4A27.6,27.6,0,0,0,272.1,31q-29.25-.08-58.49,0c-14.5,0-23,7.3-25.25,21.57C187.18,60,184.89,62,177.52,62c-9,0-18,.05-27,0-6.11-.05-9.58-2.85-9.69-9C140.62,41,129.4,30.22,116,31c-3.66.21-7.34,0-11,0-6.12.06-8.21,1.83-9.44,7.92-5.82,2.8-11.89,1.54-17.91,1.11-.2-6.7-2.57-9-9.44-9-9.53,0-19.32-1.34-27.65,5.11A3,3,0,0,1,39.53,33c1.83-7.07,3.76-14.12,11-17.85C52.39,15.1,54.22,15,56,15H286.26c16.42,0,26.15,9.64,26.17,26,0,22,0,44,0,65.92,0,7.17,2.05,9.17,9.12,9.21-1.94,1-1.91,2.73-1.88,4.58C319.75,125.1,319.69,129.5,319.68,133.9Z" transform="translate(0)"/><path class="cls-2" d="M77.68,40.05c5.81-2.92,11.92-1,17.91-1.11,1,5.37,4.45,7.37,9.7,7.13,4-.18,8-.13,12,0,5.19.16,7.82,2.66,8.56,7.85,2.18,15.49,11,23.16,26.53,23.17,9,0,18,.07,27,0,13-.13,21.92-8.22,23.53-21.09,1-8,3.14-9.93,11.3-9.93q28.74,0,57.47,0c6.81,0,9.65,2.6,9.65,9.17q.07,78.19,0,156.4a15.79,15.79,0,0,1-.31,1.88c-7.56-4.21-15.07-7.89-23.4-9.72a69.1,69.1,0,0,0-45.24,4.94c-2,.94-3.61,1.51-6,.24-19.62-10.73-38.92-9.15-56.87,3.43s-26,30.29-22.81,52.34c.44,3.09-.26,4.2-2.86,5.58C101.51,282.24,90.54,306.78,96.54,331,102.46,355,124,371.8,149.07,372.11c4,.05,8,0,12,0,6.93,0,8.44-1.11,10.22-7.36,5.79-2,11.57-2.27,17.32.16,1.13,5.19,4.29,7.29,9.64,7.26,26.16-.13,52.31,0,78.46-.14,3.71,0,4.75.86,4.73,4.65-.18,26.49-.09,53-.1,79.46,0,3.78-.37,7.4-4.73,8.88-1.74.86-3.6.43-5.4.43q-100.63,0-201.27,0c-6.47,0-7.46-.91-7.91-7.28-.13-1.83-.09-3.66-.09-5.49q0-92.16,0-184.3c0-3.11-.61-6.37,1.39-9.19a1.6,1.6,0,0,1,1.84-.24c11.4,6.47,23.72,2.76,35.66,3.21a7.74,7.74,0,0,0,3.78-1.17,5.37,5.37,0,0,0,3-6.2,4.89,4.89,0,0,0-4.86-4.21,123.32,123.32,0,0,0-12.46-.14c-9,.16-18.14-1.24-26.82,2.49-1.78-1.91-1.56-4.32-1.56-6.62q-.06-95.11,0-190.23c0-8.31.78-9,8.58-10C74.17,45.58,76.94,44,77.68,40.05Z" transform="translate(0)"/><path class="cls-3" d="M188.6,364.92l-17.32-.16c-1.61-6-3.55-7.41-9.64-7.67-7-.3-14.16,1.08-21.08-1.15-11.87-7.78-17.47-19.37-19.14-32.91-1.65-13.37,2.72-25.24,10.86-35.8a25.67,25.67,0,0,1,8.28-7.05c8-2.19,16.21-.84,24.32-1.15,4.32-.16,8.66-.2,13,0,5.27.27,8.63-1.8,9.84-7,1.78-1.7,4-1.29,6.15-1.3,3.41,0,5.19-1.39,5.41-5,1-16.43,8.49-29.71,20.15-41,2.43-2.34,5.4-3.81,8.16-5.63,29.19-9.75,63.82,12,68.33,42.69.44,3-.92,3.28-2.84,3.93-15.71,5.32-24.64,16.31-27.09,32.62a15.35,15.35,0,0,0,.08,5.93c1,3.84,3.68,6,7.73,5.62s6.46-2.7,6.77-6.72c.33-4.38,1.09-8.61,3.35-12.4,3.79-6.38,9.41-10.95,16.73-11.38,13.77-.81,27.71-1.76,41.38.43,19.93,3.18,34,21.7,32.37,41.14-1.78,20.55-18.22,36-39,36.05-45.33.15-90.66.05-136,.06C192.27,357.13,190.58,358.38,188.6,364.92Z" transform="translate(0)"/><path class="cls-4" d="M50.56,15.15c-5.5,6-9.94,12.43-10,21-6.19,6.15-8.05,13.63-8,22.23q.18,197.64,0,395.29c0,8.6,1.86,16.08,8.05,22.22,2.19,7.53,6.2,14.19,10,21-5.31,0-10.62.76-15.89-.6a23.51,23.51,0,0,1-18-22.35c0-1,0-2,0-3q0-214.9,0-429.8c0-12.28,5.3-20.79,15.19-24.55C37.91,14.22,44.26,15.05,50.56,15.15Z" transform="translate(0)"/><path class="cls-5" d="M64.34,259c-1.31,1.62-.75,3.53-.75,5.3q0,96.13,0,192.28c0,8.24.19,8.42,8.28,8.42l204.75,0c-1.52,1.5-3.45,1-5.22,1q-107,0-213.93,0c-7.06,0-9.75-2.62-9.75-9.58q0-200.44,0-400.89c0-6.72,2.71-9.4,9.37-9.44,4.49,0,9,.07,13.48.11-7,2.07-7,2.07-7,10.29q0,95.37,0,190.74c0,1.94-.62,4,.75,5.8A6.47,6.47,0,0,1,64.34,259Z" transform="translate(0)"/><path class="cls-1" d="M50.56,496.84c-5.66-5.88-9.65-12.55-10-21,5.84,4,12.29,5.22,19.37,5.21q105.23-.21,210.47-.09c16.88,0,25.94-9,26-25.86,0-25.83.1-51.66-.09-77.49,0-4.2.78-5.81,5.41-5.67,10.71.33,10.72.07,10.72,10.75q0,44,0,88c0,16.69-9.68,26.29-26.42,26.29h-230C54.22,497,52.39,496.9,50.56,496.84Z" transform="translate(0)"/><path class="cls-6" d="M194.91,220.36c-11.87,11.6-19.28,25-21.55,41.14-.26,1.79-1,2.54-2.91,2.54-8.83,0-17.66,0-26.49.21-2.7.06-2.34-1.68-2.59-3.25-2.7-16.92,8.7-35.15,26-41.61C176.75,215.9,186.67,216.17,194.91,220.36Z" transform="translate(0)"/><path class="cls-7" d="M140.56,280.18c-7.93,7.79-14.56,16.42-17,27.57-3.48,16.26.76,30.47,11.9,42.7,1.68,1.84,3.37,3.66,5.05,5.49-16.33-2.76-29.43-18.08-30.67-35.89-1.18-16.94,10.26-33.6,26.82-39A38.28,38.28,0,0,1,140.56,280.18Z" transform="translate(0)"/><path class="cls-7" d="M227.56,219.16c-6.09,6-13,11.2-17.55,18.67-5.44,8.89-9.38,18.19-9.43,28.78,0,3.75-1.69,5.5-5.43,5.4-2.49-.07-5,0-7.46,0C187.06,247.69,204.43,224.67,227.56,219.16Z" transform="translate(0)"/><path class="cls-8" d="M171.74,38.81A7,7,0,0,1,164.52,46c-4.34,0-7.32-3.15-7.23-7.66.09-4.24,3.12-7.32,7.15-7.28A7.48,7.48,0,0,1,171.74,38.81Z" transform="translate(0)"/><path class="cls-8" d="M132.5,201.08c-.14,6.24-6,9.51-11.29,6-2.74-1.78-5-4.36-7.36-6.69-5.22-5.14-10.46-10.28-15.54-15.57-3.56-3.71-3.55-7.89-.33-11.07,2.92-2.87,7.36-2.91,10.74.35,7.18,7,14.19,14.08,21.25,21.17A7.54,7.54,0,0,1,132.5,201.08Z" transform="translate(0)"/><path d="M172.56,162.83c0-5-.08-10,0-14.94s3.13-8.06,7.56-8c4.24.06,7.29,3,7.36,7.73q.21,15.18,0,30.38c-.06,4.58-3.28,7.78-7.35,7.87-4.27.09-7.47-3.22-7.58-8.1S172.56,167.81,172.56,162.83Z" transform="translate(0)"/><path class="cls-8" d="M64.34,259a10.29,10.29,0,0,1,0-6c1.82-3.23,4.6-4.5,8.28-4.46,9.48.1,19,0,28.46.06,5.67,0,8.66,2.72,8.65,7.42s-3,7.43-8.65,7.51c-9.49.14-19,0-28.47,0C69,263.57,66.15,262.25,64.34,259Z" transform="translate(0)"/></svg>