<svg
      xmlns="http://www.w3.org/2000/svg"
      width="738.139"
      height="526.795"
      fillRule="evenodd"
      viewBox="0 0 297 210"
      xmlSpace="preserve"
    >
      <g
        fill="#000"
        fillOpacity="1"
        stroke="#000"
        strokeDasharray="none"
        strokeMiterlimit="4"
        strokeOpacity="1"
        strokeWidth="0.054"
        transform="matrix(1.50896 0 0 1.50544 -55.52 -33.949)"
      >
        <path d="M36.82 29.338c.514-.031 2.052-.09 2.207.041.158.134.186.402.142.605-.025.118-.192.172-.312.181-.058.004-.046-.193-.086-.15-.055.058.038.17 0 .24-.046.086-.177.099-.227.181-.078.127-.05.306-.142.422-.036.045-.171-.088-.171-.03 0 .06.163 0 .17.06.026.211-.023.428-.085.632-.056.187-.745.396-.853.51-.048.051.095.185.029.21-.16.06-.36-.108-.512-.03-.083.041-.122.129-.16.22"></path>
        <path d="M37.236 77.562c.444.2.92.507 1.393.632.63.167 1.008.063 1.564.287.213.087.041-.14.256-.172.227-.034.456.051.682.086.3.047.464.219.825.23.413.013.575-.393.967-.287.447.12 1.029.425 1.25.575.146.097.43-.05.541 0 .17.077.34.408.484.287.004-.003-.378-.425-.37-.603.014-.33.199-.677.199-.977 0-.713-1.744-.14-1.99-.115-1.184.12-1.045-1.328-1.252-1.605-.07-.094-.772.085-.796.085-.286 0-.63-.306-.881-.458-.212-.128-.512.184-.74.086-.337-.145-.037-1.078-.824-.343-.206.191-.003.809-.484.83-.131.006-.21-.184-.34-.2-.12-.016-.222.114-.342.114-.108 0-.349-.101-.557-.17v1.614c.142.039.281.077.415.104"></path>
        <path d="M50.184 21.926a.663.663 0 00-.124.124c-.069.091.09.245.029.342-.134.209-.383.453-.626.403-.11-.022-.161-.276-.256-.217-.138.086-.008.374-.142.466-.149.1-.497-.175-.54 0-.046.183.469.151.455.34-.013.161-.375-.088-.484.031-.119.129.106.412-.028.525-.126.106-.32-.092-.484-.092-.1 0-.202.037-.284.092-.15.102-.217.37-.398.37-.13 0 0-.31-.114-.37-.16-.083-.454-.127-.54.031-.089.163.439.465.256.494-.214.033-.272-.348-.455-.463-.078-.049-.138.134-.228.155-.18.04-.41-.01-.54.123-.093.096.13.488.028.4-.138-.12-.007-.44-.17-.523-.142-.074-.287.14-.427.215-.163.089-.4.111-.483.278-.017.033.314 1.191-.54.338-.08-.08.246-.174.199-.277-.042-.09-.185.092-.285.092-.082 0-.458-.91-.796-1.172-.097-.075.221.247.142.34-.098.116-.47-.12-.455.031.019.18.354.12.484.247.048.047-.218-.034-.2.03.104.365.495.557.285 1.047-.141.332-.628-.684-.654-.707-.046-.041-.028.13 0 .184.057.11.837.895.085.8-.13-.017-.084-.4-.199-.338-.172.093-.057.417-.199.552-.072.069-.191-.128-.284-.092-.175.068-.245.413-.427.368-.205-.051-.101-.552-.312-.552-.184 0 .045.373 0 .552-.122.48-.722-.281-.825-.276-.75.038-.074.433-.455.734-.098.078-.22-.182-.341-.152-.135.033-.148.28-.284.305-.144.026-.26-.139-.399-.183-.055-.018-.14.133-.085.153.046.016.11-.066.142-.03.085.09-.233.09-.341.152-.129.072-.223.26-.37.244-.203-.02-.32-.404-.511-.336-.156.056.144.334.085.489-.057.15-.736.157-.427.578.08.108.268.005.398.03.03.007-.073.003-.085.031-.04.095-.099.21-.057.304.074.165.377.215.37.395-.015.39-.88.42-1.024.364-.28-.108-.096-.598-.199-.88-.049-.135-.193-.226-.227-.365a.633.633 0 01-.017-.114v-.09c.012-.201.1-.407.187-.589.058-.12.279-.116.313-.244.016-.06-.216-.038-.5.007v-4.694h13.363z"></path>
        <path d="M55.054 21.926h2.099c-.14.46-.12 1.197-.325 1.675-.165.383-.495.635-.711 1.018-.16.281-.008 1.087-.228 1.229-.23.149-.27-.48-.37-.737-.067-.175-.423-.355-.54-.43-.063-.042-.14-.722-.227-.895-.031-.062-.136-.032-.2-.062-.047-.022.154-.313.172-.526.046-.585-.159-.363 0-.651.1-.181.21-.395.33-.621h0z"></path>
        <path d="M53.643 44.577c0 .268-.046.589-.029.927.013.245.352.392.37.637.018.248-.636.306-.682.346-.129.114-.107.34-.228.463-.357.363-.34-.265-.74.202-.093.11.115.316.03.433-.171.23-.417.686-.712.836-.112.057-.276 0-.37.086-.116.107-.1.307-.198.432-.205.262-1.113.949-1.422.949-.103 0 .263-.64.313-.69.53-.538 1.173-.866 1.65-1.47.297-.377.73-1.098 1.136-1.414.128-.1.339-.06.455-.173a.512.512 0 00.142-.405c-.015-.146-.374-.377-.227-.377.19 0 .247.438.427.377.159-.054-.2-.276-.256-.435-.09-.251.204-.495.34-.724h0z"></path>
        <path d="M57.652 27.802l-.142.243.142-.243z"></path>
        <path d="M39.425 36.91c.01-.02.01-.049.029-.059.012-.006.034.017.028.03-.01.019-.038.02-.057.03z"></path>
        <path d="M40.364 36.437c.009-.02.066-.049.056-.03-.009.02-.037.02-.056.03z"></path>
        <path d="M42.041 35.37c.01-.02.01-.049.029-.06.012-.005.034.018.028.03-.009.02-.038.02-.057.03z"></path>
        <path d="M63.766 47.354c.289.11.145.26.341.346.241.105.814.234.967.519.06.111-.091.253-.057.374.047.166.313.262.284.432-.032.193-.455.21-.426.403.026.178.422.017.512.172.177.307-.19.748-.029 1.063.068.133.258.165.341.288.033.047-.032.114-.028.172.088 1.197-.068.424-.455 1.204-.035.07.135.219.057.229-.115.014-.177-.244-.284-.2-.098.038.42.574.056 1.087-.089.126-.153-.276-.17-.43-.028-.255-.177-1.246-.427-1.432-.138-.102-.827.995-.796 1.146.052.252.472.42.569 1.002.025.151-.455.9-.54.886-1.304-.207.474-.467-.256-.886-.154-.088-.174.32-.313.429-.233.182-1.56-.678-1.706-.944-.601-1.1 1.134-2.015-.654-2.436-1.007-.237.275.498-.427.775-1.444.57.205-1.16-.54-.66-.143.096-.05.365-.17.488-.393.395-.594-.522-.626-.545-.476-.337-.676 2.333-1.308 1.175-.096-.174.235-.274.284-.343.056-.08.072-.355.17-.488.067-.09-.034-.668.37-.804.31-.104.732.056.967-.172.144-.139.03-.433.17-.575.116-.116.346.003.484-.086.097-.063.054-.242.142-.316.406-.342.938.629.825.948-.054.153-.503.345-.341.345.197 0 .301-.267.483-.345.14-.06.31-.008.455-.057.264-.09-.374-.454.341-.719.18-.066.349.192.54.201.059.003.029-.114.029-.172 0-.04-.033-.076-.028-.115.024-.204-.075-.523.113-.604.182-.08.288.378.484.345.165-.028.046-.393.199-.46.162-.073.346.205.511.143.095-.035-.162-1.235-.113-1.383h0z"></path>
        <path d="M62.031 46.834c.915.517-.335 1.025-.91.837-.52-.17.15-.933.91-.837z"></path>
        <path d="M61.406 44.896c-.16.325-.05 1.02-.085 1.447-.005.06-.597.52-.598.52-.005.008-.403 1.52-.597 1.154-.247-.464 1.054-2.72 1.28-3.121z"></path>
        <path d="M60.496 45.475c.172.527-.505 1.294-.654 1.792-.32 1.07.145.007.313.923.067.368-.42.526-.654.375-.123-.08-.066-.302-.171-.404-.425-.41-.39.075-.626-.403-.434-.881.213-.5.654-.866.27-.224-.613-2.11 1.138-1.417h0z"></path>
        <path d="M57.937 43.706c.16.205 1.253.799 1.478.813.153.01.352-.171.455-.058.407.445-.542.76-.625.84-.164.159-.192.34-.342.492-.155.159-.45.03-.654.116-.182.078-.292.295-.483.347-.133.036.108-.269.085-.405-.01-.063-.096-.11-.085-.173.03-.166.169-.298.199-.464.086-.466.092-1.049-.028-1.508h0z"></path>
        <path d="M61.804 42.513c.519.398 1.11-.186 1.649.145.102.063.01.257.085.35.155.187.517.136.313.262-.073.044-.096.826-.057.958.063.21.597.726.512.986-.041.126-.21-.19-.341-.202-.193-.019-.38.16-.569.116-.156-.038-.257-.189-.365-.312.045.175-.08.508-.005.89.043.216.794.334.455.81-.098.14-.396-.125-.511 0-.107.116.242.463.085.463-.735 0-.311-1.145-.426-1.36-.34-.628-.17-.243-.655-.202-.087.008-.028-.173-.028-.26 0-.287.01-.491-.057-.813.395.377.266.464.654.378.173-.039.288-.046.364-.027-.1-.085-.206-.175-.193-.292.02-.19.377-.246.37-.436-.007-.164-.253-.216-.399-.29-.035-.018-.083.053-.113.029-.437-.347-.64-.627-.768-1.193h0z"></path>
        <path d="M55.093 40.878c.94 0 1.38.045 2.019.701.014.014.012.043 0 .059-.385.494.428 1.426-.74 1.486-.049.003.044-.099.03-.145-.067-.204-.05.02-.086 0-.357-.21-.552-1.088-.711-1.429-.148-.317-.814-.283-.512-.672h0z"></path>
        <path d="M58.363 32.21c.093.392-.303.715-.199 1.435.124.859.292.08.626.893.03.074-.09.133-.114.209-.136.427-.26.929-.455 1.335-.029.06-.148-.074-.2-.03-.187.163-.758.243-.852.563-.048.161.095.338.057.502-.025.107-.17.143-.228.236a1.33 1.33 0 00-.17.413c-.009.04.599.974.597 1-.007.086-.21.035-.228.119-.002.012.201.782.228.822.153.231.622.652.967.352.123-.108-.621-.518.37-.646 1.076-.139.961 1.65 1.336.968.085-.156-.076-.41.056-.528.095-.083.066.25.143.352.125.165 1.068-.276.881.205-.077.198-.433.027-.625.117-.29.137.479.827.483.848.022.11-.139.184-.17.292-.026.086.137-.15.227-.146.18.008.348.1.512.175.087.04-.103.168-.114.263-.025.22-.116.783-.256.612-.12-.148-.306-.306-.284-.496.017-.144.51-.197.37-.233-.17-.043-.319.148-.484.204-.041.014-.104-.114-.114-.116-.212-.044-.438-.067-.625-.175-.231-.135-.089-.552-.256-.76-.07-.087-.214-.066-.313-.117-.386-.198-.177-.5-.74-.79-.326-.168.32.93.114 1.404-.027.063-.136-.057-.17-.117-.094-.163-.114-.36-.2-.526-.057-.113-1.023-.727-1.08-.732-.785-.07-.194.54-.796.615-.983.121.113-.186-.682-.527-.142-.06-.278.212-.427.176-.097-.024-.045-.195-.057-.293-.09-.784.98-.88.512-1.321-1.13-1.066-.178.87-.71.529-.767-.49-.667-1.077-1.024-1.766-.02-.036.026-.077.028-.118.008-.216.064-.443 0-.65-.05-.16-.398-.206-.2-.828.228-.71.364 1.295 1.024.148.021-.036-.073-.05-.085-.089a3.233 3.233 0 01-.114-.593c-.012-.127.254-.477.285-.624.087-.42-.062-.711-.17-1.072-.04-.13.366-1.133.426-1.345.035-.125-.047-.283.028-.39.087-.122.25-.192.398-.21.063-.006.051.147.114.15.12.009.221-.13.341-.12.502.045.865.674 1.422.66.214-.005.398-.16.597-.24h0z"></path>
        <path d="M54.78 55.044l-.37.428.37-.428z"></path>
        <path d="M56.316 53.729c.18.057.54-.017.54.172 0 .192-.357.258-.54.2-.118-.038 0-.248 0-.372z"></path>
        <path d="M64.135 58.295c-.142-.124-.293-.504-.426-.37-.133.132.256.275.398.398.01.01.019-.019.028-.028h0z"></path>
        <path d="M66.211 56.528c-.058.232.018.497-.085.712-.038.08-.249.145-.256.057-.023-.28.259-.501.341-.77z"></path>
        <path d="M46.193 55.786c-.364.26-.21.098-.12-.07l-.108.07.107-.07c.039-.072.066-.146.036-.187-.137-.183-.9.55-1.024.628-.201.126-.522.005-.697.159l.014.012-.015-.013a.225.225 0 00-.013.013c-.147.147-.151.39-.256.57-.461.794-.202.153-.853.855-.244.264-.438.841-.71.998-.42.24-2.564.495-2.674.825-.06.182.2.416.086.57-.103.136-.418-.142-.512 0-.082.123.263.194.284.341.011.077-.183-.007-.227.057-.122.175-.242.385-.228.597.008.128.346.144.285.256-.074.135-.468-.095-.456.057.016.187.324.188.484.285.058.035.239.108.17.114-.492.037-.73-.41-.966-.37-.107.018-.162.251-.256.199-.182-.1-.162-.714-.569-.598-.078.023-.007.205-.085.228a.917.917 0 01-.597-.029c-.193-.08-.346-.243-.472-.41v4.91c.109-.058.187-.12.187-.12.15.13.17.36.256.54.046.097.205.123.228.228.048.224.065.51-.086.683-.053.06-.227.114-.17.17.087.088.257.089.313.2.129.258-.014.61.142.853.044.069.206.061.199.142-.009.095-.217.077-.228.171-.022.204-.032.492.142.598.157.096.334-.24.512-.2.142.034.101.3.228.371.506.284.716-.223 1.137-.285.173-.025.35.18.512.114.138-.055.05-.398.2-.398.31 0-.085 1.537.198 1.395.233-.117.397-.469.654-.427.232.037.477.283.683.17.221-.12.481-.22.625-.427.076-.109-.105-.398.029-.398.261 0 .278.57.54.57.162 0 .321-.263.455-.172.15.104-.026.396.085.542.219.286.73-.488.768-.485 1.058.097-.9.657.54.513.108-.01.127-.336.2-.256.2.22.113 1.058.113 1.339 0 .03 0 .094.028.086.738-.206 1.606-.634 2.275-.97.217-.108.273-.404.37-.626.02-.045-.057-.103-.029-.143.035-.048.177.003.171-.057-.018-.194-.2-.347-.227-.54-.02-.131.067.332.199.341.525.038-.035-.625.085-.854.062-.117.304.094.398 0 .716-.717-.3-.457-.426-.597-.078-.087.238-.094.284-.2.06-.139.1-.34 0-.455-.087-.1-.458.119-.398 0 .172-.344.748-.362.91-.711.083-.18-.125-.442 0-.597.097-.123-.016.366.113.455.314.215.729-.825.797-.825.068 0 .045.177.113.17.169-.016.37-.08.455-.227.101-.172.146-.436.029-.597-.076-.103-.244.252-.341.17-.117-.097-.019-.304 0-.455.035-.291.287-1.544.54-1.677.146-.077.423.04.483-.114.071-.182-.281-.352-.227-.54.04-.143.158.263.284.341.262.161 1.64.344 1.62-.114-.008-.226-1.91-1.296-1.99-1.564-.027-.091-.144-.137-.17-.228-.07-.246.496-.248.597-.484.04-.092-.13-.154-.2-.227-.146-.155-.19-.39-.34-.541-.07-.07-.25.007-.285-.085-.028-.077.252-.08.2-.143-.074-.088-.273.063-.342-.028-.054-.072.216-.005.256-.086.03-.06-.166.03-.199-.028-.032-.056.135-.132.085-.171-.168-.131-.505-.035-.597-.228-.07-.146.34-.21.313-.37-.03-.174-.263-.248-.427-.314-.088-.035-.241.114-.284.029-.04-.08.166-.078.256-.086.22-.018.973.247 1.109-.085.107-.26-.836-.345-.74-.684.03-.107.245-.027.313-.114a.146.146 0 00.022-.04c.048-.13-.036-.354.092-.388.166-.043.28.197.427.285.043.027.092.067.142.057.218-.042.404-.21.625-.228.114-.009.247.063.342 0 .44-.294-.279-.436-.455-.57-.114-.087-.395-.31-.256-.343.187-.042 2.229-.163 1.962-.799-.078-.184-.409.01-.597-.057-.21-.074-.295-.477-.512-.429-.075.017-.06.255-.114.2-.283-.285.604-.455-.341-.514-.189-.012-.361.111-.54.171-.049.017-.163.104-.143.058.07-.156.68-.6.086-.658-.17-.016-.266.228-.427.286-.116.042-.247-.014-.37 0-.05.006-.15.107-.142.057.064-.36.585-.658.455-1-.095-.251-.612-.08-.739-.316-.307-.57.272-1.062-.256-.63-1.667 1.364.517-.045-.483.688-.032.023-.112.067-.114.028-.01-.183.114-.362.085-.544-.013-.086-.137-.234-.199-.172-.091.093-.273.748-.398.888-.143.161-.331.276-.483.43-.076.076-.324.18-.228.228.134.067.041.334-.057.457-.055.07-.174.072-.227.143-.067.09-.015.263-.114.315-.15.078-.78-.178-.796.285-.007.213.36.373.284.571-.088.23-.508.111-.682.286h0z"></path>
        <path d="M45.994 55.928c.507-.363.81 1.518.114.742-.105-.116-.09-.301-.114-.456-.014-.094 0-.19 0-.286z"></path>
        <path d="M54.581 73.697c-.17.076-.325.215-.512.228-.102.008-.16-.134-.256-.17-.107-.042-.262.026-.34-.058-.315-.336.553-2.195.397-2.74-.051-.182-.281-.275-.34-.455-.043-.128.119-.28.056-.4-.134-.252-.83.177-.938.171-.028 0-.298-.634-.285-.825.01-.132.195-.21.2-.342.005-.153-.136-.278-.171-.427-.052-.219.45-.142.597-.313.074-.087-.05-.23-.028-.342.15-.81.072-.17.398-.569.06-.074-.059-1.164-.057-1.195.004-.092.21-.166.227-.199.069-.13.04-.3.114-.426.525-.897.229-.24.597-.029.112.064-.06-.252-.114-.37-.037-.081-.085-.166-.085-.255 0-.21.141-.423.085-.626-.033-.12-.374-.092-.313-.199.07-.124.34.113.427 0 .08-.105-.142-.238-.142-.37 0-.222.347-.304.426-.512.041-.106-.056-.242 0-.34.497-.87.376-.339.91-.086.078.037.282-.338.569-.995.007-.017.745-.002.938.113.128.076.06.346.2.398.196.075.415-.085.625-.085.114 0-.061.163.085.142.646-.092 1.38.347 1.479.342.114-.006.119-.222.227-.256.29-.092 1.217.207 1.65.227.216.01.557-.48.71-.569.108-.061.287.063.37-.028.072-.078-.127-.233-.057-.313.113-.128.351-.063.484-.17.138-.114.106-.442.284-.456.903-.072-.05 1.17-.17 1.309-.577.66-1.138 1.273-2.162 1.194-.486-.037-.64-.263-.966-.427-.34-.17-1.734.236-2.162.171-.135-.02-.215-.173-.34-.227-.08-.035-.726.255-.854.255-.245 0-.738-.248-.938-.227-.546.057-.984.876-.938 1.365.09.972.258.825.881 1.251.2.137.084.511.256.683.057.057.147-.086.228-.086.182 0 .358.094.54.086.01 0 .63-1.003.853-1.024 4.385-.411-3.532 1.228 1.023-.057.192-.054.399.016.598.028.094.007.189.037.284.029.33-.028 1.017-.906 1.223-.057.276 1.147-.497-.176-1.08.256-.169.124-.594.837-.74.967-.832.74.246-.342-.882.313-.157.091-.195.317-.34.427-.186.138-.534-.238-.627-.2-.106.045-.018.254.057.342.04.046.053-.142.114-.142.189 0 .921.933 1.024 1.138.262.524 1.15.692.654 1.452-.074.113-.242.142-.313.257-.025.04.054.078.085.114.286.322.827.317 1.024.74.077.166.148.37.085.542-.032.09-.19 0-.284 0-.24 0-.635.07-.853.114-.34.068-.552 1.317-1.166.485-.119-.16-.043-.4-.028-.599.014-.202.213-.421.113-.599-.058-.102-1.213-.609-1.222-.883-.017-.496 1-1.366-.2-1.566-.256-.043-.346.203-.511.313-.15.1-.443.106-.455.285-.016.216.287.327.398.512.074.124-.074.285-.057.428.026.225.168-.007.085.342-.157.664-.145.905 0 1.596.063.297-.313.552-.313.856 0 .43.498.278.342.8-.028.091-.133-.163-.228-.171-.156-.013-.303.076-.455.114h0z"></path>
        <path d="M60.524 66.374c-.02.042-.291.725-.512.569-.16-.113.023-.463-.142-.569-.11-.07-.304.535-.455.512-.101-.015-.174-.153-.17-.256.033-.828.86-.402 1.28-.256h0z"></path>
        <path d="M59.102 72.041c.039.19.154.381.114.57-.033.159-.262.218-.313.372-.034.103.175.253.086.314-.173.119-.488.214-.626.057-.127-.145.182-.35.2-.542.012-.138-.107-.262-.115-.4-.013-.25.422-.278.654-.37h0z"></path>
        <path d="M42.41 75.957c.32-.04 2.013-.05 2.048.086.035.133-.597.426-1.023.515-.703.148-.796-.141-1.024-.601h0z"></path>
        <path d="M45.055 77.993c.65.493 1.22-.224 1.82.23.672.508-.12.436-.426.719-.098.09-.049.279-.142.374-.167.168-.087-.339-.427-.605-.516-.403-.6.052-.825-.718h0z"></path>
        <path d="M48.212 78.223c1.322 0 .412.557.313 1.035-.013.06.169.06.142.115-.055.112-.246.074-.37.057-.388-.05-1.08.143-.91-.287.049-.124.326.111.398 0 .104-.162-.109-.401-.028-.575.08-.173.303-.23.455-.345z"></path>
        <path d="M49.719 78.51c.199.02.425-.045.597.058.182.108.207.38.37.517.24.203.722-.102.853-.201.015-.012-1.177-.52-.825-.834.532-.474.623.342.882.431.13.046 1.888-.364 1.478.604-.115.272-.76-.107-.824.058-.054.134.288.078.398.172.05.044-.135.018-.2 0-.219-.06-.489.121-.682 0-.13-.081.125-.47-.028-.46-.216.014-.266.345-.427.49-.124.111-2.246.487-2.388.258-.45-.723.434-.91.796-1.093h0z"></path>
        <path d="M54.922 78.309c.436 0 .62-.041 1.195.115.223.06.705.46.938.46.715 0-.416-.58.882-.287.392.088.32.645.767.287.104-.083.094-.264.2-.345.145-.112.34-.136.511-.201.056-.021.204-.108.17-.058-.084.13-.28.174-.34.317-.04.092.155.216.085.287-.346.35-.857.176-1.251.23-.068.01-.106.092-.17.115-.204.074-.41.173-.627.173-.162 0-.292-.181-.454-.173-.077.004-.043.172-.114.201-.159.066-.34.058-.512.058-.367 0-.68-.313-1.08-.259-.302.04-.401.227-.825.115-.328-.086-.09-.705-.057-.776.017-.037.045.081.085.086.229.026.407-.216.597-.345h0z"></path>
        <path d="M52.818 80.323c.246-.066 1.349-.302 1.564-.259.99.2-.013.291.54.634.173.108 1.532.214.768.953-.716.693-1.312-.469-1.848-.75-.084-.045-.19-.03-.284-.03-.03 0-.056.033-.086.03-.2-.026-.445.018-.597-.116-.116-.103-.038-.308-.057-.462h0z"></path>
        <path d="M61.264 78.453c.151-.096.328-.415.454-.288.146.147.033.493-.142.604-.125.08-.208-.21-.312-.316z"></path>
        <path d="M62.088 78.08c.46 0-.056.087.512.028.252-.027.734-.158.626.316-.024.104-1.218.235-1.223.23-.136-.138.057-.383.085-.575h0z"></path>
      </g>
      <g
        fill="#000"
        stroke="#000"
        strokeDasharray="none"
        strokeMiterlimit="4"
        strokeOpacity="1"
        strokeWidth="0.081"
        transform="translate(13.062 -.81)"
      >
        <path d="M145.01 45.086c.157.058.305.156.472.173.13.013.257-.058.386-.087"></path>
        <path d="M230.31 10.28c.468.285 1.656.521 1.888 1.049.055.126-.04.3.043.41.177.231.507.314.686.545.326.418-1.168.67-1.287.726-.523.249-1.013 1.664-1.545.499-.106-.235.08-.516.043-.771-.051-.359-.571-.666-.429-1 .124-.288.482-.437.601-.728.093-.225 0-.486 0-.73z"></path>
        <path d="M229.152 8.452l.686.595-.686-.595z"></path>
        <path d="M227.478 8.543c.035-.074.086-.046.086-.046-.014.03-.057.03-.086.046z"></path>
        <path d="M226.834 7.717c.154.016 1.418-.093 1.03.322-.05.053-1.371.001-1.373 0-.117-.104.229-.214.343-.322z"></path>
        <path d="M224.775 6.338c.376.269 1.067.794.772 1.15-.186.224-.523-.31-.815-.322-.136-.006-.189.353-.3.276-1.135-.788-.168-.89.343-1.104z"></path>
        <path d="M221.3 5l-.344.876s.23-.584.343-.876z"></path>
        <path d="M219.411 5.461l-.042.277.042-.277z"></path>
        <path d="M139.131 51.542l-.214.172.214-.172z"></path>
        <path d="M141.62 48.016l-.386.56.386-.56z"></path>
        <path d="M147.541 47.887l-.214-.043s.143.03.214.043z"></path>
        <path d="M146.383 45.345l.429.173-.43-.173z"></path>
        <path d="M147.198 45.13c.014-.03.014-.072.043-.087.018-.009.052.025.043.043-.014.029-.057.03-.086.043h0z"></path>
        <path d="M138.917 44.568l.214.13-.214-.13z"></path>
        <path d="M139.518 43.921c.014-.029.1-.072.085-.043-.014.028-.057.028-.085.043z"></path>
        <path d="M144.409 40.547c.014-.029.1-.072.086-.043-.014.028-.057.028-.086.043z"></path>
        <path d="M135.828 39.246l.042.174-.042-.174z"></path>
        <path d="M124.07 49.866l.258-.258-.257.258z"></path>
        <path d="M111.8 45.862l-.044-.172.043.172z"></path>
        <path d="M51.3 43.575l-.129.907.129-.907z"></path>
        <path d="M226.791 59.046c-.8 0-2.317-1.213-.429-.557.221.077.286.37.43.557z"></path>
        <path d="M151.617 62.985c.014-.03.014-.072.043-.086.018-.01.052.025.043.043-.014.028-.057.028-.086.043h0z"></path>
        <path d="M150.055 60.838l-.043.471.043-.471z"></path>
        <path d="M150.012 59.125c.014-.028.014-.071.043-.085.018-.01.051.024.042.042-.014.03-.057.03-.085.043h0z"></path>
        <path d="M149.454 55.74l.3-.17-.3.17z"></path>
        <path d="M221.453 53.682l-.387-.257.387.257z"></path>
        <path d="M79.944 19.98c.07-.147.085-.044.085-.044-.013.029-.057.03-.085.044z"></path>
        <path d="M78.7 26.643c-.13.058-.387.176-.387.176l.386-.176z"></path>
        <path d="M79.643 24.298l.043.266-.043-.266z"></path>
        <path d="M80.073 23.81l-.344.399.344-.4z"></path>
        <path d="M80.03 15.987l-.172.316.171-.316z"></path>
        <path d="M77.67 28.098c.572.44-1.168 1.788-.687.528.103-.27.458-.352.687-.528z"></path>
      </g>
      <g
        fill="#000"
        fillOpacity="1"
        stroke="#000"
        strokeDasharray="none"
        strokeMiterlimit="4"
        strokeOpacity="1"
        strokeWidth="0.081"
      >
        <path d="M39.17 85.809c.244-.286.415-.623.733-.906.406-.36 1.953-.322 2.403-.303.935.041 1.62-.496 2.317-.519.29-.01 1.02.097.816.303-1.046 1.054-.76.445-1.631.866-.211.101-.3.385-.515.476-.251.107-.558-.005-.815.087-.203.073-.323.293-.515.39-.694.35-1.126.17-2.128.828l-.06.04c-.533.449-.992 1.552-1.717 1.824-.255.096-.554-.033-.815.044-.652.193-.637.879-1.673.478-1.005-.388.51-.208.772-.74.09-.182-.513-.19-.472-.39.085-.41.195-.718.392-.979.152-.2.355-.372.638-.541.411-.246.853-.276 1.298-.39.096-.024.193-.052.29-.087a1.57 1.57 0 00.681-.481h0z"></path>
        <path d="M56.637 80.97c.484.406-.825 3.137-1.33 2.333-.145-.233-.137-.564-.043-.821.04-.108.29.1.344 0 .088-.166-.086-.379-.043-.562.02-.09.13-.136.214-.173.03-.012.061.064.086.044.293-.236.498-.564.772-.82h0z"></path>
        <path d="M38.015 66.883c.376-.125 2.555-.018 2.318.6-.102.263-1.086.018-1.245.043-1.035.159-1.073.912-1.073-.643h0z"></path>
        <path d="M42.435 70.654c.057.057.091.18.171.171.101-.01.126-.166.215-.214a.865.865 0 01.343-.086c.776-.057 2.698.225 2.06 1.5-.264.53-3.83.707-2.79-1.371h0z"></path>
        <path d="M40.59 67.226c.147.147.607.068.858.043.438-.044 1.154-.095 1.545.042.086.03-.126.15-.215.172-.153.038-.316-.022-.472 0-.607.086-1.645.452-1.716-.257h0z"></path>
        <path d="M47.712 70.01c.568-.056 1.749-.225 2.275 0 .094.041.071.282.171.258.282-.067.444-.424.73-.472.699-.116.974.497 1.544.557.3.032.609-.111.901-.042.482.113 1.598 1.929 1.202 2.273-.165.143-2.345-1.459-3.39-1.459-.032 0-.043.054-.043.086 0 .115.137.276.043.343-.04.03-1.347-.233-1.459-.3-.105-.063-.006-.334-.128-.343-.417-.03-.67.537-1.073.643-.35.092-.533-.9-.815-1.03-.068-.03-.596 1.24-.644 1.287-.052.052-.028-.143-.043-.214-.057-.272-.292-.565-.172-.815.106-.22.502-.098.687-.257.141-.121.143-.343.214-.514h0z"></path>
        <path d="M48.656 61.831c-.207-.084-1.347-.546-1.544-.428-.67.4.51 2.817.687 3.04.163.205.505.299.557.556.075.375-.791-.214-1.03-.514-.199-.25-.238-.6-.429-.856-.133-.179-.515-.205-.515-.428 0-.444.288-.912.13-1.327-.207-.54-.545-.02-.473-.642.03-.265.286-.514.215-.77-.065-.235-.434-.262-.558-.472-.274-.462.987-2.674 1.287-2.912.103-.081.41-.215.386-.085-.057.303-.494.462-.515.77-.014.223.325.318.43.515.034.064-.043.141-.043.214 0 .271.057.542.042.813-.024.464-.879.534-.986.985-.041.17.254.3.429.3.141 0 .195-.205.3-.3 1.322-1.2-.05-.621.686-1.199.223-.174 1.268-.773 1.416-.428.043.1-.133.191-.128.3.095 2.275-.859.548-1.201 1.712-.122.41.847.262 1.158.557.135.128-.06.402.043.556l-.344.043h0z"></path>
      </g>
      <g
        fill="#000"
        stroke="#000"
        strokeDasharray="none"
        strokeMiterlimit="4"
        strokeOpacity="1"
        strokeWidth="0.081"
        transform="translate(13.062 -.81)"
      >
        <path d="M193.967 113.447l.13-.362-.13.362z"></path>
        <path d="M251.248 126.656c.015-.031.014-.077.044-.093.018-.01.052.027.043.046-.014.03-.058.032-.087.047h0z"></path>
        <path d="M274.548 90.446l-.086.261.086-.261z"></path>
        <path d="M277.08 90.49c.013-.03.013-.073.042-.088.018-.009.052.025.043.044-.014.028-.057.029-.086.043z"></path>
        <path d="M276.221 88.62c.014-.03.1-.073.086-.044-.015.029-.057.029-.086.044z"></path>
        <path d="M275.964 89.054c.014-.029.013-.072.042-.087.019-.01.052.025.044.044-.015.028-.058.028-.086.043z"></path>
        <path d="M274.848 86.45c.014-.028.1-.072.086-.043-.015.029-.057.03-.086.043z"></path>
        <path d="M273.475 86.234c.073-.146.086-.043.086-.043-.015.028-.057.028-.086.043z"></path>
        <path d="M273.389 87.578c.015-.029.1-.072.086-.044-.014.03-.057.03-.086.044z"></path>
        <path d="M273.69 88.533l.386.087-.386-.087z"></path>
        <path d="M272.273 86.364l-.257.173.257-.173z"></path>
        <path d="M270.943 86.147l-.471.347.471-.347z"></path>
        <path d="M270.858 87.534l-.043.304.043-.304z"></path>
        <path d="M271.887 84.07c.015-.028.1-.072.086-.043-.014.029-.057.029-.086.043z"></path>
        <path d="M269.356 83.984l-.129.216.129-.216z"></path>
        <path d="M254.939 101.102l-.043-.177.043.177z"></path>
        <path d="M255.797 100.704c.261.054.247.12 0 .221-.055.023-.172.103-.172.044 0-.105.115-.177.172-.265z"></path>
        <path d="M257.728 101.411c-.014.045.004.133-.043.133-.154 0-.17-.242.043-.133z"></path>
        <path d="M257.084 103.672l-.343-.089.343.09z"></path>
        <path d="M255.71 104.65l.13.134-.13-.134z"></path>
        <path d="M258.029 104.828l-.301-.356.3.356z"></path>
        <path d="M259.1 104.428c.015-.03.1-.074.087-.045-.014.03-.058.03-.086.045z"></path>
        <path d="M256.57 105.318l.343.713-.344-.713z"></path>
        <path d="M259.788 105.987a50.953 50.953 0 010 0z"></path>
        <path d="M261.203 106.567a1109.373 1109.373 0 010 0z"></path>
        <path d="M256.698 108.805l-.086-.18.086.18z"></path>
        <path d="M257.17 109.074l-.129-.18.13.18z"></path>
        <path d="M270.772 105.05h-.171.17z"></path>
        <path d="M268.927 109.972c.08-.168.542-.507.429-.36-.113.15-.51.529-.43.36z"></path>
        <path d="M268.927 111.053l-.258-.316.258.316z"></path>
        <path d="M269.313 111.594l-.3-.226.3.226z"></path>
        <path d="M280.511 112l-.385-.226.385.226z"></path>
        <path d="M278.839 111.413a76.895 76.895 0 010 0z"></path>
        <path d="M274.805 118.322l-.086-.275.086.275z"></path>
        <path d="M273.775 121.034c.08-.032.337-.032.258 0-.08.032-.172 0-.258 0z"></path>
        <path d="M282.743 120.112l-.172-.137.172.137z"></path>
        <path d="M250.348 102.43a628.115 628.115 0 010 0z"></path>
        <path d="M248.803 102.164c-.227-.235 0-.088 0-.088.021.02 0 .059 0 .088z"></path>
        <path d="M252.15 103.05l-.086-.088.086.089z"></path>
        <path d="M241.766 122.837l.043-.185-.043.185z"></path>
        <path d="M247.216 110.107l-.859-.36.859.36z"></path>
        <path d="M245.67 109.298l-.214-.224.215.224z"></path>
        <path d="M241.552 107.506l-.043-.448.043.448z"></path>
        <path d="M241.466 106.924c.014-.029.1-.073.086-.044-.014.029-.057.03-.086.044z"></path>
        <path d="M239.535 106.3l-.171.044.17-.045z"></path>
        <path d="M219.97 119.285l.257.046-.258-.046z"></path>
        <path d="M157.624 69.879c.014-.029.014-.072.043-.086.018-.01.052.025.043.043-.014.028-.057.028-.086.043h0z"></path>
        <path d="M156.594 68.165l.13.129-.13-.129z"></path>
        <path d="M157.667 66.752l.171.257-.17-.257z"></path>
        <path d="M155.307 67.137l-.129.3.13-.3z"></path>
        <path d="M154.492 66.41l.086.3-.086-.3z"></path>
        <path d="M153.548 64.997c.014-.029.014-.072.043-.086.018-.009.052.025.043.042-.014.03-.057.03-.086.044z"></path>
        <path d="M190.577 74.896c.015-.028.1-.07.086-.042-.014.028-.057.028-.086.042z"></path>
        <path d="M188.088 75.068c.015-.029.015-.071.044-.086.017-.009.051.025.042.043-.014.03-.057.03-.086.043z"></path>
        <path d="M191.006 71.507c.015-.028.1-.071.086-.043-.014.029-.057.029-.086.043z"></path>
        <path d="M161.014 79.152c.014-.028.1-.071.085-.042-.014.028-.056.028-.085.042z"></path>
        <path d="M160.67 81.954c.015-.029.1-.072.087-.043-.015.028-.058.028-.086.043z"></path>
        <path d="M164.66 82.73c.015-.028.101-.07.087-.042-.014.028-.057.028-.086.043z"></path>
        <path d="M163.803 84.2c.072-.146.086-.044.086-.044-.015.03-.058.03-.086.044z"></path>
        <path d="M165.991 85.281l-.042.217.042-.217z"></path>
        <path d="M181.094 119.882l-.128-.137.128.137z"></path>
        <path d="M183.369 112.271l.386-.09-.386.09z"></path>
        <path d="M180.708 115.309v-.182.182z"></path>
        <path d="M180.537 119.423c.014-.03.1-.075.086-.046-.014.03-.057.03-.086.046z"></path>
        <path d="M182.725 115.172l.13-.136-.13.136z"></path>
        <path d="M172.814 100.572l.257.044-.257-.044z"></path>
        <path d="M189.333 99.91l-.773-.574.773.573z"></path>
        <path d="M187.316 99.248l-.557-.793.557.793z"></path>
        <path d="M191.865 100.748l-.215-.088.215.088z"></path>
        <path d="M162.902 111.188c-.407-.06-2.092-.193-1.931-.81.063-.243.383-.351.472-.585.04-.106-.15-.204-.128-.315.079-.414.671-.54 1.072-.673.697-.232 2.362.295 2.317 1.662-.01.303-1.348.524-1.802.721h0z"></path>
        <path d="M166.463 108.715l.13-.269-.13.269z"></path>
        <path d="M165.09 109.613l-.257-.09.257.09z"></path>
        <path d="M166.292 110.737l-.215-.36.215.36z"></path>
        <path d="M170.711 108.267l-.086.314.086-.314z"></path>
        <path d="M170.625 110.422a179.37 179.37 0 000 0z"></path>
        <path d="M167.75 111.955h0z"></path>
        <path d="M167.45 113.72v-.227.226z"></path>
        <path d="M163.33 113.176l.559-.181-.558.18z"></path>
        <path d="M162 111.82v0z"></path>
        <path d="M161.057 108.043l-.258.179.258-.18z"></path>
        <path d="M161.83 107.014l-.215.223.214-.223z"></path>
        <path d="M167.836 107.774c.1-.223.1-.53.3-.67.136-.095.025.34-.042.491-.043.095-.172.12-.258.18z"></path>
        <path d="M164.704 107.774c-.11-.34-.69-.737-.43-.984.177-.167.506.094.73 0 .174-.072.193-.334.344-.446.311-.232.81.04 1.158-.134.13-.065.077-.291.171-.401.089-.104.462-.056.559-.09.292-.1.59-.654.986-.312.165.143-.368.24-.514.402-.188.204-1.08 1.261-.987 1.339.352.293.819-1.099 1.158-.804.18.156.069.477.043.714-.005.052-.08.07-.129.09-.259.108-1.452-.362-1.888-.09-.187.117-.197.424-.386.537-.239.143-.544.12-.815.18h0z"></path>
        <path d="M135.656 106.3c-.029-.239.004-.493-.086-.715-.116-.282-.461-.457-.515-.757-.023-.127.275-.022.386.045.195.118.072.386.215.534.046.049 1.234.679 1.072.848-.815.848-.79.574-1.072.044z"></path>
        <path d="M137.458 103.228l.043.267-.043-.267z"></path>
        <path d="M138.53 109.568v0z"></path>
        <path d="M137.586 107.327c.015-.03.014-.074.043-.09.019-.01.052.027.043.045-.014.029-.057.03-.086.045h0z"></path>
        <path d="M137.715 105.63c-.086.149-.086.436-.257.446-.218.013-.624-.213-.515-.401.128-.223.515-.03.772-.045z"></path>
        <path d="M137.586 104.784a4963.189 4963.189 0 000 0z"></path>
        <path d="M135.098 104.428l-.258-.134.258.134z"></path>
        <path d="M133.982 102.43l.386.443-.386-.443z"></path>
        <path d="M135.741 100.616l-.085-.354.085.354z"></path>
        <path d="M136.256 98.94l.086-.177-.086.176z"></path>
        <path d="M140.418 112.769c-.157.075-.374.37-.472.226-.16-.238-.216-.735.043-.86.23-.11.286.423.43.634z"></path>
        <path d="M140.933 114.763c-.1.046-.237.227-.3.136-.159-.229-.426-.702-.172-.817.252-.114.315.454.472.681z"></path>
        <path d="M129.434 117.818c1.073.352.79.992 1.63 1.605.046.033.559.21.902.368.64.294 1.025.894 1.716 1.427.237.184.573.238.772.462.379.427.23.62-.086.833-.056.038-.11-.232-.171-.232-.266 0 .162.292-.172.232-.305-.055-.643-.06-.901-.232-.103-.068.1-.296 0-.37-.227-.167-.598-.05-.815-.23-.146-.122 0-.416-.129-.554-.064-.07-.122.202-.214.184-.168-.033-.27-.22-.43-.277-.146-.052-.083-.33-.214-.415-.053-.034-.07.117-.129.138-.089.032-.923-.594-1.072-.69-.273-.176-.633-.227-.859-.46-.243-.252-.525-.838-.643-.964-.85-.908-.714-.637-1.373-1.876-.117-.22-.632-.595-.386-.639.287-.05.405.425.643.593.2.142.164.09.13-.137-.004-.02.022-.05.042-.045.62.165 1.291.874 1.76 1.279h0z"></path>
        <path d="M137.458 120.159c0 1.049-1.212-.372-.773-.46.294-.06.515.306.773.46z"></path>
        <path d="M135.57 118.505c-.058.168.005.522-.172.505-.324-.032-.706-.279-.772-.597-.056-.268.242-.667.515-.64.282.027.286.488.429.732z"></path>
        <path d="M133.382 117.726l.171-.776-.171.776z"></path>
        <path d="M126.002 115.036v0z"></path>
        <path d="M134.797 88.967c.015-.029.014-.072.043-.087.018-.009.052.025.043.044-.014.028-.057.029-.086.043h0z"></path>
        <path d="M131.494 91.23c.3-.073.595-.176.9-.218.109-.015-.766 1.036-.9.218z"></path>
        <path d="M133.296 92.625h0z"></path>
        <path d="M133.897 93.455l.514.175-.514-.175z"></path>
        <path d="M133.366 66.644c.256 0 .463-.258.463-.577 0-.318-.207-.577-.463-.577-.255 0-.462.259-.462.577 0 .319.207.577.462.577z"></path>
      </g>
      <g
        fill="#000"
        fillOpacity="1"
        stroke="#000"
        strokeDasharray="none"
        strokeMiterlimit="4"
        strokeOpacity="1"
        transform="translate(13.062 -.81)"
      >
        <g strokeWidth="0.081">
          <g>
            <path d="M67.647 87.014v-4.067-.864c0-.287-.014-.575 0-.862 0-.015.056.006.043 0-.41-.206-.429-.033-.429-.733 0-.04.357-.603.386-.732.036-.162 0-.33 0-.496v-9.046c0-.215.473-.06.558-.035.755.215 1.502.814 2.188 1.157 1.082.54 2.74.506 3.733.943.603.265.545.6 1.287.986.102.053.23 0 .344 0 .314 0 .656-.126.944 0 .15.066.001.37.128.472.211.171.552.101.773.258.24.17.31.527.557.687.182.117.45-.011.644.086.49.245.87.682 1.201 1.116.227.298-.16 1.378-.085 1.677.02.083.175-.024.257 0 .302.086 1.124.11 1.545.3.59.27.97.71 1.63.947.856.307 1.349-.2 1.888.948.898 1.909-1.71.553-2.23 1.077-.174.174.197.451.256.69.028.111-.028.233 0 .345.073.282.187.552.3.82.157.366.74.333 1.03.604.175.164.198.457.387.605.101.08.262-.036.386 0 .227.067.46.153.644.303.067.055.021.174.042.26.089.356-.044.82.215 1.08.144.146.388.146.558.26.318.215.182.76.386 1.084.185.294 1.319-.26 1.373-.26.921 0 .238.91.257 1.344.005.101.204.014.3.044.505.157-.02.304.687.304.118 0 .226-.087.344-.087.23 0 .718-.141.686.087-.043.307-.65.236-.772.52-.18.419 2.193 1.165 2.36 1.174.218.013.643-.348.643-.13 0 .541-1.236.2-1.33.218-.343.061.571.405.815.653.077.077-.195.1-.3.13a8.69 8.69 0 01-.901.218c-.982.173-.77-.586-1.201-.915-.05-.037-1.969-.157-2.017-.174-.276-.093-.443-.43-.73-.478-.202-.034-.352.268-.557.261-.277-.009-.504-.236-.773-.304a2.744 2.744 0 00-.772-.087c-.136.005-.253.157-.386.13-.062-.012-.998-1.39-1.073-1.477-.275-.319-1.176.199-.858-1.301.069-.323-.713.097-.987-.087-.132-.09.057-.318.043-.476-.01-.112-.145-.172-.214-.26-.197-.252-.933-1.53-1.073-1.645-.915-.75-2.148-.045-3.132-.778-.537-.4.761-1.163-.944-.734-.254.064.167.841-.086.777-.207-.052-.215-.475-.43-.475-.161 0-.188 1.15-1.63-.302-.057-.058.139.099.172.173.365.808.106-.086.515 1.08.027.079-.143-.087-.215-.13-.285-.172.323.303-.043.303-.35 0-.944-.27-1.244-.346-.057-.014.136-.004.172.043.188.254.566.52.472.822-.073.231-.49-.039-.73 0-.309.049-.59.238-.901.26-.14.009-.25-.134-.386-.174-.539-.16-1.367.528-1.802-.13-.11-.166.41-.063.6 0 .132.045.025.446.387.346.866-.238 2.843.535 2.102 1.733-.13.21-.509.018-.73.13-.117.06-.186.191-.3.26-.246.15-.505.28-.772.39-.207.086-.824-.41-1.073-.433-.515-.05-.996.245-1.544.173-.718-.093-.803-.216-1.588-.26h0z"></path>
            <path d="M93.048 90.664c.03.057.086.174.086.174l-.086-.174z"></path>
            <path d="M93.563 90.838l-.043.217s.03-.145.043-.217z"></path>
            <path d="M80.52 75.111l-.13.601.13-.6z"></path>
            <path d="M97.382 90.881l.815.13-.815-.13z"></path>
            <path d="M101.2 92.8l.687.131-.686-.131z"></path>
            <path d="M99.055 92.713c.046.023 1.4.696 1.46.786.077.12-.29.03-.43 0-.279-.059-.588-.09-.815-.262-.15-.115-.143-.35-.215-.524h0z"></path>
            <path d="M97.425 86.624c.21 0 1.124-.13 1.159.39.066 1.01-.955-.197-1.16-.39z"></path>
            <path d="M93.692 85.195c-.014.288.226.757-.043.865-.247.1-.184-.513-.171-.779.003-.077.214-.163.214-.086z"></path>
            <path d="M92.104 87.534c.258.087.57.08.773.26.175.156.217.422.257.652.011.063-.12-.048-.171-.087-.036-.027-.084.045-.13.043-.3-.012-.706.144-.9-.086-.172-.205.114-.521.171-.782h0z"></path>
            <path d="M91.418 87.23c.129.145.3.26.386.435.04.078.044.275-.043.26-.26-.046-.57-.155-.686-.39-.068-.137.229-.203.343-.304z"></path>
            <path d="M73.654 85.021c.215.116.815.174.644.347-.176.177-.467-.185-.687-.303-.018-.01.029-.029.043-.044h0z"></path>
            <path d="M50.9 77.426c.2.2.497.338.601.602.085.215.168 1.807-.386 1.807-.043 0-.898-.301-.858-.646.033-.288.348-.531.3-.817-.028-.17-.438-.046-.472-.215-.028-.14.323.095.43 0 .205-.185.257-.488.385-.731h0z"></path>
            <path d="M49.87 79.318c2.18 1.591-.018 2.38-.171 1.552-.094-.512.143-1.032.172-1.552z"></path>
            <path d="M67.591 87.008c-.806-.453-1.274-1.307-1.973-1.906-.21-.18-.6-.248-.644-.52-.049-.304.48-.516.43-.82-.04-.242-.252.457-.473.561-.273.129-.604.035-.901.087-.205.035-.411.26-.6.173-.236-.11-.226-.489-.43-.649-.148-.116-.43.908-.772.908-.201 0-.205-.202-.124-.475-.136.076-.381.032-.52.13-.25.174-.416.464-.686.605-.14.073-.315.01-.472 0-.301-.02-.6-.105-.901-.087-.195.012-.364.16-.558.173-.236.017.292-.824.386-.995.553-1.002.726-1.408 1.93-1.727.463 0 .77.073.958.21-.042-.116-.06-.248-.142-.34-.137-.154-.607-.16-.515-.345.102-.205.459.02.687 0 .26-.023.516-.081.772-.13.028-.005-.057 0-.086 0-.3 0-.62.105-.9 0-.297-.11-.515-.373-.73-.604-.028-.029.045-.082.086-.086.593-.06.89-.04 1.501.216.071.03-.148-.046-.214-.086-.343-.212-.788-.275-1.073-.56-.091-.092.386.085.386-.044 0-.147-.272-.122-.386-.215a3.865 3.865 0 01-.558-.56c-.274-.34-.514-.77-.514-1.206 0-.135.417-.103.343-.215-.116-.173-.415-.079-.601-.172-.702-.352.29-.296-.257-.99-.134-.17-.436-.025-.644-.086-.259-.076.062-.195-.043-.3-.147-.148-.6.035-.6-.172 0-.04.085-.046.085-.087 0-.34-.548-.414-.858-.558-.457-.213-.64.029-1.159 0-.543-.03-1.653-.929-2.274-1.117-.487-.148-3.492-.232-3.303-.987.076-.304.763-.163.815-.472.04-.24-.492-.096-.73-.043-.17.038-.254.294-.429.3-.497.017-1.064-.12-1.416-.472-.18-.18-.17-.497-.343-.686-.129-.142-.44-.081-.515-.258-.322-.75.718-.714.6-1.414-.039-.24-.415.293-.514.514-.1.222.083.52-.043.729-.06.1-.29-.191-.343-.086-.07.138.192.276.171.43-.052.38-.484 1.208-.9 1.372-.57.224-1.565-.242-1.288-1.073.063-.188.471-.107.515-.3.053-.23-.123-.487-.3-.643-.108-.095-.293.042-.43 0-.164-.05-.385-.722-.815-.9-.242-.101-1.504.167-.986-.43.523-.602 1.544-.042 2.102 0 .49.038.512-.942 1.201-.942 3.16 0-2.807.507 1.159.771.172.012-.08-.392.043-.514.195-.195.637-.06.772-.3.129-.23.067-.658-.171-.77-.243-.116-.48.242-.73.342-.17.068-1.04-.069-1.63.043-.287.054-.57.215-.859.171-.141-.022-.115-.324-.257-.343-.251-.032-.48.255-.73.215-.064-.01-.932-.987-.943-1.028-.08-.278.227-.586.128-.857-.08-.22-.89.033-1.416-.086-.159-.036-.224-.277-.386-.3-.286-.039-.569.129-.858.129-.06 0 .088-.084.129-.128.217-.24.52-.43.644-.729.092-.224-.187-.53-.043-.727.177-.244 1.478-.256 1.63-.3.598-.174.604-.742 1.459-.899 1.06-.195 1.729.58 2.574.985.117.056.257.042.386.042.02 0 .023-.042.043-.042.13 0 .257.042.387.042.214 0 .436-.098.643-.042 1.224.328.136.318.086.599-.076.428.556.766.515 1.199-.024.248-.345.396-.386.642-.053.315.157.624.171.943.042.957.091.542.43 1.156.108.198.128.434.214.643.044.107.13.408.172.3.19-.496-.306-1.047.429-.9.255.051-.097.987.171 1.157.109.07.316-.108.386 0 .134.206-.05.526.086.73.263.393 1.313.394 1.674.214.086-.044 1.688-1.732 1.845-1.93.788-.994-1.028.375.386-.942.255-.238 1.486.437 2.017-.3.152-.211-.233-.532-.13-.77.001-.002 1.736-.831 1.846-.857.266-.064.4.297.558.385.405.228 1.08.218 1.501.428.77.384 2.207 1.542 3.133 1.542.174 0 .346-.04.514-.085.484-.13.062.222.687.3.242.03.505-.137.73-.043.172.072.126.403.3.471.193.076.404.036.617-.007h.069V79.254c0 .165.036.334 0 .495-.028.13-.386.694-.386.733 0 .7.02.527.43.732.012.007-.043-.014-.044 0-.014.288 0 .576 0 .863V87.008h0z"></path>
          </g>
          <g>
            <path d="M85.24 69.193l-.215.3.214-.3z"></path>
            <path d="M83.437 76.83l.258.387-.258-.387z"></path>
            <path d="M92.92 70.05c.974.757 2.025 1.213 3.175 1.757.358.17 1.046 1.174 1.33 1.458.258.258.715.23.987.472.743.667.363 1.212.086 1.975-.035.096-.12.253-.215.215-.838-.335-.373-1.168-.515-1.717-.088-.342-.847-1.352-1.073-1.588-.449-.47-.26.006-.858-.257-.913-.402-1.454-1.407-2.445-1.758-.203-.072-.505.121-.644-.043-.117-.138.114-.343.172-.514h0z"></path>
            <path d="M100.257 73.823l-.129.258.129-.258z"></path>
            <path d="M97.64 71.293v0z"></path>
            <path d="M95.837 70.436l.172.171-.172-.171z"></path>
            <path d="M96.438 74.124c0 1.195 1.067-.434.558 1.374-.461 1.636-.196.24-1.116.816-.323.202.495.71.386 1.075-.282.955-1.233.184-1.673.3-.132.035.153.254.129.388-.035.189-.293.25-.43.387-.051.052-2.194 1.172-2.445 1.205-.184.025-1.933.013-1.974 0-.312-.096-.474-.47-.772-.602-.993-.444-.763-.018-1.459-.517-.082-.059-.201-.021-.3-.043-.23-.05-.543.015-.687-.172-.158-.205-.081-.519-.043-.774.027-.18.334.172.515.172.092 0 .124-.159.215-.172.31-.047.636-.064.944 0 .195.04.322.25.514.3.16.042 1.68-.256 1.889-.3.115-.025-.115-.23-.086-.344.036-.148.235-.207.3-.344.082-.173-.013-.43.129-.559.085-.077.319.058.3.172-.04.243-.412.356-.429.602-.063.922 1.036.704 1.502.645 1.333-.172.8-.587 1.673-1.462.258-.258.727-.1 1.073-.215.158-.053-.039-.315-.043-.344-.098-.637-.205-.624-.386-1.46-.005-.02.023-.042.043-.042.158 0 .322-.01.472.042.23.08.401.37.643.344.243-.026.372-.315.558-.472z"></path>
            <path d="M85.282 77.604c.2.129.739.193.6.387-.157.222-.585.061-.814-.086-.104-.067.143-.201.214-.301h0z"></path>
            <path d="M84.124 68.508c.244.732-1.046.524-1.46.557-.231.018-.535.306-.686.128-.79-.932 1.554-.685 2.146-.685h0z"></path>
            <path d="M89.745 66.923c.171.2.618.358.514.6-.093.217-.49-.12-.643-.3-.071-.083.086-.2.129-.3z"></path>
            <path d="M90.689 69.793c1.671-.668 1.704.972.557.514-.235-.094-.371-.343-.557-.514z"></path>
            <path d="M93.091 70.95l.344.128-.344-.128z"></path>
          </g>
          <g>
            <path d="M107.508 80.445c.414.138 1.181.507 1.46.776.193.187.177.52.342.733.205.264.613.292.858.518.057.052-.445.066-.515.043a5.84 5.84 0 01-.772-.302c-.414-.208-1.48-1.334-1.373-1.768h0z"></path>
            <path d="M114.588 86.754l-.043.217.043-.217z"></path>
            <path d="M111.97 85.887v0z"></path>
            <path d="M105.577 81.393l.344.345-.344-.345z"></path>
            <path d="M107.723 82.99c.2.173.5.274.6.518.061.15-.057.47-.214.432-.786-.186-.519-.595-.386-.95h0z"></path>
            <path d="M112.614 82.86c.097.037.684.137.73.173.593.465-.035.342.858.778.654.32 2.264.67 2.102 1.73-.01.072-.153-.004-.214-.043-.399-.256-.493-.517-.987-.693-1.259-.448-1.708-.977-2.489-1.945h0z"></path>
            <path d="M110.168 83.984c.106.243 1.177 1.438.944 1.6-.854.597-.933-1.425-.944-1.6z"></path>
            <path d="M115.79 87.318c1.006.8.809.14 1.759.477.4.141 1.766 1.302.643 1.302-1.77 0 .432-.061-.815-.304-1.04-.202-2.26.453-1.588-1.475z"></path>
            <path d="M116.948 86.667c.114.101.465.211.343.304-.144.109-.38-.054-.515-.174-.053-.047.115-.087.172-.13h0z"></path>
            <path d="M118.407 84.892c1.279.644.39.924.558 1.299.097.217.425.227.6.39.15.139.518 1.392.558 1.735.01.083-.16-.067-.214-.13-.122-.144-.183-.331-.3-.478-.071-.088-.176-.141-.258-.217-.43-.396-1.877-2.39-.944-2.6h0z"></path>
            <path d="M121.625 88.533l.043.304-.043-.304z"></path>
            <path d="M119.952 89.793c.497.063.778.504 1.244.566.27.035.58-.051.815.087.458.268.218.609.343.958.018.049.178.104.129.087-.456-.154-1.353-.137-1.76-.566-.17-.18-.117-.492-.257-.697-.126-.185-.343-.29-.514-.435h0z"></path>
            <path d="M116.605 93.105l.558.284c.185.095.379.177.557.285 1.155.7-1.414-.264-1.115-.569z"></path>
            <path d="M105.148 82.3l.129.129-.129-.13z"></path>
            <path d="M102.917 77.432c.043 0 .088-.013.13 0 .275.088.552.176.814.3.213.102.225.644.343.818.451.663 2.444 1.395 1.845 2.412-.301.513-1.22.095-1.501-.172-.163-.155-.37-.302-.43-.517-.05-.185.179-.375.13-.56-.017-.06-1.331-.289-1.331-2.281h0z"></path>
            <path d="M102.703 76.357c.207.327.228 1.5.042 1.16-.146-.268-.309-.894-.042-1.16z"></path>
          </g>
        </g>
        <g>
          <g strokeWidth="0.081">
            <path d="M-4.152 129.786l.042-.283-.042.284z"></path>
            <path d="M36.565 149.316v-14.995h0V102.18h-.481l-.156-.168-.325-.073-.493.073.325.252.084.325-.325-.409.24.409-.083-.084-.085.168-.156-.168-.084.336-.168-.42-.157.252.409 1.142h-.168l-.084-.408-.41-.41v.662l-.24.24.156-.324-.156-.253.156-.072-.084-.493.253-.577h-.169l.337-.084-.168-.24.168-.085-.577-.409-.084.169-.734-1.155-.577-.324-.084-.325-.24-.084.084.24-.253-.24-.168.156v-.156l-.157.156-.168-.409-.493-.156v.156l-.325-.072.169.409.324.156-.144-.012-.433-.072.084.253-.168.168-.072-.168-.084.493-.253-.493-.156.084.156-.41-.493.326-.072.168.156.156-.324.169-.084-.41h-.157l.157-.168h-.157l.157-.168-.241.168-.253-.084v.169l-.072-.169v.169l.481.24-.324.253.084.24-.24.168.156.325h-.325v.409l-.253-.24.085-.325-.325.072v-.24l-.24.649.072-.734.168-.24-.325-.169v.902l-.252-.084-.157.325-.084-.24-.168.168.084-.337-.325.337.157.072-.493.252.252.325h.24l-.324.252.493.157.084-.157.157.073-.325.336.409.157h-.41l-.155-.24-.337.24-.24-.566-.169.073.084.336-.493.072.169.085-.085.252.493-.337-.493.421.169.157.409-.24v.156h.156l-.24.252.492.409-.408-.325-.169.157-.168-.325-.325-.084v-.169l-.24.169-.169.324-.084-.156-.084.24-.325-.084.085.085-.325.252.156.072-.24.084.324.902.085-.144v.06l.168-.24-.144.132.216-.385.253-.156-.169.156h.253l-.337.253-.072.577h.156l-.324.156.168.084-.168.084-.169-.408-.156.733.565-.084.325.168-.734.084-.156-.168-.168.168.144.085-.385.072.24-.072-.24-.085-.252-.324-.566-.253.24.253h-.167l.168.24-.325-.24v.072l-.409-.156h.157l-.085-.169h.169l-.325-.168v.168l-.252-.084.084.168-.157-.168.157.253-.157.084.325.072.084.168-.252-.084.252.168h-.577l.409.24h-.565l.156.253.084-.168.24.084-.324.24.577.17.157.492.336-.168v-.157l.157.073-.41.408.17.169-.253-.084.42.745-.745-.745-.24.084.324.577-.168-.084-.157.409v.409l-.493-.494-.252-.817-.325-.24v-.662h-.24l-.253-.24.084-.337.253-.072-.168-.253-.253.084-.48.818.24.252-.662-.084-.072.24.156.325-.324-.156v.156l-.325.085-.252.336.168.072-.409.337-.084.734.24.577-.156.565.577.084v.325l-1.154.83-.325.072-.252.336.168.24-.409.085.084.325-.408.745-.987 1.227-2.296.986-.577.072h-.566l-.252.168-.325.24-.24-.24-.746-.168.084.168v.085l-.084-.085-.156-.084-.084.084-.578.734-1.72.337v-.169l-.648.41.072.167h-.24l-.17.325-.408.084v-.084l-.65.325-.492-.24-.084-.253-.578.336-.24-.084-.169-.084.253-.409h-.168l-.41.493.085.084h-.168l-.818.41-.253-.17-.072.41-.661.324-.24.493-.41.085-.408.661-1.563.409-.65.409-.084.493-.168.072-.169-.072.084.324-.24.41.156.168-.156-.085.084.157-.337.409-.156-.24-.409.24.157-.566-.157.157-.084-.565.325-.986-.577.168-.818 1.96.409 1.07-.157.493.085.974-.83 1.155-.156 1.467.649 1.07-.084.168.168.65.325.252.902 1.804.252.072.084.409h-.252l.084.902-.409.493-.409-.65-.084-.902v.41l-.409.324.084-.902-.66-1.058-.241.65.156.168v-.337l.252 1.238.818.65-.084.745-.493.24-.084-.576-.072.493-.169-.986-.084.493-.325-1.311.085 1.07-.253-.168v-.902l-.072.661-.337-.252 2.129 3.114.493 1.31-.157.41.157.83.901 1.058.253.493-.084.324.733.986.337 1.155-.084 1.467v.168l.24 1.31 1.636 3.44.084 1.226.409-.24v.156l-.41.084.085.41-.168.252.084.577-.325.65.24 1.887-.89 1.058h-.42l-.481-.324v1.72l.325.901.084-.156.48-.084.903.493.745 1.142.986.325.072-.24.337.24h-.409l.65.408.252-.24.481.24 1.155-.156.649.409.168-.337.734.253.168-.084-.409-.169.169-.324.156-.085-.084.337h.661l-.084-.252.577-.085.084-.493.734-.324.084-.325.409-.168-.169-.157 1.07.325.085-.325.325.085v-.337l.408.084-.324-.325 1.142-1.07h.24l1.07.169.41-.325 2.056-.253 1.058.325.577-.24.325.577h.409l.168-.337.565.168.084-.24 1.07-.084.241.156.084.337.577-.41.41.157 1.142-1.142.336-1.31.325-.338 1.48-.48 2.945-1.732.65-.156 1.238.156 1.383-.072 2.633-.818 1.78-.89zm-10.233-43.12l-.409.168-.144-.157.144.072.409-.084zm-30.23 26.468l-.656-1.475v.82l.655 1.065v-.41z"></path>
            <path d="M1.468 118.305l.386-.504-.386.504z"></path>
            <path d="M-4.324 130.638l.128-.662-.128.662z"></path>
          </g>
          <g strokeWidth="0.081">
            <path d="M56.043 93.01l.3-.48c.988-1.58-.157.77-.3.48z"></path>
            <path d="M40.926 93.985l.82.492.82-.492.245-.41.246.082v-.327l.246-.082-.328-.492h-.328l-.081-.246-.246.328.164.41-.246-.574-.082.246-.164-.081v.491l-.082-.41h-.082l-.246-.081-.491.164.327.491-.327-.164-.082-.41-.164.164.082.082h-.082V92.757l-.574-.328.202 1.076-.284.071.164-.164-.164.082.164-.328-.164-.327-.573.41.328.163h-.164v.328l.081.055v.191l-.081-.246-.082.164-.246-.164v.328h-.164l1.557.164.081-.247z"></path>
            <path d="M36.565 102.179v32.142h22.92v-28.15l-.29-.385-.817-.252-1.07-.734-.24.085.083.168-.408-.168-.253.084v-.337l-.902-.409-.324-.65-1.311-.817-.084.084v-.168l-.24.084-.41-.409-.168-.577.493-.168.409-.974.493-.253.084-.493.409-.902-.337.253-.156-.084-.084-.734.168.072.156-.156-.24-.084.084-.24.24-.169.085.24.24-.48.084.408.085-.408.24.072.084-.24.169.408-.169.24.325-.156.252-.493-.252-.252.493.084-.493-.565.168.072.084-.157.169.241-.084-.325h.24l.168-.409-.084-.252h.169v.252l.493-.577-.493-.493-.253.169.168.156h-.252l-.325-.734h-.168l.252-.324-.986.733.578.169-.253.493-.24.156-.325-.072-.168.156v-.24h-.169l.253-.41-.253.073-.072-.156.325-.41-.662.325-.084.253-.24-.168.661-.734-.902.481-.084-.156-.409.084-.409.24.325.169-.493-.084.168.24-.986-.409-.252-.565-.325.409-.986-.253-.24.493.168-.408-.168-.325-.169.084-.084-.252-.325.252-.24-.252.24-.24-.324-.085-.734.409.072-.325-.156.156-.168-.24-.24.156.071-.24-.48.084-.578-.986h-.168l.084.252-.168-.084-.41.325-.564-.818-.169.24-.084-.492-.24.168.084.24-.421-.408.084.493.168.084-.168.252-.156-.577-.337-.252v.336l-.409-.084.084.157-.156.168.409-.084.072.168-.072.084.325.084.084.24.324-.167.734-.073v.157h.168l-.168.084.252.084h-.168l.168.084-.168.072h.493l-.409.41.325.252-.156.084-.085.493.41.156-.566-.156-.252.156-.085.493-.156-.409-.252.169-.085-.253-.408.41-.41-.241-1.142.156-.324-.24-.084-.41-.169.494-.65-.169.157.577-.409-.084-.156.169.409.324-.337-.084.157.253-.157.156-.156-.325v.084l-.168.085.084-.421-.493-.072.084.565h-.168l.493.252h-.241v.157l-.409-.41-.252.085.084.168-.169-.168v.577l-.565.156v.578l.481.577-.156-.084-.661.493-.24-.084v-.157l-.253.157-.073.733.157-.072-.325.24.084.41-.252.168-.157-.169.157.41-.157-.157-.168.324-.084-.252-.325.577v.253l.24.24.17-.168v.252l.324-.084.084.168.325-.168-.073.168-.408.241h.24v.168h-.084l.06.109.06.024.205-.133-.073.24.566-.324v.24h-.325l.168.169-.252-.084h-.493l.168.324-.168-.156.084.577-.24.072-.253-.565-.24-.084.084.409-.337-.493.084.168h-.24l.156.24-.156.17.24.083h-.24l-.085.325v-.253l-.168.337.168-.409-.084-.084-.168-.168v-.325l-.156.24v-.324h-.265z"></path>
            <path d="M55.84 100.377l.574.328h.737l-.081-.41-.083.164-.409-.082v-.327l.246-.082-.082-.246.41-.328-.247-.164v.246h-.327l-.082-.328.082-.163-.41.081.164.246-.573.164v.41l.082.328-.247.327.247-.164z"></path>
          </g>
          <g strokeWidth="0.081">
            <path d="M71.57 91.2l-.325.084-.253.494-.48.156.071.409-.24 1.07h-.084l-.085.577h.253l-.325.072-.084.493.156.253.169-.169-.169.253-.156-.084-.084.324-.084-.577-.41.662.241.084h-.24l-.325.817h.24l-.084-.324.253.072-.168.084.324.253h.421l-.42.156.42.168-.168.084.084.41-.337-.578-.156.409-.409.325.24.745-.084.24.169-.083-.084.084.168.084H69.2l-.42 1.226.42.902-.252.818.324 1.479-.493 1.31-.24.987.168.409-.577 1.635-.661.818-.157 1.07-.745.577-1.383.325-.168-.084-.493-.325-.577-.084-.325-.41-.577-.252-.157-.733-.324-.325-1.07-.325-1.311-.168-.698-.926v28.15h7.985v6.518l20.442.024.337-.18-.024-.205.276-.024.036-.433.421.036.3-.457.217-.012.505.156.493.085.553-.193.35-.036.083.205.277-.024.288.108.229.12.625.012.433.096.253.325.156.192.168.265.024.276.18.41.265-.17.12-.216.253-.312.253-.3.156.264.3.108.397-.18.048-.217.253-.3-.277.024-.108-.41.036-.288.349-.036.42-.036.253-.24.337-.241.36.108.313.313.397-.18.361.108.216-.024.193-.085.204-.156.349.036.373-.012.012-.168-.325-.325-.228-.986-.18-.733-.241-.337-.253.168.169-.252-.337-.157.252-.252-.252-.24.337-.169-.253-.24v-.253l.409.493-.24-.733-.085.24.169-.65-.169-.107.084-.71h-.168l.337-1.31h-.169l-.168-.337-.156.493.072-.41h-.24l.168-.155-.337-.253v-.493l.253-.24-.493.156.408-.157-.084-.408-.902-.253.253-.156-.493-.577.084-.325-.253-.168-.084.168.084-.253-.493-.24v.084l-.408-.409-.41-1.07-.324-.084.084-.325-.168.24v-.24l-.24-.084.156.325-.325-.157v.157l-.325-.157v.157l-1.07-1.467-.24.324-.337-.493.168-.084-.24-.493.156-.156-.24-.902h.156l.084-.661-.156-.41v.253l-.168-.084-.169-.325.253.085.084-.085-.253-.408v.324l-.084-.324-.156-.085-.084.24.24.41-.156-.072.156.408-1.142-.83-.409-.649-.084.169-.24.409.24.565.168.336-.168-.168-.493-.577-.493.577.252-.577h-.336l.168-.084-.084-.157-.325.085.325-.169-.493-1.142.168-.902-.084.156-.325-.324-.084.168v-.746l-.325.169.085-.253h-.085l.157-.409-.325-.324-.24.168.072-.325h-.565l-.085-.252.169-.084-.41-.24.073-.17-.24-.24.24-.084-.156-.168.24.084.084-.168.41.336-.494-.817-.156.072v-.24h-.253l-.084-.325h-.324v.324l-.241-.084-.337-.324.085-.085v-.084l-.41-.24-.492.084-.157-.577h-.252l.168.409-.337-.085-.48-.493.324.169-.493-1.07v.336l-.733.072-.337-.733-.072.324h-.253l-.24-.324-.83-.325-.481-.577.156-.902h-.324l-.578-.986.41-1.395h-.157v-.65l-.493-.901.156-.409-.409.084-.974-1.31v-.41h.157v-.576l-.325-.41-.084-.901-.325-.325.41-.493v-.084l-.253.084-.073-.409.325-.409h-.168l-.157-.336-.493-.072-.336-.493-.565-.169-.41-1.07-.492.409-.325-.156-.168.493-.493.24-.41-.325-.24-1.07-.42-.65.168-.817-.24-.817.071-.746-.48.168.24-.745-.493-.325v-.325l-.409-.084-.084-.577.493-.409-.409-.156-.325.084-.252-.252v-1.227l-.325-.986h-.24l-.169-.325v.157l-.324.168.409-.661-.085-.073-.084-.084z"></path>
            <path d="M98.78 129.223l.328.492-.656.737h.164l-.164.574-.163.41.327.573.738-2.213-.164-.328v-.573l-.41.328z"></path>
            <path d="M63.38 106.851l.245.082.246-.492.082.246.327-.082-.409-.41-.656.246-.409.41.41.246.164-.246z"></path>
            <path d="M70.893 89.961a169.632 169.632 0 000 0z"></path>
            <path d="M70.55 89.744v-.348.348z"></path>
          </g>
          <g
            strokeWidth="0.21"
            transform="matrix(.3848 0 0 .3848 -7.244 89.166)"
          >
            <path d="M194.162 207.787V117.35h-20.75 0-59.562v38.969l.469-.25 6.593-.656 1.063-.22 4.281.438 2.344-1.281 4.031 2.125 3 2.344h1.906l-.218-.406.437-.22h1.469l2.563 2.126h2.562l-.656-.625.437-.219.438.406.406-.625 2.344 2.344-.625.219v1.062l1.281-.656.844.219.844 1.719-.626.843.22-.656h-1.063l.406.875-.406.625.844.219-.438.625 1.281 1.281-.406-1.281.625 1.281.625-.406 1.281.844-.625-.626 1.063.188-.438.438 1.281 1.718v1.25l2.344 2.156 1.281 5.75.22-.656.218.656.406.188-.844.219-.437-.844.219-.219-.844-.219v-.406l-.656 1.281.875-.437 2.562 3.188 1.063-.626 1.062 1.282.406-2.344-1.468.625.625-.438.219-1.687.843-.438.438.438v-1.5l3.187-3.625 2.563-1.281-.656.219.437-.844.438.437 1.468-.437 1.5-4.25 1.281-1.5.844.437v-4.281l1.063 2.344.219 1.937.624.625-1.687 1.5 1.281 2.344-2.562 2.563-.625 1.906-.438.219.438 1.28-.656 1.25.437-.187.219 1.25-.438 2.563-.437.437-2.531-.656-1.094 3.219 2.156-.219 1.688-1.281 1.5.625.843-.406-.437-.438 1.062-2.344.219-2.125 1.281-2.969 3 5.157.188.375-.406.219-.22-.657-.218 4.688-2.344 2.125 3 .219 1.25-1.063 1.094.219 3.188 2.531-3.188-2.313 2.75 2.125 1.813 2.344-1.376-2.125 1.063.844 1.281 2.781-.562-.875 1.625 4.281-.219 1.063-1.063 1.063.844 1.28-.406.626 1.688 2.344 2.468 3.312.094.313 1.281 1.062 2.531.188z"></path>
            <path d="M172.887 189.499l.213-1.066h-1.492l.427-1.277-7.028 1.49-.426 1.065 1.279 1.491 1.917-.213 1.49-.426 1.703.852.852-.639.213-.853h2.769l.425-.851-1.491-.639-.851 1.066z"></path>
          </g>
          <g strokeWidth="0.081">
            <path d="M97.146 139.035l-.337.24-.252.241-.421.036-.349.036-.036.289.108.409.277-.024-.253.3-.048.217-.397.18-.3-.108-.156-.265-.253.3-.253.313-.12.217-.264.168-.18-.409-.025-.276-.168-.265-.156-.192-.253-.325-.433-.096-.625-.012-.229-.12-.288-.108-.277.024-.084-.205-.349.036-.553.193-.493-.085-.505-.156-.216.012-.3.457-.422-.036-.036.433-.276.024.024.204-.337.18-20.442-.023v17.352l.024.084.433-.072.71.336.396-.276.673.108.818.096.661.553.193.782.42.373.013-.373.409-.205.372.085.662.048.385.156.24 1.058.553.794.433.012.625.264.758.686.144.493.493.36.625.265.506-.072-.097-.565.193-.253.276-.036.325.169.71-.109.553.277.348-.048.47.216.456.084.253-.264.336-.12.41.228.745.18.565-.156.409-.132.288-.048.277-.108.349-.133.54.289-.071.445.216.469.277.397.132.42-.06.518 3.15 1.563.662.048.276.252h.253l-.06.169.048.036.42-.205-.084-.661.169-.084h.168l-.168-.409-.325-.084.156-.325-.156-.409.156.084.169-.577.324-1.31-.084-.818.169-.493h-.169l.41-.325-.241-.324.324.072.662-1.552.565-.168-.24-.493.24-.072v.325l.168-.085-.168-.493-.156.085.084-.169-.337-.072.577-.252.169-.578-.169-.24.253-.084v-.577l.65-.65-.241-.084.408-.084-.493-.156.566-.085.084-.408-.24.156-.17-.156.253.084-.084-.253.24.169.085-.662v-.084l-.168.168v-.24l-.073.072-.084-.24.24.168.085-.409v.325l.325-.169.084-.409-.157-.156h.325l.24-.661-.24.324-.084-.324h.24v-.325l.085.325.336-.577-.084-.157h.156v.24l.986-.576-.324-.073-.325.24-.084-.083.156-.157-.072-.168.325.168.24-.168.084.168.325-.493.577-.336.084-.65-.252-.084v.169l-.325-.169H97.218l.084-.577.578-.481.733-2.38-.084-1.636.577-1.48.084-.252.24-1.383-.24-.168.24.084-.071-.325.649-1.238h-.168l.168-.072.084-.662-.252-.324.072-.734-.373.012-.349-.036-.204.156-.193.085-.216.024-.36-.108-.398.18-.312-.313-.361-.108zm-9.752 21.645c.176-.007.363.02.529.096.142.065.19.161.18.264-.009.103-.086.212-.168.337-.164.25-.385.527-.373.77-.03.133-.168.42-.36.457-.097.018-.212-.027-.325-.18-.114-.155-.234-.417-.349-.842a.616.616 0 01.18-.638c.169-.157.422-.254.686-.264z"></path>
            <path d="M87.398 160.677c.176-.007.357.022.523.098.142.066.188.159.18.262-.01.103-.082.218-.164.343-.164.25-.388.526-.376.768-.03.133-.167.42-.36.457-.096.019-.213-.025-.326-.18-.114-.153-.228-.424-.343-.849a.616.616 0 01.18-.637c.168-.157.422-.251.686-.262z"></path>
          </g>
          <path
            strokeWidth="0.081"
            d="M90.172 167.57l-.24-.24h.071l-.276-.253-.662-.048-3.15-1.563.06-.518-.132-.42-.277-.397-.216-.47.072-.444-.541-.289-.349.133-.277.108-.288.048-.409.132-.565.156-.746-.18-.409-.228-.336.12-.253.264-.457-.084-.469-.216-.348.048-.554-.277-.709.109-.325-.169-.276.036-.193.253.097.565-.506.072-.625-.264-.493-.361-.144-.493-.758-.686-.625-.264-.433-.012-.553-.794-.24-1.058-.385-.156-.662-.048-.372-.085-.41.205-.011.373-.421-.373-.193-.782-.66-.553-.819-.096-.673-.108-.397.276-.71-.336-.432.072-.024-.084v10.93l.168.012.902.734v.408l.253-.084.24.169.493-.578.986.493.65-.168 3.03 1.648 1.238-1.227.974-.661h.577l.169-.493-.577.168-.325-.253h.409l1.058-.817.493.986-.493.65-.734-.157.734.65.493-.326.252.085.073-.662h.577l.168.493-.325.084-.084.493.565.41.578-.085.084.168-.24-.084.408.734.325-.24.325.168-.085-.253.337.662.409.408.156-1.07-.493.325-.156-.65h.818l.974-.324 1.563-1.648 1.07-.649-1.31.565.733-.48-.024-.037-.217-.216.565.168.662-.252-.084.168 3.607-.325.734-.661z"
          ></path>
          <g strokeWidth="0.081">
            <path d="M83.827 173.95c0-.036-.023-.08 0-.11.1-.13 0 .11 0 .11z"></path>
            <path d="M75.18 174.13l-.246.492.082.983v.328l.163.163.493-.491-.082-1.147-.41-.328z"></path>
            <path d="M85.26 175.277v.328l.327.328.246.573.655-.246-.163-.41-.165.164.165-.41.081-.163h-.328l-.655-.82-.492.574.329.082z"></path>
            <path d="M84.767 185.602l-.163.492.327.082-.164.164.246.327.247-.081v-.328l.327.41-.164-.738-.41.082-.246-.41zm1.64-4.59l-.164-.49.245-.656-.245-.246.245-.656-.655-.819-.41-.082-.163.492-.493-.246-.573.655-.41-.246-.41.329-.327-.164-.574.245.41.41-.083.164-.491-.574-.41.328.082.328-.163-.41-.738.164-1.885-1.147h-.492l-.164-.41v.328l-.327-.082v.164l-1.147-.574.082.656-.246.491.327 1.394.574.82-.164.163.82 1.065v.738l.245-.246.41.737h.164l-.164.574-.082-.491-.737-.656.245 1.475.246.082.41 1.229.41.164.41.901h.246l-.165-.082.165-.328.164.492h.655l-.082.164-.573-.164v.246l-.164-.082.245.656.574-.246.9.164-.08-.246.327.573h.491l.329-.491-.247-.246.329.082.082-.328-.246-.082.328-.164-.328-.409.082-.164v.245l.164.164.082-.245v.245l.327.164.082-.901.247.082v-.492l-.411-.655.574.737.164-.082-.164.492.328-.246-.082-.41.246-.081-.41-.246.41.081.163.41.328-.082.41-.737-.245-.41.327-.164.082-.655-.246.081.41-.819h.245l-.245-.082.327-.492-.163.492.41.164v.492l.164-.246-.246-.574.081-1.475z"></path>
            <path d="M85.587 176.998h.82l.081.246.328-.246-.328-.41-.901.41z"></path>
          </g>
        </g>
        <g strokeWidth="0.081">
          <g>
            <path d="M172.83 172.575c.158-.019.376-.181.473-.056.085.111-.204.205-.258.334-.255.605-.248 1.278-.858 1.676-.21.138-.05.512-.172.731-.105.189-.4.211-.515.395-.722 1.159-.877 2.106-2.06 2.893-.316.211-.804.905-.986.572-1.595-2.922 1.878 1.961-.944-.686-.154-.144.255-.5.086-.627-.209-.155-.725.369-.773.114-.055-.292.5-.338.687-.569.305-.377 1.132-2.506 1.244-3.047.028-.134-.272.341-.343.224-.293-.478-.302-1.12-.987-1.342-.237-.077-.518-.035-.73-.167-.253-.159-.342-.515-.6-.668-.38-.226-1.166-.03-1.33-.666-.388-1.5 1.447-1.097 2.016-1.93.284-.417.123-2.144.3-2.352.131-.153.441.067.601-.055.173-.13-.962.157-.386-.814.092-.155.355-.082.515-.163.03-.015-.079-.021-.086-.054-.101-.513-.024.365-.257-.054-.184-.331-.373-.704-.343-1.08.015-.19.349-.302.3-.486-.037-.138-.326.1-.43 0-.182-.175-.514-.563-.3-.698.094-.06.887 1.7 1.03 0 .08-.946-1.156-.106-1.158-.107-.402-.228-.283-.885-.515-1.284-.103-.176-.495-.593-.3-.533.289.09.34.64.643.64.214 0 .127-.443.043-.64-.078-.184-.472-.172-.472-.372 0-.264.557-.386.472-.637-.433-1.286-.742 1.436-1.373-.9-.014-.052.064.108.043.159-.122.3-.052.352.172.688.159.239.793.621.515.69-.201.05-2.005-2.295-2.06-2.485-.094-.326.806-1.087.644-.789-.93 1.709-.563.335-.859-.053-.087-.114-.382.084-.429-.052-.103-.298.135-.63.086-.942-.06-.378-1.399-1.637-1.244-1.77.238-.206.692-.188.944 0 .151.113-.343.231-.386.415-.03.123.088.312.214.312.108 0 .006-.385.086-.312.226.206.245.562.386.834.102.195-.006.644.215.626.267-.022.166-.626.429-.679.19-.038-.07.459.086.574.623.463 1.185-.406 1.759.575.106.181-.207.59 0 .63.251.047.324-.421.558-.525.032-.014-.172.341-.043.42.036.022.092-.023.128 0 .29.176.06.68.172.999.08.226.454.42.343.633-.098.19-.428-.054-.643-.054-.159 0 .378-.074.472.054.095.13-.138.323-.086.475.036.107.23.071.3.16.247.304.53.595.687.954.045.105-.284-.098-.344 0-.075.124.14.291.086.426-.034.084-.133-.296-.171-.213-.082.177.01.39 0 .585-.018.322-.196.66-.086.962.064.175.338.273.515.214.141-.047-.02-.41.128-.428.277-.033.586.115.773.321.218.241.122.674.343.912.138.15.4.075.6.108.015.002.048.014.044 0-.045-.148-.128-.282-.172-.43-.393-1.334-.043-.575-.043-1.071 0-.091-.134-.13-.171-.214-.108-.24-.326-.493-.258-.746.038-.143.344-.014.429.106.16.226.057.574.215.8.383.549.73.155.73.75 0 .279.14.748.256 1.505.028.178-.096.388 0 .54.126.196.644.502.644.27 0-.1-.113-.171-.129-.27-.017-.11.162.159.258.216.87.517 2.07 1.205 3.003.868.719-.26.472-1.125 1.33-1.354.104-.028 1.658.05 1.503.54-.114.357-.44.621-.559.977-.14.423.095 1.177-.128 1.69-.113.26-.356.46-.6.602-.101.059-.247-.117-.344-.054-.066.042.086.14.086.219 0 .356-.204.69-.215 1.046-.006.186.273.552.086.552-.193 0-.061-.394-.171-.552-.471-.673-2.316.374-2.446 1.105-.053.293.056.593.085.889h0z"></path>
            <path d="M189.737 188.807c.1-.159.364-.3.3-.476-.09-.25-.576-.217-.643-.474-.113-.428 1.088-.312 1.33.059.545.838-.73 1.606-.987.891h0z"></path>
          </g>
          <g>
            <path d="M165.709 180.63c.186.173.557.264.557.518 0 .382-.357.724-.686.92-.073.045-.237-.083-.258 0-.03.125.222.228.172.347-.346.83-.66.49-.944.985-.28.488-.37 1.184-.73 1.631-.289.361-.815.435-1.158.703-.121.095-.075.344-.214.41-.194.094-.43.012-.644 0-.172-.008-.346-.096-.515-.058-.092.021.164.103.258.118.297.045.63-.072.9.059.108.051.062.295-.042.353-1.04.584-1.183.009-1.974-.353-.543-.249.466.752 1.202.647.261-.037.577-.355.772-.177.191.177-.218.525-.129.769.042.114 1.85-.38.73.948-.092.109-.503-.236-.515-.237-.426-.066-.883.267-1.288.118-.035-.013-1.533-1.29-1.544-1.302-.214-.233-.48-.46-.558-.766-.064-.252 1.141-.94-.343-.94-.17 0 .333.913.3.94-.155.128-.4-.059-.6-.059-.216 0-.517-.115-.644.059-.387.53.272-.092 1.287.176.328.087 1.051 1.058 1.287 1.299.214.219.644.348.644.653 0 .245-.44.222-.644.356-.097.065-.15.284-.257.239-.14-.058-.028-.461-.172-.417-.184.057-.026.496-.214.536-.31.066-.646-.484-.901-.298-.258.188.252.76 0 .954-.724.56-.859-.852-.859-.596 0 1.094.088.078.859.656.188.142-.234.425-.258.66-.055.542.196 1.223-.172 1.626-.262.287-1.756-.648-1.802-.664-.187-.066.297.269.472.362.062.032.105.101.172.12.173.049 1.084.064 1.116.303.039.294-.372.467-.515.727-.33.596-.046.955-.43 1.462-.145.194-.463.31-.471.551-.01.25.332.384.429.615.002.006-1.05.278-1.116.307-.339.15-.142.513-.3.74-.242.35-.716.48-.987.806-.732.881-1.046.997-2.188 1.12-.645.07.01-.171-.43-.437-.11-.067-.257.043-.386.063-.271.042-.597.29-.815.124-.177-.134.035-1.057-.472-1.057-.311 0-.607.352-.9.248-.242-.083-.244-.447-.344-.681-.016-.038.037-.107 0-.124-.174-.077-.37-.155-.558-.123-.622.105.046.23-.214.37-.36.195-1.935.035-1.889-.37.04-.344.662-.401.73-.74.178-.897-1.173 1.397-.858.493.083-.239.72-.407.515-.555-.247-.177-.584.439-.858.308-.223-.107-.083-.495-.043-.738.01-.07 1.541.01 1.373-.369-.256-.574-1.37-.72-.3-1.588.898-.73-.558.732.858.732.232 0-.507-.33-.43-.55.072-.202.7.148.644-.06-.075-.283-.679-.147-.772-.426-.48-1.433.726-.438.9-.606.23-.221.073-.684.301-.906.106-.104.153.466.257.361.157-.157-.138-.536.044-.663.245-.173.7.224.9 0 .17-.191-.304-.47-.257-.722.028-.15 1.067-1.092 1.159-1.197.118-.136.12-.36.257-.476.184-.158.452-.18.686-.238.048-.012.044.093.086.118.064.038.15.095.215.06.285-.155.45-.548.772-.594.208-.03.4.613.472.416.078-.215-.404-.309-.429-.535-.015-.138.23-.158.343-.237.172-.119.31-.322.515-.355.106-.017.108.236.215.236.08 0-.114-.2-.043-.236.287-.151.681-.047.944-.237.102-.073-.145-.23-.129-.355a.404.404 0 01.215-.294c.302-.145 1.2-.049 1.373-.471.086-.21-.502-.424-.344-.587.28-.288 1.064.26 1.202-.117.143-.391-.293-1.695.6-1.228.278.146-.227.935.086.935s-.114-.63-.043-.935c.217-.917 1.154-1.022 1.803-1.509.057-.042-.154-.037-.215 0-.236.144-.4.393-.644.521-.1.054-.315.111-.343 0-.045-.182.166-.34.215-.52.044-.165.343-1.783.386-1.845.09-.13.32.102.472.058.198-.058.383-.186.515-.344.31-.373.547-.808.729-1.258.38-.938-.556-1.06.558-1.985.3-.25.509-.654.944-.733.228-.041.76-.107.686.113-.1.297-.684.132-.858.394-.08.122.556.676.944 1.188.121.16.171.89.386 1.08.125.11 1.309-1.55 2.232-1.307.227.06-.533.078-.644.284-.144.267-.257.748 0 .91 1.537.969.389-1.228 1.373-.967 1.384.367-.826.812-.987.91-.075.045.17.07.258.057.264-.044.509-.282.772-.228.996.204-.505.215-.73.684-.132.276-.057.61-.085.915h0z"></path>
            <path d="M165.047 210.861l-.3.067.3-.067z"></path>
            <path d="M149.447 198.993c.014-.042.087-.125.043-.125-.051 0-.07.077-.086.125-.005.014.029 0 .043 0z"></path>
            <path d="M146.958 194.662l-.6.368.6-.368z"></path>
            <path d="M150.219 198.68c.172.23.541.403.515.689-.02.215-.67.046-.6.25.084.246.772-.135.772.126 0 .377-1.557.934-1.931 1.007-.175.034.22-.283.3-.442.258-.504.601-1.085.944-1.63h0z"></path>
          </g>
        </g>
      </g>
    </svg>